<svg t="1695816714607" class="icon" viewBox="0 0 1105 1024" version="1.1" xmlns="http://www.w3.org/2000/svg" p-id="9162"
    width="64" height="64">
    <path
        d="M1105.829941 959.086308a61.926477 61.926477 0 0 0-18.799109-44.970418l-89.572225-89.572225a63.400917 63.400917 0 1 0-88.097785 91.046665l89.572225 89.940836a63.032307 63.032307 0 0 0 44.970418 18.430499 64.506747 64.506747 0 0 0 44.970417-18.430499 61.926477 61.926477 0 0 0 16.956059-46.444858z"
        fill="#00a76f" p-id="9163"></path>
    <path
        d="M25.434089 584.947178a25.065479 25.065479 0 0 1-25.434089-24.328259 26.171309 26.171309 0 0 1 25.434089-25.802698H140.071793l112.794654-190.20275a25.434089 25.434089 0 0 1 34.649338-9.21525 23.591039 23.591039 0 0 1 9.215249 8.84664l110.582994 176.19557 54.922887-57.503157a25.434089 25.434089 0 0 1 36.860998 0 22.853819 22.853819 0 0 1 5.52915 8.10942l63.769527 128.276273 78.882536-331.748982a25.434089 25.434089 0 0 1 30.963238-18.799109 23.959649 23.959649 0 0 1 12.164129 7.003589l116.112144 117.586584a26.060726 26.060726 0 0 1-36.860998 36.860998l-83.674465-84.411685-84.780296 356.814461a22.853819 22.853819 0 0 1-13.638569 16.956059 24.696869 24.696869 0 0 1-33.174898-9.21525v-1.84305l-78.882536-159.976731-51.974008 53.817057a15.850229 15.850229 0 0 1-5.897759 5.16054 25.802699 25.802699 0 0 1-36.860998-8.10942l-105.422455-172.509471-98.418864 165.137272a23.959649 23.959649 0 0 1-22.485209 13.638569z"
        fill="#00a76f" p-id="9164"></path>
    <path
        d="M583.140989 1.437579a462.605525 462.605525 0 0 0-396.255729 170.666421 32.437678 32.437678 0 0 0 25.802699 52.711227 32.806288 32.806288 0 0 0 25.434088-12.532739c8.47803-10.321079 17.693279-20.273549 27.277139-30.226019a399.941829 399.941829 0 0 1 565.0791 0A399.573219 399.573219 0 1 1 265.399186 747.135569c-9.583859-9.952469-18.799109-19.904939-27.277139-30.594628a32.806288 32.806288 0 0 0-25.434088-12.532739 32.437678 32.437678 0 0 0-25.802699 52.711227c10.321079 12.532739 21.010769 24.696869 32.437678 36.860998A464.448575 464.448575 0 1 0 583.140989 1.437579z"
        fill="#00a76f" p-id="9165"></path>
</svg>