<svg t="1731336182906" class="icon" viewBox="0 0 1024 1024" version="1.1" xmlns="http://www.w3.org/2000/svg"
    p-id="87493" width="200" height="200">
    <path
        d="M158.446933 675.157333l317.201067-179.985066c29.184-16.554667 76.526933-16.554667 105.745067 0l317.201066 179.985066c29.218133 16.554667 29.218133 43.4176 0 60.0064l-317.201066 179.985067c-29.218133 16.554667-76.561067 16.554667-105.745067 0l-317.201067-179.985067c-29.218133-16.5888-29.218133-43.451733 0-60.0064z"
        fill="#9CD9AE" p-id="87494" data-spm-anchor-id="a313x.search_index.0.i76.4f803a81GzHQyW" class=""></path>
    <path
        d="M158.446933 485.000533l317.201067-180.0192c29.184-16.554667 76.526933-16.554667 105.745067 0l317.201066 180.0192c29.218133 16.554667 29.218133 43.4176 0 59.972267l-317.201066 180.0192c-29.218133 16.554667-76.561067 16.554667-105.745067 0l-317.201067-180.0192c-29.218133-16.554667-29.218133-43.4176 0-59.972267z"
        fill="#2e8f79" p-id="87495" data-spm-anchor-id="a313x.search_index.0.i78.4f803a81GzHQyW" class="selected">
    </path>
    <path
        d="M158.446933 294.8096l317.201067-179.985067c29.184-16.554667 76.526933-16.554667 105.745067 0l317.201066 179.985067c29.218133 16.5888 29.218133 43.451733 0 60.0064l-317.201066 179.985067c-29.218133 16.5888-76.561067 16.5888-105.745067 0l-317.201067-179.985067c-29.218133-16.554667-29.218133-43.4176 0-60.0064z"
        fill="#9CD9AE" p-id="87496" data-spm-anchor-id="a313x.search_index.0.i75.4f803a81GzHQyW" class=""></path>
</svg>