<!-- <svg t="1731409619496" class="icon" viewBox="0 0 1024 1024" version="1.1" xmlns="http://www.w3.org/2000/svg"
    p-id="33971" data-spm-anchor-id="a313x.search_index.0.i45.43e13a81MrmXsx" width="200" height="200">
    <path d="M307.2 563.2m-307.2 0a307.2 307.2 0 1 0 614.4 0 307.2 307.2 0 1 0-614.4 0Z" fill="#2e8f79" p-id="33972"
        data-spm-anchor-id="a313x.search_index.0.i46.43e13a81MrmXsx" class="selected"></path>
    <path
        d="M676.4544 270.1824a317.5936 317.5936 0 0 0-179.2-3.2256c-152.32 40.8576-251.904 184.32-232.6528 335.36 19.2 151.04 151.1424 262.912 308.48 261.5296 157.3376-1.4336 291.328-115.6608 313.2416-267.0592a29.0816 29.0816 0 0 1 45.7728-18.688 26.7776 26.7776 0 0 1 10.7008 25.4464c-20.992 144.1792-129.2288 263.5264-274.3296 302.4896-180.0192 48.1792-366.6432-39.8336-436.224-205.7728-69.632-165.888-0.7168-358.4 161.1264-449.8944a382.464 382.464 0 0 1 294.7584-34.816l-11.6736 54.6304z"
        fill="#1c293a" p-id="33973" data-spm-anchor-id="a313x.search_index.0.i44.43e13a81MrmXsx" class=""></path>
    <path
        d="M655.7184 262.1952L501.5552 114.944A45.4656 45.4656 0 0 1 501.6576 49.1008l2.7648-2.6112a46.08 46.08 0 0 1 63.5392 0.1024l154.1632 147.2512a45.4656 45.4656 0 0 1-0.1024 65.792l-2.7648 2.6624a46.08 46.08 0 0 1-63.5392-0.1024z"
        fill="#1c293a" p-id="33974" data-spm-anchor-id="a313x.search_index.0.i43.43e13a81MrmXsx" class=""></path>
    <path
        d="M646.656 187.904L492.544 335.1552a45.4656 45.4656 0 0 0 0.1024 65.8432l2.7648 2.6112a46.08 46.08 0 0 0 63.5904-0.0512l154.112-147.3024a45.4656 45.4656 0 0 0-0.0512-65.792l-2.816-2.6624a46.08 46.08 0 0 0-63.5392 0.1024z"
        fill="#1c293a" p-id="33975" data-spm-anchor-id="a313x.search_index.0.i42.43e13a81MrmXsx" class=""></path>
</svg> -->

<svg t="1731409725644" class="icon" viewBox="0 0 1024 1024" version="1.1" xmlns="http://www.w3.org/2000/svg"
    p-id="37638" width="200" height="200">
    <path
        d="M336.888708 337.305392c84.795117-84.795117 214.383723-96.878942 312.512716-36.876501-33.33469 32.918006-71.461241 71.252899-71.461241 71.252899-26.876094 32.084639 3.125127 50.835402 18.542421 50.210377h248.343439c9.375381 0 17.084028-7.708647 17.084028-17.29237V158.339776c1.250051-22.500916-23.542625-44.376806-49.168667-19.167446 0 0-42.293388 41.251679-71.252899 70.002848-149.172737-108.962767-359.597965-96.6706-494.395117 38.126551-78.753204 78.753204-115.421363 183.132452-111.046186 286.053307h127.296847c-4.375178-70.21119 19.792472-142.089115 73.544659-196.049644z"
        fill="#1c293a" p-id="37639" data-spm-anchor-id="a313x.search_index.0.i50.43e13a81MrmXsx" class=""></path>
    <path
        d="M760.655951 490.644964c4.58352 70.419532-19.792472 142.297457-73.544659 196.049644-84.795117 84.795117-214.383723 96.878942-312.512716 36.876501 33.33469-32.918006 71.461241-71.252899 71.461241-71.252899 26.667752-32.292981-3.333469-50.835402-18.542421-50.210377H179.173957c-9.583723 0-17.29237 7.708647-17.29237 17.084029v246.26002c-1.041709 22.500916 23.750966 44.376806 49.168667 19.167447 0 0 42.293388-41.043337 71.461241-70.002849 149.172737 109.171109 359.597965 96.6706 494.186776-38.126551 78.753204-78.544863 115.421363-182.92411 111.046185-286.053306l-127.088505 0.208341z"
        fill="#2e8f79" p-id="37640" data-spm-anchor-id="a313x.search_index.0.i51.43e13a81MrmXsx" class="selected">
    </path>
</svg>