<svg t="1696816771625" class="icon" viewBox="0 0 1024 1024" version="1.1" xmlns="http://www.w3.org/2000/svg"
    p-id="57208" width="64" height="64">
    <path
        d="M897.4 892.4h-72.6c-20.6 0-37.5-16.9-37.5-37.5V608.4c0-20.6 16.9-37.5 37.5-37.5h72.6c20.6 0 37.5 16.9 37.5 37.5V855c0 20.6-16.9 37.4-37.5 37.4z"
        fill="#2e8f79" p-id="57209" data-spm-anchor-id="a313x.search_index.0.i105.5caf3a81aFGzSu" class="selected">
    </path>
    <path
        d="M659.2 892.4h-72.6c-20.6 0-37.5-16.9-37.5-37.5V330.4c0-20.6 16.9-37.5 37.5-37.5h72.6c20.6 0 37.5 16.9 37.5 37.5V855c-0.1 20.6-16.9 37.4-37.5 37.4z"
        fill="#e6e6e6" p-id="57210" data-spm-anchor-id="a313x.search_index.0.i100.5caf3a81aFGzSu" class=""></path>
    <path
        d="M420.9 892.4h-72.6c-20.6 0-37.5-16.9-37.5-37.5V82.7c0-20.6 16.9-37.5 37.5-37.5h72.6c20.6 0 37.5 16.9 37.5 37.5V855c-0.1 20.6-16.9 37.4-37.5 37.4z"
        fill="#2e8f79" p-id="57211" data-spm-anchor-id="a313x.search_index.0.i104.5caf3a81aFGzSu" class="selected">
    </path>
    <path
        d="M182.6 892.4H110c-20.6 0-37.5-16.9-37.5-37.5V506.3c0-20.6 16.9-37.5 37.5-37.5h72.6c20.6 0 37.5 16.9 37.5 37.5V855c0 20.6-16.9 37.4-37.5 37.4z"
        fill="#e6e6e6" p-id="57212" data-spm-anchor-id="a313x.search_index.0.i101.5caf3a81aFGzSu" class=""></path>
    <path d="M0.3 939.7h1022.2v37.5H0.3z" fill="#2e8f79" p-id="57213"
        data-spm-anchor-id="a313x.search_index.0.i106.5caf3a81aFGzSu" class="selected"></path>
</svg>