<svg t="1732255651718" class="icon" viewBox="0 0 1038 1024" version="1.1" xmlns="http://www.w3.org/2000/svg" p-id="20215" width="200" height="200"><path d="M903.709257 0H134.919314C63.341714 0 7.314286 49.795657 7.314286 121.387886V890.148571C7.314286 961.755429 63.341714 1024 134.919314 1024h768.789943c71.5776 0 127.605029-65.360457 127.605029-133.8368V121.387886C1031.314286 49.795657 975.286857 0 903.709257 0z m68.461714 890.1632c0 34.230857-31.114971 74.693486-68.461714 74.693486H134.919314c-34.230857 0-65.360457-40.462629-65.360457-74.693486V121.387886c0-34.230857 31.1296-59.143314 65.360457-59.143315h768.789943c34.230857 0 68.461714 24.897829 68.461714 59.143315V890.148571zM558.226286 385.9456c9.333029-12.448914 9.333029-28.013714 0-40.462629l-155.633372-146.285714c-3.101257-3.115886-9.333029-6.231771-12.434285-6.231771-3.130514 0-6.231771-3.101257-9.362286-3.101257-3.101257 0-6.217143 0-9.3184 3.101257-6.231771 0-9.347657 3.115886-12.448914 6.231771L206.511543 348.598857c-9.333029 12.434286-9.333029 28.013714 0 40.462629 9.333029 12.434286 28.013714 12.434286 40.462628 0l105.823086-105.823086v501.101714c0 12.448914 12.448914 24.897829 24.897829 24.897829s34.230857-12.434286 34.230857-24.897829V280.122514l105.837714 105.823086c9.333029 12.448914 28.013714 12.448914 40.462629 0z m255.210057 270.774857l-90.258286 105.837714V264.557714c0-12.448914-28.013714-24.897829-40.462628-24.897828-12.434286 0-21.796571 12.448914-21.796572 24.897828V765.659429l-112.040228-105.823086c-9.333029-12.434286-28.013714-12.434286-40.462629 0-9.333029 12.448914-9.333029 28.013714 0 40.462628l158.734629 149.4016c3.115886 3.115886 9.347657 6.231771 12.448914 6.231772 3.115886 0 6.231771 3.101257 9.347657 3.101257 3.115886 0 6.217143 0 9.333029-3.101257 6.231771 0 9.333029-3.115886 12.448914-6.231772l136.952686-149.4016c9.333029-12.434286 9.333029-28.013714 0-40.462628-6.231771-12.434286-24.897829-12.434286-34.230858-3.101257z" fill="#707070" p-id="20216"></path></svg>