<svg width="129.966272px" height="150px" viewBox="0 0 129.966272 150" version="1.1" xmlns="http://www.w3.org/2000/svg"
    xmlns:xlink="http://www.w3.org/1999/xlink">
    <g stroke="none" stroke-width="1" fill="none" fill-rule="evenodd">
        <g fill="currentColor" fill-rule="nonzero">
            <path
                d="M125.009454,25 C127.578908,25.0223159 129.713134,26.9885658 129.945537,29.5475858 C130.177941,32.1066057 128.43285,34.4251649 125.909454,34.91 L125.009454,35 L5.00945373,35 C2.41956295,35.0047677 0.254710216,33.0310836 0.0207009993,30.451782 C-0.213308218,27.8724804 1.56099249,25.5414134 4.10945373,25.08 L5.00945373,25 L125.009454,25 Z">
            </path>
            <path
                d="M65.0094537,0 C78.8165725,0 90.0094537,11.1928813 90.0094537,25 C90.0094537,27.7614237 87.7708775,30 85.0094537,30 C82.24803,30 80.0094537,27.7614237 80.0094537,25 C80.0094537,16.7157288 73.293725,10 65.0094537,10 C56.7251825,10 50.0094537,16.7157288 50.0094537,25 C50.0094537,27.7614237 47.7708774,30 45.0094537,30 C42.2480301,30 40.0094537,27.7614237 40.0094537,25 C40.0094537,11.1928813 51.202335,0 65.0094537,0 L65.0094537,0 Z M115.009445,40 C117.424377,39.9991949 119.494768,41.7245206 119.929454,44.1 L120.009445,45 L120.009445,133.88 C120.009445,142.18 114.129454,149.18 106.389454,149.93 L105.009445,150 L25.0094451,150 C17.0694537,150 10.7494537,143.46 10.0694537,135.33 L10.0094451,133.88 L10.0094451,45 C10.004686,42.4101092 11.9783701,40.2452565 14.5576717,40.0112473 C17.1369733,39.777238 19.4680403,41.5515388 19.9294537,44.1 L20.0094451,45 L20.0094451,133.88 C20.0094451,137.02 21.9194537,139.46 24.2294537,139.92 L25.0094451,140 L105.009445,140 C107.379454,140 109.529454,137.87 109.939454,134.9 L110.009445,133.88 L110.009445,45 C110.009445,42.2385763 112.24803,40 115.009445,40 L115.009445,40 Z">
            </path>
            <path
                d="M85.0094537,122.079991 C87.5993445,122.075232 89.7641973,124.048916 89.9982065,126.628218 C90.2322157,129.20752 88.457915,131.538587 85.9094537,132 L85.0094537,132.080009 L45.0094537,132.080009 C42.4195629,132.084768 40.2547102,130.111084 40.020701,127.531782 C39.7866918,124.95248 41.5609925,122.621413 44.1094537,122.16 L45.0094537,122.079991 L85.0094537,122.079991 L85.0094537,122.079991 Z M85.0094537,44.2299997 C87.4243768,44.2291949 89.4947677,45.9545206 89.9294537,48.33 L90.0094537,49.2299997 L90.0094537,109.23 C90.0142215,111.819891 88.0405373,113.984744 85.4612357,114.218753 C82.8819341,114.452762 80.5508671,112.678461 80.0894537,110.13 L80.0094537,109.23 L80.0094537,49.2299997 C80.0094537,46.4685763 82.24803,44.2299997 85.0094537,44.2299997 L85.0094537,44.2299997 Z M45.0094537,44.2299997 C47.4243768,44.2291949 49.4947677,45.9545206 49.9294537,48.33 L50.0094537,49.2299997 L50.0094537,109.23 C50.0142215,111.819891 48.0405373,113.984744 45.4612357,114.218753 C42.8819341,114.452762 40.5508671,112.678461 40.0894537,110.13 L40.0094537,109.23 L40.0094537,49.2299997 C40.0094537,46.4685763 42.24803,44.2299997 45.0094537,44.2299997 L45.0094537,44.2299997 Z">
            </path>
        </g>
    </g>
</svg>