<svg width="200px" height="200px" viewBox="0 0 200 200" version="1.1" xmlns="http://www.w3.org/2000/svg"
    xmlns:xlink="http://www.w3.org/1999/xlink">
    <g stroke="none" stroke-width="1" fill="none" fill-rule="evenodd">
        <path
            d="M166,0 C184.777681,-3.44940413e-15 200,15.2223185 200,34 L200,166 C200,184.777681 184.777681,200 166,200 L34,200 C15.2223185,200 2.29960275e-15,184.777681 0,166 L0,34 C-2.29960275e-15,15.2223185 15.2223185,3.44940413e-15 34,0 L166,0 Z M82,20 L38,20 C28.0588745,20 20,28.0588745 20,38 L20,162 C20,171.941125 28.0588745,180 38,180 L82,180 C91.9411255,180 100,171.941125 100,162 L100,38 C100,28.0588745 91.9411255,20 82,20 Z"
            fill="currentColor" fill-rule="nonzero"></path>
    </g>
</svg>