<svg width="44px" height="44px" viewBox="0 0 44 44" version="1.1" xmlns="http://www.w3.org/2000/svg"
    xmlns:xlink="http://www.w3.org/1999/xlink">
    <g id="页面-1" stroke="none" stroke-width="1" fill="none" fill-rule="evenodd">
        <g id="编组" fill="currentColor" fill-rule="nonzero">
            <path
                d="M35.2352941,28.1764706 L33.4705882,28.1764706 L33.4705882,22.8823529 L22.8823529,22.8823529 L22.8823529,19.3529412 L25.5294118,19.3529412 C26.2314554,19.3529412 26.9047452,19.0740554 27.401165,18.5776356 C27.8975848,18.0812158 28.1764706,17.407926 28.1764706,16.7058824 L28.1764706,9.64705882 C28.1764706,8.94501517 27.8975848,8.2717254 27.401165,7.77530558 C26.9047452,7.27888575 26.2314554,7 25.5294118,7 L18.4705882,7 C17.7685446,7 17.0952548,7.27888575 16.598835,7.77530558 C16.1024152,8.2717254 15.8235294,8.94501517 15.8235294,9.64705882 L15.8235294,16.7058824 C15.8235294,17.407926 16.1024152,18.0812158 16.598835,18.5776356 C17.0952548,19.0740554 17.7685446,19.3529412 18.4705882,19.3529412 L21.1176471,19.3529412 L21.1176471,22.8823529 L10.5294118,22.8823529 L10.5294118,28.1764706 L8.76470588,28.1764706 C7.79008574,28.1764706 7,28.9665563 7,29.9411765 L7,35.2352941 C7,36.2099143 7.79008574,37 8.76470588,37 L14.0588235,37 C15.0334437,37 15.8235294,36.2099143 15.8235294,35.2352941 L15.8235294,29.9411765 C15.8235294,28.9665563 15.0334437,28.1764706 14.0588235,28.1764706 L12.2941176,28.1764706 L12.2941176,24.6470588 L21.1176471,24.6470588 L21.1176471,28.1764706 L19.3529412,28.1764706 C18.378321,28.1764706 17.5882353,28.9665563 17.5882353,29.9411765 L17.5882353,35.2352941 C17.5882353,36.2099143 18.378321,37 19.3529412,37 L24.6470588,37 C25.621679,37 26.4117647,36.2099143 26.4117647,35.2352941 L26.4117647,29.9411765 C26.4117647,29.4731474 26.2258409,29.0242875 25.8948943,28.693341 C25.5639478,28.3623944 25.1150879,28.1764706 24.6470588,28.1764706 L22.8823529,28.1764706 L22.8823529,24.6470588 L31.7058824,24.6470588 L31.7058824,28.1764706 L29.9411765,28.1764706 C28.9665563,28.1764706 28.1764706,28.9665563 28.1764706,29.9411765 L28.1764706,35.2352941 C28.1764706,36.2099143 28.9665563,37 29.9411765,37 L35.2352941,37 C36.2099143,37 37,36.2099143 37,35.2352941 L37,29.9411765 C37,28.9665563 36.2099143,28.1764706 35.2352941,28.1764706 L35.2352941,28.1764706 Z"
                id="路径"></path>
            <path
                d="M0.618178,38.8465 C0.813252,40.73542 2.051742,42.23054 3.909136,42.6261 C6.8409,43.25024 12.36752,44 22,44 C31.63248,44 37.1591,43.25024 40.09104,42.6261 C41.94828,42.23054 43.18688,40.73542 43.3818,38.8465 C43.6711,36.04568 44,30.90318 44,22 C44,13.09671 43.6711,7.95432 43.3818,5.153522 C43.18688,3.264558 41.94828,1.769328 40.09082,1.373922 C37.1591,0.749782 31.63248,0 22,0 C12.36752,0 6.8409,0.749782 3.909136,1.373922 C2.051742,1.769328 0.813252,3.264558 0.618178,5.153522 C0.328944,7.95432 0,13.09671 0,22 C0,30.90318 0.328944,36.04568 0.618178,38.8465 Z"
                id="路径" opacity="0.336007254"></path>
        </g>
    </g>
</svg>