<svg width="24px" height="24px" viewBox="0 0 24 24" version="1.1" xmlns="http://www.w3.org/2000/svg"
    xmlns:xlink="http://www.w3.org/1999/xlink">
    <g id="页面-1" stroke="none" stroke-width="1" fill="none" fill-rule="evenodd">
        <g id="编组" fill="currentColor" fill-rule="nonzero">
            <path
                d="M12,0 C2.976,0 0,2.976 0,12 C0,21.024 2.976,24 12,24 C21.024,24 24,21.024 24,12 C24,2.976 21.024,0 12,0 Z"
                id="路径" opacity="0.344126"></path>
            <path
                d="M7.87237997,15.2274855 C8.24749376,15.5666789 8.25806035,16.1262243 7.89879644,16.4777971 C7.53689088,16.8293699 6.93987879,16.8392734 6.564765,16.5025558 L2.28793946,12.640207 C2.10302421,12.474324 2,12.2440686 2,12.0039097 C2,11.7637509 2.10566586,11.5334955 2.28793946,11.3676125 L6.564765,7.50526372 C6.93987879,7.16607026 7.53689088,7.17597372 7.89879644,7.53002236 C8.260702,7.88159514 8.25013541,8.44114054 7.87237997,8.780334 L4.29823238,12.0039097 L7.87237997,15.2274855 L7.87237997,15.2274855 Z M15.0153919,7.21063582 L10.7385663,17.4409085 C10.5457261,17.8939917 10.001547,18.1168195 9.51812569,17.9385573 C9.03470439,17.760295 8.79431457,17.2502669 8.98187147,16.7947078 L13.2613387,6.56443516 C13.3828544,6.26980727 13.6655106,6.05688291 13.998358,6.00984148 C14.3312055,5.96280005 14.6693362,6.08659328 14.8780263,6.33417975 C15.0867163,6.58176621 15.1395493,6.91600793 15.0153919,7.21063582 Z M21.7119655,12.640207 L17.4324983,16.5025558 C17.0573845,16.8417492 16.4603725,16.8318458 16.0984669,16.4777971 C15.7365613,16.1262243 15.7471279,15.5666789 16.1248834,15.2274855 L19.6963893,12.0014339 L16.1248834,8.77785813 C15.7497696,8.43866468 15.739203,7.87911927 16.0984669,7.5275465 C16.4603725,7.17597372 17.0573845,7.16607026 17.4324983,7.50278785 L21.7119655,11.3651367 C21.8968808,11.5310196 21.9999534,11.761275 21.9999534,12.0014339 C22.0025466,12.2440686 21.8968808,12.474324 21.7119655,12.640207 L21.7119655,12.640207 Z"
                id="形状"></path>
        </g>
    </g>
</svg>