<svg width="147px" height="118px" viewBox="0 0 147 118" version="1.1" xmlns="http://www.w3.org/2000/svg"
    xmlns:xlink="http://www.w3.org/1999/xlink">
    <g id="页面-1" stroke="none" stroke-width="1" fill="none" fill-rule="evenodd">
        <g id="编组" fill="currentColor" fill-rule="nonzero">
            <path
                d="M43.8298859,91.9360911 C46.6296357,95.295527 46.7085019,100.83737 44.0270514,104.319413 C41.3258843,107.801456 36.8699445,107.899542 34.0701947,104.564627 L2.14910372,66.3111972 C0.768945367,64.6682614 0,62.3877684 0,60.0091897 C0,57.6306111 0.788661915,55.3501181 2.14910372,53.7071823 L34.0701947,15.4537521 C36.8699445,12.0943162 41.3258843,12.1924019 44.0270514,15.6989664 C46.7282184,19.1810094 46.6493523,24.7228525 43.8298859,28.0822884 L17.1533966,60.0091897 L43.8298859,91.9360911 L43.8298859,91.9360911 Z"
                id="路径"></path>
            <path
                d="M96.5054595,11.9045856 L64.586434,112.502267 C63.1472191,116.957585 59.0858731,119.148725 55.4779783,117.395813 C51.8700835,115.642901 50.0759937,110.627624 51.4757781,106.14796 L83.4145189,5.55027904 C84.3214214,2.65310478 86.4309555,0.559348597 88.9150798,0.0967745563 C91.3992041,-0.365799485 93.9227589,0.851500624 95.4802654,3.28610084 C97.0377719,5.72070106 97.4320773,9.00741135 96.5054595,11.9045856 Z"
                id="路径"></path>
            <path
                d="M144.851473,66.303434 L112.924601,104.546888 C110.126072,107.905448 105.672076,107.807387 102.972088,104.301738 C100.272099,100.820603 100.350931,95.2802048 103.169167,91.9216451 L129.81431,59.9785551 L103.169167,28.0599802 C100.370639,24.7014205 100.291807,19.1610227 102.972088,15.6798878 C105.672076,12.1987529 110.126072,12.1006928 112.924601,15.4347374 L144.851473,53.6781913 C146.231029,55.3206986 147,57.6005968 147,59.9785551 C147.019347,62.3810285 146.231029,64.6609267 144.851473,66.303434 L144.851473,66.303434 Z"
                id="路径"></path>
        </g>
    </g>
</svg>