<svg width="174.921875px" height="174.921875px" viewBox="0 0 174.921875 174.921875" version="1.1"
    xmlns="http://www.w3.org/2000/svg" xmlns:xlink="http://www.w3.org/1999/xlink">
    <g stroke="none" stroke-width="1" fill="none" fill-rule="evenodd">
        <g fill="currentColor" fill-rule="nonzero">
            <path
                d="M160.332031,3.55271368e-15 L14.5703125,3.55271368e-15 C6.5234375,3.55271368e-15 0,6.5234375 0,14.5703125 L0,123.90625 C0,131.953125 6.5234375,138.476562 14.5703125,138.476562 L65.5859375,138.476562 L65.5859375,160.351562 L51.015625,160.351562 C46.9921875,160.351562 43.7304687,163.613281 43.7304687,167.636719 C43.7304687,171.660156 46.9921875,174.921875 51.015625,174.921875 L123.90625,174.921875 C127.929687,174.921875 131.191406,171.660156 131.191406,167.636719 C131.191406,163.613281 127.929687,160.351562 123.90625,160.351562 L109.335937,160.351562 L109.335937,138.496094 L160.351562,138.496094 C168.398438,138.496094 174.921875,131.972656 174.921875,123.925781 L174.921875,14.5898438 C174.921875,6.54296875 168.378906,3.55271368e-15 160.332031,3.55271368e-15 L160.332031,3.55271368e-15 Z M94.7460937,160.351562 L80.1757812,160.351562 L80.1757812,138.496094 L94.7460937,138.496094 L94.7460937,160.351562 Z M160.332031,123.90625 L14.5703125,123.90625 L14.5703125,14.5898437 L160.332031,14.5898437 L160.332031,123.90625 L160.332031,123.90625 Z M121.894531,55.9960938 L138.75,70.078125 L121.621094,86.6601562 C119.53125,88.6914062 119.472656,92.0117188 121.503906,94.1015625 C122.539062,95.15625 123.90625,95.703125 125.292969,95.703125 C126.621094,95.703125 127.929687,95.2148438 128.964844,94.21875 L150.292969,73.5742188 C151.367187,72.5390625 151.953125,71.09375 151.894531,69.609375 C151.835938,68.125 151.152344,66.71875 150.019531,65.78125 L128.691406,47.9492188 C126.464844,46.09375 123.144531,46.3867188 121.269531,48.59375 C119.375,50.8203125 119.667969,54.140625 121.894531,55.9960938 L121.894531,55.9960938 Z M45.9570312,94.21875 C46.9726562,95.2148438 48.3007812,95.703125 49.6289062,95.703125 C50.9960938,95.703125 52.3828125,95.1757812 53.4179688,94.1015625 C55.4492187,92.0117188 55.390625,88.6914062 53.3007812,86.6601562 L36.1523437,70.078125 L53.0078125,55.9960938 C55.234375,54.140625 55.5273437,50.8203125 53.671875,48.59375 C51.796875,46.3671875 48.4765625,46.0742188 46.25,47.9492188 L24.921875,65.78125 C23.7695312,66.7382812 23.0859375,68.125 23.046875,69.609375 C22.9882812,71.09375 23.5742187,72.5390625 24.6484375,73.5742188 L45.9570312,94.21875 L45.9570312,94.21875 Z M74.0234375,95.0195312 C74.8046875,95.46875 75.703125,95.703125 76.6015625,95.703125 C78.4375,95.703125 80.234375,94.7460938 81.2109375,93.0273438 L102.890625,54.5507812 C104.316406,52.0117188 103.417969,48.8085938 100.878906,47.4023437 C98.3398438,45.9765625 95.1367188,46.875 93.7109375,49.4140625 L72.03125,87.890625 C70.5859375,90.390625 71.5039062,93.59375 74.0234375,95.0195312 L74.0234375,95.0195312 Z">
            </path>
        </g>
    </g>
</svg>