<svg width="200px" height="200px" viewBox="0 0 200 200" version="1.1" xmlns="http://www.w3.org/2000/svg"
    xmlns:xlink="http://www.w3.org/1999/xlink">
    <g id="页面-1" stroke="none" stroke-width="1" fill="none" fill-rule="evenodd">
        <path
            d="M166,0 C184.777681,-3.44940413e-15 200,15.2223185 200,34 L200,166 C200,184.777681 184.777681,200 166,200 L34,200 C15.2223185,200 2.29960275e-15,184.777681 0,166 L0,34 C-2.29960275e-15,15.2223185 15.2223185,3.44940413e-15 34,0 L166,0 Z M162,20 L118,20 C108.058875,20 100,28.0588745 100,38 L100,162 C100,171.941125 108.058875,180 118,180 L162,180 C171.941125,180 180,171.941125 180,162 L180,38 C180,28.0588745 171.941125,20 162,20 Z M61.1075424,75.4360715 C59.6900409,74.0997272 58.5169363,73.6960398 57.5882284,74.2250095 C56.6595206,74.7539791 56.170727,75.9928817 56.1218476,77.9417171 C56.1218476,79.0553374 56.0851881,80.3777615 56.011869,81.9089894 C55.93855,83.4402172 55.9018905,84.7626413 55.9018905,85.8762616 C55.9018905,87.3796489 55.3642175,88.3401464 54.2888716,88.757754 C53.2135256,89.1753616 51.7471448,89.3563249 49.8897291,89.3006439 C48.5699864,89.3006439 46.7858897,89.2867237 44.5374391,89.2588832 C42.2889885,89.2310426 39.9794387,89.2171224 37.6087897,89.2171224 C35.2381407,89.2171224 33.00191,89.2032021 30.9000974,89.1753616 C28.7982849,89.1475211 27.2585851,89.1336009 26.2809979,89.1336009 C24.130306,89.1336009 22.5539466,89.5372882 21.5519197,90.3446629 C20.5498928,91.1520376 20.0488794,92.7250263 20.0488794,95.0636288 C20,96.7897402 19.9877802,98.3488086 20.0122198,99.740834 C20.0366595,101.132859 20.0488794,102.580566 20.0488794,104.083953 C20.0488794,105.364616 20.2199571,106.380795 20.5621126,107.132489 C20.9042682,107.884182 21.3564023,108.454913 21.9185149,108.84468 C22.4806276,109.234447 23.1038394,109.498932 23.7881505,109.638134 C24.4724615,109.777337 25.1323329,109.846938 25.7677646,109.846938 C27.2341454,109.846938 29.1404405,109.860858 31.4866498,109.888699 C33.8328591,109.916539 36.2523874,109.930459 38.7452348,109.930459 C41.2380822,109.930459 43.6331709,109.94438 45.9305009,109.97222 C47.8996408,109.996084 49.5455785,110.00972 50.8683139,110.013129 L51.502748,110.013981 C52.7736114,110.013981 53.7756383,110.194944 54.5088287,110.556871 C55.2420191,110.918797 55.6086143,111.795773 55.6086143,113.187799 C55.6086143,113.855971 55.6208341,114.593744 55.6452738,115.401119 C55.6697135,116.208494 55.6819333,117.029789 55.6819333,117.865004 L55.6819333,122.291644 C55.633054,124.296161 56.1585071,125.493303 57.2582927,125.88307 C58.3580783,126.272837 59.76336,125.688186 61.4741376,124.129118 C63.0382771,122.737093 64.8223738,121.136263 66.8264276,119.326631 C68.8304814,117.516998 70.8711947,115.693444 72.9485675,113.855971 C75.0259404,112.018497 77.0299942,110.236705 78.9607289,108.510594 C80.8914637,106.784482 82.5655818,105.253254 83.9830832,103.91691 C85.3517053,102.636247 86.0237965,101.397344 86,100.200202 C85.9749172,99.0030605 85.2539466,97.7363175 83.8364451,96.3999732 C82.2723056,95.0079478 80.4882089,93.3792782 78.4841551,91.5139642 C76.4801013,89.6486502 74.4271682,87.7554958 72.3253557,85.8345008 C70.2235432,83.9135058 68.1950497,82.0342716 66.2398753,80.1967982 C64.2847008,78.3593247 62.5739232,76.7724158 61.1075424,75.4360715 Z"
            id="形状结合" fill="currentColor" fill-rule="nonzero"></path>
    </g>
</svg>