<svg width="7.05925103px" height="14.0310542px" viewBox="0 0 7.05925103 14.0310542" version="1.1"
    xmlns="http://www.w3.org/2000/svg" xmlns:xlink="http://www.w3.org/1999/xlink">
    <g id="页面-1" stroke="none" stroke-width="1" fill="none" fill-rule="evenodd">
        <g id="编组" fill="currentColor" fill-rule="nonzero">
            <path
                d="M1.00176317,14.0292417 C0.768111012,14.0296982 0.541675229,13.9483228 0.36176317,13.7992417 C0.157256039,13.6296935 0.0286153316,13.3857409 0.00422625016,13.1212132 C-0.0201628313,12.8566854 0.0617042673,12.5933243 0.23176317,12.3892417 L4.71176317,7.02924166 L0.39176317,1.65924166 C0.223992674,1.45264823 0.145494246,1.18770075 0.173647606,0.923059156 C0.201800967,0.658417563 0.334283459,0.415914857 0.54176317,0.249241663 C0.750929765,0.0652025135 1.02739056,-0.0232336212 1.30453728,0.00524035708 C1.581684,0.0337143354 1.83438741,0.176516655 2.00176317,0.399241663 L6.83176317,6.39924166 C7.13508032,6.76824352 7.13508032,7.3002398 6.83176317,7.66924166 L1.83176317,13.6692417 C1.62830045,13.9146877 1.31999807,14.0484092 1.00176317,14.0292417"
                id="路径"></path>
        </g>
    </g>
</svg>