<svg width="20px" height="18.7503667px" viewBox="0 0 20 18.7503667" version="1.1" xmlns="http://www.w3.org/2000/svg"
    xmlns:xlink="http://www.w3.org/1999/xlink">
    <g id="页面-1" stroke="none" stroke-width="1" fill="none" fill-rule="evenodd">
        <g id="ic-job1" fill="currentColor">
            <path
                d="M0.162,6.25036669 C0,7.35336669 0,8.80036669 0,10.7503667 C0,14.5213667 0,16.4073667 1.172,17.5783667 C2.343,18.7503667 4.229,18.7503667 8,18.7503667 L12,18.7503667 C15.771,18.7503667 17.657,18.7503667 18.828,17.5783667 C20,16.4073667 20,14.5213667 20,10.7503667 C20,8.80036669 20,7.35336669 19.838,6.25036669 C17.561,7.73036669 16.102,8.67336669 14.75,9.25536669 L14.75,9.75036669 C14.7511,9.84886669 14.7327,9.94656669 14.696,10.0379667 C14.6593,10.1293667 14.6049,10.2126667 14.536,10.2830667 C14.3968,10.4251667 14.2069,10.5062667 14.008,10.5083667 C13.8091,10.5104667 13.6175,10.4334667 13.4753,10.2943667 C13.3332,10.1551667 13.2521,9.96526669 13.25,9.76636669 C11.1197,10.3279667 8.8803,10.3279667 6.75,9.76636669 C6.74788,9.96526669 6.66683,10.1551667 6.52467,10.2943667 C6.38252,10.4334667 6.19091,10.5104667 5.992,10.5083667 C5.79309,10.5062667 5.60317,10.4251667 5.46401,10.2830667 C5.32486,10.1408667 5.24788,9.94926669 5.25,9.75036669 L5.25,9.25436669 C3.898,8.67436669 2.44,7.73036669 0.162,6.25036669 Z"
                id="路径" fill-rule="nonzero" opacity="0.32"></path>
            <path
                d="M8.5811,0.000356693905 L8.5611,0.000356693905 C8.4471,0.000356693905 8.3591,0.000356693905 8.2751,0.00535669391 C7.75548,0.0369466939 7.25555,0.215346694 6.83336,0.519816694 C6.41116,0.824286694 6.08406,1.24233669 5.89005,1.72535669 C5.84743,1.83875669 5.80742,1.95312669 5.77005,2.06835669 L5.76605,2.08035669 C5.6629,2.35301669 5.48851,2.59301669 5.26105,2.77535669 C5.03405,2.78335669 4.81705,2.79235669 4.60905,2.80535669 C2.96505,2.90135669 1.92205,3.17135669 1.17105,3.92235669 C0.92705,4.16635669 0.73305,4.44235669 0.58105,4.76035669 C0.63951,4.78041669 0.69527,4.80762669 0.74705,4.84135669 C2.84705,6.20635669 4.16705,7.06135669 5.26305,7.60835669 C5.29773,7.42451669 5.39986,7.26026669 5.54941,7.14785669 C5.69896,7.03543669 5.88512,6.98297669 6.07136,7.00075669 C6.2576,7.01854669 6.43046,7.10529669 6.55603,7.24397669 C6.6816,7.38266669 6.7508,7.56327669 6.75005,7.75035669 L6.75005,8.20836669 C8.8701,8.84836669 11.1301,8.84836669 13.2501,8.20836669 L13.2501,7.75035669 C13.2506,7.56418669 13.3204,7.38486669 13.4458,7.24728669 C13.5713,7.10969669 13.7434,7.02368669 13.9287,7.00597669 C14.114,6.98826669 14.2993,7.04012669 14.4486,7.15146669 C14.5978,7.26279669 14.7003,7.42565669 14.7361,7.60835669 C15.8331,7.06035669 17.1531,6.20635669 19.2531,4.84135669 C19.3052,4.80758669 19.3613,4.78037669 19.4201,4.76035669 C19.2719,4.44932669 19.0717,4.16590669 18.8281,3.92235669 C18.0781,3.17235669 17.0351,2.90235669 15.3911,2.80435669 C15.1941,2.79335669 14.9881,2.78435669 14.7731,2.77635669 C14.5214,2.57134669 14.3271,2.30469669 14.2091,2.00235669 L14.2051,1.99335669 C14.1691,1.88635669 14.1411,1.80235669 14.1101,1.72435669 C13.9159,1.24152669 13.5887,0.823686694 13.1665,0.519396694 C12.7444,0.215106694 12.2445,0.0368566939 11.7251,0.00535669391 C11.6298,0.000866693905 11.5344,-0.000803306095 11.4391,0.000356693905 L8.5811,0.000356693905 Z M12.8181,2.56635669 L12.8131,2.55535669 L12.8081,2.54335669 L12.8031,2.53135669 L12.8001,2.52135669 L12.7981,2.51635669 L12.7941,2.50435669 L12.7901,2.49235669 L12.7881,2.48635669 L12.7851,2.47835669 L12.7831,2.47135669 L12.7811,2.46535669 C12.7616,2.40450669 12.7406,2.34414669 12.7181,2.28435669 C12.6299,2.06478669 12.4812,1.87473669 12.2894,1.73630669 C12.0975,1.59787669 11.8702,1.51674669 11.6341,1.50235669 C11.5624,1.49985669 11.4907,1.49918669 11.4191,1.50035669 L8.5811,1.50035669 C8.4381,1.50035669 8.3981,1.50035669 8.3661,1.50235669 C8.1299,1.51674669 7.90264,1.59787669 7.71075,1.73630669 C7.51886,1.87473669 7.3702,2.06478669 7.28205,2.28435669 L7.27905,2.29135669 L7.27105,2.31235669 C7.24337,2.38844669 7.21736,2.46512669 7.19305,2.54235669 L7.19205,2.54835669 L7.18905,2.55535669 L7.18705,2.56335669 L7.18505,2.56935669 L7.18105,2.58135669 L7.17605,2.59335669 L7.17505,2.59835669 L7.17105,2.60835669 L7.16605,2.62035669 L7.16205,2.63235669 L7.15705,2.64235669 C7.14312,2.67865669 7.12845,2.71566669 7.11305,2.75135669 L8.0001,2.75035669 L12.8961,2.75035669 C12.8677,2.68991669 12.8423,2.62854669 12.8181,2.56635669 Z"
                id="形状"></path>
        </g>
    </g>
</svg>