<svg width="62.2015625px" height="63.8665px" viewBox="0 0 62.2015625 63.8665" version="1.1"
    xmlns="http://www.w3.org/2000/svg" xmlns:xlink="http://www.w3.org/1999/xlink">
    <g stroke="none" stroke-width="1" fill="none" fill-rule="evenodd">
        <g fill="currentColor" fill-rule="nonzero">
            <path
                d="M37.97925,13.5996875 L50.7601875,6.2105 C52.411056,5.16332103 54.5253761,5.193255 56.1459375,6.28675 C59.0218125,8.1376875 62.1860625,9.7859375 62.1860625,9.7859375 L46.8653125,18.818625 L37.97925,13.5996875 Z M37.8421875,31.5685625 L46.773625,26.4711875 L62.2015625,35.387125 L55.18775,39.5405625 C55.18775,39.5405625 53.270125,40.9254375 49.33,38.34875 C45.389875,35.7720625 37.8421875,31.5685625 37.8421875,31.5685625 Z M26.3781875,38.2140625 L31.2169375,35.4753125 L36.0091875,38.2831875 L34.7995,61.8344375 L31.1705,63.8665 L27.56525,61.7665625 L26.3781875,38.2140625 L26.3781875,38.2140625 Z M0,9.80025 L22.2140625,22.6109375 C22.2140625,22.6109375 25.468875,24.0494375 27.1445625,25.9325 C28.704625,27.685625 26.4139375,30.6210625 26.4139375,30.6210625 L40.1054375,22.5168125 L10.8335,5.6003125 C10.8335,5.6003125 8.7025625,4.542 5.4775,6.51325 C2.2524375,8.4845 0,9.80025 0,9.80025 L0,9.80025 Z">
            </path>
            <path
                d="M0.1263125,35.40975 L7.3736875,39.503625 C7.39162617,39.5141874 7.41034761,39.52336 7.4296875,39.5310625 C7.70975,39.6501875 9.86575,40.4785625 12.4185625,38.6348125 C15.0310625,36.7481875 25.395,31.1800625 26.3460625,30.6699375 C26.3954258,30.6435723 26.4407607,30.6102762 26.4806875,30.5710625 C26.9061875,30.1503125 29.329125,27.5056875 26.3138125,25.0458125 C26.278125,25.0171875 26.1231875,24.8694375 26.0755,24.8635 L24.7406875,23.9815625 L23.8241875,23.421375 L22.5131875,22.734875 C22.330875,22.633625 22.108,22.754 21.9268125,22.8540625 L0.1263125,35.40975 Z M39.604875,5.1808125 L30.9094375,0 L22.237875,5.2034375 L30.932125,10.3163125 L39.604875,5.1808125 Z">
            </path>
        </g>
    </g>
</svg>