<svg width="48px" height="45px" viewBox="0 0 48 45" version="1.1" xmlns="http://www.w3.org/2000/svg"
    xmlns:xlink="http://www.w3.org/1999/xlink">
    <g id="页面-1" stroke="none" stroke-width="1" fill="none" fill-rule="evenodd">
        <g id="编组" fill="currentColor" fill-rule="nonzero">
            <path
                d="M47.5,33 L44.125,33 L44.125,24.25 L26.125,24.25 L26.125,18.5 L41,18.5 C41.55,18.5 42,18.05 42,17.5 L42,1 C42,0.45 41.55,0 41,0 L7,0 C6.45,0 6,0.45 6,1 L6,17.5 C6,18.05 6.45,18.5 7,18.5 L21.875,18.5 L21.875,24.25 L3.875,24.25 L3.875,33 L0.5,33 C0.225,33 0,33.225 0,33.5 L0,44.5 C0,44.775 0.225,45 0.5,45 L11.5,45 C11.775,45 12,44.775 12,44.5 L12,33.5 C12,33.225 11.775,33 11.5,33 L8.125,33 L8.125,28.5 L21.875,28.5 L21.875,33 L18.5,33 C18.225,33 18,33.225 18,33.5 L18,44.5 C18,44.775 18.225,45 18.5,45 L29.5,45 C29.775,45 30,44.775 30,44.5 L30,33.5 C30,33.225 29.775,33 29.5,33 L26.125,33 L26.125,28.5 L39.875,28.5 L39.875,33 L36.5,33 C36.225,33 36,33.225 36,33.5 L36,44.5 C36,44.775 36.225,45 36.5,45 L47.5,45 C47.775,45 48,44.775 48,44.5 L48,33.5 C48,33.225 47.775,33 47.5,33 Z M8,40.83125 C8,40.925 7.925,41 7.83125,41 L4.1625,41 C4.06875,41 3.99375,40.925 3.99375,40.83125 L3.99375,37.1625 C3.99375,37.06875 4.06875,36.99375 4.1625,36.99375 L7.83125,36.99375 C7.925,36.99375 8,37.06875 8,37.1625 L8,40.83125 Z M26,40.83125 C26,40.925 25.925,41 25.83125,41 L22.1625,41 C22.06875,41 21.99375,40.925 21.99375,40.83125 L21.99375,37.1625 C21.99375,37.06875 22.06875,36.99375 22.1625,36.99375 L25.83125,36.99375 C25.925,36.99375 26,37.06875 26,37.1625 L26,40.83125 Z M10,14.5 L10,4 L38,4 L38,14.5 L10,14.5 Z M44,40.83125 C44,40.925 43.925,41 43.83125,41 L40.1625,41 C40.06875,41 39.99375,40.925 39.99375,40.83125 L39.99375,37.1625 C39.99375,37.06875 40.06875,36.99375 40.1625,36.99375 L43.83125,36.99375 C43.925,36.99375 44,37.06875 44,37.1625 L44,40.83125 Z"
                id="形状"></path>
            <path
                d="M14.5,9.25 C14.5,10.6307119 15.6192881,11.75 17,11.75 C18.3807119,11.75 19.5,10.6307119 19.5,9.25 C19.5,7.86928813 18.3807119,6.75 17,6.75 C15.6192881,6.75 14.5,7.86928813 14.5,9.25 Z"
                id="路径"></path>
        </g>
    </g>
</svg>