<svg width="44px" height="46px" viewBox="0 0 44 46" version="1.1" xmlns="http://www.w3.org/2000/svg"
    xmlns:xlink="http://www.w3.org/1999/xlink">
    <g id="页面-1" stroke="none" stroke-width="1" fill="none" fill-rule="evenodd">
        <g id="编组" fill="currentColor" fill-rule="nonzero">
            <path
                d="M4,42.016 L3.982,6 L10,6 L10,7.98 C10,10.196 11.79,12 13.992,12 L30.008,12 C32.2195367,11.9900797 34.0055374,10.191552 34,7.98 L34,6 L40,5.984 L40.016,42 L4,42.016 Z M30,4.02 L30.008,8 L14,7.98 L14,4.02 L13.992,4 L30,4.02 Z M39.99,2 L33.44,2 C32.748,0.81 31.476,0 30.008,0 L13.992,0 C12.524,0 11.254,0.808 10.56,2 L3.982,2 C1.7829359,2.00220651 0.00110228749,3.78493507 0,5.984 L0,42.016 C0,44.212 1.788,46 3.984,46 L40.016,46 C42.2149324,45.9966958 43.9966958,44.2149324 44,42.016 L44,5.984 C43.9911797,3.77720404 42.1968066,1.99446534 39.99,2 Z"
                id="形状"></path>
            <path
                d="M28.692,18.818 L19.208,29.186 L15.326,24.836 C14.5903567,24.0119912 13.3260088,23.9403567 12.502,24.676 C11.6779912,25.4116433 11.6063567,26.6759912 12.342,27.5 L17.698,33.5 C18.0746834,33.9219236 18.6124042,34.1646247 19.178,34.168 L19.19,34.168 C19.75,34.168 20.286,33.932 20.666,33.518 L31.644,21.518 C32.3895844,20.7028277 32.3331723,19.4375844 31.518,18.692 C30.7028277,17.9464156 29.4375844,18.0028277 28.692,18.818"
                id="路径"></path>
        </g>
    </g>
</svg>