<svg width="117.302516px" height="200.035538px" viewBox="0 0 117.302516 200.035538" version="1.1"
    xmlns="http://www.w3.org/2000/svg" xmlns:xlink="http://www.w3.org/1999/xlink">
    <g stroke="none" stroke-width="1" fill="none" fill-rule="evenodd">
        <g transform="translate(58.6513, 100.0178) rotate(-90) translate(-58.6513, -100.0178)translate(-41.3665, 41.3665)"
            fill="currentColor" fill-rule="nonzero">
            <path
                d="M194.590602,33.8598329 C187.538993,41.0864816 113.597124,111.527552 113.597124,111.527552 C110.038854,115.217857 105.132889,117.302516 100.006523,117.302516 C94.8801572,117.302516 89.9741914,115.217857 86.4159223,111.527552 C86.4159223,111.527552 12.4990585,41.0864816 5.44744976,33.8598329 C-1.81581659,25.9947492 -1.81581659,13.8685612 5.44744976,6.00347756 C12.9491612,-1.69827958 23.4515573,-2.27341072 32.6036452,6.00347756 L100.019026,70.6432248 L167.4094,6.00347756 C176.6115,-2.29841646 187.08889,-1.69827958 194.590602,6.00347756 C201.850517,13.8602613 201.850517,25.9780434 194.590602,33.8348271 L194.590602,33.8598329 Z">
            </path>
        </g>
    </g>
</svg>