<svg width="20px" height="20px" viewBox="0 0 20 20" version="1.1" xmlns="http://www.w3.org/2000/svg"
    xmlns:xlink="http://www.w3.org/1999/xlink">
    <g id="页面-1" stroke="none" stroke-width="1" fill="none" fill-rule="evenodd">
        <g id="ic-user1" fill="currentColor" fill-rule="nonzero">
            <path
                d="M0.28099,17.6575 C0.36966,18.5161 0.93261,19.1957 1.77688,19.3755 C3.1095,19.6592 5.6216,20 10,20 C14.3784,20 16.8905,19.6592 18.2232,19.3755 C19.0674,19.1957 19.6304,18.5161 19.719,17.6575 C19.8505,16.3844 20,14.0469 20,10 C20,5.95305 19.8505,3.6156 19.719,2.34251 C19.6304,1.48389 19.0674,0.80424 18.2231,0.62451 C16.8905,0.34081 14.3784,0 10,0 C5.6216,0 3.1095,0.34081 1.77688,0.62451 C0.93261,0.80424 0.36966,1.48389 0.28099,2.34251 C0.14952,3.6156 0,5.95305 0,10 C0,14.0469 0.14952,16.3844 0.28099,17.6575 Z"
                id="路径" opacity="0.32"></path>
            <path
                d="M11.9382,11.8559 C13.263,11.1583 14.1663,9.768 14.1663,8.1666 C14.1663,5.8655 12.3008,4 9.9996,4 C7.69841,4 5.83291,5.8655 5.83291,8.1666 C5.83291,9.768 6.73626,11.1584 8.0612,11.856 C6.28691,12.5319 4.93216,14.1092 4.51251,16.0529 C4.45446,16.3219 4.60246,16.5981 4.87341,16.6471 C5.84581,16.8231 7.45616,17 10.0006,17 C12.545,17 14.1554,16.8231 15.1278,16.6471 C15.3977,16.5983 15.5454,16.3231 15.4876,16.0551 C15.0685,14.1103 13.7133,12.5321 11.9382,11.8559 Z"
                id="路径"></path>
        </g>
    </g>
</svg>