<svg t="1731307951236" class="icon" viewBox="0 0 1024 1024" version="1.1" xmlns="http://www.w3.org/2000/svg"
    p-id="31750" width="200" height="200">
    <path
        d="M874.666667 469.333333h85.333333a64 64 0 0 1 0 128h-85.333333a64 64 0 0 1 0-128z m-810.666667 0h85.333333a64 64 0 0 1 0 128h-85.333333a64 64 0 0 1 0-128z"
        fill="#00a76f" opacity=".3" p-id="31751" data-spm-anchor-id="a313x.search_index.0.i33.4f803a81GzHQyW"
        class="selected"></path>
    <path
        d="M512 682.666667a128 128 0 1 0 0-256 128 128 0 0 0 0 256z m0 85.333333a213.333333 213.333333 0 1 1 0-426.666667 213.333333 213.333333 0 0 1 0 426.666667z"
        fill="#2e8f79" p-id="31752" data-spm-anchor-id="a313x.search_index.0.i32.4f803a81GzHQyW" class=""></path>
</svg>