<svg t="1749048739602" class="icon" viewBox="0 0 1024 1024" version="1.1" xmlns="http://www.w3.org/2000/svg"
    p-id="14444" width="200" height="200">
    <path
        d="M820.224 956.416h-614.4c-73.216 0-133.12-59.904-133.12-133.12v-614.4c0-73.216 59.904-133.12 133.12-133.12h614.4c73.216 0 133.12 59.904 133.12 133.12v614.4c0 73.216-59.392 133.12-133.12 133.12z m-614.4-819.2c-39.424 0-71.68 32.256-71.68 71.68v614.4c0 39.424 32.256 71.68 71.68 71.68h614.4c39.424 0 71.68-32.256 71.68-71.68v-614.4c0-39.424-32.256-71.68-71.68-71.68h-614.4z"
        fill="currentColor" p-id="14445"></path>
    <path
        d="M513.024 823.296c-16.896 0-30.72-13.824-30.72-30.72v-322.56c0-16.896 13.824-30.72 30.72-30.72s30.72 13.824 30.72 30.72v322.56c0 16.896-13.312 30.72-30.72 30.72zM513.024 357.376c-16.896 0-30.72-13.824-30.72-30.72v-87.04c0-16.896 13.824-30.72 30.72-30.72s30.72 13.824 30.72 30.72v87.04c0 16.896-13.312 30.72-30.72 30.72zM305.664 823.296c-16.896 0-30.72-13.824-30.72-30.72v-87.04c0-16.896 13.824-30.72 30.72-30.72s30.72 13.824 30.72 30.72v87.04c0 16.896-13.312 30.72-30.72 30.72zM305.664 592.896c-16.896 0-30.72-13.824-30.72-30.72v-322.56c0-16.896 13.824-30.72 30.72-30.72s30.72 13.824 30.72 30.72v322.56c0 16.896-13.312 30.72-30.72 30.72zM720.384 823.296c-16.896 0-30.72-13.824-30.72-30.72v-168.96c0-16.896 13.824-30.72 30.72-30.72s30.72 13.824 30.72 30.72v168.96c0 16.896-13.312 30.72-30.72 30.72zM720.384 510.976c-16.896 0-30.72-13.824-30.72-30.72v-240.64c0-16.896 13.824-30.72 30.72-30.72s30.72 13.824 30.72 30.72v240.64c0 16.896-13.312 30.72-30.72 30.72z"
        fill="currentColor" p-id="14446"></path>
    <path
        d="M303.104 736.256c-56.32 0-102.4-46.08-102.4-102.4s46.08-102.4 102.4-102.4 102.4 46.08 102.4 102.4-45.568 102.4-102.4 102.4z m0-143.36c-22.528 0-40.96 18.432-40.96 40.96s18.432 40.96 40.96 40.96 40.96-18.432 40.96-40.96-17.92-40.96-40.96-40.96zM513.024 500.736c-56.32 0-102.4-46.08-102.4-102.4s46.08-102.4 102.4-102.4 102.4 46.08 102.4 102.4-45.568 102.4-102.4 102.4z m0-143.36c-22.528 0-40.96 18.432-40.96 40.96s18.432 40.96 40.96 40.96 40.96-18.432 40.96-40.96-17.92-40.96-40.96-40.96zM722.944 654.336c-56.32 0-102.4-46.08-102.4-102.4s46.08-102.4 102.4-102.4 102.4 46.08 102.4 102.4-45.568 102.4-102.4 102.4z m0-143.36c-22.528 0-40.96 18.432-40.96 40.96s18.432 40.96 40.96 40.96 40.96-18.432 40.96-40.96-17.92-40.96-40.96-40.96z"
        fill="currentColor" p-id="14447"></path>
</svg>