<svg t="1749017819685" class="icon" viewBox="0 0 1024 1024" version="1.1" xmlns="http://www.w3.org/2000/svg" p-id="9376"
    width="200" height="200">
    <path
        d="M166.4 816H51.2c-19.2 0-32-12.8-32-32V297.6c0-19.2 12.8-32 32-32h115.2c19.2 0 32 12.8 32 32v489.6c0 16-16 28.8-32 28.8zM435.2 816H320c-19.2 0-32-12.8-32-32V38.4c0-19.2 12.8-32 32-32h115.2c19.2 0 32 12.8 32 32v748.8c0 16-12.8 28.8-32 28.8zM707.2 816h-115.2c-19.2 0-32-12.8-32-32V182.4c0-19.2 12.8-32 32-32h115.2c19.2 0 32 12.8 32 32v601.6c0 19.2-12.8 32-32 32zM979.2 816H864c-19.2 0-32-12.8-32-32V608c0-19.2 12.8-32 32-32h115.2c19.2 0 32 12.8 32 32v176c0 19.2-16 32-32 32z"
        fill="currentColor" p-id="9377"></path>
    <path
        d="M979.2 1020.8h-928c-19.2 0-32-12.8-32-32V960c0-19.2 12.8-32 32-32h928c19.2 0 32 12.8 32 32v25.6c0 19.2-16 35.2-32 35.2z"
        fill="currentColor" p-id="9378"></path>
</svg>