<?xml version="1.0" standalone="no"?><!DOCTYPE svg PUBLIC "-//W3C//DTD SVG 1.1//EN" "http://www.w3.org/Graphics/SVG/1.1/DTD/svg11.dtd"><svg t="1765876277641" class="icon" viewBox="0 0 1024 1024" version="1.1" xmlns="http://www.w3.org/2000/svg" p-id="963" xmlns:xlink="http://www.w3.org/1999/xlink" width="200" height="200"><path d="M512 22.478049c-270.35598 0-489.521951 219.165971-489.521951 489.521951s219.165971 489.521951 489.521951 489.521951 489.521951-219.165971 489.521951-489.521951-219.165971-489.521951-489.521951-489.521951zM265.43079 576.7168c-35.745093 0-64.7168-28.971707-64.7168-64.7168s28.971707-64.7168 64.7168-64.7168c35.735102 0 64.7168 28.971707 64.7168 64.7168s-28.981698 64.7168-64.7168 64.7168z m246.56921 0c-35.745093 0-64.7168-28.971707-64.7168-64.7168s28.971707-64.7168 64.7168-64.7168c35.735102 0 64.7168 28.971707 64.7168 64.7168s-28.981698 64.7168-64.7168 64.7168z m246.56921 0c-35.745093 0-64.7168-28.971707-64.7168-64.7168s28.971707-64.7168 64.7168-64.7168c35.735102 0 64.7168 28.971707 64.7168 64.7168s-28.971707 64.7168-64.7168 64.7168z" p-id="964"></path></svg>