<?xml version="1.0" standalone="no"?>
<!DOCTYPE svg PUBLIC "-//W3C//DTD SVG 1.1//EN" "http://www.w3.org/Graphics/SVG/1.1/DTD/svg11.dtd"><svg t="1690881157905"
    class="icon" viewBox="0 0 1024 1024" version="1.1" xmlns="http://www.w3.org/2000/svg" p-id="1010"
    xmlns:xlink="http://www.w3.org/1999/xlink" width="64" height="64">
    <path
        d="M512 0C228.693333 0 0 228.693333 0 512s228.693333 512 512 512 512-228.693333 512-512S795.306667 0 512 0m49.493333 738.986667H291.84c-20.48 0-35.84-18.773333-35.84-42.666667s17.066667-42.666667 35.84-42.666667h267.946667c20.48 0 35.84 18.773333 35.84 42.666667 1.706667 23.893333-15.36 42.666667-34.133334 42.666667m168.96-184.32H293.546667C273.066667 554.666667 256 535.893333 256 512s17.066667-42.666667 37.546667-42.666667h435.2c20.48 0 37.546667 18.773333 37.546666 42.666667s-15.36 42.666667-35.84 42.666667m0-184.32H293.546667c-20.48 0-37.546667-18.773333-37.546667-42.666667s17.066667-42.666667 37.546667-42.666667h435.2c20.48 0 37.546667 18.773333 37.546666 42.666667 1.706667 22.186667-15.36 42.666667-35.84 42.666667"
        fill="currentColor" p-id="1011"></path>
</svg>