<svg t="1751956088415" class="icon" viewBox="0 0 1024 1024" version="1.1" xmlns="http://www.w3.org/2000/svg" p-id="4936"
    width="200" height="200">
    <path
        d="M293.7 635.7H643V592H293.7v43.7z m291.1-247.4H293.7V432h291.1v-43.7z m320.1-203.7v43.7l-43.6-43.6v1.2L816.4 141h1.1l-43.4-43.4 116.3-0.3h-684v87.3h-87.3v742.2h698.5v-87.3h87.3V184.6z m-654.8-43.7h508.3l-6.1 6.1 37.5 37.5H250.1v-43.6z m523.8 742.2H162.7V228.2h495l-4.6 4.6 120.8 120.8v529.5z m43.7-567.6L686.7 184.9l130.8-0.3v130.9z m43.7 480.3h-43.7V212.4l37.5 37.5 6.1-6.1v552z m-567.6-262H643v-43.7H293.7v43.7z m0 203.8H643v-43.7H293.7v43.7z"
        p-id="4937" fill="currentColor"></path>
</svg>