<?xml version="1.0" standalone="no"?><!DOCTYPE svg PUBLIC "-//W3C//DTD SVG 1.1//EN" "http://www.w3.org/Graphics/SVG/1.1/DTD/svg11.dtd"><svg t="1765869704443" class="icon" viewBox="0 0 1024 1024" version="1.1" xmlns="http://www.w3.org/2000/svg" p-id="1128" xmlns:xlink="http://www.w3.org/1999/xlink" width="200" height="200"><path d="M162.368 960a94.72 94.72 0 0 1-69.568-28.8c-19.2-19.2-28.8-42.368-28.8-69.568V162.368c0-27.2 9.6-50.368 28.8-69.568 19.2-19.2 42.368-28.8 69.568-28.8h699.264c27.2 0 50.368 9.6 69.568 28.8 19.2 19.2 28.8 42.368 28.8 69.568v699.264c0 27.2-9.6 50.368-28.8 69.568-19.2 19.2-42.368 28.8-69.568 28.8H162.368zM894.464 271.616V162.368a31.616 31.616 0 0 0-9.6-23.232c-6.4-6.4-14.144-9.6-23.232-9.6H162.368a31.616 31.616 0 0 0-23.232 9.6c-6.4 6.4-9.6 14.144-9.6 23.232v109.248h764.928z m-562.56-114.56a40.192 40.192 0 1 1 0 80.384 40.192 40.192 0 0 1 0-80.384z m-80.384 40.32a40.256 40.256 0 1 1-80.448 0 40.256 40.256 0 0 1 80.448 0z m241.28-0.064a40.192 40.192 0 1 1-80.448 0 40.192 40.192 0 0 1 80.448 0zM129.536 337.152v524.48c0 9.088 3.2 16.832 9.6 23.232 6.4 6.4 14.144 9.6 23.232 9.6h699.264c9.088 0 16.832-3.2 23.232-9.6 6.4-6.4 9.6-14.144 9.6-23.232V337.152H129.536z m133.824 234.624c8.96 9.28 13.44 22.592 13.44 39.936v12.16c0-18.944 6.016-34.752 17.984-47.36 11.776-13.12 27.904-19.712 48.384-19.712 22.464 0 39.68 7.168 51.648 21.44 10.88 12.928 16.384 30.528 16.384 52.8v6.144H318.912c1.28 6.144 3.52 10.88 6.784 14.336 4.16 4.416 10.24 6.592 18.432 6.592a31.552 31.552 0 0 0 25.728-11.84h39.232a57.792 57.792 0 0 1-19.392 30.272v0.064h-0.128a70.784 70.784 0 0 1-45.184 14.592c-20.16 0-36.288-5.888-48.32-17.6-12.8-12.16-19.264-28.8-19.264-49.728V691.2h-42.688V616.32c0-8.576-1.792-15.04-5.44-19.264-4.096-4.352-10.368-6.464-18.944-6.464A21.76 21.76 0 0 0 192 598.016l-0.064 0.128a30.336 30.336 0 0 0-6.848 20.672V691.2h-42.688V512h42.688v56a54.208 54.208 0 0 1 10.368-5.824 62.784 62.784 0 0 1 25.792-4.928c18.624 0 32.64 4.864 42.112 14.528zM587.712 691.2c-20.608 0-36.8-6.784-48.448-20.352-10.688-12.352-16-28.16-16.064-47.36v64.576h-33.024v-8.128a52.672 52.672 0 0 1-9.024 5.696 62.72 62.72 0 0 1-27.136 5.568 43.648 43.648 0 0 1-30.464-10.432 36.992 36.992 0 0 1-12.352-28.608c0-15.488 5.76-27.264 17.152-35.328 9.856-7.232 23.36-11.136 40.704-11.584l19.328-0.576c-0.576-9.984-6.848-15.04-18.816-15.04a25.664 25.664 0 0 0-13.952 3.072l-0.128 0.064a14.208 14.208 0 0 0-6.656 9.6l-1.024 4.864-34.56-2.816 1.28-6.976c2.752-14.72 9.664-25.408 20.736-32.128 8.768-5.696 20.736-8.512 36.032-8.512 17.856 0 31.104 4.8 39.872 14.336 8 8.64 12.032 20.928 12.032 36.864v15.04c0-18.688 5.312-34.112 15.744-46.208 11.456-13.632 27.2-20.48 47.36-20.48 11.648 0 22.08 3.584 31.36 10.752V512h39.936v111.872c0-18.944 6.016-34.752 17.984-47.36 11.776-13.12 27.904-19.712 48.384-19.712 22.464 0 39.68 7.168 51.648 21.44 10.88 12.928 16.384 30.528 16.384 52.8V560h40.896v5.888a39.04 39.04 0 0 1 26.176-9.088 44.8 44.8 0 0 1 18.944 3.584l3.584 1.664v38.272l-8.256-2.304a60.16 60.16 0 0 0-16.512-2.304 22.528 22.528 0 0 0-15.808 6.4 25.344 25.344 0 0 0-8.128 19.904V691.2h-40.896v-54.016h-92.288c1.28 6.144 3.52 10.88 6.784 14.336 4.16 4.416 10.24 6.592 18.432 6.592a31.552 31.552 0 0 0 25.728-11.84h39.232a57.792 57.792 0 0 1-19.392 30.272v0.064h-0.128a70.784 70.784 0 0 1-45.184 14.592c-20.16 0-36.288-5.888-48.32-17.6-12.8-12.16-19.264-28.8-19.264-49.728v64.192h-38.016v-5.12a58.24 58.24 0 0 1-31.872 8.256z m24.192-42.048a41.536 41.536 0 0 0 6.72-24.576v-1.792a37.568 37.568 0 0 0-8.32-25.664 22.144 22.144 0 0 0-17.472-8c-10.432 0-17.984 3.008-22.592 9.088-4.224 5.376-6.4 13.696-6.4 25.024 0 11.584 2.048 20.16 6.08 25.728 4.352 6.4 11.712 9.6 21.952 9.6 8.704 0 15.36-3.2 20.032-9.408z m-285.312-53.76a25.408 25.408 0 0 0-6.4 10.24h48.64c-3.52-10.496-11.84-15.744-24.96-15.744-7.552 0-13.312 1.856-17.28 5.504z m380.8 0a25.408 25.408 0 0 0-6.4 10.24h48.64c-3.52-10.496-11.84-15.744-24.96-15.744-7.552 0-13.312 1.856-17.28 5.504z m-226.88 56.768a22.4 22.4 0 0 0 7.936-16.832l-17.472 0.512c-16.256 0.384-24.32 5.504-24.32 15.36 0 1.92 0.832 3.648 2.56 4.992a16.384 16.384 0 0 0 10.432 3.264 30.72 30.72 0 0 0 20.864-7.296z" fill="#a1a0a2" p-id="1129"></path></svg>