<svg t="1694488817276" class="icon" viewBox="0 0 1024 1024" version="1.1" xmlns="http://www.w3.org/2000/svg"
    p-id="34878" width="64" height="64">
    <path
        d="M374.784 172.096a49.088 49.088 0 0 0-50.944 0 49.92 49.92 0 0 0-25.792 44.224 51.2 51.2 0 1 0 76.8-44.224z m-132.672 0a50.048 50.048 0 0 0-51.52 0 51.072 51.072 0 0 0-25.792 44.224c0 18.496 10.048 35.264 25.792 44.224a50.048 50.048 0 0 0 51.456 0 51.072 51.072 0 0 0 25.792-44.224 51.072 51.072 0 0 0-25.728-44.224z"
        fill="currentColor" p-id="34879"></path>
    <path
        d="M867.584 64H156.416C105.472 64 64 105.408 64 156.416v711.168C64 918.528 105.408 960 156.416 960h711.168c50.944 0 92.416-41.472 92.416-92.416V156.416C960 105.472 918.528 64 867.584 64zM126.72 156.416c0-17.344 13.44-30.784 30.784-30.784H866.56c17.344 0 30.784 13.44 30.784 30.72v148.48H126.72v-148.48zM898.368 391.04v476.544a31.104 31.104 0 0 1-30.72 30.848H156.352a31.104 31.104 0 0 1-30.784-30.848V366.4h772.736v24.64z"
        fill="currentColor" p-id="34880"></path>
    <path
        d="M284.352 630.784c10.048-10.048 16.064-14.08 28.16-14.08s18.112 6.016 18.112 28.16v94.592h50.368V638.848c0-40.32-16.128-66.432-50.368-66.432-22.144 0-38.208 12.032-50.304 22.144l1.984-28.16V512h-50.304v229.504h50.304v-110.72h2.048z m152.96 50.304c0 38.272 16.128 64.448 56.384 64.448 16.128 0 28.16-4.032 36.224-6.08l-8.064-36.224c-1.984 0-8 2.048-14.08 2.048-12.032 0-20.096-8.064-20.096-26.24v-62.336h38.208v-40.32H487.68v-42.24h-42.24l-6.08 42.24-24.192 2.048v38.272h22.144v64.384z m126.848 0c0 38.272 16.128 64.448 58.368 64.448 16.128 0 28.16-4.032 36.224-6.08l-8.064-36.224c-3.968 2.048-10.048 2.048-14.08 2.048-12.032 0-20.096-8.064-20.096-26.24v-62.336h38.208v-40.32h-38.208v-42.24h-42.24l-6.08 42.24-24.192 2.048v38.272h22.144v64.384h-1.984z m179.2 72.512l-2.048-26.24a55.04 55.04 0 0 0 38.272 16.128c34.176 0 68.416-32.192 68.416-88.576 0-50.304-24.128-82.56-64.448-82.56-16.064 0-32.192 8.064-46.272 20.16h-1.984v-14.08h-42.304v221.44h50.304v-46.272z m0-124.8c8-10.112 16.064-14.08 26.112-14.08 18.112 0 26.24 14.08 26.24 42.24 0 32.192-12.16 46.272-28.224 46.272a31.872 31.872 0 0 1-24.192-10.048V628.736z"
        fill="currentColor" p-id="34881"></path>
</svg>