<svg t="1749105093637" class="icon" viewBox="0 0 1024 1024" version="1.1" xmlns="http://www.w3.org/2000/svg"
    p-id="17205" width="200" height="200">
    <path
        d="M482.1 64v59.7C251.2 123.7 64 310.9 64 541.9 64 772.8 251.2 960 482.1 960c230.9 0 418.1-187.2 418.1-418.1H960C960 277.9 746.1 64 482.1 64z m59.8 64C724.7 154.3 869.7 299.3 896 482.1H541.9V128z m-59.8 772.3c-197.6 0-358.4-160.8-358.4-358.4s160.8-358.4 358.4-358.4v358.4h358.4c0 197.6-160.7 358.4-358.4 358.4z"
        fill="currentColor" p-id="17206"></path>
</svg>