<?xml version="1.0" standalone="no"?><!DOCTYPE svg PUBLIC "-//W3C//DTD SVG 1.1//EN" "http://www.w3.org/Graphics/SVG/1.1/DTD/svg11.dtd"><svg t="1765864992723" class="icon" viewBox="0 0 1024 1024" version="1.1" xmlns="http://www.w3.org/2000/svg" p-id="1267" xmlns:xlink="http://www.w3.org/1999/xlink" width="200" height="200"><path d="M686.634667 85.546667c-30.101333 0-60.181333 11.392-82.986667 34.154666L119.722667 603.669333c-45.546667 45.546667-45.546667 120.405333 0 165.973334l134.677333 134.656c45.546667 45.546667 120.405333 45.546667 165.973333 0L904.32 420.266667c45.546667-45.546667 45.525333-120.362667-0.042667-165.909334L769.621333 119.68a117.056 117.056 0 0 0-82.986666-34.154667z m0 63.573333c13.568 0 27.2 5.290667 37.76 15.829333l134.656 134.677334a32 32 0 0 0 0 0.042666c21.12 21.12 21.098667 54.272 0 75.370667L375.082667 859.050667a52.906667 52.906667 0 0 1-75.456 0l-134.677334-134.677334a52.906667 52.906667 0 0 1 0-75.456l27.392-27.328 52.053334 52.053334a32 32 0 1 0 45.226666-45.269334l-52.053333-52.053333 61.44-61.397333 73.024 73.045333a32 32 0 1 0 45.269333-45.269333l-73.045333-73.024 61.418667-61.44 52.053333 52.053333a32 32 0 1 0 45.226667-45.226667l-52.053334-52.053333 61.44-61.44 73.024 73.066667a32 32 0 1 0 45.269334-45.269334l-73.045334-73.024 91.328-91.392a53.162667 53.162667 0 0 1 37.717334-15.829333zM736 256a32 32 0 0 0 0 64 32 32 0 0 0 0-64z" fill="#a1a0a2" p-id="1268"></path></svg>