<svg t="1733904243558" class="icon" viewBox="0 0 1024 1024" version="1.1" xmlns="http://www.w3.org/2000/svg"
    p-id="11900" width="200" height="200">
    <path
        d="M793.144889 348.899556c0 134.485333-158.321778 308.110222-281.031111 434.631111-122.652444-126.464-280.974222-289.109333-280.974222-434.631111 0-159.232 126.065778-288.711111 281.031111-288.711112 154.908444 0 280.974222 129.536 280.974222 288.711112z m-127.886222-7.793778A153.429333 153.429333 0 0 0 512.113778 187.733333a153.372444 153.372444 0 0 0 0 306.631111 153.429333 153.429333 0 0 0 153.144889-153.315555zM512.113778 0C323.697778 0 170.951111 156.216889 170.951111 348.899556c-11.377778 226.929778 341.162667 519.452444 341.162667 519.452444S853.333333 584.305778 853.333333 348.842667C853.333333 156.216889 700.472889 0 512.113778 0z m0 434.289778A93.070222 93.070222 0 0 1 419.271111 341.105778c0-51.484444 41.528889-93.184 92.899556-93.184 51.313778 0 92.956444 41.756444 92.956444 93.184 0 51.484444-41.642667 93.184-92.956444 93.184z"
        fill="currentColor" p-id="11901"></path>
    <path
        d="M807.708444 659.342222c97.564444 35.84 159.402667 89.258667 159.402667 148.821334 0 108.088889-203.776 195.697778-455.111111 195.697777s-455.111111-87.608889-455.111111-195.697777c0-61.44 65.820444-116.337778 168.846222-152.234667l45.738667 58.538667c-79.872 22.528-130.503111 56.149333-130.503111 93.696 0 67.925333 166.115556 123.050667 371.029333 123.050666 204.913778 0 371.029333-55.125333 371.029333-123.050666 0-36.864-48.753778-69.916444-126.065777-92.444445l50.744888-56.376889z"
        fill="currentColor" p-id="11902"></path>
</svg>