<svg t="1694508056920" class="icon" viewBox="0 0 1024 1024" version="1.1" xmlns="http://www.w3.org/2000/svg" p-id="969"
    width="64" height="64">
    <path d="M512 512m-448 0a448 448 0 1 0 896 0 448 448 0 1 0-896 0Z" fill="#ffffff" p-id="970"
        data-spm-anchor-id="a313x.collections_detail.0.i1.3f8a3a81sIJJNw" class="selected"></path>
    <path
        d="M466.7 679.8c-8.5 0-16.6-3.4-22.6-9.4l-181-181.1c-12.5-12.5-12.5-32.8 0-45.3s32.8-12.5 45.3 0l158.4 158.5 249-249c12.5-12.5 32.8-12.5 45.3 0s12.5 32.8 0 45.3L489.3 670.4c-6 6-14.1 9.4-22.6 9.4z"
        fill="#000000" p-id="971" data-spm-anchor-id="a313x.collections_detail.0.i0.3f8a3a81sIJJNw" class=""></path>
</svg>