<svg t="1694505791647" class="icon" viewBox="0 0 1024 1024" version="1.1" xmlns="http://www.w3.org/2000/svg" p-id="969"
    width="64" height="64">
    <path d="M512 512m-448 0a448 448 0 1 0 896 0 448 448 0 1 0-896 0Z" fill="#ffffff" p-id="970"
        data-spm-anchor-id="a313x.collections_detail.0.i1.3f8a3a81NoMwY0" class=""></path>
    <path
        d="M557.3 512l113.1-113.1c12.5-12.5 12.5-32.8 0-45.3s-32.8-12.5-45.3 0L512 466.7 398.9 353.6c-12.5-12.5-32.8-12.5-45.3 0s-12.5 32.8 0 45.3L466.7 512 353.6 625.1c-12.5 12.5-12.5 32.8 0 45.3 6.2 6.2 14.4 9.4 22.6 9.4s16.4-3.1 22.6-9.4L512 557.3l113.1 113.1c6.2 6.2 14.4 9.4 22.6 9.4s16.4-3.1 22.6-9.4c12.5-12.5 12.5-32.8 0-45.3L557.3 512z"
        fill="#2c2c2c" p-id="971" data-spm-anchor-id="a313x.collections_detail.0.i0.3f8a3a81NoMwY0" class="selected">
    </path>
</svg>