<svg t="1737514308319" class="icon" viewBox="0 0 1024 1024" version="1.1" xmlns="http://www.w3.org/2000/svg" p-id="2352"
    width="200" height="200">
    <path
        d="M512 928.85a27 27 0 0 1-19.79-8.65c-1.27-1.38-31.63-34.3-72.87-85.52C359.69 761.82 310.42 694 272.89 633 217.09 542.29 190 471.71 190 417.18c0-177.57 144.46-322 322-322s322 144.46 322 322c0 54.53-27.12 125.11-82.92 215.78-37.52 61-86.8 128.85-146.44 201.71-41.24 51.23-71.61 84.15-72.88 85.53a27 27 0 0 1-19.76 8.65z m0-779.8c-147.84 0-268.12 120.28-268.12 268.13 0 30 13 86.91 74.92 187.53 35.77 58.13 85 125.87 142.31 195.9l0.15 0.17c20.32 25.25 38.11 46.13 50.74 60.6 12.63-14.47 30.42-35.35 50.74-60.6l0.15-0.17c57.33-70 106.54-137.77 142.31-195.9 61.92-100.62 74.92-157.52 74.92-187.53 0-147.85-120.28-268.13-268.12-268.13z"
        fill="#ffffff" p-id="2353"></path>
    <path
        d="M512 577c-85.72 0-155.46-69.74-155.46-155.47S426.28 266.08 512 266.08s155.46 69.74 155.46 155.46S597.72 577 512 577z m0-257a101.56 101.56 0 1 0 101.56 101.54A101.67 101.67 0 0 0 512 320z"
        fill="#f9f9f9" p-id="2354"></path>
</svg>