<?xml version="1.0" standalone="no"?><!DOCTYPE svg PUBLIC "-//W3C//DTD SVG 1.1//EN" "http://www.w3.org/Graphics/SVG/1.1/DTD/svg11.dtd"><svg t="1688976461619" class="icon" viewBox="0 0 1024 1024" version="1.1" xmlns="http://www.w3.org/2000/svg" p-id="2788" xmlns:xlink="http://www.w3.org/1999/xlink" width="64" height="64"><path d="M505.1392 906.6496c-226.304 0-410.4192-184.1152-410.4192-410.4192s184.1152-410.4704 410.4192-410.4704 410.4704 184.1664 410.4704 410.4704a34.2016 34.2016 0 1 0 68.4544 0C984.064 232.2432 769.2288 17.408 505.2416 17.408 241.3056 17.408 26.3168 232.2432 26.3168 496.2304c0 263.936 214.8864 478.8224 478.8224 478.8224a34.2016 34.2016 0 1 0 0-68.4032z" fill="#000000" p-id="2789"></path><path d="M505.1392 153.088a34.2016 34.2016 0 0 0-34.2528 34.2528v294.7584l-126.7712 126.7712a34.1504 34.1504 0 1 0 48.384 48.384l136.3968-136.448a33.024 33.024 0 0 0 5.5808-7.168s0-0.1024 0.1024-0.1024l0.7168-1.28c0-0.1024 0.1536-0.1024 0.1536-0.2048l0.6144-1.28 0.1024-0.2048c0.2048-0.4608 0.4608-0.8704 0.512-1.28 0-0.1024 0.1536-0.1024 0.1536-0.2048l0.512-1.4336 0.1024-0.2048c0.1024-0.4096 0.3584-0.8192 0.4608-1.3824l0.1024-0.2048 0.3072-1.3824c0-0.1024 0-0.2048 0.1024-0.2048a28.16 28.16 0 0 0 0.4096-1.7408c0.1536-0.4096 0.1536-0.8704 0.256-1.28 0-0.2048 0-0.3072 0.1024-0.512l0.1024-1.1776c0-0.256 0-0.512 0.1024-0.768 0-0.3072 0-0.512 0.1024-0.8704V187.392a34.3552 34.3552 0 0 0-34.304-34.304z m444.2624 582.5024h-136.704v-136.8576a34.2016 34.2016 0 1 0-68.5056 0v136.8576h-136.7552a34.2016 34.2016 0 1 0 0 68.4544h136.8576v136.8576a34.2016 34.2016 0 1 0 68.4544 0v-136.96h136.8576c18.944 0 34.2528-15.3088 34.2528-34.2528a34.5088 34.5088 0 0 0-34.4576-34.0992z" fill="#000000" p-id="2790"></path></svg>