<?xml version="1.0" standalone="no"?><!DOCTYPE svg PUBLIC "-//W3C//DTD SVG 1.1//EN" "http://www.w3.org/Graphics/SVG/1.1/DTD/svg11.dtd"><svg t="1688976017440" class="icon" viewBox="0 0 1024 1024" version="1.1" xmlns="http://www.w3.org/2000/svg" p-id="2331" xmlns:xlink="http://www.w3.org/1999/xlink" width="64" height="64"><path d="M511.88622222 598.016c-76.8 0-148.93511111-29.92355555-203.20711111-84.19555555-54.272-54.272-84.19555555-126.40711111-84.19555556-203.20711112s29.92355555-148.93511111 84.19555556-203.20711111 126.40711111-84.19555555 203.20711111-84.19555555 148.93511111 29.92355555 203.20711111 84.19555555c54.272 54.272 84.19555555 126.40711111 84.19555556 203.20711111s-29.92355555 148.93511111-84.19555556 203.20711112c-54.272 54.272-126.52088889 84.19555555-203.20711111 84.19555555z m0-501.87377778c-118.32888889 0-214.47111111 96.256-214.47111111 214.47111111 0 118.32888889 96.256 214.47111111 214.47111111 214.47111112 118.32888889 0 214.47111111-96.256 214.47111111-214.47111112s-96.256-214.47111111-214.47111111-214.47111111z" p-id="2332" fill="#000000"></path><path d="M909.76711111 997.376H114.00533333c-9.67111111 0-18.88711111-3.86844445-25.71377778-10.69511111s-10.69511111-16.04266667-10.6951111-25.71377778c0-58.59555555 11.49155555-115.48444445 34.2471111-168.96 21.84533333-51.65511111 53.248-98.07644445 93.07022223-138.01244444 39.82222222-39.82222222 86.35733333-71.11111111 138.01244444-93.07022222 53.58933333-22.64177778 110.36444445-34.13333333 169.07377778-34.13333334s115.48444445 11.49155555 169.07377778 34.13333334c51.65511111 21.84533333 98.19022222 53.13422222 138.01244444 93.07022222 39.82222222 39.82222222 71.22488889 86.24355555 93.07022223 138.01244444 22.64177778 53.58933333 34.13333333 110.36444445 34.2471111 168.96 0 9.67111111-3.86844445 18.88711111-10.6951111 25.71377778-7.05422222 6.82666667-16.27022222 10.69511111-25.94133334 10.69511111z m-757.53244444-72.81777778H871.53777778c-8.30577778-82.71644445-44.48711111-159.51644445-104.10666667-219.02222222-68.26666667-68.26666667-159.06133333-105.81333333-255.54488889-105.81333333-96.48355555 0-187.27822222 37.54666667-255.54488889 105.81333333-59.61955555 59.50577778-95.91466667 136.192-104.10666666 219.02222222z" p-id="2333" fill="#000000"></path></svg>