<?xml version="1.0" standalone="no"?><!DOCTYPE svg PUBLIC "-//W3C//DTD SVG 1.1//EN" "http://www.w3.org/Graphics/SVG/1.1/DTD/svg11.dtd"><svg t="1688523555454" class="icon" viewBox="0 0 1024 1024" version="1.1" xmlns="http://www.w3.org/2000/svg" p-id="1727" xmlns:xlink="http://www.w3.org/1999/xlink" width="64" height="64"><path d="M512 1024C229.2224 1024 0 794.7776 0 512S229.2224 0 512 0s512 229.2224 512 512-229.2224 512-512 512z m51.2-256h-102.4a25.6 25.6 0 1 0 0 51.2h102.4a25.6 25.6 0 1 0 0-51.2z m-51.2-76.8c70.784 0 98.56-11.392 101.1712-65.2288 9.0368-11.4176 19.5584-22.3488 39.424-41.8304l1.7408-1.6896c64.4864-63.1296 88.064-100.096 88.064-167.424C742.4 284.928 639.3856 179.2 512 179.2s-230.4 105.728-230.4 235.8272c0 57.5488 18.0736 98.9952 53.7088 135.8592 10.4448 10.8032 20.608 19.7632 38.4768 34.4832l9.3952 7.7056c17.152 14.1824 28.1088 23.9872 37.5808 34.2272C424.96 679.5776 448.8704 691.2 512 691.2z" fill="#2E8F79" p-id="1728"></path></svg>