<?xml version="1.0" standalone="no"?><!DOCTYPE svg PUBLIC "-//W3C//DTD SVG 1.1//EN" "http://www.w3.org/Graphics/SVG/1.1/DTD/svg11.dtd"><svg t="1689129481924" class="icon" viewBox="0 0 1029 1024" version="1.1" xmlns="http://www.w3.org/2000/svg" p-id="2320" xmlns:xlink="http://www.w3.org/1999/xlink" width="64.3125" height="64"><path d="M516.861569 0.511744C234.378811 0.511744 5.117441 229.773113 5.117441 512.255872s229.261369 511.744128 511.744128 511.744128 511.744128-229.261369 511.744128-511.744128S799.344328 0.511744 516.861569 0.511744zM332.121939 556.265867c-24.051974 0-44.009995-19.446277-44.009995-44.009995s19.446277-44.009995 44.009995-44.009995 44.009995 19.446277 44.009995 44.009995-19.446277 44.009995-44.009995 44.009995z m407.86007-31.216392l-153.011494 153.011495c-3.070465 3.582209-7.676162 5.629185-12.793603 5.117441-4.605697 0-9.211394-2.046977-12.793604-5.117441s-5.117441-7.676162-5.117441-12.793604v-92.113943H473.875062c-2.046977 0-4.093953 0.511744-6.140929 0.511744-33.775112 0-60.897551-27.122439-60.897551-60.897551s27.122439-60.897551 60.897551-60.897551c2.046977 0 4.093953 0 6.140929 0.511744h82.390805v-92.113943c0-4.605697 1.535232-9.211394 5.117441-12.793603s7.676162-5.117441 12.793604-5.117441c4.605697 0 9.211394 1.535232 12.793603 5.117441l153.011494 153.011494c3.582209 3.582209 5.117441 7.676162 5.117441 12.793603 0 3.582209-2.046977 8.187906-5.117441 11.770115z" fill="#1C293A" p-id="2321"></path></svg>