<?xml version="1.0" standalone="no"?><!DOCTYPE svg PUBLIC "-//W3C//DTD SVG 1.1//EN" "http://www.w3.org/Graphics/SVG/1.1/DTD/svg11.dtd"><svg t="1689135184610" class="icon" viewBox="0 0 1121 1024" version="1.1" xmlns="http://www.w3.org/2000/svg" p-id="33953" xmlns:xlink="http://www.w3.org/1999/xlink" width="70.0625" height="64"><path d="M1089.8944 766.788267H31.547733a31.069867 31.069867 0 0 0-31.1552 31.0016v186.5216A31.086933 31.086933 0 0 0 31.402667 1015.466667h1058.491733a31.086933 31.086933 0 0 0 31.112533-31.061334V797.841067a31.095467 31.095467 0 0 0-31.112533-31.0528zM187.170133 953.250133H62.651733V828.910933H187.221333v124.3392h-0.0512z m186.743467 0H249.480533V828.910933h124.475734v124.3392h-0.042667z m186.7776 0H436.215467V828.910933h124.475733v124.3392zM1089.8944 20.7872H31.547733A31.086933 31.086933 0 0 0 0.392533 51.797333v186.555734a31.0784 31.0784 0 0 0 31.0528 31.112533h1058.449067a31.086933 31.086933 0 0 0 31.112533-31.061333V51.899733a31.095467 31.095467 0 0 0-31.061333-31.112533h-0.0512zM187.170133 207.249067H62.651733V82.961067H187.221333v124.3392l-0.0512-0.0512z m186.743467 0H249.480533V82.961067h124.475734v124.3392l-0.042667-0.0512z m186.7776 0H436.215467V82.961067h124.475733v124.3392-0.0512z m529.2032 186.513066H31.547733a31.086933 31.086933 0 0 0-31.1552 31.010134v186.564266a31.0784 31.0784 0 0 0 31.0528 31.112534h1058.449067a31.086933 31.086933 0 0 0 31.112533-31.061334V424.874667a31.086933 31.086933 0 0 0-31.061333-31.112534h-0.0512zM187.170133 580.2752H62.651733V455.936H187.221333v124.3392h-0.0512z m186.743467 0H249.480533V455.936h124.475734v124.3392h-0.042667z m186.7776 0H436.215467V455.936h124.475733v124.3392z" p-id="33954" fill="#2E8F79"></path></svg>