<svg t="1731411519246" class="icon" viewBox="0 0 1024 1024" version="1.1" xmlns="http://www.w3.org/2000/svg" p-id="1469"
    width="200" height="200">
    <path
        d="M627.2 224C268.8 262.4 256 665.6 256 665.6c115.2-192 204.8-262.4 428.8-262.4V576L896 416v256c0 38.4-25.6 64-64 64H192c-38.4 0-64-25.6-64-64v-384c0-38.4 25.6-64 64-64h435.2z"
        fill="#d6f6eb" p-id="1470" data-spm-anchor-id="a313x.search_index.0.i2.c7733a817Ejdc0" class="selected"></path>
    <path
        d="M256 256H192c-38.4 0-64 25.6-64 64v384c0 38.4 25.6 64 64 64h640c38.4 0 64-25.6 64-64V448l64-51.2V704c0 70.4-57.6 128-128 128H192c-70.4 0-128-57.6-128-128V320c0-70.4 57.6-128 128-128h192c0 38.4-25.6 64-64 64H256z m556.8-64h19.2c64 0 115.2 51.2 128 108.8L812.8 192z m-140.8 0H768v64h-96c-19.2 0-32-12.8-32-32s12.8-32 32-32z"
        fill="#2e8f79" p-id="1471" data-spm-anchor-id="a313x.search_index.0.i1.c7733a817Ejdc0" class=""></path>
    <path
        d="M684.8 371.2v172.8l339.2-256L684.8 25.6v160c-409.6 0-428.8 448-428.8 448 115.2-192 204.8-262.4 428.8-262.4z"
        fill="#2e8f79" p-id="1472" data-spm-anchor-id="a313x.search_index.0.i0.c7733a817Ejdc0" class=""></path>
</svg>