<?xml version="1.0" standalone="no"?><!DOCTYPE svg PUBLIC "-//W3C//DTD SVG 1.1//EN" "http://www.w3.org/Graphics/SVG/1.1/DTD/svg11.dtd"><svg t="1765865496958" class="icon" viewBox="0 0 1024 1024" version="1.1" xmlns="http://www.w3.org/2000/svg" p-id="956" xmlns:xlink="http://www.w3.org/1999/xlink" width="200" height="200"><path d="M1004.72704 466.4L557.62304 19.328a65.952 65.952 0 0 0-93.28 0L360.47104 123.2l78.176 78.176a96 96 0 0 1 128 128l127.968 127.968a96 96 0 1 1-45.248 45.248l-127.968-127.968a88.832 88.832 0 0 1-9.376 3.872v266.976a96 96 0 1 1-64 0v-266.976a96 96 0 0 1-54.624-131.904L315.22304 168.416 19.31904 464.288a65.952 65.952 0 0 0 0 93.28l447.136 447.072a65.952 65.952 0 0 0 93.28 0l444.992-444.992a65.952 65.952 0 0 0 0-93.28z" p-id="957" fill="#2f8f79"></path></svg>