<svg width="200px" height="83.3333334px" viewBox="0 0 200 83.3333334" version="1.1" xmlns="http://www.w3.org/2000/svg"
    xmlns:xlink="http://www.w3.org/1999/xlink">
    <g id="页面-1" stroke="none" stroke-width="1" fill="none" fill-rule="evenodd">
        <g id="编组" fill-rule="nonzero">
            <path
                d="M170.833333,25 L187.5,25 C194.403559,25 200,30.5964406 200,37.5 C200,44.4035594 194.403559,50 187.5,50 L170.833333,50 C163.929774,50 158.333333,44.4035594 158.333333,37.5 C158.333333,30.5964406 163.929774,25 170.833333,25 L170.833333,25 Z"
                id="路径" fill="#9CD9AE"></path>
            <path
                d="M12.5,25 L29.1666666,25 C36.070226,25 41.6666666,30.5964406 41.6666666,37.5 C41.6666666,44.4035594 36.070226,50 29.1666666,50 L12.5,50 C5.59644063,50 0,44.4035594 0,37.5 C0,30.5964406 5.59644063,25 12.5,25 L12.5,25 Z"
                id="路径" fill="#9CD9AE"></path>
            <path
                d="M100,66.6666668 C113.807119,66.6666668 125,55.4737855 125,41.6666668 C125,27.8595481 113.807119,16.6666668 100,16.6666668 C86.1928813,16.6666668 75,27.8595481 75,41.6666668 C75,55.4737855 86.1928813,66.6666668 100,66.6666668 Z M100,83.3333334 C76.9881354,83.3333334 58.3333333,64.6785313 58.3333333,41.6666667 C58.3333333,18.6548021 76.9881354,0 100,0 C123.011865,0 141.666667,18.6548021 141.666667,41.6666667 C141.666667,64.6785313 123.011865,83.3333334 100,83.3333334 Z"
                id="形状" fill="#2E8F79"></path>
        </g>
    </g>
</svg>