<svg width="192.569392px" height="179.75px" viewBox="0 0 192.569392 179.75" version="1.1"
    xmlns="http://www.w3.org/2000/svg" xmlns:xlink="http://www.w3.org/1999/xlink">
    <g id="页面-1" stroke="none" stroke-width="1" fill="none" fill-rule="evenodd">
        <g id="编组" fill="currentColor" fill-rule="nonzero">
            <path
                d="M118.356892,116.2 C97.1767719,116.2 80.0068921,99.0301202 80.0068921,77.85 C80.0068921,56.6698798 97.1767719,39.5 118.356892,39.5 C139.537012,39.5 156.706892,56.6698798 156.706892,77.85 C156.594099,98.9832234 139.490115,116.087207 118.356892,116.2 L118.356892,116.2 Z"
                id="形状"></path>
            <path
                d="M172.644392,46.8 C161.656385,46.7725492 152.753738,37.8754881 152.719392,26.8875 C152.719392,15.925 161.681892,6.9625 172.644392,6.9625 C183.594392,6.9625 192.569392,15.925 192.569392,26.8875 C192.569392,37.8375 183.594392,46.8 172.644392,46.8 L172.644392,46.8 Z"
                id="形状"></path>
            <polygon id="路径"
                points="143.544392 53.525 158.669392 38.15 161.031892 40.4875 145.906892 55.8625 143.544392 53.525">
            </polygon>
            <path
                d="M30.8818921,19.925 C30.8818921,26.4375 34.3568921,32.4625 39.9943921,35.7375 C47.6698397,40.1656028 57.4165417,38.4448229 63.1116672,31.656146 C68.8067928,24.8674691 68.8067928,14.9700309 63.1116672,8.18135398 C57.4165417,1.39267706 47.6698397,-0.328102778 39.9943921,4.1 C34.353975,7.37432795 30.8824463,13.4030733 30.8818921,19.925 L30.8818921,19.925 Z"
                id="路径"></path>
            <path
                d="M49.1318921,39.8375 C38.1487658,39.8031882 29.2537039,30.9081263 29.2193921,19.925 C29.2193921,8.975 38.1818921,0 49.1318921,0 C60.0818921,0 69.0443921,8.9625 69.0443921,19.925 C69.0169098,30.9109664 60.1178585,39.8100178 49.1318921,39.8375 L49.1318921,39.8375 Z M49.1318921,3.325 C39.8318921,3.325 32.5318921,10.625 32.5318921,19.925 C32.5318921,29.225 39.8318921,36.525 49.1318921,36.525 C58.4318921,36.525 65.7318921,29.225 65.7318921,19.925 C65.7318921,10.625 58.4318921,3.325 49.1318921,3.325 Z"
                id="形状"></path>
            <path
                d="M61.1068921,32.2125 L63.0943921,29.5625 L91.2318921,50.7 L89.2318921,53.3375 L61.1068921,32.2125 L61.1068921,32.2125 Z M78.2693921,120.05 L90.2193921,98.95 L93.1068921,100.6 L81.1568921,121.6625 L78.2693921,120.05 Z M18.2818921,120.0875 L19.0068921,116.85 L52.0693921,124.175 L51.3443921,127.425 L18.2818921,120.0875 L18.2818921,120.0875 Z"
                id="形状"></path>
            <path
                d="M49.1068867,132.966266 C49.115877,143.7013 57.8256239,152.396482 68.5606579,152.387506 C79.2956919,152.378515 87.9908741,143.668768 87.9818977,132.933734 C87.9729075,122.1987 79.2631606,113.503518 68.5281265,113.512495 C57.7930925,113.521485 49.0979104,122.231232 49.1068867,132.966266 L49.1068867,132.966266 Z"
                id="路径"></path>
            <path
                d="M0.0068920707,115.5 C-0.138933113,119.741527 2.0382658,123.725446 5.68682647,125.893353 C9.33538714,128.061261 13.8754037,128.068587 17.5309424,125.912467 C21.186481,123.756347 23.3765268,119.779476 23.2443921,115.5375 C23.0491145,109.268425 17.9158954,104.284572 11.6437878,104.274435 C5.37168016,104.264329 0.222402273,109.231588 0.0068920707,115.5 Z"
                id="路径"></path>
            <path
                d="M173.619392,89.625 C173.619392,94.2089634 177.335429,97.925 181.919392,97.925 C186.503355,97.925 190.219392,94.2089634 190.219392,89.625 C190.219392,85.0410366 186.503355,81.325 181.919392,81.325 C177.335429,81.325 173.619392,85.0410366 173.619392,89.625 Z"
                id="路径"></path>
            <path
                d="M181.906892,99.5875 C179.251307,99.6319114 176.69142,98.5965615 174.813375,96.7185166 C172.935331,94.8404718 171.899981,92.2805851 171.944392,89.625 C171.944392,83.975 176.269392,79.6625 181.906892,79.6625 C187.556892,79.6625 191.869392,83.975 191.869392,89.625 C191.869392,95.25 187.569392,99.5875 181.906892,99.5875 L181.906892,99.5875 Z M181.906892,82.9749882 C179.209894,82.9699447 176.775882,84.5913549 175.741449,87.0820922 C174.707016,89.5728295 175.276236,92.4415183 177.183305,94.3485872 C179.090374,96.2556562 181.959063,96.8248765 184.4498,95.7904434 C186.940537,94.7560104 188.561947,92.321998 188.556904,89.625 C188.543184,85.9579997 185.573892,82.9887086 181.906892,82.9749882 Z"
                id="形状"></path>
            <polygon id="路径" points="171.744392 46.825 175.006892 46.15 182.144392 80.6 178.894392 81.275"></polygon>
            <path
                d="M132.094392,159.75 C132.094392,170.795695 141.048697,179.75 152.094392,179.75 C163.140087,179.75 172.094392,170.795695 172.094392,159.75 C172.094392,148.704305 163.140087,139.75 152.094392,139.75 C141.048697,139.75 132.094392,148.704305 132.094392,159.75 Z"
                id="路径"></path>
            <polygon id="路径"
                points="129.844392 109.7375 132.819392 108.3125 149.019392 142.5125 146.019392 143.9375 129.844392 109.7375">
            </polygon>
        </g>
    </g>
</svg>