<?xml version="1.0" standalone="no"?><!DOCTYPE svg PUBLIC "-//W3C//DTD SVG 1.1//EN" "http://www.w3.org/Graphics/SVG/1.1/DTD/svg11.dtd"><svg t="1688107558774" class="icon" viewBox="0 0 1024 1024" version="1.1" xmlns="http://www.w3.org/2000/svg" p-id="11225" xmlns:xlink="http://www.w3.org/1999/xlink" width="64" height="64"><path d="M364.032 125.312a293.973333 293.973333 0 0 1 300.117333 2.474667C755.626667 184.618667 811.178667 286.08 810.666667 395.093333c-2.133333 108.373333-61.738667 210.304-136.234667 289.066667a799.018667 799.018667 0 0 1-143.274667 120.32 50.048 50.048 0 0 1-17.408 6.144 34.986667 34.986667 0 0 1-16.64-5.077333 789.973333 789.973333 0 0 1-206.464-194.005334A395.946667 395.946667 0 0 1 213.333333 389.717333c-0.042667-109.312 57.472-210.261333 150.698667-264.405333z m53.845333 309.674667a101.461333 101.461333 0 0 0 93.781334 63.872 99.797333 99.797333 0 0 0 71.808-29.909334c19.029333-19.370667 29.696-45.653333 29.610666-73.088a103.381333 103.381333 0 0 0-62.378666-95.701333 100.096 100.096 0 0 0-110.677334 22.186667 104.746667 104.746667 0 0 0-22.144 112.64z" fill="#2E8F79" p-id="11226"></path><path d="M298.666667 896a213.333333 42.666667 0 1 0 426.666666 0 213.333333 42.666667 0 1 0-426.666666 0Z" fill="#2E8F79" opacity=".4" p-id="11227"></path></svg>