<?xml version="1.0" standalone="no"?>
<!DOCTYPE svg PUBLIC "-//W3C//DTD SVG 1.1//EN" "http://www.w3.org/Graphics/SVG/1.1/DTD/svg11.dtd">
<svg t="1689239132033" class="icon" viewBox="0 0 1080 1024" version="1.1"
    xmlns="http://www.w3.org/2000/svg" p-id="35942" xmlns:xlink="http://www.w3.org/1999/xlink"
    width="67.5" height="64">
    <animateTransform
        attributeName="transform"
        attributeType="XML"
        type="rotate"
        from="0 0 0"
        to="360 0 0"
        dur="0.8s"
        repeatCount="indefinite"
    />
    <path
        d="M227.783111 165.319111c5.973333-4.096 11.548444-8.078222 17.009778-11.491555 5.347556-3.527111 10.524444-6.542222 15.246222-9.443556l6.940445-3.982222 6.257777-3.470222 2.844445-1.479112 2.616889-1.308444 4.721777-2.446222 2.104889-1.080889 2.389334-1.137778 4.209777-2.104889 7.736889-3.754666A64.739556 64.739556 0 1 0 233.415111 12.970667l-6.940444 5.063111-3.811556 2.730666-2.275555 1.592889-2.787556 2.104889-6.257778 4.664889-3.413333 2.616889a35856.668444 35856.668444 0 0 1-10.808889 8.533333c-2.503111 2.104889-5.176889 4.152889-7.850667 6.542223-5.347556 4.608-11.207111 9.557333-17.123555 15.189333-6.087111 5.404444-12.231111 11.605333-18.773334 17.976889-6.257778 6.599111-12.913778 13.425778-19.512888 20.992a541.639111 541.639111 0 0 0-76.060445 111.104c-11.377778 22.243556-21.219556 45.283556-29.354667 68.949333-1.137778 3.015111-2.048 6.030222-3.015111 9.102222l-2.844444 9.102223c-1.877333 6.087111-3.584 12.288-5.290667 18.432l-2.275555 9.329777c-0.739556 3.128889-1.592889 6.200889-2.218667 9.329778l-1.991111 9.386667-0.967111 4.664889-0.853334 4.721777c-4.551111 24.860444-7.281778 50.005333-8.135111 75.264-0.341333 6.200889-0.284444 12.344889-0.284444 18.488889v4.551111l0.056889 4.608 0.284444 9.102223 0.113778 4.551111 0.284444 4.494222 0.568889 8.931556 0.341334 4.778666 0.398222 4.266667 0.853333 8.362667 0.455111 4.209777 0.568889 4.437334 1.137778 8.704 0.568889 4.323555 0.682667 4.209778 1.422222 8.305778a507.676444 507.676444 0 0 0 24.291555 88.746666l2.446223 6.428445 1.137777 3.072 1.308445 3.072 4.949333 11.776c3.527111 7.566222 6.656 14.791111 10.069333 21.333333a487.822222 487.822222 0 0 0 31.402667 54.044445l4.835556 7.111111-3.584-7.850667a471.893333 471.893333 0 0 1-21.617778-57.685333c-2.161778-6.826667-3.982222-14.336-6.144-22.072889l-2.844445-12.060445-0.682666-3.072-0.568889-3.185777-1.308445-6.371556a472.746667 472.746667 0 0 1-8.590222-86.584889V521.671111L43.633778 517.688889l0.284444-7.793778 0.170667-3.925333 0.284444-4.152889 0.853334-12.629333v-0.284445 0.113778l0.113777-0.568889 0.056889-0.967111 0.227556-2.048 0.853333-8.135111 0.455111-4.096 0.568889-4.096 1.137778-8.192 0.568889-4.096 0.739555-4.096c1.024-5.461333 1.877333-10.922667 3.072-16.384 4.551111-21.959111 10.695111-43.52 18.375112-64.568889l1.422222-3.982222 1.536-3.868445 3.072-7.736889c0.967111-2.616889 2.161778-5.12 3.242666-7.68l3.299556-7.623111c2.389333-5.006222 4.721778-10.012444 7.168-14.904889l3.754667-7.281777c1.251556-2.446222 2.446222-4.835556 3.811555-7.224889A445.724444 445.724444 0 0 1 171.121778 213.902222c12.117333-12.344889 24.974222-23.893333 38.456889-34.702222 6.200889-5.12 12.401778-9.557333 18.204444-13.880889z"
        fill="#2E8F79" opacity=".2" p-id="35943"></path>
    <path
        d="M1060.181333 487.594667l-0.967111-8.533334-1.137778-10.24-0.682666-6.599111-1.251556-8.760889-3.015111-20.366222-4.551111-22.471111c-0.796444-3.982222-1.934222-8.078222-3.015111-12.288l-3.299556-12.913778c-0.568889-2.218667-1.137778-4.437333-1.820444-6.656l-2.104889-6.826666-4.380444-13.994667-1.137778-3.584-1.251556-3.584-2.673778-7.224889c-1.820444-4.835556-3.584-9.784889-5.518222-14.791111l-6.371555-15.075556-3.299556-7.623111-3.584-7.68-7.566222-15.416889a65.536 65.536 0 0 0-1.991111-3.868444l-2.104889-3.868445-4.266667-7.736888-4.266666-7.850667c-1.479111-2.616889-3.128889-5.12-4.664889-7.68l-9.557334-15.530667a577.422222 577.422222 0 0 0-45.169777-59.847111 573.553778 573.553778 0 0 0-54.385778-53.816889 567.352889 567.352889 0 0 0-60.984889-44.714666c-21.105778-13.084444-42.666667-24.348444-64-34.019556l-16.042667-6.656c-2.616889-1.080889-5.233778-2.275556-7.907555-3.185778l-7.964445-2.844444-7.850666-2.844445-3.868445-1.365333a57.457778 57.457778 0 0 0-3.868444-1.308444l-15.473778-4.664889c-2.56-0.739556-5.006222-1.592889-7.566222-2.275556L673.052444 17.066667l-14.677333-3.640889-14.336-2.844445-6.940444-1.365333-3.413334-0.682667-3.413333-0.512-13.368889-1.934222-6.371555-0.910222c-2.104889-0.284444-4.266667-0.398222-6.314667-0.625778l-12.060445-1.137778c-3.982222-0.398222-7.736889-0.796444-11.377777-0.910222L560.071111 1.592889 542.606222 1.706667h-7.395555l-6.599111 0.398222-10.353778 0.625778-8.533334 0.512 8.533334 0.967111 10.24 1.137778 6.485333 0.682666 7.281778 1.194667 17.009778 2.787555 19.740444 4.209778c3.527111 0.682667 7.111111 1.706667 10.808889 2.730667l11.377778 3.072c1.934222 0.568889 3.925333 0.967111 5.859555 1.592889l5.973334 1.934222 12.288 3.982222 3.185777 1.024 3.128889 1.194667 6.314667 2.389333c4.266667 1.649778 8.647111 3.242667 13.027556 5.006222l13.141333 5.745778 6.712889 2.958222c2.275556 0.967111 4.437333 2.161778 6.656 3.242667l13.539555 6.769778c1.137778 0.568889 2.275556 1.137778 3.413334 1.820444l3.356444 1.877334 6.826667 3.811555 6.826666 3.811556c2.275556 1.308444 4.437333 2.844444 6.712889 4.209778l13.539556 8.533333c17.806222 12.060444 35.441778 25.429333 52.110222 40.220444 16.611556 15.018667 32.199111 31.175111 46.705778 48.241778 14.051556 17.066667 26.908444 35.100444 38.570667 53.873778 11.264 18.602667 20.878222 37.603556 29.127111 56.32l5.632 14.051555c0.910222 2.275556 1.877333 4.551111 2.730666 6.940445l2.389334 6.940444 2.332444 6.883556 1.194667 3.413333 1.137778 3.413334 3.868444 13.482666c0.568889 2.275556 1.308444 4.437333 1.877333 6.656l1.536 6.599111 3.072 12.8 2.275556 12.515556 1.137778 6.087111 0.568889 2.958222 0.398222 3.015111 1.479111 11.605334 0.796444 5.575111c0.227556 1.820444 0.284444 3.640889 0.455111 5.461333l0.853334 10.524445c0.284444 3.413333 0.625778 6.712889 0.625778 9.898666l0.568888 17.976889-0.341333 14.108445-0.113778 6.030222-0.398222 6.428444-0.568889 10.353778-0.568889 8.533333a64.739556 64.739556 0 1 0 128.967111-3.242666h0.056889z"
        fill="#2E8F79" p-id="35944"></path>
    <path
        d="M910.961778 758.556444l-5.233778 6.314667c-1.877333 2.275556-3.697778 4.551111-5.802667 6.883556-4.152889 4.721778-8.533333 9.841778-13.596444 15.018666-4.835556 5.347556-10.353778 10.695111-16.042667 16.327111-5.859556 5.518222-11.946667 11.377778-18.659555 17.066667a477.013333 477.013333 0 0 1-98.531556 65.991111 463.644444 463.644444 0 0 1-60.871111 25.144889c-2.616889 0.967111-5.290667 1.706667-7.964444 2.56l-8.021334 2.446222c-5.404444 1.536-10.808889 2.958222-16.213333 4.380445l-8.192 1.934222c-2.730667 0.568889-5.404444 1.308444-8.192 1.820444l-8.248889 1.649778-4.096 0.796445-4.152889 0.682666c-21.788444 3.754667-43.804444 5.916444-65.934222 6.428445-5.404444 0.227556-10.808889 0.056889-16.156445 0.056889H541.013333c-1.308444 0-2.56-0.113778-3.868444-0.170667l-7.566222-0.341333-3.811556-0.170667-4.266667-0.284444-8.533333-0.568889-2.161778-0.170667H509.724444l-0.568888-0.113778h0.568888-0.284444l-3.868444-0.455111-7.68-0.853333a437.248 437.248 0 0 1-106.780445-26.624l-5.461333-2.218667-2.730667-1.024-2.616889-1.137778-10.24-4.494222c-6.485333-3.128889-12.743111-5.916444-18.375111-8.931555a424.106667 424.106667 0 0 1-28.842667-16.270223l-1.479111-0.853333a1167.587556 1167.587556 0 0 0-3.697777-2.446222l-4.437334-2.901334-1.991111-1.308444-2.161778-1.422222-3.868444-2.616889-7.168-4.835556a64.739556 64.739556 0 1 0-62.805333 112.696889l7.850666 3.584 4.266667 1.934222 2.56 1.137778 3.185778 1.365334 7.168 3.128888 3.982222 1.706667 2.048 0.853333 2.048 0.796445c10.979556 4.323556 24.348444 9.443556 39.992889 14.222222 7.736889 2.56 16.156444 4.778667 24.974222 7.281778l13.653333 3.299555 3.470223 0.853334 3.584 0.739555 7.281777 1.536a537.429333 537.429333 0 0 0 134.257778 10.126223l9.216-0.568889 4.608-0.284445h1.308445l0.512-0.056889 1.024-0.113777 2.161777-0.227556 8.533334-0.853333 4.266666-0.455111 4.835556-0.568889 9.671111-1.251556 4.892444-0.625778 4.664889-0.796444c6.257778-1.024 12.515556-1.934222 18.716445-3.299556a521.671111 521.671111 0 0 0 73.841778-20.081777l4.551111-1.592889 4.437333-1.706667 8.931556-3.413333c2.958222-1.080889 5.859556-2.389333 8.817777-3.584l8.704-3.697778c5.745778-2.673778 11.491556-5.233778 17.180445-7.964445l8.362666-4.209777c2.844444-1.422222 5.575111-2.787556 8.305778-4.266667a510.065778 510.065778 0 0 0 112.64-81.635556 501.76 501.76 0 0 0 40.391111-43.633777c5.859556-7.054222 11.093333-14.051556 16.099556-20.707556 4.835556-6.826667 9.443556-13.084444 13.425778-19.342222 4.209778-6.087111 7.736889-12.003556 11.093333-17.408 1.706667-2.673778 3.185778-5.404444 4.664889-7.907556l4.152889-7.224889a482.986667 482.986667 0 0 0 11.264-21.617777l3.811555-7.736889-5.063111 6.997333c-3.185778 4.551111-8.192 11.093333-14.620444 19.285333z"
        fill="#2E8F79" opacity=".6" p-id="35945"></path>
</svg>