<?xml version="1.0" standalone="no"?><!DOCTYPE svg PUBLIC "-//W3C//DTD SVG 1.1//EN" "http://www.w3.org/Graphics/SVG/1.1/DTD/svg11.dtd"><svg t="1686707607768" class="icon" viewBox="0 0 1024 1024" version="1.1" xmlns="http://www.w3.org/2000/svg" p-id="162495" xmlns:xlink="http://www.w3.org/1999/xlink" width="64" height="64"><path d="M687 620H337c-19.3 0-35 15.7-35 35s15.7 35 35 35h350c19.3 0 35-15.7 35-35s-15.7-35-35-35zM610 402c16.6 0 30-13.4 30-30V262c0-16.6-13.4-30-30-30s-30 13.4-30 30v110c0 16.6 13.4 30 30 30z" p-id="162496" fill="#2c2c2c"></path><path d="M852 112H172c-33.1 0-60 26.9-60 60v680c0 33.1 26.9 60 60 60h680c33.1 0 60-26.9 60-60V172c0-33.1-26.9-60-60-60z m-520 70h360v256c0 7.7-6.3 14-14 14H346c-7.7 0-14-6.3-14-14V182z m510 630c0 16.6-13.4 30-30 30H212c-16.6 0-30-13.4-30-30V212c0-16.6 13.4-30 30-30h50v300c0 16.6 13.4 30 30 30h440c16.6 0 30-13.4 30-30V182h50c16.6 0 30 13.4 30 30v600z" p-id="162497" fill="#2c2c2c"></path></svg>