<svg xmlns="http://www.w3.org/2000/svg" width="64" height="64" class="icon" viewBox="0 0 1024 1024"><path fill="#2E8F79" d="M512 1024C229.222 1024 0 794.778 0 512S229.222 0 512 0s512 229.222 512 512-229.222 512-512 512zm51.2-256H460.8a25.6 25.6 0 1 0 0 51.2h102.4a25.6 25.6 0 1 0 0-51.2zM512 691.2c70.784 0 98.56-11.392 101.171-65.229 9.037-11.417 19.559-22.349 39.424-41.83l1.741-1.69c64.486-63.13 88.064-100.096 88.064-167.424C742.4 284.928 639.386 179.2 512 179.2S281.6 284.928 281.6 415.027c0 57.549 18.074 98.995 53.709 135.86 10.445 10.803 20.608 19.763 38.477 34.483l9.395 7.705c17.152 14.183 28.109 23.987 37.58 34.227C424.96 679.578 448.872 691.2 512 691.2z"/></svg>