<svg width="240px" height="240px" viewBox="0 0 240 240" version="1.1" xmlns="http://www.w3.org/2000/svg"
    xmlns:xlink="http://www.w3.org/1999/xlink">
    <g stroke="none" stroke-width="1" fill="none" fill-rule="evenodd">
        <g fill-rule="nonzero">
            <path
                d="M0,120 C0,162.87187 22.87187,202.487113 60,223.923048 C97.128129,245.358984 142.871871,245.358984 180,223.923048 C217.12813,202.487113 240,162.87187 240,120 C240,53.7258296 186.27417,0 120,0 C53.72583,0 0,53.7258296 0,120 Z"
                fill="currentColor"></path>
            <path
                d="M141.17,186.369999 L98.65,186.369999 C95.34,186.369999 92.65,183.679999 92.65,180.369999 C92.65,177.059999 95.34,174.369999 98.65,174.369999 L141.17,174.369999 C144.48,174.369999 147.17,177.059999 147.17,180.369999 C147.17,183.679999 144.48,186.369999 141.17,186.369999 L141.17,186.369999 Z M120.99,53.1699987 C92.8,52.2499987 68.85,75.4099987 68.85,103.619999 C68.85,121.709999 78.37,137.559999 92.66,146.469999 L92.66,157.959999 C92.66,162.779999 96.57,166.679999 101.38,166.679999 L138.12,166.679999 C142.94,166.679999 146.84,162.769999 146.84,157.959999 L146.84,145.919999 C160.66,136.909999 169.800003,121.329999 169.800003,103.609999 C169.81,76.2999987 148.1,54.0499987 120.99,53.1699987 L120.99,53.1699987 Z M105.93,86.8299987 C105.77,86.9899987 97.93,94.5699987 97.5,105.849999 C97.37,109.349999 94.48,112.099999 91.01,112.099999 L90.76,112.099999 C87.1716947,111.95857 84.3753954,108.938566 84.51,105.349999 C85.16,88.4899987 96.6,77.7499987 97.09,77.2999987 C99.7310381,74.8674617 103.843067,75.0330167 106.28,77.6699987 C108.708241,80.2978038 108.551683,84.3951491 105.93,86.8299987 L105.93,86.8299987 Z"
                fill="#FFFFFF"></path>
            <path
                d="M163.46,88.8999987 C163.46,85.0999987 163.17,81.3699987 162.65,77.7099987 C154.1,63.4399987 138.7,53.7399987 120.99,53.1699987 C92.8,52.2499987 68.85,75.4099987 68.85,103.619999 C68.85,121.709999 78.37,137.559999 92.66,146.469999 L92.66,157.959999 C92.66,161.769999 95.11,165.009999 98.52,166.189999 C135.41,159.779999 163.46,127.619999 163.46,88.8999987 L163.46,88.8999987 Z M105.93,86.8299987 C105.77,86.9899987 97.93,94.5699987 97.5,105.849999 C97.37,109.349999 94.48,112.099999 91.01,112.099999 L90.76,112.099999 C87.1716947,111.95857 84.3753954,108.938566 84.51,105.349999 C85.16,88.4899987 96.6,77.7499987 97.09,77.2999987 C99.7310381,74.8674617 103.843067,75.0330167 106.28,77.6699987 C108.708241,80.2978038 108.551683,84.3951491 105.93,86.8299987 L105.93,86.8299987 Z"
                fill="#FFFFFF"></path>
            <path
                d="M68.85,103.619999 C68.85,116.589999 73.77,128.409999 81.81,137.339999 C116.32,129.089999 141.99,98.0599987 141.99,61.0199987 C141.99,60.1699987 141.95,59.3199987 141.93,58.4699987 C135.422499,55.1990012 128.279803,53.3868791 121,53.1599987 C92.8,52.2499987 68.85,75.4099987 68.85,103.619999 L68.85,103.619999 Z M105.93,86.8299987 C105.77,86.9899987 97.93,94.5699987 97.5,105.849999 C97.37,109.349999 94.48,112.099999 91.01,112.099999 L90.76,112.099999 C87.1716947,111.95857 84.3753954,108.938566 84.51,105.349999 C85.16,88.4899987 96.6,77.7499987 97.09,77.2999987 C99.7310381,74.8674617 103.843067,75.0330167 106.28,77.6699987 C108.708241,80.2978038 108.551683,84.3951491 105.93,86.8299987 L105.93,86.8299987 Z"
                fill="#FFFFFF"></path>
            <path
                d="M97.09,77.2999987 C98.6020418,75.906458 100.683656,75.309345 102.704479,75.6894802 C104.725301,76.0696154 106.447667,77.3822919 107.35,79.2299987 C112.96,71.4799987 117.21,62.6699987 119.7,53.1499987 C92.07,52.9899987 68.85,75.8499987 68.85,103.619999 C68.85,104.949999 68.92,106.259999 69.02,107.559999 C74.6548486,105.646664 80.0530716,103.096851 85.11,99.9599987 C87.58,86.2299987 96.66,77.6999987 97.09,77.2999987 L97.09,77.2999987 Z"
                fill="#FFFFFF"></path>
        </g>
    </g>
</svg>