<svg width="180px" height="180px" viewBox="0 0 180 180" version="1.1" xmlns="http://www.w3.org/2000/svg"
    xmlns:xlink="http://www.w3.org/1999/xlink">
    <g stroke="none" stroke-width="1" fill="none" fill-rule="evenodd">
        <g fill-rule="nonzero">
            <path
                d="M180,90 C180,139.707692 139.707692,180 90,180 C40.2923077,180 0,139.707692 0,90 C0,40.2923077 40.2923077,0 90,0 C139.707692,0 180,40.2923077 180,90 Z"
                fill="currentColor"></path>
            <path
                d="M143.4,52.9333332 C147.299378,56.8375672 147.299378,63.1624326 143.4,67.0666666 L83.4,127.066667 C79.495766,130.966045 73.1709006,130.966045 69.2666666,127.066667 L35.9333332,93.7333332 C32.2618822,89.7932031 32.3702156,83.6532039 36.1783764,79.845043 C39.9865373,76.0368822 46.1265365,75.9285489 50.0666666,79.6 L76.3333332,105.853333 L129.266667,52.92 C133.170901,49.0206216 139.495766,49.0206216 143.4,52.92 L143.4,52.9333332 Z"
                fill="#FFFFFF"></path>
        </g>
    </g>
</svg>