<svg xmlns="http://www.w3.org/2000/svg" width="64" height="64" class="icon" viewBox="0 0 1024 1024"><path fill="#2E8F79" d="M511.351 34.133c263.612 0 478.516 213.64 478.516 477.218 0 263.612-214.904 478.516-478.516 478.516-263.543 0-477.218-214.904-477.218-478.516 0-263.543 213.64-477.218 477.218-477.218zm250.505 290.134-297.95 339.968L308.224 481.28a6.827 6.827 0 0 0-10.65.307l-42.871 56.798a6.827 6.827 0 0 0 .614 8.909l165.41 166.263-.102.137 31.403 31.368 3.003 2.458a23.893 23.893 0 0 0 30.823-2.492l25.293-25.327-.649-.75 317.713-328.295-66.355-66.39z"/></svg>