<svg t="1725979953165" class="icon" viewBox="0 0 1024 1024" version="1.1" xmlns="http://www.w3.org/2000/svg" p-id="142288" width="200" height="200"><path d="M564.347047 354.155164l106.189578 106.199751c8.352332-8.576146 16.857265-17.47784 25.545318-26.196413q40.754498-40.886752 81.631077-81.651423c9.105161-9.105161 17.854255-18.607084 27.468084-27.12219a71.864647 71.864647 0 0 1 18.780031-11.801103c12.401331-5.371536 23.897233-2.807849 33.572102 6.734767 7.986091 7.843664 15.850102 15.799235 23.76498 23.70394q61.325041 61.314868 122.639908 122.639908c27.223923 27.24427 27.193403 63.858209-0.081387 91.143172q-223.101883 223.173096-446.163072 446.447927c-24.416075 24.416075-59.605742 25.311331-82.587372 7.385862a95.629626 95.629626 0 0 1-8.67788-7.823317Q243.397745 780.836243 20.397596 557.805573C-2.034673 535.352958-6.368526 505.30084 9.430709 480.009855a72.230888 72.230888 0 0 1 10.254751-12.553931q223.814018-223.966619 447.739944-447.800984c26.2778-26.267627 63.339367-26.165893 89.678207 0.152601q70.196215 70.094481 140.127922 140.392429a75.455844 75.455844 0 0 1 12.146998 16.134956c5.839511 10.437872 5.41223 21.364065-1.342884 31.272923a140.890924 140.890924 0 0 1-15.911143 19.726153q-42.33137 42.901078-85.18158 85.293488c-14.05959 13.937509-28.373513 27.681725-42.595877 41.527674z m267.956246 48.323481c-18.993671 19.075058-38.09925 38.323064-57.265868 57.510029q-40.439124 40.469644-81.000328 80.827381c-12.380985 12.279251-28.078486 13.815429-42.555184 4.252466a78.863921 78.863921 0 0 1-12.208037-9.908857q-61.386081-61.243654-122.589042-122.670428c-9.939377-9.94955-20.051701-19.7465-29.889344-29.807958-14.832765-15.17866-16.124783-31.201709-3.723452-48.394695a137.889782 137.889782 0 0 1 14.100283-16.643624q60.684119-60.857066 121.653093-121.439452a26.03364 26.03364 0 0 1 3.987958-2.848542L511.130177 81.631076c-12.024917 12.208037-24.314341 24.833183-36.756365 37.295555Q340.583895 252.8488 206.743113 386.70993 146.160727 447.322835 85.456261 507.854354a14.710685 14.710685 0 0 1-4.211772 2.421261l431.961055 431.910188L943.172619 513.337797z" p-id="142289"></path><path d="M556.483036 736.734708c-9.746083-0.325548-18.312056-3.397904-25.504625-10.010591-3.11305-2.868889-6.104019-5.920898-9.054294-8.911867Q412.947037 608.886036 304.020824 499.959823c-11.923183-11.91301-15.951835-25.819999-10.010591-41.771834 8.718573-23.398738 37.722835-31.53743 57.652456-16.429984a56.075585 56.075585 0 0 1 5.686911 5.086682q111.998569 111.907009 223.956445 223.956446c17.213333 17.223506 16.857265 41.893915-0.701962 56.970841-6.958581 5.910725-15.168486 8.627013-24.121047 8.962734z" p-id="142290" data-spm-anchor-id="a313x.search_index.0.i134.51023a81s87Dcz" class="selected" fill="#2e8f79"></path></svg>