<svg width="200.064296px" height="199.993276px" viewBox="0 0 200.064296 199.993276" version="1.1"
    xmlns="http://www.w3.org/2000/svg" xmlns:xlink="http://www.w3.org/1999/xlink">
    <g  stroke="none" stroke-width="1" fill="none" fill-rule="evenodd">
        <g  fill-rule="nonzero">
            <path
                d="M110.223002,69.1687176 L130.963154,89.9108565 C132.594469,88.235828 134.255588,86.4972159 135.952474,84.7943696 C141.259049,79.4705737 146.573572,74.1547259 151.896044,68.846826 C153.674395,67.0684743 155.383203,65.2126299 157.260904,63.5495233 C158.356917,62.5960362 159.59431,61.8184764 160.928878,61.2446204 C163.351013,60.1954922 165.596307,60.6962123 167.48593,62.5600045 C169.045713,64.0919702 170.581653,65.6457926 172.127527,67.1896803 C180.112559,75.1733871 188.096928,83.1577561 196.080634,91.1427873 C201.397807,96.4639338 201.391846,103.615094 196.064738,108.944188 C167.015014,138.003185 137.967939,167.068805 108.923513,196.141049 C104.154749,200.909814 97.281767,201.084668 92.7931673,197.5836 C92.1975859,197.109291 91.6315636,196.599008 91.0982689,196.055608 C62.0578172,167.02178 33.0193525,137.98464 3.98287476,108.944188 C-0.398427776,104.558912 -1.24488344,98.6893575 1.84090465,93.749712 C2.41441645,92.8598367 3.08627313,92.0373455 3.8437857,91.2977723 C32.986236,62.1354521 62.1359719,32.9817422 91.2929935,3.83664262 C96.4253763,-1.29375328 103.663964,-1.27388336 108.808268,3.8664475 C117.9484,12.993333 127.071312,22.1334651 136.177003,31.2868438 C137.105465,32.2262387 137.903431,33.2861835 138.549464,34.4382024 C139.689993,36.4768493 139.60654,38.6108713 138.287182,40.5461952 C137.369143,41.9211982 136.329055,43.2106683 135.179536,44.3989594 C129.667639,49.9850373 124.121964,55.5379987 118.542509,61.0578438 C115.796495,63.7800135 113.000807,66.4644307 110.223002,69.1687176 Z M162.558206,78.6068975 C158.848505,82.3324948 155.116946,86.0918709 151.373466,89.839325 C146.107955,95.1088099 140.834497,100.371009 135.55309,105.625923 C133.134929,108.024214 130.069011,108.324249 127.24153,106.456483 C126.384252,105.892413 125.585489,105.244084 124.857148,104.521159 C116.864169,96.5467249 108.883111,88.5603689 100.913976,80.5620911 C98.9726914,78.6188196 96.9976281,76.7053528 95.0762134,74.7402243 C92.179189,71.7756422 91.9268418,68.6461405 94.3489767,65.2881354 C95.1796814,64.1335418 96.1005493,63.0465722 97.1029382,62.0374276 C105.004516,54.1133304 112.924639,46.2071161 120.863308,38.3187846 C121.104869,38.109253 121.365657,37.9229759 121.642206,37.7624287 L99.829082,15.9413567 C97.4804654,18.3257389 95.0801873,20.7915877 92.6501045,23.2256448 C75.2295423,40.6634272 57.8056687,58.0972357 40.3784836,75.5270704 C32.490152,83.4193757 24.5938726,91.3063825 16.6896453,99.1880907 C16.4435453,99.3902257 16.1655513,99.5500387 15.8670336,99.6609932 L100.234427,184.018452 L184.212371,100.259076 L162.558206,78.6068975 Z"
                 fill="currentColor"></path>
            <path
                d="M108.687062,143.891285 C106.78353,143.827701 105.110489,143.227632 103.70569,141.936091 C103.097673,141.375761 102.513499,140.779666 101.937273,140.195492 C87.7475494,126.012391 73.5611371,111.829291 59.3780365,97.6461901 C57.0492898,95.3194303 56.2624437,92.6032215 57.4228429,89.4876287 C59.1256892,84.9175627 64.7905841,83.3279745 68.6830882,86.2786475 C69.0754564,86.58421 69.4465568,86.9161424 69.793813,87.2721401 C84.37696,101.843365 98.9574578,116.423863 113.535306,131.013633 C116.897285,134.377599 116.827741,139.196039 113.398204,142.140751 C112.039106,143.295189 110.435609,143.825714 108.687062,143.891285 L108.687062,143.891285 Z"
                 fill="#2E8F79"></path>
        </g>
    </g>
</svg>