<svg t="1725964865270" class="icon" viewBox="0 0 1024 1024" version="1.1" xmlns="http://www.w3.org/2000/svg"
    p-id="39710" width="200" height="200">
    <path
        d="M920 160H441.8a128 128 0 0 0-243.24 0H104a40 40 0 0 0 0 80h94.56a128 128 0 0 0 243.24 0H920a40 40 0 0 0 0-80z m-599.82 88a48 48 0 1 1 26.53-8 47.78 47.78 0 0 1-26.53 8zM920 472h-62.38a128 128 0 0 0-243.24 0H104a40 40 0 0 0 0 80h510.38a128 128 0 0 0 243.24 0H920a40 40 0 0 0 0-80z m-184 88a48 48 0 1 1 26.53-8 47.78 47.78 0 0 1-26.53 8zM920 784H537.62a128 128 0 0 0-243.24 0H104a40 40 0 0 0 0 80h190.38a128 128 0 0 0 243.24 0H920a40 40 0 0 0 0-80z m-504 88a48 48 0 1 1 26.53-8 47.78 47.78 0 0 1-26.53 8z"
        fill="#1b283a" p-id="39711"></path>
</svg>