<svg width="173.652344px" height="125.234375px" viewBox="0 0 173.652344 125.234375" version="1.1"
    xmlns="http://www.w3.org/2000/svg" xmlns:xlink="http://www.w3.org/1999/xlink">
    <g id="页面-3" stroke="none" stroke-width="1" fill="none" fill-rule="evenodd">
        <g id="编组" fill="#919EAB" fill-rule="nonzero">
            <path
                d="M152.988281,0 C159.257812,0 164.277344,1.6015625 168.027344,4.78515625 C171.777344,7.96875 173.652344,12.8125 173.652344,19.2773438 L173.652344,104.863281 C173.652344,107.636719 173.144531,110.253906 172.109375,112.734375 C171.074219,115.195312 169.667969,117.363281 167.871094,119.21875 C166.074219,121.074219 163.964844,122.539062 161.542969,123.613281 C159.121094,124.6875 156.582031,125.234375 153.90625,125.234375 L19.4335937,125.234375 C16.7578125,125.234375 14.2382812,124.726562 11.875,123.691406 C9.51171875,122.65625 7.4609375,121.308594 5.703125,119.609375 C3.96484375,117.910156 2.55859375,115.9375 1.54296875,113.671875 C0.52734375,111.386719 -3.55271368e-15,108.964844 -3.55271368e-15,106.40625 L-3.55271368e-15,18.9648438 C-3.55271368e-15,13.4179688 1.69921875,8.8671875 5.09765625,5.3125 C8.49609375,1.7578125 13.2617187,0 19.4335937,0 L152.988281,0 L152.988281,0 Z M43.3398438,28.515625 C41.3867188,28.515625 39.53125,28.8671875 37.7929688,29.5898438 C36.0546875,30.3125 34.5117188,31.3085938 33.1640625,32.5976562 C31.8359375,33.8867188 30.78125,35.4296875 30,37.2265625 C29.21875,39.0234375 28.8476563,40.9570312 28.8476563,43.0078125 C28.8476563,45.0585938 29.2382813,46.9726562 30,48.7109375 C30.7617188,50.4492187 31.8164063,51.9921875 33.1640625,53.3398437 C34.4921875,54.6679687 36.0351562,55.7226562 37.7929688,56.5039062 C39.53125,57.265625 41.3867188,57.65625 43.3398438,57.65625 C45.5078125,57.65625 47.4804687,57.265625 49.2773437,56.5039062 C51.0742187,55.7226562 52.6171875,54.6875 53.90625,53.3398437 C55.1953125,52.0117187 56.2109375,50.46875 56.9921875,48.7109375 C57.7539062,46.9726562 58.1445312,45.0585938 58.1445312,43.0078125 C58.1445312,38.7890625 56.7578125,35.3320312 53.984375,32.5976562 C51.2109375,29.8828125 47.65625,28.515625 43.3398437,28.515625 L43.3398438,28.515625 Z M67.5585938,81.875 C67.5585938,79.921875 67.1679688,78.046875 66.40625,76.25 C65.6445312,74.453125 64.609375,72.9101562 63.3203125,71.6210938 C62.03125,70.3320312 60.4882812,69.3164063 58.6914062,68.5351563 C56.8945312,67.7734375 55.0195312,67.3828125 53.0664062,67.3828125 L33.7890625,67.3828125 C29.7851562,67.3828125 26.3867188,68.7890625 23.6132813,71.6210938 C20.8398438,74.453125 19.453125,77.8710938 19.453125,81.875 L19.453125,96.3867188 L67.5585938,96.3867188 L67.5585938,81.875 L67.5585938,81.875 Z M139.101562,97.1484375 C141.152344,97.1484375 142.675781,96.640625 143.652344,95.6054688 C144.628906,94.5703125 145.117188,93.3398438 145.117188,91.9140625 C145.117188,90.46875 144.550781,89.21875 143.417969,88.1445313 C142.285156,87.0703125 140.703125,86.5234375 138.632812,86.5234375 L92.6757812,86.5234375 C90.625,86.5234375 89.0820313,87.0703125 88.046875,88.1445313 C87.0117188,89.21875 86.5039062,90.4882813 86.5039062,91.9140625 C86.5039062,93.359375 87.0117188,94.5898438 88.046875,95.6054688 C89.0820312,96.640625 90.5664062,97.1484375 92.5195312,97.1484375 L139.101562,97.1484375 L139.101562,97.1484375 Z M139.257812,77.2460938 C141.308594,77.2460938 142.8125,76.7382812 143.730469,75.703125 C144.648438,74.6679688 145.117188,73.4375 145.117188,72.0117188 C145.117188,70.46875 144.6875,69.1796875 143.808594,68.1640625 C142.929688,67.1289063 141.464844,66.6210938 139.414062,66.6210938 L92.2265625,66.6210938 C90.1757813,66.6210938 88.671875,67.1289063 87.7539063,68.1640625 C86.8359375,69.1992188 86.3671875,70.46875 86.3671875,72.0117188 C86.3671875,73.4570313 86.796875,74.6875 87.6757813,75.703125 C88.5546875,76.7382812 90.0195313,77.2460938 92.0703125,77.2460938 L139.257812,77.2460938 Z M139.414062,57.6757813 C140.957031,57.6757813 142.285156,57.1679688 143.417969,56.1328125 C144.550781,55.0976563 145.117188,53.8671875 145.117188,52.4414063 C145.117188,50.9960938 144.550781,49.84375 143.417969,48.9648438 C142.285156,48.0859375 140.957031,47.65625 139.414062,47.65625 L108.105469,47.65625 C106.5625,47.65625 105.253906,48.0859375 104.179687,48.9648438 C103.105469,49.84375 102.558594,50.9960938 102.558594,52.4414063 C102.558594,53.8867188 103.105469,55.1171875 104.179687,56.1328125 C105.253906,57.1679688 106.5625,57.6757813 108.105469,57.6757813 L139.414062,57.6757813 Z"
                id="形状"></path>
        </g>
    </g>
</svg>