<?xml version="1.0" standalone="no"?><!DOCTYPE svg PUBLIC "-//W3C//DTD SVG 1.1//EN" "http://www.w3.org/Graphics/SVG/1.1/DTD/svg11.dtd"><svg t="1765865010699" class="icon" viewBox="0 0 1024 1024" version="1.1" xmlns="http://www.w3.org/2000/svg" p-id="1873" xmlns:xlink="http://www.w3.org/1999/xlink" width="200" height="200"><path d="M236.032 189.952a434.7392 434.7392 0 0 1 284.672-105.984c19.456 0 39.424 1.536 58.368 4.096 7.68 26.624 31.744 46.08 60.928 46.08 34.816 0 63.488-28.16 63.488-63.488S674.816 7.168 640 7.168c-17.408 0-33.28 7.168-44.544 18.432-24.576-3.584-49.664-5.632-74.752-5.632-119.808 0-235.52 43.008-326.144 121.344-89.6 77.824-148.992 184.32-166.912 301.056l63.488 9.728c15.36-101.376 67.072-194.56 144.896-262.144zM520.704 953.344c-99.84 0-197.632-34.816-274.944-98.304-61.44-50.176-107.52-116.224-134.144-189.952 12.288-11.776 20.48-28.16 20.48-46.592 0-34.816-28.16-63.488-63.488-63.488S5.12 583.168 5.12 618.496c0 28.16 18.432 51.712 43.52 59.904 29.696 87.552 83.968 166.4 156.672 225.792 88.576 72.704 200.704 112.64 315.392 112.64 102.4 0 200.704-30.72 284.16-89.088l-36.352-52.736c-73.216 51.2-158.72 78.336-247.808 78.336zM1019.392 518.656c0-158.208-72.192-303.104-198.656-398.336l-38.4 51.2c109.568 82.944 173.056 209.408 173.056 347.136 0 70.144-16.896 138.752-49.152 200.704-34.816 0-63.488 28.16-63.488 63.488s28.16 63.488 63.488 63.488 63.488-28.16 63.488-63.488c0-11.264-3.072-22.016-8.192-30.72 37.888-72.192 57.856-151.552 57.856-233.472z" fill="#087667" p-id="1874"></path><path d="M255.488 750.08V326.144h60.928v423.424H255.488zM375.296 750.08V326.144h89.6c34.816 0 61.44 9.728 79.36 28.672 17.92 18.944 27.136 46.08 27.136 80.896v198.144c0 39.424-9.728 69.12-28.672 87.552-19.456 18.944-47.104 28.16-82.944 28.16H375.296z m60.416-366.592v309.248h28.16c16.896 0 29.184-4.096 36.352-12.8 7.168-8.704 10.752-22.016 10.752-39.936V435.712c0-16.896-3.584-29.696-10.24-38.912-6.656-9.216-18.944-13.824-36.864-13.824h-28.16zM821.248 629.248v26.112c0 13.312-2.56 25.6-7.68 37.376s-11.776 22.016-20.48 31.232c-8.704 9.216-18.944 16.384-30.72 21.504s-24.064 8.192-37.888 8.192c-11.264 0-23.04-1.536-35.328-4.608-11.776-3.072-22.528-8.704-32.256-16.896-9.728-7.68-17.408-17.92-23.552-30.72-6.144-12.288-9.216-28.672-9.216-48.128V420.352c0-13.824 2.56-26.624 7.168-38.912 4.608-11.776 11.264-22.016 20.48-30.72 8.704-8.704 18.944-15.36 31.232-20.48 12.288-5.12 25.6-7.68 39.936-7.68 28.672 0 51.712 9.216 69.632 28.16 8.704 9.216 15.36 19.968 20.48 32.256s7.68 26.112 7.68 40.96v23.552h-60.928v-20.48c0-11.776-3.584-22.016-10.24-30.72-6.656-8.704-15.872-13.312-27.136-13.312-14.848 0-25.088 4.608-30.208 13.824-5.12 9.216-7.68 20.992-7.68 35.328v216.576c0 12.288 2.56 22.528 8.192 30.72s14.848 12.288 28.672 12.288c4.096 0 8.192-0.512 12.8-2.048 4.608-1.536 8.704-3.584 12.8-6.656 3.584-3.072 6.656-7.68 8.704-13.312 2.56-5.632 3.584-12.288 3.584-20.992v-20.992h61.952z" fill="#087667" p-id="1875"></path></svg>