<?xml version="1.0" standalone="no"?><!DOCTYPE svg PUBLIC "-//W3C//DTD SVG 1.1//EN" "http://www.w3.org/Graphics/SVG/1.1/DTD/svg11.dtd"><svg t="1766564220510" class="icon" viewBox="0 0 1024 1024" version="1.1" xmlns="http://www.w3.org/2000/svg" p-id="1609" data-spm-anchor-id="a313x.search_index.0.i0.39a03a81EOeasi" xmlns:xlink="http://www.w3.org/1999/xlink" width="200" height="200"><path d="M160 288h704v192H160z" fill="#087667" p-id="1610"></path><path d="M864 960H160a32 32 0 0 1-32-32V96a32 32 0 0 1 32-32h704a32 32 0 0 1 32 32v832a32 32 0 0 1-32 32zM192 896h640V128H192v768z" fill="#087667" p-id="1611"></path><path d="M864 320H160a32 32 0 0 1 0-64h704a32 32 0 1 1 0 64z" fill="#087667" p-id="1612"></path><path d="M864 320H160a32 32 0 0 1 0-64h704a32 32 0 1 1 0 64zM864 512H160a32 32 0 0 1 0-64h704a32 32 0 1 1 0 64zM736 644h-128a32 32 0 1 1 0-64h128a32 32 0 1 1 0 64z" fill="#087667" p-id="1613"></path></svg>