<svg xmlns="http://www.w3.org/2000/svg" width="64" height="64" class="icon" viewBox="0 0 1024 1024"><path fill="#2c2c2c" d="M687 620H337c-19.3 0-35 15.7-35 35s15.7 35 35 35h350c19.3 0 35-15.7 35-35s-15.7-35-35-35zm-77-218c16.6 0 30-13.4 30-30V262c0-16.6-13.4-30-30-30s-30 13.4-30 30v110c0 16.6 13.4 30 30 30z"/><path fill="#2c2c2c" d="M852 112H172c-33.1 0-60 26.9-60 60v680c0 33.1 26.9 60 60 60h680c33.1 0 60-26.9 60-60V172c0-33.1-26.9-60-60-60zm-520 70h360v256c0 7.7-6.3 14-14 14H346c-7.7 0-14-6.3-14-14V182zm510 630c0 16.6-13.4 30-30 30H212c-16.6 0-30-13.4-30-30V212c0-16.6 13.4-30 30-30h50v300c0 16.6 13.4 30 30 30h440c16.6 0 30-13.4 30-30V182h50c16.6 0 30 13.4 30 30v600z"/></svg>