<svg t="1734008317859" class="icon" viewBox="0 0 1024 1024" version="1.1" xmlns="http://www.w3.org/2000/svg"
    p-id="26236" width="200" height="200">
    <path
        d="M914.1990408 699.69288571h-53.62653877v-160.87961632h-321.75923264v-107.25307754H619.25307755a80.43980815 80.43980815 0 0 0 80.43980816-80.43980818V136.61422861A80.43980815 80.43980815 0 0 0 619.25307755 56.17442045h-214.5061551A80.43980815 80.43980815 0 0 0 324.30711429 136.61422861v214.50615506a80.43980815 80.43980815 0 0 0 80.43980816 80.43980818h80.43980816v107.25307754h-321.75923264v160.87961632h-53.62653877a53.62653878 53.62653878 0 0 0-53.62653875 53.62653877v160.87961632a53.62653878 53.62653878 0 0 0 53.62653875 53.62653875h160.87961632a53.62653878 53.62653878 0 0 0 53.62653877-53.62653875v-160.87961632a53.62653878 53.62653878 0 0 0-53.62653877-53.62653877h-53.62653877v-107.25307756h268.13269386v107.25307756h-53.62653876a53.62653878 53.62653878 0 0 0-53.62653879 53.62653877v160.87961632a53.62653878 53.62653878 0 0 0 53.62653879 53.62653875h160.8796163a53.62653878 53.62653878 0 0 0 53.62653879-53.62653875v-160.87961632a53.62653878 53.62653878 0 0 0-53.62653879-53.62653877h-53.62653876v-107.25307756h268.13269386v107.25307756h-53.62653877a53.62653878 53.62653878 0 0 0-53.62653877 53.62653877v160.87961632a53.62653878 53.62653878 0 0 0 53.62653877 53.62653875h160.87961632a53.62653878 53.62653878 0 0 0 53.62653875-53.62653875v-160.87961632a53.62653878 53.62653878 0 0 0-53.62653875-53.62653877z"
        p-id="26237" fill="currentColor"></path>
</svg>