<svg t="1734951342559" class="icon" viewBox="0 0 1024 1024" version="1.1" xmlns="http://www.w3.org/2000/svg" p-id="17010" width="200" height="200"><path d="M478.67 478.67H245.33C116.47 478.67 12 374.2 12 245.33 12 116.47 116.47 12 245.33 12c128.87 0 233.33 104.47 233.33 233.33v233.34zM245.33 1012C116.47 1012 12 907.53 12 778.67c0-128.87 104.47-233.33 233.33-233.33h233.33v233.33C478.67 907.53 374.2 1012 245.33 1012zM778.67 478.67H545.33V245.33C545.33 116.47 649.8 12 778.67 12 907.53 12 1012 116.47 1012 245.33c0 128.87-104.47 233.34-233.33 233.34zM778.67 545.33h-100V612h100c91.9 0 166.67 74.77 166.67 166.67s-74.77 166.67-166.67 166.67S612 870.57 612 778.67V545.33h-66.67v233.33c0 128.87 104.47 233.33 233.33 233.33C907.53 1012 1012 907.53 1012 778.67c0-128.87-104.47-233.34-233.33-233.34z" fill="#2e8f79" p-id="17011"></path></svg>