<svg xmlns="http://www.w3.org/2000/svg" width="64" height="64" class="icon" viewBox="0 0 1024 1024"><path fill="#707070" d="m521.062 948.736 299.674-299.648a12.8 12.8 0 0 0 0-18.125l-54.323-54.272a12.8 12.8 0 0 0-18.1 0L512 812.928 275.66 576.64a12.8 12.8 0 0 0-18.098 0l-54.324 54.272a12.8 12.8 0 0 0 0 18.125l299.7 299.699a12.8 12.8 0 0 0 18.124 0zM275.661 447.36 512 211.02l236.34 236.34a12.8 12.8 0 0 0 18.098 0l54.324-54.298a12.8 12.8 0 0 0 0-18.124l-299.7-299.674a12.8 12.8 0 0 0-18.124 0L203.264 374.938a12.8 12.8 0 0 0 0 18.124l54.323 54.272a12.8 12.8 0 0 0 18.1 0z"/></svg>