<svg width="175px" height="175px" viewBox="0 0 175 175" version="1.1" xmlns="http://www.w3.org/2000/svg"
    xmlns:xlink="http://www.w3.org/1999/xlink">
    <g stroke="none" stroke-width="1" fill="none" fill-rule="evenodd">
        <path
            d="M131.25,0 L131.25,29.1812501 L175,29.1812501 L175,175 L131.25,175 L131.25,145.833333 L145.833333,145.833333 L145.833333,58.3479168 L29.1812501,58.3479168 L29.1812501,145.833333 L43.7645834,145.833333 L43.7645834,175 L0,175 L0,29.1812501 L43.7645834,29.1812501 L43.7645834,0 L131.25,0 Z M101.103641,73 C102.543065,73 103.720775,74.72 103.720775,76.8222222 L103.720775,109.024444 C103.720775,111.126667 104.898485,112.846667 106.337909,112.846667 L113.731313,112.846667 C116.086734,112.846667 117.199016,116.955556 115.563307,119.344444 L89.1956798,157.853333 C88.1488261,159.382222 86.5131172,159.382222 85.4662635,157.853333 L59.0986359,119.344444 C57.462927,116.86 58.6406374,112.751111 60.9960582,112.751111 L68.3894625,112.751111 C69.8288863,112.751111 71.0065967,111.031111 71.0065967,108.928889 L71.0065967,76.8222222 C71.0065967,74.72 72.1843071,73 73.623731,73 L101.103641,73 Z"
            fill="#919EAB" fill-rule="nonzero"></path>
    </g>
</svg>