<svg width="201px" height="199.9468px" viewBox="0 0 201 199.9468" version="1.1" xmlns="http://www.w3.org/2000/svg"
    xmlns:xlink="http://www.w3.org/1999/xlink">
    <g id="页面-1" stroke="none" stroke-width="1" fill="none" fill-rule="evenodd">
        <g id="编组" fill="currentColor" fill-rule="nonzero">
            <path
                d="M87.8699189,100.841487 C86.9908119,100.835062 86.1310924,100.582443 85.3882506,100.112277 L2.84631659,53.0664321 C0.450439308,51.6282501 -0.393070387,48.5616096 0.930247957,46.1004261 C2.2535663,43.6392426 5.27690485,42.6517122 7.79789178,43.8572081 L90.3045414,91.2676579 C92.8047171,92.6580408 93.747559,95.7834836 92.4333658,98.3245345 C91.6149754,100.060599 89.7748928,101.07549 87.8699189,100.841487 L87.8699189,100.841487 Z"
                id="路径"></path>
            <path
                d="M88.2227629,100.841487 C86.2992891,100.767469 84.5528176,99.6982009 83.6122701,98.0187366 C82.2847186,95.4789349 83.2304798,92.3438148 85.7410945,90.9618599 L171.105779,43.1985663 C173.626766,41.9930704 176.650105,42.9806008 177.973423,45.4417843 C179.296741,47.9029678 178.453232,50.9696083 176.057354,52.4077903 L90.6926697,100.171084 C89.9859473,100.703316 89.1015979,100.943354 88.2227629,100.841487 L88.2227629,100.841487 Z"
                id="路径"></path>
            <path
                d="M173.211081,53.0781937 C172.346925,53.0086596 171.504302,52.7730446 170.729412,52.3842675 L86.0468926,9.92539288 C83.6140232,8.4892725 82.5667754,5.51131695 83.5652242,2.86851631 C84.9881435,0.419638144 87.9795752,-0.632348714 90.6221008,0.386847954 L175.304621,42.8457226 C177.753499,44.2686419 178.805486,47.2600736 177.786289,49.9025991 C177.159075,51.8928272 175.258862,53.201647 173.175796,53.0781937 L173.211081,53.0781937 Z"
                id="路径"></path>
            <path
                d="M6.76288319,52.7253499 C4.32945482,52.7115243 2.232814,51.007825 1.72138815,48.6287058 C1.2099623,46.2495865 2.42127443,43.8347953 4.63405878,42.8221995 L86.1056998,0.669122954 C87.3618232,0.00847818194 88.8362891,-0.0993674473 90.1751718,0.371472964 C91.5140544,0.842313376 92.5964618,1.84932613 93.1625765,3.15079131 C93.8494849,4.40219308 93.9713816,5.88678808 93.4977966,7.23347535 C93.0242115,8.58016262 91.9999005,9.66167452 90.6809082,10.2076679 L9.24455155,51.9961392 C8.49892564,52.4601233 7.64098733,52.712219 6.76288319,52.7253499 L6.76288319,52.7253499 Z M88.610891,199.884751 C87.6208075,199.823733 86.6511461,199.57633 85.752856,199.155541 L3.9401326,149.298707 C1.40681912,147.736497 0.619584171,144.416419 2.18179413,141.883106 C3.74400408,139.349792 7.06408182,138.562557 9.5973953,140.124767 L91.4336416,190.028647 C93.8826878,191.657721 94.6577492,194.901687 93.2096223,197.46189 C92.2337351,199.06103 90.4713571,200.009657 88.5991295,199.943559 L88.610891,199.884751 Z"
                id="形状"></path>
            <path
                d="M89.9987433,199.884751 C88.0752696,199.810733 86.328798,198.741465 85.3882506,197.062 C84.0606991,194.522199 85.0064604,191.387079 87.5170752,190.005124 L116.191517,174.091867 C118.712504,172.886372 121.735842,173.873902 123.05916,176.335085 C124.382478,178.796269 123.538969,181.862909 121.143092,183.301091 L92.4686502,199.214348 C91.762288,199.757872 90.8728154,200.006587 89.986982,199.908274 L89.9987433,199.884751 Z M173.587447,78.5417569 C170.689185,78.4675649 168.357221,76.1356001 168.283029,73.237338 L168.283029,48.8205448 C168.468886,46.0342268 170.783176,43.8691652 173.575686,43.8691652 C176.368196,43.8691652 178.682486,46.0342268 178.868344,48.8205448 L178.868344,73.2020536 C178.812693,76.1140848 176.475523,78.4668011 173.563925,78.5417569 L173.587447,78.5417569 Z"
                id="形状"></path>
            <path
                d="M89.9987433,199.884751 C87.1004812,199.810559 84.7685165,197.478594 84.6943244,194.580332 L84.6943244,96.525031 C84.8801818,93.738713 87.1944721,91.5736513 89.9869819,91.5736513 C92.7794917,91.5736513 95.093782,93.738713 95.2796394,96.525031 L95.2796394,194.521525 C95.2054474,197.419787 92.8734826,199.751752 89.9752205,199.825944 L89.9987433,199.884751 Z M5.31622342,148.945863 C2.41796128,148.871671 0.0859965559,146.539706 0.0118044786,143.641444 L0.0118044786,51.2904517 C-0.119941777,49.3153518 0.859032399,47.4312189 2.55092548,46.4036615 C4.24281856,45.3761041 6.36610543,45.3761041 8.05799852,46.4036615 C9.7498916,47.4312189 10.7288658,49.3153518 10.5971195,51.2904517 L10.5971195,143.570875 C10.5534995,146.487987 8.20945885,148.84762 5.29270057,148.910579 L5.31622342,148.945863 Z M69.7925533,121.353475 C68.8184527,121.288009 67.8632287,121.053183 66.9698025,120.659549 L27.2748713,97.7011771 C26.005596,97.0001317 25.0914907,95.795563 24.7579187,94.384445 C24.2148943,92.2329076 25.0407051,89.9679304 26.8411112,88.6708079 C28.6415172,87.3736854 31.0514338,87.3074469 32.9203726,88.5037146 L72.591781,111.497371 C73.8610563,112.198416 74.7751616,113.402985 75.1087336,114.814103 C75.4311145,116.228455 75.1681265,117.713065 74.379523,118.930614 C73.4165895,120.518717 71.6590659,121.449436 69.8043146,121.353475 L69.7925533,121.353475 Z"
                id="形状"></path>
            <path
                d="M131,130 C128.6,130 127,128 127,125 L127,120 C127,117 128.6,115 131,115 C133.4,115 135,117 135,120 L135,125 C135,128 133.4,130 131,130 Z M147,130 C144.6,130 143,128 143,125 L143,120 C143,117 144.6,115 147,115 C149.4,115 151,117 151,120 L151,125 C151,128 149.4,130 147,130 Z M164,130 C161.6,130 160,128 160,125 L160,120 C160,117 161.6,115 164,115 C166.4,115 168,117 168,120 L168,125 C168,128 166.4,130 164,130 Z M181,130 C178.6,130 177,128 177,125 L177,120 C177,117 178.6,115 181,115 C183.4,115 185,117 185,120 L185,125 C185,128 183.4,130 181,130 Z"
                id="形状"></path>
            <path
                d="M172.125,165 L139.875,165 C136.875,165 133.875,163.027778 132.75,159.872222 L127.125,145.277778 L118.5,145.277778 C114.375,145.277778 111,141.727778 111,137.388889 L111,101.888889 C111,97.55 114.375,94 118.5,94 L193.5,94 C197.625,94 201,97.55 201,101.888889 L201,137.388889 C201,141.727778 197.625,145.277778 193.5,145.277778 L184.875,145.277778 L179.25,159.872222 C178.125,163.027778 175.125,165 172.125,165 Z M119,101 L119,136.357143 L127.625,136.357143 C130.625,136.357143 133.625,138.321428 134.75,141.464286 L140.375,156 L172.625,156 L178.25,141.464286 C179.375,138.321429 182,136.357143 185.375,136.357143 L194,136.357143 L194,101 L119,101 Z"
                id="形状"></path>
        </g>
    </g>
</svg>