<svg t="1732867215705" class="icon" viewBox="0 0 1024 1024" version="1.1" xmlns="http://www.w3.org/2000/svg"
    p-id="53121" width="200" height="200">
    <path
        d="M359.094226 584.535897H73.31456a70.314257 70.314257 0 0 0-51.967697 21.333209 70.740921 70.740921 0 0 0-21.247876 52.053029v287.571656c0 20.479881 7.167958 37.887779 21.333209 52.05303 14.079918 14.165251 31.317151 21.333209 51.882364 21.333209h285.864999c20.479881 0 37.973112-7.082625 52.565026-21.333209a69.972925 69.972925 0 0 0 21.674541-52.05303V657.922135a69.972925 69.972925 0 0 0-21.674541-52.053029 73.300906 73.300906 0 0 0-52.650359-21.333209z m0-524.882272H73.31456a70.570255 70.570255 0 0 0-51.967697 21.333209 70.826254 70.826254 0 0 0-21.247876 52.05303v286.376996c0 20.479881 7.167958 38.22911 21.333209 52.735692a69.290262 69.290262 0 0 0 51.882364 21.845206h285.864999a71.679582 71.679582 0 0 0 52.565026-21.845206 72.106246 72.106246 0 0 0 21.674541-52.735692V133.125197a70.143591 70.143591 0 0 0-21.674541-52.05303 73.215573 73.215573 0 0 0-52.650359-21.333209z m524.882271 524.882272h-285.864999a72.53291 72.53291 0 0 0-52.479694 21.333209 69.972925 69.972925 0 0 0-21.930538 52.053029v287.571656c0 20.565213 7.338624 37.973112 21.930538 52.05303 14.591915 14.250584 31.999813 21.333209 52.565027 21.333209h285.864999c20.394548 0 37.717113-6.997293 51.882364-21.333209a70.996919 70.996919 0 0 0 21.162543-52.05303V657.922135a70.655588 70.655588 0 0 0-21.162543-52.053029 70.826254 70.826254 0 0 0-51.967697-21.333209z m113.15134-360.787229L795.059683 21.680514A70.484922 70.484922 0 0 0 743.347984 0.005973 70.740921 70.740921 0 0 0 691.294955 21.851179L488.885469 224.260665a72.874242 72.874242 0 0 0-22.186537 52.309028 69.375595 69.375595 0 0 0 21.247876 52.223696L690.014962 530.77621a71.679582 71.679582 0 0 0 52.735693 21.845206c20.479881-0.085333 37.973112-7.423957 52.479693-21.930538l202.494819-202.494819a70.058258 70.058258 0 0 0 21.503875-52.223696 72.788909 72.788909 0 0 0-22.101205-52.223695z"
        fill="#919EAB" p-id="53122"></path>
</svg>