<svg t="1730211470384" class="icon" viewBox="0 0 1024 1024" version="1.1" xmlns="http://www.w3.org/2000/svg" p-id="97876" width="200" height="200"><path d="M739.196 198c-7.092 14.786-22.202 24.996-39.696 24.996-17.494 0-32.604-10.21-39.696-24.996H351.196c-7.092 14.786-22.202 24.996-39.696 24.996-17.494 0-32.604-10.21-39.696-24.996H133c-24.3 0-44 19.7-44 44v109.64a44.123 44.123 0 0 1 10.179-1.14L933 353.89V242c0-24.3-19.7-44-44-44H739.196z m4.304-88H889c72.902 0 132 59.098 132 132v594c0 72.902-59.098 132-132 132H133C60.098 968 1 908.902 1 836V242c0-72.902 59.098-132 132-132h134.5V45c0-24.3 19.7-44 44-44s44 19.7 44 44v65h300V45c0-24.3 19.7-44 44-44s44 19.7 44 44v65zM89 437.358V836c0 24.3 19.7 44 44 44h756c24.3 0 44-19.7 44-44V441.891L98.821 438.5A44.142 44.142 0 0 1 89 437.358zM274 721.5c-24.3 0-44-19.7-44-44s19.7-44 44-44h471.114c24.3 0 44 19.7 44 44s-19.7 44-44 44H274z" fill="#515155" p-id="97877"></path></svg>