<svg t="1730211671411" class="icon" viewBox="0 0 1024 1024" version="1.1" xmlns="http://www.w3.org/2000/svg" p-id="108226" width="200" height="200"><path d="M907.190857 73.142857H116.955429A43.812571 43.812571 0 0 0 73.142857 117.028571v225.572572c0 24.210286 19.602286 43.885714 43.812572 43.885714H906.971429c24.210286 0 43.812571-19.675429 43.812571-43.885714V117.028571A43.666286 43.666286 0 0 0 907.190857 73.142857z m-26.770286 242.688H143.652571V143.725714h736.694858v172.105143h0.073142z m26.624 160.182857H117.028571a43.885714 43.885714 0 0 0-43.885714 43.885715v226.889142c0 24.137143 19.748571 43.885714 43.885714 43.885715h789.942858a43.885714 43.885714 0 0 0 43.885714-43.885715V519.972571a43.812571 43.812571 0 0 0-43.812572-43.885714z m-26.624 244.077715H143.652571V546.596571h736.694858v173.494858h0.073142z m35.108572 160.182857H108.544a35.254857 35.254857 0 1 0 0 70.582857h807.131429a35.254857 35.254857 0 1 0 0-70.582857z" fill="#515155" p-id="108227"></path><path d="M754.980571 229.814857a35.254857 35.254857 0 1 0 70.509715 0 35.254857 35.254857 0 0 0-70.509715 0z m0 403.529143a35.254857 35.254857 0 1 0 70.509715 0 35.254857 35.254857 0 0 0-70.509715 0z" fill="#515155" p-id="108228"></path></svg>