<svg width="806.02452px" height="803.299449px" viewBox="0 0 806.02452 803.299449" version="1.1"
    xmlns="http://www.w3.org/2000/svg" xmlns:xlink="http://www.w3.org/1999/xlink">
    <g id="页面-1" stroke="none" stroke-width="1" fill="none" fill-rule="evenodd">
        <g id="编组">
            <circle id="椭圆形" stroke="#D8D8D8" stroke-width="0.6" cx="399.7" cy="403.599449" r="399.7"></circle>
            <circle id="椭圆形" stroke="#D8D8D8" stroke-width="0.6" cx="395.7" cy="401.599449" r="324.7"></circle>
            <circle id="椭圆形" stroke="#D8D8D8" stroke-width="0.6" cx="395.7" cy="403.599449" r="249.7"></circle>
            <circle id="椭圆形" stroke="#D8D8D8" stroke-width="0.6" cx="396.7" cy="403.599449" r="174.7"></circle>
            <circle id="椭圆形" stroke="#D8D8D8" stroke-width="0.6" cx="395.7" cy="401.599449" r="99.7"></circle>
            <polygon id="三角形" fill="#F9FAFB" fill-rule="nonzero"
                transform="translate(173.5599, 647.7445) rotate(37) translate(-173.5599, -647.7445)"
                points="173.559885 570.24447 266.559885 725.24447 80.5598852 725.24447"></polygon>
            <polygon id="三角形" fill="#F9FAFB" fill-rule="nonzero"
                transform="translate(401.2235, 97.1085) rotate(-179) translate(-401.2235, -97.1085)"
                points="401.223509 1.60852869 494.223509 192.608529 308.223509 192.608529"></polygon>
            <polygon id="三角形" fill="#F9FAFB" fill-rule="nonzero"
                transform="translate(662.7, 531.0995) rotate(-57) translate(-662.7, -531.0995)"
                points="662.699992 420.599453 755.699992 641.599453 569.699992 641.599453"></polygon>
            <g transform="translate(358.7, 361.5995)" fill="#1C293A" fill-rule="nonzero" id="形状">
                <path
                    d="M27.2338933,9.65435209 L49.6675999,9.65435209 C50.7780889,9.65435209 51.6926408,9.28958291 52.4112558,8.56004453 C53.1293325,7.83050616 53.4883709,6.9016299 53.4883709,5.77341576 L53.4883709,0.000820320511 L23.5116291,0.000820320511 L23.5116291,5.77341576 C23.5116291,6.8349105 23.8709366,7.73042705 24.5895516,8.45996543 C25.3076283,9.1895038 26.1890755,9.58763269 27.2338933,9.65435209 Z M65.9300994,0 L60.5421018,0 L60.5421018,10.2515454 C60.4764307,12.1092979 59.8396355,13.6517739 58.6317164,14.8789734 C57.423259,16.1067198 55.9047474,16.7536792 54.0761818,16.8198518 L22.9238182,16.8198518 C21.0952526,16.7536792 19.5770102,16.1067198 18.3690911,14.8789734 C17.1606336,13.6517739 16.5235693,12.1092979 16.4578982,10.2515454 L16.4578982,0 L11.0699006,0 C7.93544734,0.0661725212 5.32313382,1.16075352 3.23296003,3.28374301 C1.14332452,5.40727937 0.0656711827,8.06128966 0,11.2457739 L0,72.7534058 C0.0656711827,75.9384369 1.14332452,78.5924472 3.23296003,80.7154367 C5.32313382,82.838973 7.93544734,83.9338275 11.0699006,84 L65.9300994,84 C69.0645527,83.9338275 71.6768662,82.838973 73.76704,80.7154367 C75.8566755,78.5924472 76.9343288,75.9384369 77,72.7534058 L77,11.2457739 C76.9343288,8.06074278 75.8566755,5.40673249 73.76704,3.28374301 C71.6768662,1.16075352 69.0645527,0.0661725212 65.9300994,0 Z M47.2186569,59.5175344 L19.789365,59.5175344 C18.8096801,59.4508149 18.0095144,59.0690925 17.3888679,58.3723669 C16.7682214,57.6756414 16.4578982,56.8296175 16.4578982,55.8342953 L16.4578982,55.2371019 C16.4578982,54.2423266 16.7518036,53.3965761 17.3396145,52.6998506 C17.9274254,52.003125 18.7111733,51.5883163 19.6908582,51.4554244 L47.1209576,51.4554244 C48.1006425,51.5215969 48.9008081,51.9030459 49.5214546,52.5997715 C50.1415629,53.296497 50.451617,54.1425209 50.451617,55.1378431 L50.451617,55.7350365 C50.5167499,56.7303587 50.2389931,57.5763826 49.6183465,58.2731081 C48.9982383,58.9698337 48.1983418,59.3846424 47.2186569,59.5175344 L47.2186569,59.5175344 Z M60.5421018,43.4933935 L20.1809698,43.4933935 C19.136152,43.427221 18.2708534,43.0457719 17.585074,42.3490464 C16.8992946,41.6523208 16.5235693,40.7729372 16.4578982,39.7108956 L16.4578982,39.1145226 C16.5235693,38.1192004 16.8992946,37.2564966 17.585074,36.5264114 C18.2708534,35.7963261 19.136152,35.4312835 20.1809698,35.4312835 L60.5421018,35.4312835 C61.5212484,35.4312835 62.3701292,35.7963261 63.0887442,36.5264114 C63.8073592,37.2564966 64.1666667,38.1192004 64.1666667,39.1145226 L64.264366,39.7108956 C64.1992331,40.7729372 63.823777,41.6523208 63.1379976,42.3490464 C62.4522182,43.0457719 61.5869196,43.427221 60.5421018,43.4933935 Z">
                </path>
            </g>
            <rect id="矩形" fill="#EEEEEE" fill-rule="nonzero" x="522.7" y="307.599449" width="60" height="60" rx="10">
            </rect>
            <rect id="矩形" fill="#F3F3F3" fill-rule="nonzero" x="662.7" y="240.599449" width="50" height="50" rx="8">
            </rect>
            <rect id="矩形" fill="#F8F8F8" fill-rule="nonzero" x="532.7" y="94.5994486" width="50" height="50" rx="8">
            </rect>
            <rect id="矩形" fill="#F8F8F8" fill-rule="nonzero" x="125.7" y="167.599449" width="50" height="50" rx="8">
            </rect>
            <rect id="矩形" fill="#F2F2F2" fill-rule="nonzero" x="657.7" y="510.599449" width="50" height="50" rx="8">
            </rect>
            <rect id="矩形" fill="#F2F2F2" fill-rule="nonzero" x="113.7" y="569.599449" width="50" height="50" rx="8">
            </rect>
            <g transform="translate(127.7, 582.5995)" fill="#1B283A" fill-rule="nonzero" id="形状">
                <path
                    d="M18.5445026,0 L3.45549738,0 C1.55497382,0 0,1.6875 0,3.75 L0,21.25 C0,23.3125 1.55497382,25 3.45549738,25 L18.5445026,25 C20.4450262,25 22,23.3125 22,21.25 L22,3.75 C22,1.6875 20.4450262,0 18.5445026,0 Z M20.8481675,21.25 C20.8481675,22.625 19.8115183,23.75 18.5445026,23.75 L3.45549738,23.75 C2.18848168,23.75 1.15183246,22.625 1.15183246,21.25 L1.15183246,3.75 C1.15183246,2.375 2.18848168,1.25 3.45549738,1.25 L18.5445026,1.25 C19.8115183,1.25 20.8481675,2.375 20.8481675,3.75 L20.8481675,21.25 Z">
                </path>
                <path
                    d="M17.3971226,15.1416845 L7.97031286,15.1416845 C7.64147066,15.1416845 7.42224252,15.395757 7.42224252,15.7768657 C7.42224252,16.1579745 7.64147066,16.412047 7.97031286,16.412047 L17.4519297,16.412047 C17.7807719,16.412047 18,16.1579745 18,15.7768657 C18,15.395757 17.7259648,15.1416845 17.3971226,15.1416845 L17.3971226,15.1416845 Z M4.95592601,13.5537315 C3.91459237,13.5537315 3.03767984,14.5700214 3.03767984,15.7768657 C3.03767984,16.9837101 3.91459237,18 4.95592601,18 C5.99725965,18 6.87417219,16.9837101 6.87417219,15.7768657 C6.81936515,14.5700214 5.99725965,13.5537315 4.95592601,13.5537315 Z M4.95592601,16.7296376 C4.51746974,16.7296376 4.13382051,16.2850107 4.13382051,15.7768657 C4.13382051,15.2687208 4.46266271,14.8240939 4.95592601,14.8240939 C5.39438228,14.8240939 5.77803151,15.2687208 5.77803151,15.7768657 C5.72322448,16.2850107 5.39438228,16.7296376 4.95592601,16.7296376 L4.95592601,16.7296376 Z M17.3971226,5.80452062 L7.97031286,5.80452062 C7.64147066,5.80452062 7.42224252,6.05859311 7.42224252,6.43970184 C7.42224252,6.82081057 7.64147066,7.07488305 7.97031286,7.07488305 L17.4519297,7.07488305 C17.7807719,7.07488305 18,6.82081057 18,6.43970184 C18,6.05859311 17.7259648,5.80452062 17.3971226,5.80452062 L17.3971226,5.80452062 Z M4.62708381,8.02765488 C4.73669788,8.091173 4.84631194,8.15469112 4.95592601,8.15469112 L5.06554008,8.15469112 C5.22996118,8.091173 5.33957525,8.02765488 5.39438228,7.83710052 L6.76455812,4.97878504 C6.92897922,4.66119443 6.81936515,4.2800857 6.54532998,4.08953133 C6.27129482,3.89897697 5.94245261,4.02601321 5.77803151,4.34360382 L4.68189084,6.56673808 L3.85978534,5.93155686 C3.58575017,5.7410025 3.25690797,5.80452062 3.09248687,6.12211123 C2.92806577,6.43970184 2.9828728,6.82081057 3.25690797,7.01136493 L4.62708381,8.02765488 Z">
                </path>
            </g>
            <rect id="矩形" fill="#EEEEEE" fill-rule="nonzero" x="216.7" y="465.599449" width="60" height="60" rx="13">
            </rect>
            <rect id="矩形" fill="#F4F4F4" fill-rule="nonzero" x="272.7" y="232.599449" width="60" height="60" rx="11">
            </rect>
            <g transform="translate(288.7, 247.5995)" fill="#1B283A" fill-rule="nonzero" id="形状">
                <path
                    d="M23,5.58437161 L16.4956122,0 L0,0 L0,26 L23,26 L23,5.58437161 Z M2.24677854,24.0017845 L2.24677854,1.9982155 L14.5790677,1.9982155 L14.5790677,7.4523342 L20.7531857,7.4523342 L20.7531857,24.0017845 L2.24677854,24.0017845 Z">
                </path>
                <path
                    d="M24.7519424,8 L24.7519424,27.1355933 L4,27.1355933 L4,29 L27,29 L27,8 L24.7519424,8 Z M4.10582378,10.6337572 L17.9455202,10.6337572 L17.9455202,12.4515631 L4.10582378,12.4515631 L4.10582378,10.6337572 Z">
                </path>
                <path
                    d="M4,15 L18,15 L18,16.7724899 L4,16.7724899 L4,15 Z M4,19.2275101 L18,19.2275101 L18,21 L4,21 L4,19.2275101 Z">
                </path>
            </g>
            <g transform="translate(231.7, 481.5995)" fill="#1B283A" fill-rule="nonzero" id="形状">
                <path
                    d="M29.1421419,16.4927172 L16.4145042,22.4002432 C15.1959176,22.9475827 14.7106947,22.9475827 13.5859707,22.4002432 L0.857858137,16.4927172 C0.182196061,16.1221263 0,14.7508702 0,14.002648 C0.849615033,14.5036812 2.04438832,15.0623697 1.99998417,15.0340324 L15.000017,21.2223388 L28.0004907,15.0340324 C28.0224384,15.028358 29.1815255,14.4252197 30,14.002648 C30,14.7683489 29.7701772,16.1901847 29.1421419,16.4927172 Z M29.1421419,10.3038854 L16.4145042,16.2119018 C15.1959176,16.7592763 14.7106947,16.7592763 13.5859707,16.2119018 L0.857858137,10.3038854 C-0.141896492,9.75605543 -0.110789856,8.03077648 0.857858137,7.38651588 L13.5859707,0.447115053 C14.7106947,-0.1328701 15.4142747,-0.164990315 16.4145042,0.447115053 L29.1421419,7.38651588 C30.1107559,7.9343458 30.0787334,9.85248611 29.1421419,10.3038854 Z M14.999983,1.62501944 L1.99995026,8.84520063 L14.999983,14.5017547 L28.0004907,8.84520063 L14.999983,1.62501944 Z M14.999983,27.4115559 L28.0004568,21.2223038 C28.0224045,21.2166293 29.1814916,20.613491 29.9999661,20.1909194 C29.9999661,20.9566553 29.7701772,22.3784911 29.142108,22.6810235 L16.4145042,28.5894953 C15.1959176,29.1368349 14.7106947,29.1368349 13.5859707,28.5894953 L0.857858137,22.6809885 C0.182196061,22.3103977 0,20.939632 0,20.1909194 C0.849615033,20.6919526 2.04438832,21.250641 1.99998417,21.2222688 L14.999983,27.4115559 Z">
                </path>
            </g>
            <g transform="translate(664.7, 523.5995)" fill="#1B283A" fill-rule="nonzero">
                <polygon id="路径"
                    points="17.1924743 2.21813986e-15 18.7998845 2.21813986e-15 18.7998845 24.9990816 17.1924743 24.9990816 17.1924743 0">
                </polygon>
                <path
                    d="M0.304950711,24.5784045 L0.305361527,24.5789236 L0,24.9976041 L0.610024671,24.9976041 L0.611092801,24.9990815 L1.49213456,24.9990815 L2.08864328,24.9990815 L14.7915678,24.9990815 L14.7915678,23.4359277 L14.7915678,7.55118407 L14.7915678,6.73147265 L14.7915678,4.68083644 L1.13677638,23.4359676 L0.304950711,24.5784045 Z M3.22016115,23.4336915 L3.68381113,22.8045327 L3.68504358,22.8062897 L13.314387,9.58093613 L13.314387,22.843346 L13.3145102,22.843346 L13.3145102,23.4359277 L13.3145102,23.4361274 L13.1738459,23.4361274 L13.1738459,23.436367 L4.33298679,23.436367 L3.57625878,23.436367 L3.57625878,23.4359277 L3.57625878,23.4345701 L3.22016115,23.4336915 Z"
                    id="形状"></path>
                <path
                    d="M35.3815125,24.9988819 L36,24.9966059 L35.5711875,24.419278 L21.2032149,4.69792711 L21.2032149,6.74708583 L21.2032149,7.56559928 L21.2032149,24.9990417 L34.5006761,24.9990417 L35.0622653,24.9990417 L35.0592252,25 L35.323546,24.9990417 L35.3813892,24.9990417 L35.3815125,24.9988819 Z M31.7814673,23.4378444 L31.7820424,23.436327 L22.8185539,23.436327 L22.8185539,23.4349294 L22.6815049,23.4349294 L22.6815049,22.9709268 L22.6803956,22.9709268 L22.6803956,9.59387389 L32.1970104,22.6551095 L32.1982839,22.6551095 L32.4630565,23.0223185 L32.4630565,23.0243949 L32.7627488,23.4378444 L31.7814673,23.4378444 Z"
                    id="形状"></path>
            </g>
            <g transform="translate(672.7, 250.5995)" fill="#1B283A" fill-rule="nonzero" id="形状">
                <path
                    d="M15.8823529,23.5714286 L15.8823529,27.8571428 L21.1764706,27.8571428 L21.1764706,30 L8.8235294,30 L8.8235294,27.8571428 L14.1176471,27.8571428 L14.1176471,23.5714286 L0,23.5714286 L0,0 L30,0 L30,23.5714286 L15.8823529,23.5714286 Z M15.8823529,21.4285714 L28.2352941,21.4285714 L28.2352941,2.14285716 L1.76470586,2.14285716 L1.76470586,21.4285714 L15.8823529,21.4285714 Z">
                </path>
            </g>
            <g transform="translate(135.7, 177.5995)" fill="#1B283A" fill-rule="nonzero" id="形状">
                <path
                    d="M22.8139482,14.0185105 L15.9810344,14.0185105 L15.9810344,7.18581856 C15.9810344,5.70076493 16.425481,4.28436342 17.2637866,3.0919846 C18.0442781,1.98271097 19.128294,1.11191311 20.3965927,0.573536002 C21.6215307,0.0532252439 22.9404167,-0.116598407 24.2123287,0.078518128 C25.5818022,0.288087739 26.8501008,0.927636379 27.879916,1.92489867 L27.9774774,2.02245693 L28.0750389,2.1200152 C29.0723335,3.14979691 29.7119029,4.41805438 29.9214793,5.78748339 C30.1166022,7.05574087 29.946773,8.37819738 29.4264454,9.60309562 C28.8880508,10.8713531 28.0172247,11.9553338 26.907915,12.7358 C25.7154975,13.5776917 24.29905,14.0185105 22.8139482,14.0185105 L22.8139482,14.0185105 Z M17.5709245,12.4286721 L22.8139482,12.4286721 C23.9702318,12.4286721 25.0687013,12.0854115 25.9937283,11.4386364 C26.860941,10.8279939 27.543871,9.97887561 27.9630239,8.98522659 C28.3677232,8.03132354 28.5014185,7.01238164 28.3496562,6.0331857 C28.1870538,4.97449783 27.7100868,4.03143458 26.9332087,3.22928883 C26.907915,3.20399595 26.8826213,3.17508979 26.8537142,3.14979691 C26.8284205,3.12450403 26.7995134,3.09921114 26.7742197,3.07030499 C25.9720479,2.29345212 25.0253407,1.81650059 23.9702318,1.65390348 C22.9910041,1.50214617 21.9720291,1.63583713 21.0180951,2.04052328 C20.0244139,2.46327577 19.175268,3.14257037 18.5646057,4.00975497 C17.9141962,4.9311386 17.5745378,6.02957243 17.5745378,7.18943182 L17.5709245,12.4286721 L17.5709245,12.4286721 Z M14.0189656,14.0185105 L7.18605181,14.0185105 C5.70094998,14.0185105 4.2845025,13.5740784 3.09208497,12.7358 C1.98277533,11.9553338 1.1119492,10.8713531 0.573554619,9.60309562 C0.0532269712,8.37819738 -0.116602191,7.05935414 0.0785206763,5.79109666 C0.28809709,4.42166765 0.927666491,3.15341018 1.92496115,2.12362847 L2.02252258,2.0260702 L2.12008402,1.92851194 C3.14989915,0.931249648 4.4181978,0.291701008 5.78767126,0.0821313971 C7.0559699,-0.112985137 8.37846934,0.0568385131 9.60340734,0.577149271 C10.871706,1.11552638 11.9557219,1.98632424 12.7362134,3.09559787 C13.574519,4.28797669 14.0189656,5.7043782 14.0189656,7.18943182 L14.0189656,14.0185105 Z M6.82109978,1.5924779 C6.55732257,1.5924779 6.29354536,1.61415752 6.03338154,1.65390348 C4.97465931,1.81650059 4.03156545,2.29345212 3.22939366,3.07030499 C3.20409995,3.09559787 3.17519286,3.12089076 3.14989915,3.14979691 L3.07040465,3.22928883 C2.29352657,4.03143458 1.81655956,4.9781111 1.65395717,6.0331857 C1.50219494,7.01238164 1.63589023,8.03132354 2.04058952,8.98522659 C2.46335573,9.97887561 3.14267238,10.8279939 4.00988513,11.4386364 C4.93129867,12.0890248 6.02976815,12.4286721 7.1896652,12.4286721 L12.4326889,12.4286721 L12.4326889,7.18581856 C12.4326889,6.02957243 12.0894172,4.9311386 11.442621,4.0061417 C10.8319587,3.1389571 9.98281292,2.45604923 8.98913165,2.03691001 C8.28452129,1.74423521 7.54739046,1.5924779 6.82109978,1.5924779 Z M6.82109978,30 C6.47421468,30 6.13094297,29.9747071 5.79128465,29.9205081 C4.42181118,29.7109385 3.15351254,29.0713898 2.1236974,28.0741275 L2.02613597,27.9765693 L1.92857454,27.879011 C0.931279877,26.8492293 0.291710477,25.5809718 0.0821340628,24.2115428 C-0.112988805,22.9432853 0.0568403577,21.6208288 0.577168006,20.3959306 C1.11556259,19.1276731 1.98638872,18.0436924 3.09569836,17.2632262 C4.28811588,16.4249478 5.70456337,15.9805157 7.1896652,15.9805157 L14.022579,15.9805157 L14.022579,22.8132077 C14.022579,24.2982613 13.5781324,25.7146628 12.7398268,26.9070416 C11.9557219,28.0163152 10.871706,28.8907264 9.60340734,29.4254902 C8.70728751,29.8048835 7.76058026,30 6.82109978,30 Z M7.18605181,17.5739674 C6.02976815,17.5739674 4.93129867,17.9172279 4.00627174,18.5640031 C3.139059,19.1746456 2.45612896,20.0237639 2.03697613,21.0174129 C1.63227685,21.9713159 1.49858155,22.9902578 1.65034378,23.9694538 C1.81294617,25.0281416 2.28991318,25.9712049 3.06679127,26.7733506 C3.09208497,26.7986435 3.11737868,26.8275497 3.14628577,26.8528426 L3.22578027,26.9323345 C4.02795206,27.7091874 4.97465931,28.1861389 6.02976815,28.348736 C7.00899588,28.5004933 8.02797085,28.3668023 8.98190488,27.9621162 C9.97558615,27.5393637 10.824732,26.8600691 11.4353943,25.9928845 C12.0858038,25.0715009 12.4254622,23.973067 12.4254622,22.8132077 L12.4254622,17.5739674 L7.18605181,17.5739674 Z M23.1789002,30 C22.2394197,30 21.2927125,29.8048835 20.3965927,29.4254902 C19.128294,28.8871131 18.0442781,28.0163152 17.2637866,26.9070416 C16.425481,25.7146628 15.9810344,24.2982613 15.9810344,22.8132077 L15.9810344,15.9841289 L22.8139482,15.9841289 C24.29905,15.9841289 25.7154975,16.4285611 26.907915,17.2668395 C28.0172247,18.0473056 28.8880508,19.1312864 29.4264454,20.3995439 C29.946773,21.6244421 30.1166022,22.9432853 29.9214793,24.2151561 C29.7119029,25.5845851 29.0723335,26.8528426 28.0750389,27.8826243 L27.9774774,27.9801825 L27.879916,28.0777408 C26.8501008,29.0750031 25.5818022,29.7145517 24.2123287,29.9241213 C23.869057,29.9747071 23.5257853,30 23.1789002,30 L23.1789002,30 Z M17.5709245,17.5739674 L17.5709245,22.8132077 C17.5709245,23.9694538 17.9141962,25.0678876 18.5609923,25.9928845 C19.1716547,26.8600691 20.0208005,27.5393637 21.0144817,27.9621162 C21.9684158,28.3668023 22.9873907,28.5004933 23.9666185,28.348736 C25.0253407,28.1861389 25.9684346,27.7091874 26.7706063,26.9323345 C26.7959,26.9070416 26.8248071,26.8817487 26.8501008,26.8528426 C26.8753946,26.8275497 26.9006883,26.7986435 26.9295953,26.7733506 C27.7064734,25.9712049 28.1834404,25.0245284 28.3460428,23.9694538 C28.4978051,22.9902578 28.3641098,21.9713159 27.9594105,21.0174129 C27.5366443,20.0237639 26.8573276,19.1746456 25.9901149,18.5640031 C25.0687013,17.9136147 23.9702318,17.5739674 22.8103348,17.5739674 L17.5709245,17.5739674 L17.5709245,17.5739674 Z">
                </path>
            </g>
            <g transform="translate(535.7, 323.5995)" fill="#1B283A" fill-rule="nonzero" id="形状">
                <path
                    d="M32.7272891,4.16531875 L18.80501,4.16531875 C17.9600112,4.16531875 17.2645341,3.58190491 17.1778648,2.83348578 C17.175958,2.7980152 17.1733316,2.76277392 17.1700577,2.72766363 C17.1694101,2.71037049 17.1686545,2.69307738 17.1686545,2.67562047 L17.1686545,2.68066429 L17.1654885,2.68066429 C17.0009284,1.17527773 15.6056568,0 13.9091473,0 L3.27274689,0 C1.46557121,0 0,1.33363434 0,2.97933107 L0,25.0207017 C0,26.6661037 1.46549928,28 3.27274689,28 L32.7272891,28 C34.5344288,28 36,26.6661036 36,25.0207017 L36,7.14468256 C36,5.49898583 34.5345007,4.16531875 32.7272891,4.16531875 Z M34.3636805,25.0207017 C34.3636805,25.8434026 33.6308589,26.5103345 32.727325,26.5103345 L3.27274689,26.5103345 C2.36892519,26.5103345 1.63639143,25.8434027 1.63639143,25.0207017 L1.63639143,8.63431532 L34.3636805,8.63431532 L34.3636805,25.0207017 Z M1.63639143,7.14468256 L1.63639143,2.97936381 C1.63639143,2.15679385 2.36892519,1.48969828 3.27274689,1.48969828 L13.9091473,1.48969828 C14.7546858,1.48969828 15.4503788,2.07373441 15.5364005,2.82267758 C15.5382713,2.8575586 15.5408257,2.89227588 15.5439917,2.92682939 C15.5446753,2.94428627 15.5454668,2.96174316 15.5454668,2.97936381 L15.5492084,2.97936381 C15.7163589,4.48232671 17.1104073,5.65498428 18.804974,5.65498428 L32.727325,5.65498428 C33.6308229,5.65498428 34.3636445,6.32207986 34.3636445,7.14468256 L1.63639143,7.14468256 L1.63639143,7.14468256 Z">
                </path>
            </g>
            <text id="No-Caching" fill="#000000" fill-rule="nonzero" font-family="MabryPro-Bold, Mabry Pro"
                font-size="34" font-weight="bold">
                <tspan x="308.7" y="638.599449">No Caching</tspan>
            </text>
            <text id="Please-enter-the-task-id-in-your-search" fill="#565656" fill-rule="nonzero"
                font-family="MabryPro-Light, Mabry Pro" font-size="30" font-weight="300">
                <tspan x="155.411426" y="708.599449">Please enter the task id in your search</tspan>
            </text>
            <text id="box-to-search-for-cache." fill="#565656" fill-rule="nonzero"
                font-family="MabryPro-Light, Mabry Pro" font-size="30" font-weight="300">
                <tspan x="246.554004" y="744.599449">box to search for cache.</tspan>
            </text>
            <g transform="translate(542.7, 104.5995)" fill="#1B283A" fill-rule="nonzero" id="形状">
                <path
                    d="M27.4285714,0 C28.8487322,0 30,1.1851286 30,2.64705882 L30,27.3529412 C30,28.8148714 28.8487322,30 27.4285714,30 L2.57142857,30 C1.15126779,30 0,28.8148714 0,27.3529412 L0,2.64705882 C0,1.1851286 1.15126779,0 2.57142857,0 L27.4285714,0 Z M27.8571429,20.7352941 L2.14285369,20.7352941 L2.14285369,27.3529412 C2.14222438,27.5842384 2.31522887,27.7767712 2.53928571,27.7941212 L27.4285714,27.7941212 C27.6532601,27.794769 27.840292,27.6166762 27.8571429,27.3860294 L27.8571429,20.7352941 Z M18.4285714,23.1617647 L18.4285714,25.3676471 L5.14285714,25.3676471 L5.14285714,23.1617647 L18.4285714,23.1617647 Z M23.7857143,23.1617647 C24.3774479,23.1617647 24.8571429,23.6555683 24.8571429,24.2647059 C24.8571429,24.8738435 24.3774479,25.3676471 23.7857143,25.3676471 C23.1939806,25.3676471 22.7142857,24.8738435 22.7142857,24.2647059 C22.7142857,23.6555683 23.1939806,23.1617647 23.7857143,23.1617647 Z M27.8571429,11.4705882 L2.14285714,11.4705882 L2.14285714,18.5294118 L27.8571429,18.5294118 L27.8571429,11.4705882 Z M18.4285714,13.8970588 L18.4285714,16.1029412 L5.14285714,16.1029412 L5.14285714,13.8970588 L18.4285714,13.8970588 Z M23.7857143,13.8970588 C24.3774479,13.8970588 24.8571429,14.3908624 24.8571429,15 C24.8571429,15.6091376 24.3774479,16.1029412 23.7857143,16.1029412 C23.1939806,16.1029412 22.7142857,15.6091376 22.7142857,15 C22.7142857,14.3908624 23.1939806,13.8970588 23.7857143,13.8970588 Z M27.4285714,2.2058788 L2.57142857,2.2058788 C2.34673986,2.20523098 2.15970797,2.38332384 2.14285714,2.61397059 L2.14285714,9.26470588 L27.8571463,9.26470588 L27.8571463,2.64705882 C27.8577756,2.41576162 27.6847711,2.2232288 27.4607143,2.2058788 L27.4285714,2.2058788 Z M18.4285714,4.63235294 L18.4285714,6.83823529 L5.14285714,6.83823529 L5.14285714,4.63235294 L18.4285714,4.63235294 Z M23.7857143,4.63235294 C24.3774479,4.63235294 24.8571429,5.12615653 24.8571429,5.73529412 C24.8571429,6.34443171 24.3774479,6.83823529 23.7857143,6.83823529 C23.1939806,6.83823529 22.7142857,6.34443171 22.7142857,5.73529412 C22.7142857,5.12615653 23.1939806,4.63235294 23.7857143,4.63235294 Z">
                </path>
            </g>
        </g>
    </g>
</svg>