<svg t="1728873539830" class="icon" viewBox="0 0 1024 1024" version="1.1" xmlns="http://www.w3.org/2000/svg" p-id="5595"
    width="200" height="200">
    <path
        d="M161.066667 128c-18.24 0-33.066667 14.826667-33.066667 33.066667v285.866666c0 18.24 14.826667 33.066667 33.066667 33.066667h285.866666c18.24 0 33.066667-14.826667 33.066667-33.066667V161.066667c0-18.24-14.826667-33.066667-33.066667-33.066667H161.066667z m254.933333 288H192V192h224v224zM128 862.933333c0 18.24 14.826667 33.066667 33.066667 33.066667h285.866666c18.24 0 33.066667-14.826667 33.066667-33.066667V577.066667c0-18.24-14.826667-33.066667-33.066667-33.066667H161.066667c-18.24 0-33.066667 14.826667-33.066667 33.066667v285.866666z m64-254.933333h224v224H192V608zM577.066667 128c-18.24 0-33.066667 14.826667-33.066667 33.066667v285.866666c0 18.24 14.826667 33.066667 33.066667 33.066667h285.866666c18.24 0 33.066667-14.826667 33.066667-33.066667V161.066667c0-18.24-14.826667-33.066667-33.066667-33.066667H577.066667z m254.933333 288H608V192h224v224zM743.36 514.133333c-6.293333-6.293333-14.506667-9.706667-23.36-9.706666s-17.173333 3.413333-23.36 9.706666L514.133333 696.64c-6.293333 6.293333-9.706667 14.506667-9.706666 23.36s3.413333 17.173333 9.706666 23.36L696.64 925.866667c6.293333 6.293333 14.506667 9.706667 23.36 9.706666s17.173333-3.413333 23.36-9.706666L925.866667 743.36c6.293333-6.293333 9.706667-14.506667 9.706666-23.36s-3.413333-17.173333-9.706666-23.36L743.36 514.133333zM720 858.773333L581.226667 720 720 581.226667 858.773333 720 720 858.773333z"
        p-id="5596" fill="currentColor"></path>
</svg>