<svg width="145.5px" height="163.708333px" viewBox="0 0 145.5 163.708333" version="1.1"
    xmlns="http://www.w3.org/2000/svg" xmlns:xlink="http://www.w3.org/1999/xlink">
    <g id="页面-1" stroke="none" stroke-width="1" fill="none" fill-rule="evenodd">
        <g id="编组" fill="currentColor" fill-rule="nonzero">
            <path
                d="M143.731012,151.558682 L127.942326,135.621459 C137.664337,120.857654 134.626929,101.130185 120.914169,89.9747233 C107.20141,78.8192621 87.2690082,79.8605718 74.7932471,92.3841752 C62.317486,104.907779 61.3521355,124.84436 72.5595546,138.514769 C83.7669737,152.185179 103.505517,155.147467 118.231914,145.369109 L134.057662,161.269268 C136.037372,163.23383 139.231042,163.23383 141.210752,161.269268 L143.768074,158.7119 C145.736939,156.719494 145.736939,153.514024 143.768074,151.521618 L143.731012,151.558682 Z M116.673392,125.704822 C114.315151,130.619142 110.089753,134.386539 104.938105,136.168093 C102.902819,137.009785 100.707517,137.394258 98.5073122,137.294348 C89.3885943,137.404182 81.3025644,131.454201 78.6951292,122.715857 C76.087694,113.977513 79.5910871,104.569621 87.2790529,99.6648823 C94.9670188,94.7601433 104.975431,95.5478253 111.801407,101.59484 C118.627384,107.641856 120.615808,117.481964 116.673392,125.704822 L116.673392,125.704822 Z M46.5416666,122.25 L27.5833334,122.25 C24.5187921,121.992148 22.1627448,119.429537 22.1627448,116.354167 C22.1627448,113.278797 24.5187921,110.716185 27.5833334,110.458333 L46.125,110.458333 C46.5773425,105.027705 47.9144191,99.7075478 50.0833334,94.7083334 L27.5833334,94.7083334 C24.3312361,94.5729208 21.7992389,91.8361297 21.9166666,88.5833334 C22.0425573,85.5003212 24.5013262,83.0234732 27.5833334,82.875 L57.4583334,82.875 C63.2480548,75.7400755 70.8662277,70.3108673 79.5,67.1666668 L27.5833334,67.1666668 C24.3156486,67.1666668 21.6666667,64.5176849 21.6666667,61.2500001 C21.6666667,57.9823153 24.3156486,55.3333334 27.5833334,55.3333334 L117.916667,55.3333334 C121.184351,55.3333334 123.833333,57.9823153 123.833333,61.2500001 C123.833333,64.5176849 121.184351,67.1666668 117.916667,67.1666668 L113.5,67.1666668 C129.507093,72.9798385 141.527235,86.4398938 145.5,103 L145.5,17.9166668 C145.5,8.07017569 137.554585,0.068696447 127.708333,0 L17.7916666,0 C7.94541513,0.068696447 0,8.07017569 0,17.9166668 L0,145.833333 C0,155.672971 7.95213599,163.662461 17.7916666,163.708333 L82.4583334,163.708333 C63.3077046,158.122762 49.2055425,141.835988 46.4166666,122.083333 L46.5416666,122.25 Z M27.5833334,27.625 L117.916667,27.625 C120.981208,27.8828513 123.337256,30.4454629 123.337256,33.5208334 C123.337256,36.5962038 120.981208,39.1588155 117.916667,39.4166668 L27.5833334,39.4166668 C24.5187917,39.1588155 22.1627436,36.5962038 22.1627436,33.5208334 C22.1627436,30.4454629 24.5187917,27.8828513 27.5833334,27.625 L27.5833334,27.625 Z"
                id="形状"></path>
        </g>
    </g>
</svg>