<svg width="106.11px" height="125px" viewBox="0 0 106.11 125" version="1.1" xmlns="http://www.w3.org/2000/svg"
    xmlns:xlink="http://www.w3.org/1999/xlink">
    <g id="页面-1" stroke="none" stroke-width="1" fill="none" fill-rule="evenodd">
        <g id="编组" transform="translate(-65.89, -56)" fill="#D3D3D3" fill-rule="nonzero">
            <path
                d="M89.5609547,165.084821 C89.4773802,165.337194 89.5296288,165.610934 89.7017246,165.822343 C89.8738204,166.033751 90.1452964,166.157685 90.4331451,166.156262 L145.473718,166.156262 C148.3193,166.156262 145.473718,163.03125 145.473718,163.03125 C144.024191,161.310587 142.423933,159.701086 140.688852,158.21875 C130.85342,149.785275 116.015584,148.56681 104.700036,155.263393 L90.93502,163.40625 C90.2735032,163.798065 89.7862725,164.39327 89.5609547,165.084821 L89.5609547,165.084821 Z M141.68773,77.875 L94.3117124,77.875 C94.3117124,77.875 90.5257239,88.03125 108.525005,98.1875 C108.525005,98.1875 116.106727,102.09375 117.997285,112.25 L117.997285,113.03125 L117.997285,112.25 C118.947436,102.09375 127.474437,98.1875 127.474437,98.1875 C145.473718,88.03125 141.68773,77.875 141.68773,77.875 L141.68773,77.875 Z M137.896869,104.4375 C157.79158,91.9375 160.63229,74.75 160.63229,66.9375 L165.373302,66.9375 C169.159291,66.9375 172,64.59375 172,61.46875 C172,58.34375 169.159291,56 165.373302,56 L72.5166979,56 C68.7307095,56 65.89,58.34375 65.89,61.46875 C65.89,64.59375 68.7307095,66.9375 72.5215705,66.9375 L77.2577104,66.9375 C77.2577104,74.75 80.1032925,91.9375 99.9980039,104.4375 C106.629574,108.34375 110.420435,113.03125 110.420435,118.5 C110.420435,127.09375 100.943283,133.34375 99.9980039,133.34375 C98.1025734,134.125 77.2577104,146.625 77.2577104,170.0625 L72.5215705,170.0625 C68.7307095,170.0625 65.89,172.40625 65.89,175.53125 C65.89,178.65625 68.7307095,181 72.5215705,181 L165.373302,181 C169.159291,181 172,178.65625 172,175.53125 C172,172.40625 169.159291,170.0625 165.373302,170.0625 L160.63229,170.0625 C160.63229,146.625 138.842148,134.125 137.896869,133.34375 C136.946717,132.5625 127.469565,126.3125 127.469565,118.5 C127.469565,113.03125 130.315147,108.34375 137.896869,104.4375 L137.896869,104.4375 Z M123.142721,118.5 C123.142721,129.053571 134.510431,136.357143 135.460583,137.169643 C135.460583,137.169643 156.305446,149.34375 156.305446,172.071429 L80.5077159,172.071429 C80.5077159,149.348214 101.352579,137.169643 101.352579,137.169643 C102.297858,137.169643 113.670441,129.053571 113.670441,118.5 C113.670441,112.004464 109.87958,106.325893 101.352579,101.455357 C84.2985769,89.28125 81.4529949,72.2321429 81.4529949,64.9285714 L156.305446,64.9285714 C156.305446,72.2321429 153.459864,88.46875 135.460583,100.642857 C127.878861,106.325893 123.142721,112.004464 123.142721,118.5 L123.142721,118.5 Z"
                id="形状"></path>
        </g>
    </g>
</svg>