<svg width="175.78125px" height="175.781251px" viewBox="0 0 175.78125 175.781251" version="1.1"
    xmlns="http://www.w3.org/2000/svg" xmlns:xlink="http://www.w3.org/1999/xlink">
    <g id="页面-1" stroke="none" stroke-width="1" fill="none" fill-rule="evenodd">
        <g id="编组" fill="#e0c0c0" fill-rule="nonzero">
            <path
                d="M0,87.890625 C0,119.290921 16.7518579,148.305992 43.9453121,164.00614 C71.1387663,179.706288 104.642484,179.706288 131.835938,164.00614 C159.029392,148.305992 175.78125,119.290921 175.78125,87.890625 C175.78125,39.3499732 136.431277,0 87.890625,0 C39.3499732,0 0,39.3499732 0,87.890625 Z"
                id="路径"></path>
        </g>
        <g id="编组" transform="translate(40, 41)" fill="currentColor" fill-rule="nonzero">
            <path
                d="M74.9985339,100 C88.8064624,100 100,88.8072008 100,75.0001833 C100,61.1931657 88.8064624,50.0003665 74.9985339,50.0003665 C61.1906055,50.0003665 49.9970678,61.1931657 49.9970678,75.0001833 C49.9970678,88.8072008 61.1906055,100 74.9985339,100 L74.9985339,100 Z M73.2140543,59.9971683 C75.1868621,59.9971683 76.7861388,61.5963395 76.7861388,63.5690171 L76.7861388,75.0001832 L83.9303077,75.0001832 C85.9031155,75.0001832 87.5023923,76.5993544 87.5023923,78.5720321 C87.5023923,80.5447097 85.9031155,82.1438809 83.9303077,82.1438809 L73.2109291,82.1438809 C72.2632983,82.1438809 71.354571,81.7670351 70.6850814,81.0964172 C70.0155917,80.4257992 69.6403102,79.5164739 69.6419643,78.5689071 L69.6419643,63.5690171 C69.6419643,61.5963395 71.2412465,59.9971683 73.2140543,59.9971683 Z M13.2479618,10.6130433 C25.6375269,-0.68877083 43.6987027,-3.21697172 58.715654,4.24848199 C73.7326053,11.7139357 82.618955,27.6386976 81.086391,44.3379081 C72.1048484,42.5523844 62.8613042,44.8038622 55.7451322,50.3674554 L46.21661,40.8524513 L59.8774471,27.1842307 C61.2548254,25.6971839 61.210525,23.3876206 59.7771334,21.9544699 C58.3437419,20.5213193 56.0337904,20.4770263 54.5464936,21.8541732 L40.8759756,35.5266957 L27.2226681,21.8681544 C25.7336291,20.5035478 23.4337552,20.5537941 22.0057554,21.9821304 C20.5777556,23.4104667 20.5284291,25.7099741 21.8938659,27.1982119 L35.5654596,40.8567532 L21.8938659,54.5152946 C20.5164876,56.0023413 20.560788,58.3119047 21.9941796,59.7450553 C23.4275711,61.178206 25.7375227,61.222499 27.2248194,59.8453521 L40.8770513,46.1868108 L50.404196,55.6986982 C44.8155859,62.8201545 42.551237,72.0822936 44.3404862,81.0813887 C43.1154143,81.1876379 41.8715915,81.2501375 40.6215181,81.2501375 C23.851033,81.2470465 8.80583444,70.9404127 2.74632853,55.3039392 C-3.31317739,39.6674656 0.858396652,21.9148573 13.2479618,10.6130433 Z"
                id="形状"></path>
        </g>
    </g>
</svg>