<svg width="178.055556px" height="176.666667px" viewBox="0 0 178.055556 176.666667" version="1.1"
    xmlns="http://www.w3.org/2000/svg" xmlns:xlink="http://www.w3.org/1999/xlink">
    <g stroke="none" stroke-width="1" fill="none" fill-rule="evenodd">
        <g transform="translate(57, 77)" fill="#2E8F79" fill-rule="nonzero">
            <path
                d="M33.2223057,8.12351183 C32.983257,7.80580972 28.2579102,1.86281518 26.595845,1.0268001 C25.2685685,0.358536018 23.8250664,0.00838250657 22.3628784,0 C21.1210278,0.0180140369 19.901729,0.365193657 18.8117269,1.01288017 L10,15.9260463 L23.4799426,23.2880556 L33.2223057,8.12351183 Z M60.1814392,41.5149857 C55.1296091,42.4254566 50.0390489,43.0594731 44.9289278,43.4146478 L44.3298025,37.9170912 L36.1217112,51.4579153 L45.761088,63 L46.0497506,57.9290486 L52.7325907,57.3075643 C53.5922546,57.2623492 54.4351556,57.0319114 55.2125333,56.6295815 C55.8400421,56.0547075 56.3623534,55.3560464 56.7520672,54.5702495 L65,38.4255784 C63.8628931,40.144706 62.1160747,41.2656703 60.1844461,41.5158045 L60.1814392,41.5149857 L60.1814392,41.5149857 Z M16.4437914,42.4705485 C16.3047222,42.8381986 13.7293105,49.8358331 13.905966,51.6740837 C14.1074284,54.5309462 15.6935693,57.054549 18.0652634,58.2942423 L35.6135447,58.2295555 L34.6904258,43.0764752 L16.4437914,42.4705485 Z">
            </path>
            <path
                d="M28.4864205,3.10776905 C31.9423253,7.23691773 35.1899603,11.5666795 38.2140677,16.0771589 L33.4131828,19.244691 L50.2876106,20.2568754 L55.9749771,5.97603936 L51.1077205,8.14050577 L47.0453158,2.36002921 C46.5351226,1.57660433 45.8816948,0.915958301 45.1258773,0.419387363 C44.2439731,0.130073392 43.3269759,-0.0116821639 42.4061642,0.000752534019 L23.0920049,0.210484438 C25.1658242,0.397165981 27.0958456,1.43702541 28.4879463,3.11771681 L28.4864205,3.10776905 L28.4864205,3.10776905 Z M50.9017394,43.5338009 C51.3121758,43.5031286 59.1623436,42.8623272 60.804852,41.9040265 C63.2506866,40.6638726 64.8657309,38.055902 65,35.1271161 L56.3693927,18.7041961 L42.570949,26.1525802 L50.9017394,43.5338009 Z M12.2841013,49.989896 C14.0169323,44.9518906 16.0180765,40.0277179 18.2773879,35.2423443 L23.6100092,37.6870059 L15.4089106,22.9576918 L0,25.375826 L4.47818126,28.3899968 L1.66615807,34.7391535 C1.27162841,35.5399673 1.05160145,36.4285321 1.02303937,37.3363474 C1.24871122,38.2332447 1.62052661,39.0789167 2.12084223,39.8332348 L12.6678364,56 C11.7021472,54.1679221 11.5599673,51.9567281 12.2818126,49.9965279 L12.2841013,49.989896 L12.2841013,49.989896 Z">
            </path>
        </g>
        <g fill="currentColor" fill-rule="nonzero">
            <path
                d="M171.388889,31.1111111 L139.166667,31.1111111 L139.166667,18.8888889 C139.166667,8.88888887 130.277778,0 120.277778,0 L56.9444444,0 C51.388889,0 46.9444444,2.22222227 43.6111112,5.55555547 C40.2777778,8.88888887 38.0555558,14.4444443 38.0555556,18.8888889 L38.0555556,31.1111111 L5.8333333,31.1111111 C-1.94444443,31.1111111 -1.94444443,43.3333332 5.8333333,43.3333332 L171.388889,43.3333332 C180.277778,43.3333332 180.277778,31.1111109 171.388889,31.1111111 Z M51.388889,17.7777777 C51.388889,14.4444443 54.7222224,11.1111111 58.0555556,11.1111111 L121.388889,11.1111111 C124.722222,11.1111111 128.055556,13.3333334 128.055556,17.7777777 L128.055556,30 L51.388889,30 L51.388889,17.7777777 Z M133.611111,176.666667 L44.7222222,176.666667 C39.1666667,176.666667 34.7222222,174.444444 31.388889,171.111111 C28.0555556,167.777778 25.8333333,162.222222 25.8333333,157.777778 L25.8333333,62.2222223 C25.8333333,58.8888889 29.1666667,55.5555555 32.5000001,55.5555555 C35.8333333,55.5555555 39.1666667,57.7777777 39.1666667,62.2222223 L39.1666667,157.777778 C39.1666667,161.111111 42.5000001,164.444444 45.8333333,164.444444 L134.722222,164.444444 C138.055556,164.444444 141.388889,161.111111 141.388889,157.777778 L141.388889,63.3333332 C141.388889,55.5555555 153.611111,55.5555555 153.611111,63.3333332 L153.611111,158.888889 C152.5,167.777778 144.722222,176.666667 133.611111,176.666667 L133.611111,176.666667 Z">
            </path>
        </g>
    </g>
</svg>