<svg t="1750756850761" class="icon" viewBox="0 0 1024 1024" version="1.1" xmlns="http://www.w3.org/2000/svg" p-id="1545"
    width="200" height="200">
    <path
        d="M878.293333 204.8a36.693333 36.693333 0 0 1 0 73.386667h-73.173333v614.4A45.013333 45.013333 0 0 1 760.106667 938.666667H264.106667a45.013333 45.013333 0 0 1-45.013334-45.013334V277.333333H145.706667a36.906667 36.906667 0 0 1-32.426667-18.133333 36.266667 36.266667 0 0 1 0-37.12 36.906667 36.906667 0 0 1 32.426667-17.28zM638.08 530.56l-31.146667 53.973333 39.68 64a9.173333 9.173333 0 0 1 0 8.533334 8.96 8.96 0 0 1-6.613333 5.333333h-123.946667l28.586667 49.493333 18.56 33.066667a6.826667 6.826667 0 0 0 5.973333 3.413333 6.4 6.4 0 0 0 5.76-3.413333v-1.493333l7.68-26.24h55.466667a64 64 0 0 0 56.533333-94.293334l-1.92-3.413333z m-258.986667 11.733333h-39.04a6.4 6.4 0 0 0-4.906666 5.12v2.986667a4.053333 4.053333 0 0 0 0 1.92l21.333333 24.106667-26.24 42.666666a64 64 0 0 0 50.773333 97.706667h102.826667l-31.786667-54.826667h-66.56a9.173333 9.173333 0 0 1-8.533333-12.586666v-1.493334l65.92-106.666666z m80.64-130.773333l-2.133333 3.413333-44.8 72.533334h64l26.88-43.733334a9.173333 9.173333 0 0 1 7.04-4.266666 8.746667 8.746667 0 0 1 7.68 3.2v1.066666l54.186667 87.68 31.146666-53.76 17.92-31.786666a6.613333 6.613333 0 0 0-5.546666-10.026667h-1.493334l-32.64 6.186667-16.853333-27.306667A64 64 0 0 0 516.266667 384a64 64 0 0 0-53.973334 23.466667zM644.906667 85.333333a36.693333 36.693333 0 0 1 0 73.386667H351.786667A36.906667 36.906667 0 0 1 320 140.8a37.546667 37.546667 0 0 1 0-36.693333A36.906667 36.906667 0 0 1 351.786667 85.333333z m0 0"
        fill="currentColor" p-id="1546"></path>
</svg>