<svg width="175.78125px" height="175.781251px" viewBox="0 0 175.78125 175.781251" version="1.1"
    xmlns="http://www.w3.org/2000/svg" xmlns:xlink="http://www.w3.org/1999/xlink">
    <g stroke="none" stroke-width="1" fill="none" fill-rule="evenodd">
        <g fill-rule="nonzero">
            <path
                d="M0,87.890625 C0,119.290921 16.7518579,148.305992 43.9453121,164.00614 C71.1387663,179.706288 104.642484,179.706288 131.835938,164.00614 C159.029392,148.305992 175.78125,119.290921 175.78125,87.890625 C175.78125,39.3499732 136.431277,0 87.890625,0 C39.3499732,0 0,39.3499732 0,87.890625 Z"
                fill="#B2E4C1"></path>
            <g transform="translate(38, 38)" fill="currentColor">
                <path
                    d="M100,50 C100,56.7708333 98.6762153,63.2378472 96.0286458,69.4010416 C93.3810764,75.5642361 89.8220486,80.8810763 85.3515625,85.3515625 C80.8810763,89.8220486 75.5642361,93.3810764 69.4010416,96.0286458 C63.2378472,98.6762153 56.7708333,100 50,100 C42.5347222,100 35.4383681,98.4266493 28.7109375,95.2799479 C21.9835069,92.1332464 16.2543402,87.6953124 11.5234375,81.9661459 C11.219618,81.5321181 11.078559,81.0438368 11.1002605,80.5013021 C11.1219619,79.9587674 11.3064237,79.5138889 11.6536458,79.1666667 L20.5729167,70.1822916 C21.0069445,69.7916667 21.5494792,69.5963542 22.2005208,69.5963542 C22.8949653,69.6831597 23.3940972,69.9435764 23.6979167,70.3776042 C26.8663195,74.500868 30.7508681,77.6909722 35.3515625,79.9479167 C39.9522569,82.2048611 44.8350694,83.3333334 50,83.3333334 C54.5138889,83.3333334 58.8216145,82.4544271 62.923177,80.6966145 C67.0247395,78.938802 70.5729166,76.5624999 73.5677083,73.5677083 C76.5625001,70.5729168 78.9388021,67.0247397 80.6966145,62.923177 C82.4544269,58.8216144 83.3333332,54.5138887 83.3333334,50 C83.3333335,45.4861113 82.4544272,41.1783856 80.6966145,37.076823 C78.9388018,32.9752603 76.5624997,29.4270832 73.5677083,26.4322917 C70.5729169,23.4375001 67.0247398,21.061198 62.923177,19.3033855 C58.8216142,17.5455729 54.5138886,16.6666666 50,16.6666666 C45.7465278,16.6666666 41.6666667,17.437066 37.7604167,18.9778646 C33.8541668,20.5186633 30.3819445,22.7213543 27.34375,25.5859375 L36.2630208,34.5703126 C37.6085069,35.8723959 37.9123264,37.3697917 37.1744791,39.0625 C36.4366319,40.7986111 35.15625,41.6666667 33.3333334,41.6666667 L4.16666671,41.6666667 C3.03819448,41.6666667 2.06163197,41.2543403 1.23697918,40.4296875 C0.412326394,39.6050347 0,38.6284722 0,37.5 L0,8.33333331 C0,6.51041665 0.868055561,5.23003473 2.60416668,4.49218756 C4.29687499,3.75434032 5.79427081,4.05815976 7.09635413,5.4036459 L15.5598959,13.8020833 C20.2039931,9.41840274 25.5099826,6.02213539 31.4778645,3.61328128 C37.4457464,1.20442717 43.6197916,0 50,0 C56.7708333,0 63.2378472,1.32378473 69.4010416,3.97135418 C75.5642361,6.61892364 80.8810763,10.1779514 85.3515625,14.6484375 C89.8220486,19.1189237 93.3810764,24.4357639 96.0286458,30.5989584 C98.6762153,36.7621528 100,43.2291667 100,50 Z M58.3333334,31.25 L58.3333334,60.4166666 C58.3333334,61.0243055 58.1380208,61.5234375 57.7473958,61.9140625 C57.3567708,62.3046876 56.8576389,62.5 56.25,62.5 L35.4166667,62.5 C34.8090278,62.5 34.3098958,62.3046875 33.9192709,61.9140625 C33.5286459,61.5234376 33.3333334,61.0243056 33.3333334,60.4166666 L33.3333334,56.25 C33.3333334,55.6423611 33.5286459,55.1432292 33.9192709,54.7526042 C34.3098958,54.3619792 34.8090278,54.1666667 35.4166667,54.1666667 L50,54.1666667 L50,31.25 C50,30.6423611 50.1953125,30.1432291 50.5859375,29.7526041 C50.9765625,29.3619792 51.4756944,29.1666667 52.0833333,29.1666667 L56.25,29.1666667 C56.8576389,29.1666667 57.3567708,29.3619792 57.7473958,29.7526041 C58.1380208,30.1432291 58.3333334,30.6423611 58.3333334,31.25 L58.3333334,31.25 Z">
                </path>
            </g>
        </g>
    </g>
</svg>