<svg width="175.78125px" height="175.781251px" viewBox="0 0 175.78125 175.781251" version="1.1"
    xmlns="http://www.w3.org/2000/svg" xmlns:xlink="http://www.w3.org/1999/xlink">
    <g id="页面-1" stroke="none" stroke-width="1" fill="none" fill-rule="evenodd">
        <g id="编组" fill="#B2E4C1" fill-rule="nonzero">
            <path
                d="M0,87.890625 C0,119.290921 16.7518579,148.305992 43.9453121,164.00614 C71.1387663,179.706288 104.642484,179.706288 131.835938,164.00614 C159.029392,148.305992 175.78125,119.290921 175.78125,87.890625 C175.78125,39.3499732 136.431277,0 87.890625,0 C39.3499732,0 0,39.3499732 0,87.890625 Z"
                id="路径"></path>
        </g>
        <g id="编组" transform="translate(38, 38)" fill="currentColor" fill-rule="nonzero">
            <path
                d="M40.6215181,81.2501375 C41.8715915,81.2501375 43.1154143,81.1876379 44.3404862,81.0813887 C42.3054103,70.8458991 45.514305,60.2701205 52.8940274,52.890885 C60.2737498,45.5116494 70.8502261,42.3029664 81.086391,44.3379081 C82.618955,27.6386976 73.7326053,11.7139357 58.715654,4.24848199 C43.6987027,-3.21697172 25.6375269,-0.68877083 13.2479618,10.6130433 C0.858396652,21.9148573 -3.31317739,39.6674656 2.74632853,55.3039392 C8.80583444,70.9404127 23.851033,81.2470465 40.6215181,81.2501375 Z M62.6853119,28.3130255 L42.102855,48.8941247 C37.8318705,53.1618135 30.9104327,53.1618135 26.6394482,48.8941247 L18.5577243,40.8129339 C16.8366317,38.9660113 16.8874163,36.0879086 18.672596,34.3028466 C20.4577757,32.5177847 23.3360683,32.4670034 25.1831128,34.1879825 L33.2648368,42.2691732 C33.5579923,42.5630513 33.9560421,42.7282129 34.3711516,42.7282129 C34.7862611,42.7282129 35.184311,42.5630513 35.4774665,42.2691732 L56.0599234,21.6880741 C57.2285579,20.4340002 58.9885674,19.9177784 60.6494989,20.3419229 C62.3104303,20.7660674 63.6073794,22.0629309 64.0315519,23.7237528 C64.4557244,25.3845746 63.9394686,27.1444681 62.6853119,28.3130255 Z M74.9985339,100 C88.8064624,100 100,88.8072008 100,75.0001833 C100,61.1931657 88.8064624,50.0003665 74.9985339,50.0003665 C61.1906055,50.0003665 49.9970678,61.1931657 49.9970678,75.0001833 C49.9970678,88.8072008 61.1906055,100 74.9985339,100 L74.9985339,100 Z M69.6419643,63.5690171 C69.6419643,61.5963395 71.2412465,59.9971683 73.2140543,59.9971683 C75.1868621,59.9971683 76.7861388,61.5963395 76.7861388,63.5690171 L76.7861388,75.0001832 L83.9303077,75.0001832 C85.9031155,75.0001832 87.5023923,76.5993544 87.5023923,78.5720321 C87.5023923,80.5447097 85.9031155,82.1438809 83.9303077,82.1438809 L73.2109291,82.1438809 C72.2632983,82.1438809 71.354571,81.7670351 70.6850814,81.0964172 C70.0155917,80.4257992 69.6403102,79.5164739 69.6419643,78.5689071 L69.6419643,63.5690171 L69.6419643,63.5690171 Z"
                id="形状"></path>
        </g>
    </g>
</svg>