<svg width="175.78125px" height="175.781251px" viewBox="0 0 175.78125 175.781251" version="1.1"
    xmlns="http://www.w3.org/2000/svg" xmlns:xlink="http://www.w3.org/1999/xlink">
    <g id="页面-1" stroke="none" stroke-width="1" fill="none" fill-rule="evenodd">
        <g id="编组" fill-rule="nonzero">
            <path
                d="M0,87.890625 C0,119.290921 16.7518579,148.305992 43.9453121,164.00614 C71.1387663,179.706288 104.642484,179.706288 131.835938,164.00614 C159.029392,148.305992 175.78125,119.290921 175.78125,87.890625 C175.78125,39.3499732 136.431277,0 87.890625,0 C39.3499732,0 0,39.3499732 0,87.890625 Z"
                id="路径" fill="#B2E4C1"></path>
            <g transform="translate(48, 38)" fill="currentColor" id="形状">
                <path
                    d="M76.153942,91.2112676 L70.8133018,91.2112676 L70.8133018,80.7661972 C70.8133018,80.4957746 70.8133018,80.2253521 70.8033379,79.9774648 L70.8033379,79.9098592 C70.8033379,79.7971831 70.8033379,79.7070423 70.793374,79.5943662 C70.4546021,67.2676056 58.9363557,56.5408451 50.2179599,50.5352113 C58.8666085,44.5746479 70.3649271,33.9380282 70.7834101,21.7014085 C70.8033379,21.543662 70.8133018,21.3746479 70.8133018,21.2056338 L70.8133018,8.76619718 L76.153942,8.76619718 C78.2762486,8.76619718 80,6.81690141 80,4.38309859 C80,1.96056338 78.2862125,0 76.153942,0 L3.84605804,0 C1.7237514,0 0,1.94929577 0,4.38309859 C0,6.8056338 1.71378752,8.76619718 3.84605804,8.76619718 L8.86785403,8.76619718 L8.86785403,21.2056338 C8.86785403,21.3746479 8.87781791,21.543662 8.89774567,21.7014085 C9.30626479,33.9380282 21.761116,44.5859155 30.3998007,50.5464789 C21.7710798,56.5070423 9.32619255,67.1098592 8.90770955,79.3239437 C8.88778179,79.515493 8.86785403,79.7070423 8.86785403,79.9098592 L8.86785403,91.2338028 L3.84605804,91.2338028 C1.7237514,91.2338028 0,93.1830986 0,95.6169014 C0,98.0394366 1.71378752,100 3.84605804,100 L76.153942,100 C78.2762486,100 80,98.0507042 80,95.6169014 C80,93.171831 78.2762486,91.2112676 76.153942,91.2112676 L76.153942,91.2112676 Z M58.6474032,90.1295775 L20.9739694,90.1295775 C18.8516627,90.1295775 17.1279113,88.1802817 17.1279113,85.7464789 C17.1279113,83.3239437 18.8416988,81.3633803 20.9739694,81.3633803 L58.6474032,81.3633803 C60.7697098,81.3746479 62.4934612,83.3239437 62.4934612,85.7464789 C62.4934612,88.1577465 60.7697098,90.1295775 58.6474032,90.1295775 L58.6474032,90.1295775 Z">
                </path>
            </g>
        </g>
    </g>
</svg>