<svg width="166.931818px" height="171.727273px" viewBox="0 0 166.931818 171.727273" version="1.1"
    xmlns="http://www.w3.org/2000/svg" xmlns:xlink="http://www.w3.org/1999/xlink">
    <g stroke="none" stroke-width="1" fill="none" fill-rule="evenodd">
        <g fill-rule="nonzero">
            <path
                d="M75,143.818182 L41.5454545,110.363636 L130.272727,21.6363637 C134.545454,17.3636363 141.454545,17.3636363 145.727273,21.6363637 L163.727273,39.6363637 C168,43.909091 168,50.8181818 163.727273,55.090909 L75,143.818182 Z"
                fill="#008170"></path>
            <path
                d="M41.5454545,110.272727 L31.3636363,152.363636 C31.090909,153.363636 32,154.181818 32.9090908,153.909091 L75,143.727273 L41.5454545,110.272727 Z"
                fill="#4DB6AC"></path>
            <path
                d="M69.5454545,134.727273 C68.3636363,134.727273 67.1818182,134.272727 66.3636363,133.363636 C64.5454545,131.545454 64.5454545,128.727273 66.3636363,126.909091 L155.545454,37.7272727 C156.636364,36.6363635 157.181818,35.1818182 157.181818,33.7272727 C157.181818,32.2727271 156.636364,30.7272727 155.545454,29.7272727 L136.545454,10.7272727 C135.454546,9.63636348 134,9.09090898 132.545454,9.09090898 C131.090909,9.09090898 129.545454,9.63636348 128.545454,10.7272727 L39.2727271,99.9090908 C37.4545455,101.727273 34.6363635,101.727273 32.8181818,99.9090908 C31.0000002,98.090909 31,95.2727271 32.8181818,93.4545453 L122,4.36363633 C124.818182,1.54545449 128.545454,0 132.454546,0 C136.454546,0 140.181818,1.54545449 142.909091,4.36363633 L161.818182,23.2727271 C164.636364,26.090909 166.181818,29.8181816 166.181818,33.7272727 C166.181818,37.7272727 164.636364,41.4545453 161.818182,44.1818182 L72.6363635,133.363636 C71.9090908,134.272727 70.7272727,134.727273 69.5454545,134.727273 Z"
                fill="currentColor"></path>
            <path
                d="M27.1818182,144.909091 C25.6363637,144.909091 24.1818182,144.272727 23.090909,143.181818 C21.6363635,141.727273 21.090909,139.636364 21.5454545,137.636364 L31.7272727,95.5454545 C32.2727271,93.090909 34.8181818,91.6363637 37.1818182,92.1818182 C39.6363637,92.7272727 41.090909,95.2727273 40.5454545,97.6363637 L31.6363635,134.545454 L68.5454545,125.636364 C71,125.090909 73.4545453,126.545454 74,129 C74.5454545,131.454546 73.0909092,133.909091 70.6363635,134.454545 L28.6363635,144.727273 C28.090909,144.818182 27.6363635,144.909091 27.1818182,144.909091 Z M135.454545,64.5454545 C134.272727,64.5454545 133.090909,64.0909089 132.272727,63.1818182 L102,32.9090908 C100.181818,31.0909089 100.181818,28.2727271 102,26.4545453 C103.818182,24.6363635 106.636364,24.6363635 108.454545,26.4545453 L138.636364,56.6363637 C140.454545,58.4545455 140.454545,61.2727273 138.636364,63.0909089 C137.727273,64.0909089 136.545454,64.5454545 135.454545,64.5454545 L135.454545,64.5454545 Z"
                fill="currentColor"></path>
            <path
                d="M146.818182,171.727273 L14.7272727,171.727273 C12.1818182,171.727273 10.1818182,169.727273 10.1818182,167.181818 C10.1818182,164.636364 12.1818182,162.636364 14.7272727,162.636364 L146.818182,162.636364 C149.363636,162.636364 151.363636,164.636364 151.363636,167.181818 C151.363636,169.727273 149.363636,171.727273 146.818182,171.727273 Z"
                fill="#008170"></path>
            <path
                d="M136.636363,163.727273 L4.54545449,163.727273 C2,163.727273 0,161.727273 0,159.181818 C0,156.636364 2,154.636364 4.54545449,154.636364 L136.636363,154.636364 C139.181818,154.636364 141.181818,156.636364 141.181818,159.181818 C141.181818,161.727273 139.090909,163.727273 136.636363,163.727273 L136.636363,163.727273 Z"
                fill="currentColor"></path>
        </g>
    </g>
</svg>