<svg t="1729772102196" class="icon" viewBox="0 0 1024 1024" version="1.1" xmlns="http://www.w3.org/2000/svg" p-id="34028" width="200" height="200"><path d="M499.2 128c59.5456 0 107.8016 49.1264 107.8016 109.7216v51.6352h114.1504c66.7648 0 121.472 53.9136 123.5968 121.856l0.0512 3.968v32.2816c0 16.0512-12.8 29.0304-28.544 29.0304h-49.6128l12.1856 322.3296c1.92 50.2528-35.5584 93.0304-84.8128 96.896l-3.5328 0.2048-3.5328 0.0768H311.4496a91.1872 91.1872 0 0 1-66.2528-28.672 94.5152 94.5152 0 0 1-25.6256-68.5056l12.1856-322.304H182.144c-14.848 0-27.2384-11.5968-28.4416-26.6752L153.6 447.488v-32.256c0-69.5296 55.3728-125.8496 123.648-125.8496h114.1504V237.7216c0-59.1104 45.9776-107.5712 104.0128-109.6448L499.2 128z m210.3296 348.4928H288.8448l-12.288 325.9392c0 19.584 15.616 35.4816 34.8928 35.4816h32.384v-164.5568h57.088v164.5568h286.0288l1.3568-0.0256c9.216-0.3584 17.9712-4.4544 24.2432-11.3664a35.84 35.84 0 0 0 9.2672-25.472l-12.288-324.5568z m11.6224-129.0752H277.248c-36.7616 0-66.56 30.3616-66.56 67.7632v3.2512h577.024v-3.2512c0-36.096-27.8016-65.8688-63.232-67.6608l-3.328-0.1024zM499.2 186.112c-28.0064 0-50.7392 23.1168-50.7392 51.6352v51.6352h101.4784V237.7216c0-27.392-20.992-49.9968-47.872-51.5584l-2.8672-0.0768z" fill="#707070" p-id="34029"></path></svg>