<svg t="1730701461286" class="icon" viewBox="0 0 1024 1024" version="1.1" xmlns="http://www.w3.org/2000/svg" p-id="19549" width="200" height="200"><path d="M851.2 115.2v-32c-12.8-19.2-44.8-32-64-32H108.8C70.4 51.2 32 89.6 32 128v800c12.8 19.2 19.2 38.4 44.8 38.4H512C448 908.8 396.8 825.6 390.4 736H217.6c-25.6 0-44.8-19.2-44.8-44.8s19.2-32 44.8-32h172.8c6.4-38.4 12.8-76.8 32-108.8H217.6c-19.2 0-38.4-19.2-38.4-38.4 0-25.6 12.8-44.8 38.4-44.8h275.2c57.6-57.6 147.2-89.6 236.8-89.6 44.8 0 83.2 12.8 121.6 25.6v-288zM704 320c0 25.6-12.8 38.4-38.4 38.4h-448c-25.6 0-38.4-19.2-38.4-38.4 0-25.6 12.8-38.4 38.4-38.4h448c25.6 0 38.4 12.8 38.4 38.4z m160 172.8c-38.4-19.2-76.8-32-128-32-25.6 0-57.6 6.4-83.2 12.8-44.8 19.2-83.2 44.8-115.2 83.2-25.6 32-44.8 70.4-51.2 115.2 0 12.8-6.4 32-6.4 51.2v32c12.8 121.6 108.8 211.2 230.4 224h51.2c32 0 57.6-12.8 89.6-25.6 83.2-38.4 147.2-128 147.2-230.4C992 620.8 940.8 537.6 864 492.8z m-128 384c-19.2 0-32-12.8-32-32s12.8-32 32-32 32 12.8 32 32-12.8 32-32 32z m32-134.4c0 19.2-12.8 32-32 32s-32-12.8-32-32V595.2c0-19.2 19.2-38.4 38.4-38.4 12.8 0 19.2 6.4 25.6 12.8 0 6.4 6.4 12.8 6.4 25.6L768 742.4z" p-id="19550" fill="#2c2c2c"></path></svg>