<svg t="1729772264700" class="icon" viewBox="0 0 1024 1024" version="1.1" xmlns="http://www.w3.org/2000/svg" p-id="36517" width="200" height="200"><path d="M512 921.6A409.6 409.6 0 1 1 512 102.4a409.6 409.6 0 0 1 0 819.2z m0-51.2A358.4 358.4 0 1 0 512 153.6a358.4 358.4 0 0 0 0 716.8z m0-467.136c0-14.336 12.032-23.616 22.208-17.216l168.576 105.472c11.328 7.104 11.328 27.328 0 34.432L534.208 631.424c-10.24 6.4-22.208-2.944-22.208-17.216V403.264z m-118.208 3.328A22.4 22.4 0 0 1 416 384a22.4 22.4 0 0 1 22.272 22.592v204.416A22.4 22.4 0 0 1 416 633.6a23.296 23.296 0 0 1-16-6.848 21.504 21.504 0 0 1-6.208-15.744V406.592z" fill="#515151" p-id="36518"></path></svg>