<svg t="1734622047782" class="icon" viewBox="0 0 1024 1024" version="1.1" xmlns="http://www.w3.org/2000/svg" p-id="99745" width="200" height="200"><path d="M512 22C241.38 22 22 241.38 22 512s219.38 490 490 490 490-219.38 490-490S782.62 22 512 22z m166.21 533.29h-0.02l-240.7 160.47a52.004 52.004 0 0 1-53.45 2.59 51.972 51.972 0 0 1-27.43-45.94v-320.8a51.994 51.994 0 0 1 27.42-45.96 52 52 0 0 1 53.46 2.58l240.72 160.48A52.016 52.016 0 0 1 701.4 512a52.04 52.04 0 0 1-23.19 43.29z" fill="#919EAB" p-id="99746"></path></svg>