<svg t="1730210909789" class="icon" viewBox="0 0 1024 1024" version="1.1" xmlns="http://www.w3.org/2000/svg" p-id="95322" width="200" height="200"><path d="M955 425.7H609.8V69c0-38-31.1-69-69-69H69C31.1 0 0 31.1 0 69v886c0 38 31.1 69 69 69h886c38 0 69-31.1 69-69V494.7c0-37.9-31.1-69-69-69zM92 932V92h425.7v840H92z m840 0H609.8V517.8H932V932z" p-id="95323" fill="#515155"></path><path d="M341.9 871.6h-74.1c-17.6 0-32-14.4-32-32v-28c0-17.6 14.4-32 32-32h74.1c17.6 0 32 14.4 32 32v28c0 17.6-14.4 32-32 32z" p-id="95324" fill="#515155"></path></svg>