<svg t="1730211582367" class="icon" viewBox="0 0 1024 1024" version="1.1" xmlns="http://www.w3.org/2000/svg" p-id="104341" width="200" height="200"><path d="M981.333333 896 42.666667 896c-25.6 0-42.666667-17.066667-42.666667-42.666667L0 170.666667c0-25.6 17.066667-42.666667 42.666667-42.666667l384 0c25.6 0 42.666667 17.066667 42.666667 42.666667s-17.066667 42.666667-42.666667 42.666667L85.333333 213.333333l0 597.333333 853.333333 0L938.666667 213.333333l-341.333333 0c-25.6 0-42.666667-17.066667-42.666667-42.666667s17.066667-42.666667 42.666667-42.666667l384 0c25.6 0 42.666667 17.066667 42.666667 42.666667l0 682.666667C1024 878.933333 1006.933333 896 981.333333 896z" p-id="104342" fill="#515155"></path><path d="M597.333333 298.666667l-170.666667 0C401.066667 298.666667 384 281.6 384 256L384 42.666667c0-25.6 17.066667-42.666667 42.666667-42.666667l170.666667 0c25.6 0 42.666667 17.066667 42.666667 42.666667l0 213.333333C640 281.6 622.933333 298.666667 597.333333 298.666667zM469.333333 213.333333l85.333333 0L554.666667 85.333333l-85.333333 0L469.333333 213.333333z" p-id="104343" fill="#515155"></path><path d="M341.333333 682.666667 213.333333 682.666667c-25.6 0-42.666667-17.066667-42.666667-42.666667L170.666667 384c0-25.6 17.066667-42.666667 42.666667-42.666667l128 0c25.6 0 42.666667 17.066667 42.666667 42.666667l0 256C384 665.6 366.933333 682.666667 341.333333 682.666667zM256 597.333333l42.666667 0 0-170.666667L256 426.666667 256 597.333333z" p-id="104344" fill="#515155"></path><path d="M768 426.666667l-256 0c-25.6 0-42.666667-17.066667-42.666667-42.666667s17.066667-42.666667 42.666667-42.666667l256 0c25.6 0 42.666667 17.066667 42.666667 42.666667S793.6 426.666667 768 426.666667z" p-id="104345" fill="#515155"></path><path d="M640 554.666667l-128 0c-25.6 0-42.666667-17.066667-42.666667-42.666667s17.066667-42.666667 42.666667-42.666667l128 0c25.6 0 42.666667 17.066667 42.666667 42.666667S665.6 554.666667 640 554.666667z" p-id="104346" fill="#515155"></path><path d="M725.333333 682.666667l-213.333333 0c-25.6 0-42.666667-17.066667-42.666667-42.666667s17.066667-42.666667 42.666667-42.666667l213.333333 0c25.6 0 42.666667 17.066667 42.666667 42.666667S750.933333 682.666667 725.333333 682.666667z" p-id="104347" fill="#515155"></path></svg>