<svg t="1730211546651" class="icon" viewBox="0 0 1024 1024" version="1.1" xmlns="http://www.w3.org/2000/svg" p-id="100768" width="200" height="200"><path d="M0 227.555556c0-78.535111 62.520889-142.222222 139.662222-142.222223h744.675556C961.507556 85.333333 1024 149.020444 1024 227.555556v407.694222c0 78.563556-62.520889 142.222222-139.662222 142.222222H139.662222c-77.141333 0-139.662222-63.658667-139.662222-142.222222V227.555556z m139.662222-47.416889c-25.742222 0-46.563556 21.248-46.563555 47.416889v407.694222c0 26.168889 20.821333 47.416889 46.535111 47.416889h744.732444c25.685333 0 46.535111-21.219556 46.535111-47.416889V227.555556c0-26.168889-20.849778-47.416889-46.535111-47.416889H139.633778z m-139.662222 711.111111c0-26.168889 20.849778-47.388444 46.535111-47.388445h930.901333c16.64 0 32 9.016889 40.334223 23.694223a48.156444 48.156444 0 0 1 0 47.416888 46.392889 46.392889 0 0 1-40.334223 23.694223H46.535111C20.849778 938.666667 0 917.447111 0 891.249778z" fill="#515155" p-id="100769"></path><path d="M455.111111 270.222222c0-23.552 21.219556-42.666667 47.416889-42.666666h47.416889C576.113778 227.555556 597.333333 246.670222 597.333333 270.222222s-21.219556 42.666667-47.388444 42.666667h-47.416889C476.359111 312.888889 455.111111 293.774222 455.111111 270.222222z" fill="#515155" p-id="100770"></path></svg>