<svg t="1730360416027" class="icon" viewBox="0 0 1024 1024" version="1.1" xmlns="http://www.w3.org/2000/svg" p-id="10472" width="200" height="200"><path d="M368.682667 413.952a32 32 0 0 1 0 45.226667l-120.661334 120.704a138.666667 138.666667 0 1 0 196.096 196.096l120.661334-120.661334a32 32 0 1 1 45.269333 45.226667l-120.661333 120.704a202.666667 202.666667 0 1 1-286.634667-286.634667l120.704-120.661333a32 32 0 0 1 45.226667 0z m347.349333-105.984a32 32 0 0 1 0 45.226667L354.56 714.709333a32 32 0 0 1-45.226667-45.226666l361.472-361.514667a32 32 0 0 1 45.226667 0z m105.216-105.216a202.666667 202.666667 0 0 1 0 286.634667l-120.704 120.661333a32 32 0 1 1-45.226667-45.226667l120.661334-120.704a138.666667 138.666667 0 1 0-196.096-196.096L459.221333 368.64a32 32 0 1 1-45.269333-45.226667l120.661333-120.704a202.666667 202.666667 0 0 1 286.634667 0z" p-id="10473" fill="#2c2c2c"></path></svg>