<?xml version="1.0" standalone="no"?><!DOCTYPE svg PUBLIC "-//W3C//DTD SVG 1.1//EN" "http://www.w3.org/Graphics/SVG/1.1/DTD/svg11.dtd"><svg t="1691945918840" class="icon" viewBox="0 0 1024 1024" version="1.1" xmlns="http://www.w3.org/2000/svg" p-id="5902" xmlns:xlink="http://www.w3.org/1999/xlink" width="64" height="64"><path d="M896 832h-64v-64h64a64 64 0 0 0 64-64V128a64 64 0 0 0-64-64H320a64 64 0 0 0-64 64v64H192V128a128 128 0 0 1 128-128h576a128 128 0 0 1 128 128v576a128 128 0 0 1-128 128z" fill="#2e8f79" p-id="5903"></path><path d="M704 1024H128a128 128 0 0 1-128-128V320a128 128 0 0 1 128-128h576a128 128 0 0 1 128 128v576a128 128 0 0 1-128 128zM128 256a64 64 0 0 0-64 64v576a64 64 0 0 0 64 64h576a64 64 0 0 0 64-64V320a64 64 0 0 0-64-64z" fill="#2e8f79" p-id="5904"></path></svg>