<svg t="1745391317174" class="icon" viewBox="0 0 1024 1024" version="1.1" xmlns="http://www.w3.org/2000/svg" p-id="6377"
    width="200" height="200">
    <path
        d="M552.618667 532.309333c33.706667 0 60.970667 27.306667 60.970666 60.970667v284.416c0 33.706667-27.306667 60.970667-60.970666 60.970667h-81.237334c-33.706667 0-60.970667-27.306667-60.970666-60.970667v-284.416c0-33.706667 27.306667-60.970667 60.970666-60.970667h81.237334z m-325.077334 121.898667c33.706667 0 60.970667 27.306667 60.970667 60.970667v162.56c0 33.621333-27.306667 60.928-60.970667 60.928H146.346667C112.597333 938.666667 85.333333 911.36 85.333333 877.696v-162.56c0-33.621333 27.306667-60.928 60.970667-60.928h81.237333zM877.696 410.453333c33.706667 0 60.970667 27.306667 60.970667 60.970667v404.650667c0 33.664-27.306667 60.970667-60.970667 60.970666h-81.237333c-33.706667 0-60.970667-27.306667-60.970667-60.970666v-404.650667c0-33.706667 27.306667-60.970667 60.970667-60.970667h81.237333zM166.613333 329.130667a81.28 81.28 0 1 1 0 162.56 81.28 81.28 0 0 1 0-162.56z m203.221334-36.266667c0.768 21.376 7.04 41.386667 17.408 58.581333L286.72 389.12a121.386667 121.386667 0 0 0-25.429333-55.552l108.586666-40.746667z m121.856-85.632a81.28 81.28 0 1 1 0 162.56 81.28 81.28 0 0 1 0-162.56z m203.264-36.266667c0.725333 21.376 6.997333 41.386667 17.365333 58.581334l-100.565333 37.717333a121.386667 121.386667 0 0 0-25.429334-55.594667l108.629334-40.704zM816.768 85.333333a81.28 81.28 0 1 1 0 162.56 81.28 81.28 0 0 1 0-162.56z"
        fill="currentColor" p-id="6378"></path>
</svg>