<svg t="1745388074715" class="icon" viewBox="0 0 1024 1024" version="1.1" xmlns="http://www.w3.org/2000/svg" p-id="9078"
    width="200" height="200">
    <path
        d="M34.013867 383.658667l459.588266 280.302933a35.328 35.328 0 0 0 36.829867 0L989.986133 383.658667a35.310933 35.310933 0 0 0 0-60.3648L530.397867 43.0592a35.396267 35.396267 0 0 0-36.795734 0L34.013867 323.293867a35.362133 35.362133 0 0 0 0 60.3648z"
        fill="currentColor" p-id="9079"></path>
    <path
        d="M953.8048 483.498667L512 752.896 70.1952 483.498667a34.133333 34.133333 0 1 0-35.5328 58.299733l459.5712 280.234667a34.235733 34.235733 0 0 0 35.5328 0l459.588267-280.234667a34.1504 34.1504 0 0 0-35.549867-58.299733z"
        fill="currentColor" p-id="9080"></path>
    <path
        d="M953.8048 642.577067L512 911.9744 70.1952 642.577067a34.133333 34.133333 0 1 0-35.5328 58.299733l459.5712 280.234667a34.235733 34.235733 0 0 0 35.5328 0l459.588267-280.234667a34.1504 34.1504 0 0 0-35.549867-58.299733z"
        fill="currentColor" p-id="9081"></path>
</svg>