<svg t="1745377779783" class="icon" viewBox="0 0 1024 1024" version="1.1" xmlns="http://www.w3.org/2000/svg" p-id="4400"
    width="200" height="200">
    <path
        d="M987.428571 627.419429c0 58.843429-33.718857 107.995429-96 107.995428-69.705143 0-87.990857-63.414857-150.857142-63.414857-45.714286 0-62.866286 28.562286-62.866286 70.838857 0 44.580571 18.285714 87.442286 17.700571 131.437714v2.852572c-6.290286 0-12.580571 0-18.870857 0.585143-58.843429 5.705143-118.272 17.152-177.700571 17.152-40.557714 0-82.870857-16.018286-82.870857-62.866286 0-62.866286 63.414857-81.152 63.414857-150.857143 0-62.281143-49.152-96-107.995429-96-60.013714 0-115.419429 33.133714-115.419428 98.852572 0 72.557714 55.442286 104.009143 55.442285 143.433142 0 20.004571-12.580571 37.705143-26.294857 50.870858-17.700571 16.566857-42.861714 20.004571-66.852571 20.004571-46.848 0-93.696-6.290286-139.995429-13.714286-10.276571-1.718857-21.138286-2.852571-31.414857-4.571428l-7.424-1.133715C38.290286 878.299429 36.571429 878.299429 36.571429 877.750857v-585.142857c2.304 1.718857 35.986286 5.705143 41.728 6.838857 46.299429 7.424 93.147429 13.714286 139.995428 13.714286 23.990857 0 49.152-3.437714 66.852572-20.004572 13.714286-13.129143 26.294857-30.866286 26.294857-50.870857C311.442286 202.861714 256 171.446857 256 98.852571 256 33.133714 311.442286 0 372.004571 0c58.294857 0 107.446857 33.718857 107.446858 96 0 69.705143-63.414857 87.990857-63.414858 150.857143 0 46.848 42.276571 62.866286 82.870858 62.866286 65.718857 0 130.852571-14.848 195.986285-18.285715V292.571429c-1.718857 2.304-5.705143 35.986286-6.838857 41.728-7.424 46.299429-13.714286 93.147429-13.714286 139.995428 0 23.990857 3.437714 49.152 20.004572 66.852572 13.129143 13.714286 30.866286 26.294857 50.870857 26.294857 39.424 0 70.838857-55.442286 143.433143-55.442286 65.718857 0 98.852571 55.442286 98.852571 115.419429z"
        fill="currentColor" p-id="4401"></path>
</svg>