<svg t="1745485748465" class="icon" viewBox="0 0 1025 1024" version="1.1" xmlns="http://www.w3.org/2000/svg" p-id="7937"
    width="200" height="200">
    <path
        d="M927.49824 683.446857a37.083429 37.083429 0 1 1 32.329143 66.706286l-441.270857 214.235428a37.083429 37.083429 0 0 1-32.182857 0.073143L37.861669 750.299429a37.083429 37.083429 0 0 1 31.963428-66.998858l432.274286 206.555429 425.398857-206.409143z m0-197.778286a37.083429 37.083429 0 0 1 32.329143 66.779429L518.556526 766.537143a37.083429 37.083429 0 0 1-32.182857 0.146286L37.861669 552.521143a37.083429 37.083429 0 0 1 31.963428-66.925714l432.274286 206.555428 425.398857-206.482286zM529.893669 25.307429l439.076571 219.574857a61.805714 61.805714 0 0 1 30.208 77.092571l-2.486857 5.778286-4.096 6.948571a61.805714 61.805714 0 0 1-23.625143 20.699429L529.893669 574.902857a61.805714 61.805714 0 0 1-55.222858 0l-439.076571-219.428571a61.805714 61.805714 0 0 1 0-110.592L474.597669 25.380571a61.805714 61.805714 0 0 1 55.222857 0V25.307429z m-27.648 69.12L90.817097 300.032l411.428572 205.750857 411.501714-205.750857L502.245669 94.354286z"
        fill="currentColor" p-id="7938"></path>
</svg>