<svg t="1745388220410" class="icon" viewBox="0 0 1024 1024" version="1.1" xmlns="http://www.w3.org/2000/svg" p-id="1692"
    width="200" height="200">
    <path
        d="M921.6 813.056h-81.92c-22.528 0-40.96-18.248-40.96-40.55V245.35c0-22.302 18.432-40.55 40.96-40.55h81.92c22.528 0 40.96 18.248 40.96 40.55v527.156c0 22.302-18.432 40.55-40.96 40.55z m-245.76 0h-81.91c-22.528 0-40.96-18.248-40.96-40.55V407.552c0-22.303 18.432-40.55 40.96-40.55h81.92c22.528 0 40.96 18.247 40.96 40.55v364.954c0 22.302-18.432 40.55-40.96 40.55z m-245.76 0h-81.92c-22.528 0-40.96-18.248-40.96-40.55V326.45c0-22.303 18.432-40.55 40.96-40.55h81.92c22.528 0 40.96 18.247 40.96 40.55v446.055c0 22.302-18.432 40.55-40.96 40.55z m-245.76 0H102.4c-22.528 0-40.96-18.248-40.96-40.55V569.754c0-22.313 18.432-40.55 40.96-40.55h81.92c22.528 0 40.96 18.247 40.96 40.55v202.752c0 22.302-18.432 40.55-40.96 40.55z"
        p-id="1693" fill='currentColor'></path>
</svg>