<svg t="1734589263069" class="icon" viewBox="0 0 1024 1024" version="1.1" xmlns="http://www.w3.org/2000/svg"
    p-id="48477" width="200" height="200">
    <path
        d="M563.126857 354.377143l105.910857 105.984c8.338286-8.557714 16.822857-17.408 25.526857-26.112 27.062857-27.209143 54.272-54.345143 81.408-81.481143 9.142857-9.069714 17.846857-18.578286 27.428572-27.062857a71.606857 71.606857 0 0 1 18.724571-11.776c12.434286-5.339429 23.844571-2.779429 33.499429 6.729143 8.045714 7.826286 15.872 15.725714 23.771428 23.625143l122.368 122.368c27.062857 27.209143 27.062857 63.707429-0.146285 90.916571l-445.147429 445.44c-24.356571 24.429714-59.465143 25.307429-82.432 7.460571a95.085714 95.085714 0 0 1-8.630857-7.826285A3481755.794286 3481755.794286 0 0 1 20.333714 557.568c-22.381714-22.381714-26.697143-52.370286-10.971428-77.531429a72.045714 72.045714 0 0 1 10.24-12.580571L466.505143 20.626286c26.185143-26.185143 63.195429-26.112 89.453714 0.146285C602.550857 67.437714 649.142857 114.102857 695.588571 160.914286c4.754286 4.827429 8.850286 10.24 12.141715 16.091428a28.233143 28.233143 0 0 1-1.316572 31.232 140.873143 140.873143 0 0 1-15.872 19.748572c-28.16 28.525714-56.539429 56.832-84.992 85.065143-14.043429 13.897143-28.306286 27.574857-42.496 41.398857z m267.337143 48.274286l-57.124571 57.344-80.822858 80.676571a31.817143 31.817143 0 0 1-42.422857 4.242286 78.848 78.848 0 0 1-12.214857-9.874286A56587.922286 56587.922286 0 0 1 515.510857 412.525714c-9.874286-9.947429-19.968-19.748571-29.769143-29.769143-14.848-15.140571-16.091429-31.085714-3.730285-48.274285a137.508571 137.508571 0 0 1 14.043428-16.603429c40.374857-40.448 80.822857-80.822857 121.417143-121.124571a25.892571 25.892571 0 0 1 3.949714-2.925715L510.025143 82.578286c-11.995429 12.141714-24.283429 24.722286-36.717714 37.156571a929953.426286 929953.426286 0 0 1-388.022858 388.096 14.628571 14.628571 0 0 1-4.242285 2.413714l431.030857 430.957715 429.056-427.885715-110.665143-110.592z m-275.236571 333.531428a38.034286 38.034286 0 0 1-25.453715-10.020571 1191036.050286 1191036.050286 0 0 1-226.450285-226.304c-11.849143-11.849143-15.872-25.746286-9.947429-41.691429a37.302857 37.302857 0 0 1 57.490286-16.384 55.442286 55.442286 0 0 1 5.705143 5.12L580.022857 670.354286c17.188571 17.188571 16.822857 41.764571-0.731428 56.832a38.326857 38.326857 0 0 1-24.064 8.923428z"
        fill="currentColor" p-id="48478"></path>
</svg>