<svg width="135px" height="135px" viewBox="0 0 135 135" version="1.1" xmlns="http://www.w3.org/2000/svg"
    xmlns:xlink="http://www.w3.org/1999/xlink">
    <g id="页面-1" stroke="none" stroke-width="1" fill="none" fill-rule="evenodd">
        <circle id="椭圆形" fill="#B2E4C1" cx="67.5" cy="67.5" r="67.5"></circle>
        <g id="编组" transform="translate(26, 26)" fill="currentColor" fill-rule="nonzero">
            <path
                d="M41,0 C63.6714542,0 82,18.3285458 82,41 C82,63.6714542 63.6714542,82 41,82 C18.3285458,82 0,63.6714542 0,41 C0,18.3285458 18.3285458,0 41,0 Z"
                id="形状"></path>
        </g>
        <path
            d="M88.1075829,64.6666666 L45.2438062,64.6666666 C43.3538946,64.6684273 41.7926838,65.9062981 41.6819263,67.490851 C41.5711688,69.075404 42.9491998,70.458194 44.8258844,70.6456666 L45.2438062,70.6666666 L88.1075829,70.6666666 C89.9974945,70.6649059 91.5587053,69.4270351 91.6694628,67.8424822 C91.7802204,66.2579292 90.4021893,64.8751392 88.5255047,64.6876666 L88.1075829,64.6666666 Z"
            id="路径" fill="#B2E4C1" fill-rule="nonzero"></path>
    </g>
</svg>