<svg xmlns="http://www.w3.org/2000/svg" xmlns:xlink="http://www.w3.org/1999/xlink" aria-hidden="true" role="img"
    class="iconify iconify--eva minimal__iconify__root css-7ji9xq" width="1em" height="1em" viewBox="0 0 24 24">
    <path fill="currentColor"
        d="M21 7a.8.8 0 0 0 0-.21a.6.6 0 0 0-.05-.17a1 1 0 0 0-.09-.14a.8.8 0 0 0-.14-.17l-.12-.07a.7.7 0 0 0-.19-.1h-.2A.7.7 0 0 0 20 6h-5a1 1 0 0 0 0 2h2.83l-4 4.71l-4.32-2.57a1 1 0 0 0-1.28.22l-5 6a1 1 0 0 0 .13 1.41A1 1 0 0 0 4 18a1 1 0 0 0 .77-.36l4.45-5.34l4.27 2.56a1 1 0 0 0 1.27-.21L19 9.7V12a1 1 0 0 0 2 0z">
    </path>
</svg>