<svg t="1739862113900" class="icon" viewBox="0 0 1024 1024" version="1.1" xmlns="http://www.w3.org/2000/svg" p-id="5228"
    width="200" height="200">
    <path
        d="M672 170.667H352c-29.867 0-53.333-23.467-53.333-53.334S322.133 64 352 64h320c29.867 0 53.333 23.467 53.333 53.333S701.867 170.667 672 170.667z m202.667 0h-72.534c-17.066 49.066-64 85.333-119.466 85.333H341.333c-55.466 0-102.4-36.267-119.466-85.333h-72.534c-23.466 0-42.666 19.2-42.666 42.666v725.334c0 23.466 19.2 42.666 42.666 42.666h725.334c23.466 0 42.666-19.2 42.666-42.666V213.333c0-23.466-19.2-42.666-42.666-42.666z m-72.534 605.866c0 19.2-17.066 38.4-38.4 38.4h-268.8c-17.066 38.4-53.333 61.867-96 61.867s-78.933-25.6-96-61.867h-42.666c-19.2 0-38.4-17.066-38.4-38.4V774.4c0-19.2 17.066-38.4 38.4-38.4h42.666c17.067-36.267 53.334-61.867 96-61.867s78.934 25.6 96 61.867h268.8c21.334 0 38.4 19.2 38.4 40.533z m0-311.466c0 19.2-17.066 38.4-38.4 38.4h-42.666c-17.067 38.4-53.334 61.866-96 61.866s-78.934-25.6-96-61.866H262.4c-19.2 0-38.4-17.067-38.4-38.4v-2.134c0-19.2 17.067-38.4 38.4-38.4h268.8c17.067-36.266 53.333-61.866 96-61.866s78.933 25.6 96 61.866h42.667c19.2 0 36.266 19.2 36.266 40.534z"
        p-id="5229" fill="currentColor"></path>
</svg>