<svg t="1734421733229" class="icon" viewBox="0 0 1024 1024" version="1.1" xmlns="http://www.w3.org/2000/svg"
    p-id="40495" width="200" height="200">
    <path
        d="M244.309333 155.029333v148.16h521.706667V155.029333h157.525333a35.370667 35.370667 0 0 1 34.026667 36.736v780.885334a35.370667 35.370667 0 0 1-34.026667 36.736H100.8a35.370667 35.370667 0 0 1-34.005333-36.736V191.786667a34.688 34.688 0 0 1 31.296-36.736h146.218666z m139.712 585.685334a62.933333 62.933333 0 0 0-59.946666 47.424h-15.36a15.914667 15.914667 0 0 0-16.469334 6.890666 16.426667 16.426667 0 0 0 0 18.048 15.914667 15.914667 0 0 0 16.448 6.890667h15.381334a62.933333 62.933333 0 0 0 59.946666 48.064 62.933333 62.933333 0 0 0 60.565334-47.424h271.424a15.914667 15.914667 0 0 0 16.448-6.890667 16.426667 16.426667 0 0 0 0-18.048 15.914667 15.914667 0 0 0-16.426667-6.890666v-0.64H444.586667A62.933333 62.933333 0 0 0 384 740.693333z m256.682667-159.146667a62.933333 62.933333 0 0 0-60.565333 47.424H308.693333v0.64a15.914667 15.914667 0 0 0-16.448 6.869333 16.426667 16.426667 0 0 0 0 18.069334 15.914667 15.914667 0 0 0 16.448 6.869333h271.445334a62.933333 62.933333 0 0 0 60.565333 47.445333 62.933333 62.933333 0 0 0 59.946667-48.064h15.04a15.914667 15.914667 0 0 0 16.469333-6.890666 16.426667 16.426667 0 0 0 0-18.069334 15.914667 15.914667 0 0 0-16.469333-6.869333h-15.061334a62.933333 62.933333 0 0 0-59.946666-47.445333zM384 422.4a62.933333 62.933333 0 0 0-59.946667 47.424h-15.36a15.914667 15.914667 0 0 0-16.469333 6.890667 16.426667 16.426667 0 0 0 0 18.048 15.914667 15.914667 0 0 0 16.448 6.890666h15.381333a62.933333 62.933333 0 0 0 59.946667 48.064 62.933333 62.933333 0 0 0 60.565333-47.424h271.424a16.170667 16.170667 0 0 0 12.864-15.914666 16.170667 16.170667 0 0 0-12.864-15.914667v-0.64H444.586667A62.933333 62.933333 0 0 0 384 422.4zM638.762667 68.437333a51.008 51.008 0 0 0-55.104-46.933333h-157.802667a51.008 51.008 0 0 0-55.104 46.933333v31.296h-82.069333v157.824h432.618666V100.416h-82.538666V68.437333zM502.72 194.986667a57.813333 57.813333 0 1 1 59.178667-57.813334 55.104 55.104 0 0 1-56.469334 57.130667l-2.709333 0.682667z"
        fill="currentColor" p-id="40496"></path>
</svg>