<svg t="1734589469165" class="icon" viewBox="0 0 1024 1024" version="1.1" xmlns="http://www.w3.org/2000/svg"
    p-id="50355" width="200" height="200">
    <path
        d="M736 544H512c-17.6 0-32-14.4-32-32V224c0-17.6 14.4-32 32-32s32 14.4 32 32v256h192c17.6 0 32 14.4 32 32s-14.4 32-32 32z m161.6-153.6c-17.6 0-32-14.4-32-32V185.6c0-17.6 14.4-32 32-32s32 14.4 32 32v172.8c0 17.6-14.4 32-32 32zM512 960C265.6 960 64 758.4 64 512S265.6 64 512 64c184 0 347.2 110.4 416 281.6 6.4 16-1.6 35.2-17.6 41.6-16 6.4-35.2-1.6-41.6-17.6C809.6 222.4 670.4 128 512 128c-211.2 0-384 172.8-384 384s172.8 384 384 384c158.4 0 297.6-94.4 356.8-241.6 6.4-16 25.6-24 41.6-17.6 16 6.4 24 25.6 17.6 41.6C859.2 849.6 696 960 512 960z"
        fill="currentColor" p-id="50356"></path>
</svg>