<?xml version="1.0" encoding="UTF-8"?>
<svg width="672px" height="756px" viewBox="0 0 672 756" version="1.1" xmlns="http://www.w3.org/2000/svg" xmlns:xlink="http://www.w3.org/1999/xlink">
    <title>矩形</title>
    <defs>
        <rect id="path-1" x="143" y="309" width="170" height="147" rx="3"></rect>
        <mask id="mask-2" maskContentUnits="userSpaceOnUse" maskUnits="objectBoundingBox" x="0" y="0" width="170" height="147" fill="white">
            <use xlink:href="#path-1"></use>
        </mask>
        <rect id="path-3" x="342" y="180" width="170" height="147" rx="4"></rect>
        <mask id="mask-4" maskContentUnits="userSpaceOnUse" maskUnits="objectBoundingBox" x="0" y="0" width="170" height="147" fill="white">
            <use xlink:href="#path-3"></use>
        </mask>
    </defs>
    <g id="console-LandingPage" stroke="none" stroke-width="1" fill="none" fill-rule="evenodd">
        <rect id="矩形" fill="#F6F7F9" x="0" y="0" width="672" height="756"></rect>
        <path d="M370.349057,413.403973 C481.505414,413.589694 433.969818,412.475131 512.983967,415.180598" id="路径-3" stroke="#979797"></path>
        <path d="M512.10366,414.890053 C486.209937,415.071843 460.316214,415.253632 434.422491,415.435422" id="路径-4" stroke="#979797"></path>
        <rect id="矩形" fill="#FFFFFF" x="158" y="159" width="154" height="115" rx="4"></rect>
        <path d="M137,298 L319,298 C321.209139,298 323,299.790861 323,302 L323,464 C323,466.209139 321.209139,468 319,468 L137,468 C134.790861,468 133,466.209139 133,464 L133,302 C133,299.790861 134.790861,298 137,298 Z" id="矩形" fill="#FBFBFB"></path>
        <use id="矩形" stroke="#A5A7A7" mask="url(#mask-2)" stroke-width="2" fill="#FBFBFB" stroke-dasharray="8" xlink:href="#path-1"></use>
        <rect id="矩形" fill="#FFFFFF" x="341" y="360" width="169" height="115" rx="4"></rect>
        <g id="优投投资孵化" transform="translate(208, 324)" fill="#2E8F79" fill-rule="nonzero">
            <path d="M19.9996693,22.963887 C18.1700269,22.963887 16.6810446,21.4510088 16.6810446,19.591511 C16.6810446,17.7320131 18.1693654,16.2191349 19.9996693,16.2191349 C21.8299731,16.2191349 23.3189555,17.7320131 23.3189555,19.591511 C23.3189555,21.4510089 21.8299732,22.963887 19.9996693,22.963887 M19.9996693,14.6938776 C17.3537656,14.6938776 15.2,16.8908737 15.2,19.591511 C15.2,22.2921483 17.3531041,24.4897959 19.9996693,24.4897959 C22.6462344,24.4897959 24.8,22.2921483 24.8,19.591511 C24.8,16.8908737 22.6462344,14.6938776 19.9996693,14.6938776" id="形状"></path>
            <path d="M12.548678,18.8737149 C12.1395325,18.8737149 11.8061055,19.195949 11.8061055,19.5924505 C11.8061055,19.988952 12.1395325,20.3111861 12.548678,20.3111861 C12.9578235,20.3111861 13.2905863,19.988952 13.2905863,19.5930643 C13.2905863,19.1959491 12.9578235,18.8737149 12.548678,18.8737149 M9.305403,18.8737149 C8.8955933,18.8737149 8.56283052,19.195949 8.56283052,19.5924505 C8.56283052,19.988952 8.89559334,20.3111861 9.305403,20.3111861 C9.71454847,20.3111861 10.0473113,19.988952 10.0473113,19.5930643 C10.0473113,19.1959491 9.71454847,18.8737149 9.305403,18.8737149 M3.40733172,21.4208992 C2.34860134,21.4208992 1.48713757,20.60089 1.48713757,19.5924505 C1.48713757,18.5846248 2.34860134,17.7646156 3.40733172,17.7646156 C4.46606209,17.7646156 5.32752587,18.5846248 5.32752587,19.5924505 C5.32752587,20.60089 4.46606209,21.421513 3.40799591,21.421513 M3.39936133,16.3271444 C1.5249968,16.3265306 0,17.7922357 0,19.5918367 C0,21.3926653 1.5283178,22.8571429 3.40733172,22.8571429 C5.28169626,22.8571429 6.80669305,21.3926653 6.80669305,19.5918367 C6.80669305,17.7916219 5.27771106,16.3265306 3.39936133,16.3265306 M30.4580917,18.8737149 C30.0489462,18.8737149 29.7155192,19.195949 29.7155192,19.5924505 C29.7155192,19.988952 30.0489462,20.3111861 30.4580917,20.3111861 C30.8672372,20.3111861 31.2,19.988952 31.2,19.5930643 C31.2,19.1959491 30.8679014,18.8737149 30.4580917,18.8737149 M27.2148167,18.8737149 C26.8056712,18.8737149 26.4722442,19.195949 26.4722442,19.5924505 C26.4722442,19.988952 26.8056712,20.3111861 27.2148167,20.3111861 C27.6239622,20.3111861 27.956725,19.988952 27.956725,19.5930643 C27.956725,19.1959491 27.6239622,18.8737149 27.2148167,18.8737149" id="形状"></path>
            <path d="M36.5671267,21.9231142 C35.4997909,21.9231142 34.6325387,21.0606501 34.6325387,20 C34.6325387,18.9399955 35.4997909,18.0775314 36.5664576,18.0775314 C37.6337934,18.0775314 38.5017148,18.9399955 38.5017148,20 C38.5017148,21.0606501 37.6337934,21.9237597 36.5671267,21.9237597 M36.5671267,16.565637 C34.6740276,16.565637 33.1342534,18.1065815 33.1342534,20 C33.1342534,21.8940641 34.6740276,23.434363 36.5671267,23.434363 C38.4595567,23.434363 40,21.8940641 40,20 C40,18.1065815 38.4595567,16.565637 36.5671267,16.565637 M19.9675449,26.619541 C19.5553325,26.619541 19.2200753,26.9584584 19.2200753,27.3748427 C19.2200753,27.7918724 19.5553325,28.1307899 19.9675449,28.1307899 C20.3797574,28.1307899 20.7156838,27.7918724 20.7156838,27.3754882 C20.7156838,26.9584584 20.3797574,26.619541 19.9675449,26.619541 M19.9675449,29.8789581 C19.5553325,29.8789581 19.2200753,30.2178755 19.2200753,30.6342597 C19.2200753,31.0512895 19.5553325,31.3902069 19.9675449,31.3902069 C20.3797574,31.3902069 20.7156838,31.0512895 20.7156838,30.6349053 C20.7156838,30.2178755 20.3797574,29.8789581 19.9675449,29.8789581 M19.9675449,38.4881056 C18.9008783,38.4881056 18.0336261,37.6256415 18.0336261,36.565637 C18.0336261,35.5049869 18.9008783,34.6425228 19.9675449,34.6425228 C21.0342116,34.6425228 21.902133,35.5049869 21.902133,36.565637 C21.902133,37.6256415 21.0342116,38.4881056 19.9682141,38.4881056 M19.9682141,33.1390207 C18.0744458,33.1390207 16.5353408,34.6793196 16.5353408,36.5733837 C16.5353408,38.4629289 18.0744458,40 19.9682141,40 C21.8606441,40 23.4010874,38.4590556 23.4010874,36.565637 C23.4010874,34.6760918 21.8606441,33.1390207 19.9682141,33.1390207 M19.9675449,11.8692101 C19.5553325,11.8692101 19.2200753,12.2081276 19.2200753,12.6251573 C19.2200753,13.0421871 19.5553325,13.380459 19.9675449,13.380459 C20.3797574,13.380459 20.7156838,13.0421871 20.7156838,12.6251573 C20.7156838,12.2081276 20.3797574,11.8698557 19.9675449,11.8698557 M19.9675449,8.6097931 C19.5553325,8.6097931 19.2200753,8.94871051 19.2200753,9.36509474 C19.2200753,9.78212452 19.5553325,10.1210419 19.9675449,10.1210419 C20.3797574,10.1210419 20.7156838,9.78212452 20.7156838,9.36574029 C20.7156838,8.94871051 20.3797574,8.6097931 19.9675449,8.6097931 M19.9675449,5.35812272 C18.9008783,5.35812272 18.0336261,4.49501306 18.0336261,3.43436298 C18.0336261,2.37435846 18.9008783,1.51189438 19.9675449,1.51189438 C21.0342116,1.51189438 21.902133,2.37435846 21.902133,3.43500857 C21.902133,4.49501309 21.0342116,5.35747717 19.9682141,5.35747717 M19.9682141,0 C18.0744458,0 16.5353408,1.54094445 16.5353408,3.43436298 C16.5353408,4.34976274 16.8940192,5.21093571 17.5457967,5.85972047 C18.1776211,6.49872288 19.0528176,6.86070147 19.9682141,6.86162485 C21.8606441,6.86162485 23.4010874,5.3206804 23.4010874,3.42726187 C23.4010874,1.53642555 21.8606441,0 19.9682141,0 M15.2759515,24.6789968 C15.1350832,24.539833 14.9422359,24.4609982 14.7406106,24.460153 C14.5432037,24.460153 14.3591802,24.5376198 14.2226683,24.6770601 C13.9229928,24.9784763 13.9221084,25.4539797 14.2206608,25.7564314 C14.3570704,25.8968143 14.5475553,25.9765703 14.7470129,25.9768154 C14.9464706,25.9770593 15.137165,25.8977706 15.2739439,25.7577225 C15.5730059,25.4562183 15.5735953,24.9811907 15.2752823,24.6789968 M12.4386449,26.7596269 C12.0264324,26.7596269 11.6911752,27.0985443 11.6911752,27.5149285 C11.6911752,27.9319583 12.0264324,28.2708757 12.4386449,28.2708757 C12.8508573,28.2708757 13.1867838,27.9319583 13.1867838,27.5155741 C13.1867838,27.0985443 12.8508574,26.7596269 12.4386449,26.7596269 M9.59933082,33.0731739 C9.24266988,33.4340844 8.74841894,33.6384298 8.23153491,33.6386818 C7.71517083,33.6387328 7.22142326,33.4342955 6.86574655,33.0731739 C6.11894604,32.325619 6.11894604,31.1113263 6.86574655,30.3669991 C7.22252173,30.0063265 7.71675791,29.8022205 8.23354246,29.8021368 C8.75081558,29.8021368 9.23529904,30.0022595 9.59933082,30.3676447 C10.3514847,31.1080985 10.3521539,32.3230367 9.59933082,33.0731739 M8.23086573,28.2857221 C7.31690086,28.2849058 6.44237105,28.6448094 5.81045585,29.2818179 C4.46608112,30.6213486 4.46608112,32.8001033 5.81045585,34.1389884 C6.44237283,34.7787906 7.31815122,35.1412764 8.23421163,35.1421839 C9.15007175,35.1412509 10.0256328,34.778755 10.6572982,34.1389884 C12.0016729,32.8001033 12.0016729,30.620703 10.6572982,29.2818179 C10.022671,28.6451185 9.14647713,28.2854251 8.23086573,28.2857221 M27.4991217,11.7297699 C27.0869092,11.7297699 26.751652,12.0680417 26.751652,12.4850715 C26.751652,12.9021013 27.0869092,13.2403731 27.4991217,13.2403731 C27.9113341,13.2403731 28.2472606,12.9021013 28.2472606,12.4850715 C28.2472606,12.0680417 27.9113342,11.7297699 27.4991217,11.7297699 M25.1978252,14.0266615 C24.7856127,14.0266615 24.4503555,14.3662245 24.4503555,14.7826087 C24.4503555,15.1996385 24.7856127,15.5385559 25.1978252,15.5385559 C25.6107068,15.5385559 25.945964,15.1996385 25.945964,14.7826087 C25.945964,14.3662245 25.6107068,14.0273071 25.1978252,14.0273071 M33.0720201,9.63364645 C32.7152904,9.99438239 32.2210248,10.1985087 31.7042242,10.1985087 C31.1880764,10.1984588 30.6945756,9.99402347 30.339105,9.63300086 C29.5856127,8.89383813 29.5849435,7.67889994 30.339105,6.92682614 C30.6956741,6.56625238 31.1896635,6.36214839 31.7062317,6.3619638 C32.2228357,6.3619638 32.7079883,6.56208646 33.0726892,6.92682614 C33.8188206,7.67502667 33.8181514,8.88931927 33.0726892,9.63364645 M34.1273107,5.86036602 C33.4954855,5.22090053 32.6199687,4.8586562 31.7042242,4.85781608 C30.7884635,4.85858075 29.9129172,5.22083727 29.2811376,5.86036602 C27.9367629,7.19989671 27.9367629,9.37865141 29.2811376,10.7181821 C29.9134563,11.3568365 30.7890815,11.7181386 31.7045588,11.7181386 C32.6200361,11.7181386 33.4956613,11.3568365 34.1279799,10.7181821 C35.4723547,9.37865141 35.4723547,7.19989671 34.1279799,5.86036602 M27.4991217,26.7596269 C27.0869092,26.7596269 26.751652,27.0985443 26.751652,27.5149285 C26.751652,27.9319583 27.0869092,28.2708757 27.4991217,28.2708757 C27.9113341,28.2708757 28.2472606,27.9319583 28.2472606,27.5155741 C28.2472606,27.0985443 27.9113342,26.7596269 27.4991217,26.7596269 M25.7217901,24.6783513 C25.5853394,24.5379689 25.3946335,24.458488 25.1951485,24.4588606 C24.9963791,24.4587413 24.8063495,24.537675 24.6698453,24.6770601 C24.3728289,24.9799528 24.3725352,25.4538419 24.6691761,25.7570769 C24.8060806,25.8970694 24.9967947,25.9763641 25.1962967,25.9762421 C25.3957987,25.9761197 25.5864082,25.8965915 25.7231284,25.7564314 C26.0191752,25.4537161 26.0188816,24.9807242 25.7224592,24.6783513 M33.0800502,33.0731739 C32.7235497,33.4339222 32.229575,33.6382534 31.7129235,33.6386819 C31.1963431,33.6388338 30.7023487,33.4343944 30.3464659,33.0731739 C29.5996654,32.325619 29.5996654,31.1119719 30.3464659,30.3669991 C30.7031499,30.0061998 31.1974451,29.8020694 31.7142618,29.8021368 C32.2315349,29.8021368 32.7166876,30.0022595 33.0807194,30.3676447 C33.8322041,31.1080985 33.8328733,32.3230367 33.0807194,33.0731739 M34.1273107,29.2818179 C33.4960804,28.644627 32.6218671,28.2846546 31.7082392,28.2857211 C30.7920958,28.2853922 29.915394,28.6453289 29.2804684,29.2824635 C27.9367629,30.6213486 27.9367629,32.8007488 29.2804684,34.1389884 C29.9122942,34.7789172 30.7881315,35.1414273 31.7042242,35.1421839 C32.6199687,35.1413438 33.4954855,34.7790995 34.1273107,34.139634 C35.4723546,32.8001033 35.4723546,30.6213486 34.1273107,29.2818179 M14.7399414,14.0266615 C14.327729,14.0266615 13.9918026,14.3662245 13.9918026,14.7826087 C13.9918026,15.1996385 14.327729,15.5385559 14.7399414,15.5385559 C15.1521539,15.5385559 15.4874111,15.1996385 15.4874111,14.7826087 C15.4874111,14.3662245 15.152823,14.0273071 14.7399414,14.0273071 M12.4386449,11.7297699 C12.0264324,11.7297699 11.6911752,12.0680417 11.6911752,12.4850715 C11.6911752,12.9021013 12.0264324,13.2403731 12.4386449,13.2403731 C12.8508573,13.2403731 13.1867838,12.9021013 13.1867838,12.4850715 C13.1867838,12.0680417 12.8508574,11.7297699 12.4386449,11.7297699 M9.59130069,9.63364645 C9.23457107,9.99438238 8.7403054,10.1985088 8.22350482,10.1985088 C7.70714073,10.1985598 7.21339313,9.99412243 6.85771642,9.63300086 C6.10422416,8.89383813 6.10355499,7.67889994 6.85771642,6.92682614 C7.21440044,6.5660268 7.70869566,6.36189638 8.22551233,6.36196378 C8.74211627,6.36196378 9.22726891,6.56208646 9.59130069,6.92682614 C10.3381012,7.67502667 10.3381012,8.88931927 9.59130069,9.63364645 M8.23086573,4.85781608 C7.31513732,4.85873161 6.4396499,5.22096376 5.80777917,5.86036602 C4.46407361,7.19989671 4.46407361,9.37865141 5.80777917,10.7181821 C6.43905562,11.3557732 7.31356011,11.7159993 8.22751984,11.7149245 C9.1437622,11.7150845 10.0204786,11.3549088 10.6552906,10.7175365 C11.9989962,9.37865141 11.9989962,7.19925116 10.6552906,5.86036602 C10.023099,5.22063958 9.14705913,4.85837896 8.23086573,4.85781608" id="形状"></path>
        </g>
        <rect id="矩形" fill="#FBFBFB" x="331" y="168" width="190" height="170" rx="4"></rect>
        <use id="矩形" stroke="#A5A7A7" mask="url(#mask-4)" stroke-width="2" stroke-dasharray="8" xlink:href="#path-3"></use>
        <rect id="矩形" x="346" y="257" width="164" height="74" rx="15"></rect>
        <text id="In-November-2017,-Dr" font-family="MabryPro-Light, Mabry Pro" font-size="12" font-weight="300" fill="#5A5A5A">
            <tspan x="175" y="228">In November 2017, </tspan>
            <tspan x="175" y="242">Dragonfly 1.x project was </tspan>
            <tspan x="175" y="256">open source.</tspan>
        </text>
        <text id="In-October-2018,-bec" font-family="MabryPro-Light, Mabry Pro" font-size="12" font-weight="300" fill="#5A5A5A">
            <tspan x="356" y="257">In October 2018, became </tspan>
            <tspan x="356" y="271">the third project in China to </tspan>
            <tspan x="356" y="285">enter the CNCF Sandbox.</tspan>
        </text>
        <text id="Officially-settled-i" font-family="MabryPro-Light, Mabry Pro" font-size="12" font-weight="300" fill="#5A5A5A">
            <tspan x="178.573242" y="413">Officially settled in </tspan>
            <tspan x="173.789062" y="427">CNCF Incubating in </tspan>
            <tspan x="196.432617" y="441">April 2020.</tspan>
        </text>
        <text id="In-April-2021,-it-wa" font-family="MabryPro-Light, Mabry Pro" font-size="12" font-weight="300" fill="#5A5A5A">
            <tspan x="362" y="430">In April 2021, it was </tspan>
            <tspan x="362" y="444">updated to Dragonfly 2.</tspan>
        </text>
        <text id="Milestones" font-family="MabryPro-Bold, Mabry Pro" font-size="24" font-weight="bold" fill="#000000">
            <tspan x="41" y="63">Milestones </tspan>
        </text>
        <text id="More-Application-Sce" font-family="MabryPro-Light, Mabry Pro" font-size="19" font-weight="300" fill="#000000">
            <tspan x="42" y="566">More Application Scenarios </tspan>
            <tspan x="279.759766" y="566" font-family="MabryPro-Bold, Mabry Pro" font-weight="bold">:</tspan>
        </text>
        <text id="Dragonfly-1.x" font-family="MabryPro-Bold, Mabry Pro" font-size="14" font-weight="bold" fill="#353434">
            <tspan x="206" y="185">Dragonfly 1.x</tspan>
        </text>
        <text id="CNCF-SandBox" font-family="MabryPro-Bold, Mabry Pro" font-size="14" font-weight="bold" letter-spacing="-0.1" fill="#353434">
            <tspan x="398" y="213">CNCF SandBox</tspan>
        </text>
        <text id="Dragonfly-2" font-family="MabryPro-Bold, Mabry Pro" font-size="14" font-weight="bold" fill="#353434">
            <tspan x="390" y="389">Dragonfly 2</tspan>
        </text>
        <text id="CNCF-Incubating" font-family="MabryPro-Bold, Mabry Pro" font-size="14" font-weight="bold" fill="#353434">
            <tspan x="169" y="382">CNCF Incubating</tspan>
        </text>
        <g id="接入沙箱环境_icon-(1)" transform="translate(350, 190)" fill="#2E8F79" fill-rule="nonzero">
            <path d="M23.8379447,12.0074964 C24.2924901,12.0074964 24.7470356,12.3779076 24.7470356,12.9335244 L24.7470356,15.2485944 L28.6561265,15.2485944 C29.110672,15.2485944 29.4743083,15.6190056 29.5652174,16.0820196 C29.5652174,16.5450337 29.3833992,16.9154449 28.9288538,17.0080476 L24.7470356,17.0080476 L24.7470356,19.3231176 C24.7470356,19.7861316 24.3833992,20.2491456 23.8379447,20.2491456 L16.6561265,20.2491456 C16.201581,20.2491456 15.7470356,19.8787344 15.7470356,19.3231176 L15.7470356,17.0080476 L11.2924901,17.0080476 L11.2924901,24.7866828 L14.0197629,24.7866828 L14.0197629,22.4716128 C14.0197629,22.0085988 14.3833992,21.5455849 14.9288538,21.5455848 L25.6561265,21.5455848 C26.110672,21.5455848 26.5652174,21.915996 26.5652174,22.4716128 L26.5652174,28.8612061 C26.5652174,29.3242201 26.201581,29.787234 25.6561265,29.787234 L14.9288538,29.787234 C14.4743083,29.787234 14.0197629,29.4168228 14.0197629,28.8612061 L14.0197629,26.5461361 L10.7470356,26.5461361 C10.110672,26.4535332 9.65612649,25.9905193 9.56521739,25.3422996 L9.56521739,16.359828 C9.65612649,15.7116084 10.1106719,15.2485944 10.7470356,15.1559916 L15.7470356,15.1559916 L15.7470356,12.8409216 C15.7470356,12.3779076 16.110672,11.9148936 16.6561265,11.9148936 L23.8379447,11.9148936 L23.8379447,12.0074964 Z M24.7470356,23.3976408 L15.8379447,23.3976408 L15.8379447,28.0277808 L24.7470356,28.0277808 L24.7470356,23.3976408 L24.7470356,23.3976408 Z M22.9288538,13.8595524 L17.5652174,13.8595524 L17.5652174,18.4896924 L22.9288538,18.4896924 L22.9288538,13.8595524 Z" id="形状"></path>
            <path d="M20,0 C31.0909091,0 40,8.9090909 40,20 C40,31.0909091 31.0909091,40 20,40 C8.9090909,40 0,31.0909091 0,20 C0,8.9090909 8.9090909,0 20,0 Z M20,1.81818184 C10,1.81818184 1.81818184,10 1.81818184,20 C1.81818184,30 10,38.1818182 20,38.1818182 C30,38.1818182 38.1818182,30 38.1818182,20 C38.1818182,10 30,1.81818184 20,1.81818184 Z" id="形状"></path>
        </g>
        <text id="So-far,-dragonflies" font-family="Helvetica" font-size="16" font-weight="normal">
            <tspan x="42" y="80" fill="#FFFFFF"></tspan>
            <tspan x="42" y="99" font-family="MabryPro-Light, Mabry Pro" font-size="14" font-weight="300" letter-spacing="0.186666667" fill="#2D2D2D">So far, dragonflies have experienced the following stages of development.</tspan>
        </text>
        <text id="Dragonfly-supports-d" font-family="MabryPro-Light, Mabry Pro" font-size="14" font-weight="300" letter-spacing="0.186666667" fill="#2D2D2D">
            <tspan x="42" y="593">Dragonfly supports different types of storage sources, such as HDFS, S3, GCS, Azure Blob, </tspan>
            <tspan x="42" y="610">OSS, etc.</tspan>
        </text>
        <line x1="382.5" y1="407.5" x2="484.983967" y2="407.329215" id="路径-5" stroke="#979797"></line>
        <line x1="178.5" y1="395.329215" x2="276" y2="395.329215" id="路径-6" stroke="#979797"></line>
        <line x1="404.5" y1="233.5" x2="496" y2="233.329215" id="路径-6" stroke="#979797"></line>
        <line x1="205.5" y1="201.329215" x2="291.5" y2="201.5" id="路径-6" stroke="#979797"></line>
        <g id="版本更新-(1)" transform="translate(349, 369)" fill="#2E8F79" fill-rule="nonzero">
            <path d="M28.3031241,10.4476625 C27.1016424,13.5331498 25.3436692,16.2481386 22.8807068,18.4906294 C22.6956929,18.6451297 22.6056572,18.8856076 22.6437104,19.1236268 C22.7292091,19.9546234 22.798208,20.78562 22.8837067,21.6151165 C23.0847036,23.5501086 22.402214,25.1341021 20.831738,26.2590974 C19.1472637,27.4635925 17.3952904,28.5765879 15.6568169,29.7060832 C14.5618336,30.4170803 13.2148541,29.772083 13.091856,28.4805883 C12.9523581,26.9985944 12.8413598,25.5121005 12.7378614,24.0271066 C12.6868622,23.2831097 12.7078619,23.2771097 11.9818729,23.1826101 C10.0589022,22.9306111 8.55292518,22.0231149 7.51944096,20.3776216 C6.98694909,19.5286251 6.72445307,18.592629 6.6314545,17.6071331 C6.60295493,17.3131343 6.48295676,17.2366346 6.20246102,17.2216346 C4.6465415,17.139224 3.09148709,17.0412195 1.53753214,16.9276358 C0.243051867,16.8301362 -0.412438134,15.4771418 0.280551323,14.3461465 C0.768043899,13.5511497 1.28553601,12.7756529 1.78802832,11.9911562 C2.32952008,11.1451597 2.86801185,10.2976632 3.40950361,9.45316663 C4.40398844,7.90817299 5.83496662,7.07417644 7.66943867,7.05917651 C8.71792268,7.05017655 9.76940665,7.23467578 10.8193907,7.34717531 C11.0173876,7.36817522 11.1568855,7.34117534 11.2948834,7.18817598 C13.7308463,4.4836871 16.7443003,2.65819463 20.1567483,1.43719966 C22.0857189,0.747202512 24.0701886,0.297204355 26.1071576,0.087205223 C27.1331419,-0.0177943577 28.1666262,-0.0552942016 29.1911106,0.132205018 C29.750602,0.237204599 29.7791016,0.258204503 29.8661003,0.801202266 C29.951599,1.34120004 30.0190979,1.88719779 29.9950983,2.43919551 C29.9080996,5.20818411 29.3066088,7.86917314 28.3031241,10.4476625 Z M20.8107383,5.83968151 C18.931267,5.80968165 17.3052918,7.16567606 17.2602925,9.28366733 C17.222793,11.0506601 18.8352684,12.6511535 20.6322411,12.6646534 C21.5454892,12.6766607 22.4260134,12.324938 23.0796639,11.6870379 C23.7333143,11.0491377 24.1064108,10.1774469 24.1166879,9.26416741 C24.1406876,7.44017492 22.6182108,5.86968138 20.8107383,5.83968151 Z M3.92099581,19.6831245 C4.38148878,19.6906245 4.6364849,19.8931236 4.8014824,20.3581217 C5.40868225,22.1444895 6.671891,23.633441 8.33542852,24.5236046 C8.71342277,24.7321037 9.10941671,24.900103 9.52041044,25.0396024 C10.2583992,25.2901014 10.4263966,26.0040985 9.88040497,26.5545962 C9.06891733,27.3675929 8.24842985,28.1715896 7.4384422,28.9845862 C7.16994631,29.2545851 6.87595077,29.3805846 6.49795652,29.2410851 C6.11546236,29.1000857 5.93096518,28.8180869 5.91146547,28.4235885 C5.89946566,28.1745895 5.90546556,27.9240906 5.89946566,27.6735916 C5.88896581,27.2130935 5.88446589,27.2085935 5.45847237,27.3495929 L2.72701401,28.2525892 C2.45701812,28.3410889 2.18702224,28.3770887 1.92602621,28.2300893 C1.5405321,28.0125902 1.3950343,27.6255918 1.55103195,27.1485937 C1.85252735,26.2185976 2.17052251,25.2946014 2.47951778,24.3661052 C2.61451573,23.9641069 2.60551587,23.9551069 2.16752256,23.949107 C1.90352658,23.944607 1.6395306,23.949107 1.37553462,23.937107 C1.01630405,23.9390884 0.695576017,23.7124059 0.577546783,23.3731093 C0.438048897,23.0206108 0.526547554,22.713112 0.786043617,22.4551131 C1.63203073,21.6091165 2.48101777,20.76762 3.33150481,19.9261235 C3.4808093,19.7596709 3.69776589,19.6702375 3.92099581,19.6831245" id="形状"></path>
        </g>
        <g id="版本" transform="translate(163, 168)" fill="#2E8F79" fill-rule="nonzero">
            <path d="M33.999084,16.4926503 L19.1495085,22.4002552 C17.7286617,22.9488557 17.1629889,22.9488557 15.8504915,22.4002552 L1.00095019,16.4926503 C0.213451732,16.1222846 0,14.7507835 0,14.0026508 C0.992405288,14.5033695 2.38454124,15.0625432 2.3337845,15.0339954 L17.5,21.2219425 L32.6662155,15.0339954 C32.6932174,15.0281046 34.0448505,14.4254296 35,14.0026508 C35,14.768607 34.7306988,16.1896513 33.999084,16.4926503 L33.999084,16.4926503 Z M33.999084,10.303072 L19.1495085,16.2123082 C17.7286617,16.7593982 17.1629889,16.7593982 15.8504915,16.2123082 L1.00095019,10.303072 C-0.164335617,9.75598199 -0.128686272,8.03057925 1.00095019,7.38597375 L15.8504915,0.446963727 C17.1629889,-0.133144978 17.9826162,-0.164623043 19.1495085,0.446963727 L33.9990498,7.38597375 C35.1287205,7.93466481 35.0914647,9.8534069 33.999084,10.303072 L33.999084,10.303072 Z M17.5,1.62527649 C17.6126485,1.66585182 17.6525349,1.82842618 17.5,1.62527649 L17.5,1.62527649 Z M17.5,27.4115208 L32.6662155,21.2219123 C32.6932174,21.2173809 34.0448505,20.6133464 35,20.1905676 C35,20.9566748 34.7306646,22.3792296 33.9990498,22.6804161 L19.1495085,28.5896825 C17.7286617,29.1367725 17.1629889,29.1367725 15.8504915,28.5896825 L1.00095019,22.6804463 C0.213451732,22.3103826 0,20.9400899 0,20.1905676 C0.992405288,20.692827 2.38454124,21.2504902 2.3337845,21.2219425 L17.5,27.4115208 L17.5,27.4115208 Z" id="形状"></path>
        </g>
    </g>
</svg>