<?xml version="1.0" encoding="UTF-8"?>
<svg width="517px" height="255px" viewBox="0 0 517 255" version="1.1" xmlns="http://www.w3.org/2000/svg"
    xmlns:xlink="http://www.w3.org/1999/xlink">
    <title>切片</title>
    <defs>
        <filter x="0.0%" y="0.0%" width="100.0%" height="100.0%" filterUnits="objectBoundingBox" id="filter-1">
            <feGaussianBlur stdDeviation="0" in="SourceGraphic"></feGaussianBlur>
        </filter>
        <linearGradient x1="12.2515839%" y1="50%" x2="100%" y2="50%" id="linearGradient-2">
            <stop stop-color="#EEEEEE" stop-opacity="0.190067745" offset="0%"></stop>
            <stop stop-color="#FFFFFF" offset="100%"></stop>
        </linearGradient>
    </defs>
    <g id="console-LandingPage" stroke="none" stroke-width="1" fill="none" fill-rule="evenodd">
        <g id="文件分发" transform="translate(459, 218.5) rotate(9) translate(-459, -218.5)translate(441, 197)"
            fill="#2C2C2C" fill-rule="nonzero">
            <path
                d="M12.9626432,5.51282051 L23.0373568,5.51282051 C24.4229786,5.51282051 25.5483871,4.27936939 25.5483871,2.76061386 C25.5483871,1.24185834 24.415353,0 23.0220607,0 L12.9626432,0 C11.5769765,0 10.4516129,1.23350029 10.4516129,2.75225582 C10.4516129,4.27101134 11.5616804,5.51282051 12.9626432,5.51282051 Z"
                id="路径"></path>
            <path
                d="M30.8604954,3.30769231 L28.2946392,3.30769231 L28.2946392,8.59628652 L7.70531494,8.59628652 L7.70531494,3.30769231 L5.13950456,3.30769231 C2.29986962,3.30769231 -4.67740132e-13,5.67430391 -4.67740132e-13,8.59628652 L-4.67740132e-13,37.711453 C-4.67740132e-13,40.6334356 2.29986962,43 5.13950456,43 L30.8604954,43 C33.7001304,43 36,40.6334356 36,37.711453 L36,8.60435178 C36,5.682322 33.7001304,3.30769231 30.8604954,3.30769231 L30.8604954,3.30769231 Z M25.4706344,12.9188889 L25.4706344,10.2464105 L29.1003911,15.003688 L25.4706344,19.9139225 L25.4706344,17.0965996 C25.4706344,17.0965996 18.0390982,15.1807936 13.4237288,23.069326 L12.641445,23.069326 C14.1120946,11.7436248 25.4706344,12.9188889 25.4706344,12.9188889 Z M28.6075619,34.7975356 L10.8735027,34.7975356 C10.3885114,34.7975356 9.89568224,34.5399189 9.77834196,34.2179688 L6.82136673,26.120117 C6.70402644,25.7981197 7.00127322,25.5405502 7.49410243,25.5405502 L25.2282075,25.5405502 C25.7131987,25.5405502 26.2060279,25.7981197 26.3233682,26.120117 L29.2803435,34.2179216 C29.3976838,34.5399189 29.092599,34.7975356 28.6076078,34.7975356 L28.6075619,34.7975356 Z M29.3898,31.9721474 L27.1603345,25.8705655 C27.0038961,25.460039 26.6909734,25.2024695 26.3624206,25.0253639 C26.0260756,24.8483055 25.6427487,24.7436458 25.2203237,24.7436458 L9.88784428,24.7436458 L9.88784428,23.850147 C9.88784428,23.4154719 10.2868013,23.0613079 10.7718383,23.0613079 L12.641445,23.0613079 L12.641445,23.0773913 C12.6023468,23.3591094 12.6805431,24.4699458 12.8057214,24.2123762 C12.9956776,23.8224049 13.2018712,23.4410346 13.4237288,23.069326 L21.4810646,23.069326 C21.7783572,21.9101924 22.3650587,20.445192 23.3741851,20.5015545 L28.0208605,20.5015545 C29.3037657,20.5015545 29.3898,22.2724216 29.3898,22.2724216 L29.3898,31.9721474 Z"
                id="形状"></path>
        </g>
        <polygon id="路径" fill="#31665A" fill-rule="nonzero"
            transform="translate(399.9218, 119.3649) rotate(8) translate(-399.9218, -119.3649)"
            points="401.335056 70.3648664 389.921822 70.3648664 389.921822 131.964656 398.508589 131.964656 398.508589 148.054978 389.921822 148.054978 389.921822 168.364866 401.335056 168.364866 401.335056 148.054978 409.921822 148.054978 409.921822 131.964656 401.335056 131.964656">
        </polygon>
        <path
            d="M244.551456,165.609258 C244.684118,165.618431 244.81678,165.624546 244.953344,165.630662 C245.046988,165.63372 245.132828,165.639835 245.226472,165.642893 C245.374741,165.645951 245.52301,165.649009 245.675182,165.649009 L262.269644,165.649009 C262.023829,165.649009 261.785817,165.639835 261.547806,165.630662 C261.411242,165.624546 261.274678,165.618431 261.142016,165.609258 C260.974238,165.600084 260.806459,165.584795 260.638681,165.569507 C260.50992,165.557276 260.38116,165.545044 260.256302,165.529756 C260.072916,165.505293 259.893432,165.480831 259.713948,165.450254 C259.620304,165.438022 259.526661,165.422734 259.433017,165.407445 C259.202809,165.364636 258.972601,165.318769 258.750197,165.26373 C258.711179,165.257614 258.672161,165.251498 258.637044,165.239267 C258.37172,165.175054 258.110298,165.104726 257.856679,165.022166 C257.782545,165.000761 257.712312,164.973241 257.638177,164.948779 C257.462595,164.890682 257.287013,164.829526 257.119235,164.762255 C256.838303,164.652176 256.561274,164.532923 256.292048,164.404496 C256.268637,164.392265 256.245226,164.376976 256.217913,164.364745 C255.976,164.245492 255.74189,164.117066 255.507781,163.979466 C255.386824,163.903022 255.261966,163.82352 255.141009,163.744018 C255.051267,163.682862 254.953722,163.624765 254.86398,163.560552 C254.735219,163.471876 254.614263,163.374028 254.489404,163.279237 C254.407466,163.215024 254.321626,163.156926 254.239688,163.089655 C254.103124,162.979575 253.974364,162.860322 253.845603,162.744127 C253.779272,162.682972 253.712941,162.63099 253.650512,162.569834 C253.459323,162.389426 253.272035,162.199844 253.092551,162.001089 C252.913067,161.805392 252.741387,161.600521 252.573608,161.386477 C252.515081,161.313091 252.464357,161.236646 252.409732,161.16326 C252.300481,161.019545 252.187328,160.872772 252.081978,160.719883 C252.023451,160.62815 251.961022,160.533359 251.902494,160.438569 C251.808851,160.294853 251.715207,160.154196 251.629367,160.007423 C251.566937,159.903459 251.50841,159.793379 251.445981,159.683299 C251.352337,159.515122 251.25089,159.343887 251.161148,159.163478 C251.040191,158.924972 250.923136,158.671177 250.806082,158.414325 C250.782671,158.353169 250.755358,158.295072 250.728045,158.233916 C250.618794,157.974006 250.505641,157.711038 250.400292,157.435838 C250.388586,157.402203 250.376881,157.36551 250.361274,157.331874 C250.26763,157.078079 250.173986,156.818169 250.084244,156.549085 C250.060833,156.484872 250.037422,156.420659 250.017913,156.353388 C249.920367,156.059842 249.826723,155.757123 249.736982,155.44523 C249.717472,155.387132 249.701865,155.329035 249.686258,155.270937 C249.608221,154.989622 249.534087,154.702192 249.45605,154.408646 C249.440443,154.344433 249.424836,154.283277 249.409228,154.219064 C249.354603,154.00502 249.307781,153.781803 249.257057,153.561644 C249.218039,153.387351 249.175119,153.213058 249.1361,153.029592 C249.089279,152.809432 249.046358,152.5801 249.003438,152.350767 C248.968322,152.167301 248.929304,151.986892 248.898089,151.800368 C248.851267,151.558804 248.812249,151.308067 248.773231,151.060388 C248.742016,150.876922 248.710802,150.693455 248.679587,150.503874 C248.640569,150.243963 248.605452,149.971822 248.566434,149.69968 C248.543023,149.513156 248.51571,149.332748 248.488397,149.143166 C248.449379,148.846562 248.418165,148.53467 248.383048,148.225835 C248.363539,148.057658 248.34403,147.88948 248.324521,147.718245 C248.285503,147.357428 248.254288,146.981323 248.219172,146.608275 C248.207466,146.479848 248.195761,146.35448 248.184055,146.226053 C248.141135,145.718464 248.102117,145.198643 248.070902,144.669649 C248.063099,144.562627 248.059197,144.452547 248.051393,144.345525 C248.02408,143.917437 248.000669,143.486292 247.98116,143.045973 C247.98116,142.993991 247.977258,142.945066 247.973357,142.893084 C247.953847,142.437476 247.934338,141.975753 247.922633,141.504857 C247.914829,141.342795 247.910927,141.180733 247.907026,141.015613 C247.89532,140.633392 247.887516,140.245055 247.883615,139.850603 C247.879713,139.688541 247.875811,139.526479 247.875811,139.36136 C247.868007,138.817077 247.864105,138.266678 247.864105,137.704048 C247.864105,137.116957 247.868007,136.545154 247.875811,135.979466 C247.875811,135.796 247.883615,135.615592 247.883615,135.432125 C247.891418,135.05602 247.899222,134.676856 247.910927,134.306866 C247.914829,134.098938 247.922633,133.894067 247.930437,133.686139 C247.942142,133.349784 247.953847,133.016487 247.969455,132.686248 C247.977258,132.47832 247.988964,132.270391 247.996768,132.062463 C248.016277,131.741397 248.031884,131.426447 248.051393,131.114554 C248.063099,130.912741 248.074804,130.713986 248.08651,130.515231 C248.10992,130.194165 248.133331,129.879215 248.160644,129.564265 C248.17235,129.389972 248.187957,129.212621 248.199662,129.038328 C248.234779,128.662223 248.269895,128.292232 248.305012,127.928358 C248.316717,127.827451 248.324521,127.723487 248.336226,127.625639 C248.38695,127.160857 248.437674,126.70525 248.496201,126.261873 C248.504005,126.200718 248.511808,126.14262 248.519612,126.081465 C248.570336,125.71759 248.62106,125.362889 248.671783,125.014303 C248.687391,124.913397 248.702998,124.81249 248.718605,124.711584 C248.781034,124.320189 248.843464,123.931852 248.913696,123.555747 C248.9215,123.512938 248.929304,123.470129 248.937107,123.42732 C248.999537,123.087908 249.065868,122.757669 249.1361,122.433545 C249.15561,122.341812 249.175119,122.250079 249.194628,122.158346 C249.272664,121.803644 249.350701,121.455059 249.436541,121.115646 C249.444345,121.091184 249.448246,121.066722 249.45605,121.039202 C249.534087,120.724252 249.619927,120.418475 249.705767,120.118813 C249.729178,120.036253 249.752589,119.953694 249.776,119.871134 C249.842331,119.650974 249.908662,119.439988 249.974993,119.225944 C250.017913,119.097518 250.056931,118.966034 250.099851,118.840665 C250.173986,118.626621 250.248121,118.421751 250.326157,118.21688 C250.365175,118.115974 250.400292,118.008952 250.43931,117.908045 C250.544659,117.629788 250.657812,117.360705 250.770965,117.097736 C250.782671,117.076332 250.790474,117.054928 250.798278,117.036581 C250.927038,116.743035 251.063602,116.46172 251.200166,116.189579 C251.325024,115.944957 251.453785,115.709509 251.590348,115.480176 C251.629367,115.412905 251.668385,115.348692 251.707403,115.284479 C251.812752,115.110186 251.918102,114.938951 252.031255,114.770773 C252.066371,114.715734 252.101487,114.660694 252.140506,114.605654 C252.284873,114.394668 252.433143,114.192855 252.585314,113.9941 C252.624332,113.945175 252.66335,113.899309 252.702369,113.850385 C252.827227,113.697496 252.952085,113.547665 253.080846,113.40395 C253.139373,113.336679 253.1979,113.272466 253.256428,113.208253 C253.373482,113.085942 253.490537,112.963631 253.607592,112.847436 C253.673923,112.783223 253.740254,112.722067 253.802683,112.660912 C253.931443,112.541659 254.060204,112.428522 254.192866,112.318442 C254.251393,112.26646 254.30992,112.214478 254.368448,112.165553 C254.746925,111.859776 255.148813,111.575404 255.578014,111.318551 C255.648246,111.2788 255.714577,111.242107 255.78481,111.202356 C255.93308,111.119796 256.081349,111.037236 256.23352,110.957734 C256.315459,110.917983 256.397397,110.878232 256.479335,110.838481 C256.627605,110.768152 256.779776,110.700881 256.931947,110.636668 C257.013885,110.603033 257.095824,110.569397 257.177762,110.535762 C257.353344,110.465433 257.53673,110.40122 257.724017,110.340065 C257.782545,110.31866 257.841072,110.297256 257.895698,110.278909 C258.141513,110.199407 258.391229,110.129078 258.644848,110.067923 C258.707277,110.052634 258.769706,110.040403 258.832136,110.025114 C259.027227,109.979248 259.222318,109.936439 259.425213,109.899746 C259.514955,109.881399 259.608599,109.869168 259.702243,109.853879 C259.881727,109.823301 260.061211,109.795782 260.244596,109.774377 C260.342142,109.762146 260.443589,109.749915 260.541135,109.740742 C260.736226,109.719337 260.931318,109.704048 261.126409,109.691817 C261.216151,109.685702 261.305893,109.676529 261.395635,109.673471 C261.68437,109.658182 261.973105,109.649009 262.269644,109.649009 L245.679083,109.649009 C245.382545,109.649009 245.09381,109.658182 244.805075,109.673471 C244.711431,109.676529 244.621689,109.685702 244.531947,109.691817 C244.336856,109.704048 244.141764,109.719337 243.950575,109.740742 C243.849128,109.749915 243.751582,109.762146 243.650134,109.774377 C243.47065,109.795782 243.287265,109.823301 243.111683,109.853879 C243.018039,109.869168 242.924395,109.884457 242.830751,109.899746 C242.631758,109.936439 242.432765,109.979248 242.237674,110.025114 C242.175245,110.040403 242.112815,110.052634 242.050386,110.067923 C241.796768,110.129078 241.547051,110.199407 241.305138,110.278909 C241.24661,110.297256 241.188083,110.31866 241.129555,110.340065 C240.94617,110.40122 240.762784,110.465433 240.5833,110.535762 C240.501362,110.56634 240.423325,110.603033 240.341387,110.636668 C240.185314,110.700881 240.033143,110.768152 239.884873,110.838481 C239.802935,110.878232 239.724898,110.917983 239.64296,110.957734 C239.490789,111.034178 239.338618,111.116738 239.190348,111.202356 C239.124017,111.242107 239.053785,111.2788 238.987454,111.318551 C238.776755,111.44392 238.569958,111.575404 238.370965,111.716061 C238.164168,111.859776 237.969077,112.009607 237.777888,112.165553 C237.715459,112.214478 237.656931,112.26646 237.598404,112.318442 C237.465742,112.428522 237.340883,112.541659 237.212123,112.657854 C237.145792,112.71901 237.083363,112.783223 237.017032,112.847436 C236.899977,112.963631 236.782922,113.082884 236.665868,113.208253 C236.60734,113.272466 236.544911,113.336679 236.486384,113.400892 C236.357623,113.547665 236.232765,113.697496 236.111808,113.850385 C236.07279,113.899309 236.02987,113.945175 235.994754,113.9941 C235.98695,114.006331 235.975245,114.015504 235.967441,114.027735 C235.823073,114.214259 235.682608,114.406899 235.549946,114.605654 C235.510927,114.660694 235.475811,114.715734 235.440695,114.770773 C235.327542,114.938951 235.222192,115.110186 235.116843,115.284479 C235.077825,115.348692 235.038807,115.412905 234.999788,115.480176 C234.863224,115.709509 234.734464,115.944957 234.609606,116.189579 C234.593999,116.214041 234.582293,116.241561 234.570588,116.269081 C234.445729,116.513702 234.324773,116.770555 234.207718,117.036581 C234.199914,117.054928 234.192111,117.070216 234.184307,117.088563 C234.067252,117.354589 233.954099,117.626731 233.844848,117.908045 C233.80583,118.008952 233.770713,118.115974 233.731695,118.21688 C233.65756,118.421751 233.583426,118.626621 233.509291,118.840665 C233.466371,118.966034 233.427353,119.097518 233.384433,119.225944 C233.341513,119.366602 233.294691,119.501144 233.247869,119.647917 C233.22836,119.721303 233.204949,119.800805 233.181538,119.874192 C233.158127,119.953694 233.134716,120.036253 233.115207,120.115755 C233.025465,120.418475 232.943527,120.727309 232.86549,121.045317 C232.857686,121.06978 232.849883,121.091184 232.845981,121.115646 C232.760141,121.455059 232.678202,121.803644 232.604068,122.161403 C232.580657,122.250079 232.565049,122.341812 232.54554,122.433545 C232.475308,122.757669 232.408976,123.087908 232.346547,123.42732 C232.338744,123.470129 232.33094,123.512938 232.323136,123.555747 C232.252903,123.93491 232.186572,124.320189 232.128045,124.714641 C232.112438,124.81249 232.09683,124.913397 232.081223,125.011245 C232.030499,125.359831 231.979776,125.714532 231.929052,126.078407 C231.921248,126.139562 231.913445,126.200718 231.905641,126.264931 L231.893936,126.332202 C231.843212,126.754174 231.792488,127.18532 231.745666,127.625639 C231.733961,127.723487 231.726157,127.827451 231.714452,127.928358 C231.675433,128.292232 231.644219,128.662223 231.609102,129.038328 C231.593495,129.212621 231.58179,129.386914 231.566182,129.564265 C231.542771,129.879215 231.51936,130.197223 231.495949,130.518289 C231.484244,130.713986 231.472538,130.912741 231.456931,131.108439 C231.437422,131.423389 231.421815,131.741397 231.406207,132.065521 C231.394502,132.270391 231.386698,132.47832 231.374993,132.686248 C231.359386,133.016487 231.34768,133.349784 231.335975,133.686139 C231.328171,133.894067 231.320367,134.098938 231.316465,134.306866 C231.30476,134.676856 231.296956,135.05602 231.293055,135.432125 C231.289153,135.615592 231.285251,135.796 231.281349,135.979466 C231.273545,136.545154 231.269644,137.120014 231.269644,137.704048 C231.269644,138.266678 231.273545,138.817077 231.281349,139.36136 C231.281349,139.526479 231.285251,139.688541 231.289153,139.850603 C231.296956,140.245055 231.30476,140.633392 231.312564,141.015613 C231.316465,141.180733 231.324269,141.342795 231.328171,141.504857 C231.343778,141.975753 231.359386,142.437476 231.378895,142.893084 C231.382796,142.945066 231.382796,142.993991 231.386698,143.045973 C231.386698,143.055146 231.386698,143.067377 231.386698,143.079608 C231.406207,143.510754 231.429618,143.929668 231.456931,144.348583 C231.464735,144.455605 231.468637,144.562627 231.472538,144.669649 C231.507655,145.198643 231.546673,145.718464 231.589593,146.226053 C231.601299,146.363653 231.613004,146.492079 231.628611,146.626621 C231.659826,146.993554 231.694942,147.360486 231.730059,147.718245 C231.749568,147.901711 231.772979,148.079062 231.792488,148.262528 C231.827605,148.556074 231.858819,148.855736 231.893936,149.140108 C231.921248,149.338863 231.948561,149.528445 231.975874,149.721085 C232.01099,149.984053 232.046107,150.250079 232.085125,150.503874 C232.11634,150.699571 232.147554,150.886095 232.182671,151.075677 C232.221689,151.317241 232.256805,151.561862 232.303627,151.800368 C232.334842,151.98995 232.37386,152.170358 232.408976,152.356882 C232.455798,152.583157 232.494817,152.81249 232.541639,153.029592 C232.580657,153.213058 232.623577,153.387351 232.662595,153.564702 C232.705515,153.742052 232.740632,153.934692 232.787454,154.112042 C232.795257,154.145678 232.806963,154.182371 232.814766,154.216007 C232.830374,154.283277 232.845981,154.344433 232.861588,154.408646 C232.935723,154.702192 233.013759,154.989622 233.091796,155.267879 C233.111305,155.325977 233.126912,155.387132 233.14252,155.44523 C233.232262,155.757123 233.325905,156.059842 233.423451,156.353388 C233.44296,156.420659 233.466371,156.484872 233.489782,156.549085 C233.579524,156.815111 233.673168,157.078079 233.766812,157.331874 C233.782419,157.36551 233.794124,157.402203 233.80583,157.435838 C233.911179,157.70798 234.024332,157.974006 234.133583,158.233916 C234.160896,158.295072 234.188209,158.353169 234.21162,158.414325 C234.328674,158.671177 234.445729,158.924972 234.570588,159.163478 C234.5979,159.221576 234.625213,159.279674 234.656428,159.334714 C234.718857,159.453967 234.78909,159.567104 234.855421,159.686357 C234.913948,159.793379 234.972476,159.900401 235.034905,160.004365 C235.124647,160.154196 235.214389,160.294853 235.308032,160.438569 C235.36656,160.530302 235.425087,160.62815 235.487516,160.719883 C235.592866,160.872772 235.706019,161.019545 235.81527,161.166318 C235.869895,161.239704 235.920619,161.313091 235.975245,161.383419 C236.143023,161.594406 236.314703,161.799276 236.494187,161.994973 L236.501991,162.004147 C236.677573,162.202902 236.864861,162.389426 237.05605,162.569834 C237.118479,162.63099 237.18481,162.686029 237.251141,162.744127 C237.379902,162.86338 237.508662,162.979575 237.645226,163.089655 C237.723262,163.156926 237.809102,163.215024 237.891041,163.279237 C238.015899,163.377085 238.136856,163.471876 238.265616,163.560552 C238.355358,163.624765 238.452903,163.682862 238.546547,163.744018 C238.644093,163.811289 238.741639,163.881618 238.846988,163.942773 C238.866497,163.955004 238.889908,163.967235 238.913319,163.979466 C239.143527,164.117066 239.381538,164.245492 239.623451,164.364745 C239.646862,164.376976 239.670273,164.392265 239.693684,164.404496 C239.96291,164.53598 240.239939,164.655233 240.520871,164.765313 C240.54038,164.771429 240.559889,164.780602 240.579398,164.789775 C240.727667,164.847873 240.88374,164.896797 241.039813,164.948779 C241.113948,164.973241 241.184181,165.000761 241.258316,165.025224 C241.508032,165.101668 241.765553,165.175054 242.026975,165.239267 L242.038681,165.242325 C242.077699,165.251498 242.116717,165.257614 242.155735,165.266787 C242.378139,165.318769 242.604445,165.367694 242.834653,165.407445 C242.928297,165.425791 243.025842,165.438022 243.119486,165.453311 C243.248246,165.471658 243.373105,165.49612 243.509669,165.514467 C243.556491,165.520582 243.611116,165.52364 243.66184,165.529756 C243.786698,165.545044 243.915459,165.557276 244.044219,165.569507 C244.215899,165.584795 244.379776,165.600084 244.551456,165.609258 Z"
            id="路径" fill="#474747" fill-rule="nonzero"
            transform="translate(246.7696, 137.649) rotate(-3) translate(-246.7696, -137.649)"></path>
        <path
            d="M294.372179,142.78192 C294.413545,142.31183 294.44739,141.824221 294.481234,141.342452 C294.503797,141.024192 294.530121,140.711772 294.548923,140.387672 C294.579007,139.841667 294.60157,139.283983 294.620373,138.723378 C294.631654,138.448916 294.646696,138.183212 294.654217,137.90291 C294.680541,137.062004 294.691823,136.203578 294.691823,135.333473 C294.691823,134.586001 294.680541,133.850208 294.661738,133.120254 C294.654217,132.892508 294.646696,132.670602 294.639175,132.442857 C294.627894,132.127517 294.620373,131.806337 294.605331,131.493917 C294.594049,131.274931 294.579007,131.064704 294.567726,130.848638 C294.556444,130.685129 294.548923,130.518699 294.537642,130.355189 C294.496276,129.680712 294.44739,129.012075 294.387221,128.355116 C294.3797,128.270442 294.372179,128.185767 294.360898,128.098173 C294.30449,127.51129 294.240562,126.933167 294.169112,126.363803 C294.150309,126.209053 294.135267,126.054303 294.112704,125.902472 C294.029973,125.271792 293.939721,124.646952 293.838187,124.036711 C293.826906,123.946196 293.808103,123.858602 293.793061,123.771008 C293.702809,123.227922 293.601275,122.693596 293.495981,122.168029 C293.469658,122.027878 293.439574,121.884807 293.40949,121.744656 C293.296674,121.195731 293.176338,120.652646 293.04472,120.11832 C293.037199,120.080362 293.025918,120.045324 293.014636,120.007367 C292.995834,119.922692 292.973271,119.843857 292.950708,119.762102 C292.82285,119.248215 292.683712,118.746007 292.540812,118.249638 C292.506968,118.138685 292.476884,118.024812 292.443039,117.91386 C292.281337,117.373694 292.112115,116.842288 291.93161,116.319641 C291.894005,116.214527 291.8564,116.109414 291.818795,116.004301 C291.653333,115.531291 291.476589,115.06704 291.296084,114.611549 C291.269761,114.535634 291.239677,114.459719 291.209593,114.386723 C291.006525,113.884515 290.795937,113.393987 290.574067,112.912217 C290.52518,112.804184 290.472533,112.696151 290.419886,112.585198 C290.198016,112.112188 289.968625,111.647937 289.731713,111.192446 C289.724192,111.177847 289.716671,111.163248 289.70915,111.148649 C289.70915,111.142809 289.70539,111.13697 289.701629,111.13405 C289.543688,110.833309 289.374465,110.547167 289.205242,110.258106 C289.084906,110.044959 288.96833,109.823053 288.844234,109.615746 C288.656208,109.303326 288.456901,109.005505 288.261355,108.704764 C288.144779,108.523736 288.031964,108.336868 287.911628,108.158759 C287.685997,107.8259 287.449085,107.50764 287.212173,107.189381 C287.11064,107.052149 287.012867,106.909078 286.911333,106.771847 C286.565366,106.325115 286.208118,105.887143 285.839588,105.46377 C285.512424,105.084194 285.170218,104.719217 284.824251,104.363 C284.745281,104.281245 284.66631,104.19949 284.587339,104.117736 C284.241373,103.770278 283.891646,103.431579 283.530637,103.10456 C283.48175,103.060763 283.432864,103.022805 283.387738,102.979008 C283.056813,102.684107 282.718367,102.397965 282.372401,102.120582 C282.289669,102.053427 282.206938,101.986271 282.124207,101.922035 C281.744396,101.621294 281.357064,101.332232 280.95845,101.05193 C280.88324,100.999374 280.804269,100.946817 280.725298,100.89426 C280.36805,100.648996 280.003281,100.409571 279.630991,100.178906 C279.555781,100.135108 279.484331,100.085472 279.409121,100.041674 C279.371516,100.015396 279.333911,99.9920375 279.292545,99.968679 C278.897692,99.7292542 278.491557,99.5044285 278.081662,99.2825226 C277.980128,99.2299659 277.874834,99.1774093 277.7733,99.1248526 C277.416052,98.9409043 277.051283,98.7627956 276.682753,98.5905265 C276.532333,98.520451 276.381912,98.4503754 276.235253,98.3861395 C275.878004,98.2255497 275.516996,98.0737194 275.152227,97.9277286 C275.020609,97.875172 274.892752,97.8196955 274.761134,97.7700586 C274.704726,97.7496199 274.65584,97.7262614 274.603193,97.7058227 C274.189537,97.5481527 273.760839,97.402162 273.335902,97.2590911 C273.238128,97.2269731 273.140355,97.1948552 273.046342,97.1627372 C272.542435,97.0021474 272.034766,96.8473972 271.515816,96.7072461 C271.463169,96.6926471 271.410522,96.6809678 271.357875,96.6663687 C271.087118,96.5933734 270.816362,96.520378 270.538084,96.4532223 C270.297412,96.3977458 270.052979,96.3422693 269.808546,96.2897126 C269.744617,96.2751136 269.676928,96.2575947 269.609239,96.2429956 C269.075247,96.126203 268.526213,96.0240095 267.973418,95.9276556 C267.871884,95.9101367 267.770351,95.8926179 267.665057,95.8780188 C267.194993,95.7991838 266.721169,95.7261884 266.236064,95.6648723 C266.160854,95.6531931 266.081883,95.6473534 266.002912,95.6356742 C265.886337,95.6210751 265.769761,95.6093958 265.653185,95.5947968 C265.126714,95.5334807 264.592722,95.480924 264.047449,95.4371268 C263.972238,95.4283673 263.893268,95.4225277 263.818058,95.4166881 C263.223897,95.369971 262.618456,95.3349333 262.009254,95.3115748 C261.870115,95.3057351 261.730976,95.2998955 261.591837,95.2940559 C261.422614,95.2911361 261.253392,95.2794568 261.084169,95.276537 C260.625387,95.2648577 260.159084,95.2590181 259.689021,95.2590181 L243.695583,95.2590181 C244.33863,95.2590181 244.974156,95.2736172 245.5984,95.2940559 C245.737538,95.2998955 245.876677,95.3057351 246.015816,95.3115748 C246.625018,95.3349333 247.23046,95.369971 247.82086,95.4166881 C247.89983,95.4225277 247.978801,95.4283673 248.054011,95.4371268 C248.595524,95.480924 249.129516,95.5334807 249.659748,95.5947968 C249.776323,95.6093958 249.892899,95.6210751 250.009475,95.6356742 C250.56979,95.7057497 251.126345,95.7875045 251.671619,95.8780188 C251.773153,95.8926179 251.874686,95.9101367 251.97622,95.9276556 C252.532775,96.0240095 253.078049,96.1291228 253.615801,96.2429956 C253.68349,96.2575947 253.747419,96.2721938 253.815108,96.2897126 C254.337819,96.4065052 254.856769,96.5320573 255.364437,96.6663687 C255.417084,96.6809678 255.469731,96.6926471 255.518618,96.7072461 C256.037568,96.8473972 256.548997,97.0021474 257.049144,97.165657 C257.146918,97.1948552 257.244691,97.2269731 257.338704,97.2590911 C257.823809,97.4196809 258.297633,97.5890301 258.763936,97.7700586 C258.895554,97.8196955 259.027171,97.875172 259.155029,97.9277286 C259.523558,98.0737194 259.884567,98.2255497 260.238055,98.3861395 C260.388475,98.4532953 260.538895,98.520451 260.689316,98.5905265 C261.057845,98.7627956 261.422614,98.9409043 261.779863,99.1277724 C261.881396,99.1803291 261.986691,99.2299659 262.088224,99.2825226 C262.539485,99.5248672 262.983225,99.7788911 263.419444,100.041674 C263.494654,100.088391 263.566104,100.135108 263.637553,100.181825 C264.009843,100.412491 264.374613,100.648996 264.731861,100.89718 C264.810832,100.949737 264.889802,101.002293 264.968773,101.05485 C265.363626,101.335152 265.750958,101.624214 266.13453,101.922035 C266.217261,101.989191 266.296232,102.056346 266.378963,102.120582 C266.72493,102.400885 267.063375,102.687026 267.3943,102.981928 C267.443187,103.022805 267.492073,103.063682 267.537199,103.10456 C267.898208,103.431579 268.247935,103.773197 268.593902,104.117736 C268.672873,104.19949 268.751843,104.281245 268.830814,104.363 C269.17678,104.722137 269.518987,105.087114 269.846151,105.46377 C270.21468,105.890063 270.571929,106.325115 270.917895,106.774767 C271.030711,106.920758 271.136005,107.078428 271.245059,107.227338 C271.47445,107.536838 271.703841,107.840499 271.91819,108.158759 C272.057329,108.360226 272.181426,108.573373 272.316804,108.780679 C272.497308,109.058062 272.681573,109.329605 272.850796,109.615746 C272.989935,109.843492 273.114032,110.082917 273.245649,110.316502 C273.403591,110.590965 273.565293,110.865427 273.715713,111.148649 C273.726994,111.166168 273.734515,111.183687 273.742036,111.198286 C273.982709,111.650857 274.208339,112.118028 274.430209,112.588118 C274.479096,112.696151 274.531743,112.807104 274.58439,112.918057 C274.802499,113.399826 275.013088,113.887435 275.216155,114.386723 C275.25,114.462639 275.276323,114.541474 275.306407,114.617389 C275.486912,115.07288 275.659895,115.534211 275.825357,116.004301 C275.862962,116.112334 275.900568,116.217447 275.938173,116.322561 C276.118677,116.845207 276.2879,117.376614 276.449602,117.916779 C276.483446,118.027732 276.517291,118.141605 276.547375,118.255478 C276.694035,118.748926 276.829413,119.254054 276.961031,119.762102 C276.979833,119.846777 277.002396,119.925612 277.024959,120.010286 C277.164098,120.57965 277.295716,121.157774 277.419812,121.747576 C277.449897,121.887727 277.47622,122.030798 277.506304,122.173869 C277.611598,122.699436 277.709372,123.230842 277.799624,123.768088 C277.814666,123.858602 277.833468,123.949116 277.84851,124.039631 C277.950044,124.649872 278.036536,125.271792 278.119267,125.902472 C278.14183,126.057222 278.156872,126.211973 278.179435,126.366723 C278.250885,126.939006 278.311053,127.51421 278.36746,128.098173 C278.378742,128.185767 278.390023,128.270442 278.397544,128.360956 C278.457712,129.017914 278.506599,129.683632 278.547965,130.358109 C278.555486,130.524539 278.566767,130.690968 278.574288,130.854478 C278.604372,131.380044 278.626935,131.911451 278.645738,132.445777 C278.653259,132.670602 278.66454,132.895428 278.668301,133.123174 C278.687103,133.853127 278.702145,134.588921 278.702145,135.339313 C278.702145,136.209418 278.687103,137.064923 278.66454,137.90875 C278.653259,138.186132 278.638217,138.454755 278.630696,138.729218 C278.608133,139.286902 278.58933,139.844587 278.555486,140.390592 C278.536683,140.714692 278.51036,141.027112 278.487797,141.345372 C278.453952,141.830061 278.420107,142.31475 278.378742,142.78776 C278.348658,143.120619 278.311053,143.444718 278.277208,143.774657 C278.228322,144.215549 278.183195,144.662281 278.130548,145.094414 C278.089183,145.427272 278.040296,145.751372 277.99517,146.075471 C277.935002,146.493005 277.878594,146.913458 277.810905,147.319312 C277.758258,147.646332 277.69809,147.964591 277.641682,148.285771 C277.570233,148.679946 277.498783,149.074121 277.419812,149.456617 C277.355884,149.774876 277.284434,150.084377 277.216745,150.396797 C277.134014,150.770533 277.047522,151.144269 276.95727,151.509246 C276.88206,151.815827 276.803089,152.116568 276.720358,152.414389 C276.626345,152.770606 276.528572,153.123904 276.427039,153.471362 C276.325505,153.81298 276.220211,154.148759 276.114916,154.478698 C276.043467,154.694764 275.975778,154.91083 275.904328,155.121057 C275.77271,155.500633 275.637332,155.871449 275.498193,156.242266 C275.434265,156.417455 275.370336,156.592643 275.302647,156.761993 C275.095819,157.296319 274.87771,157.818966 274.648319,158.329933 C274.640798,158.341612 274.633277,158.356211 274.625756,158.37081 C274.403886,158.867179 274.170734,159.348948 273.926301,159.821958 C273.854852,159.95919 273.779641,160.093501 273.704431,160.230732 C273.527687,160.566511 273.343423,160.89937 273.155397,161.223469 C273.061385,161.384059 272.967372,161.541729 272.873359,161.699399 C272.689094,162.00014 272.501069,162.295041 272.309283,162.587023 C272.21527,162.733013 272.117497,162.881924 272.019724,163.024995 C271.794094,163.352014 271.560942,163.673194 271.32403,163.985614 C271.256341,164.076128 271.192412,164.172482 271.120963,164.262996 C270.797559,164.67761 270.466634,165.086384 270.120668,165.477639 C264.400936,171.997585 255.590068,175.259018 243.691823,175.259018 L259.68526,175.259018 C271.583505,175.259018 280.390613,171.997585 286.114105,165.477639 C286.441269,165.103903 286.757152,164.721407 287.065514,164.324312 C287.084316,164.303874 287.099358,164.280515 287.1144,164.262996 C287.182089,164.172482 287.246018,164.076128 287.317468,163.985614 C287.55438,163.673194 287.783771,163.352014 288.009401,163.024995 C288.110935,162.879004 288.204947,162.733013 288.302721,162.587023 C288.494506,162.295041 288.682532,162.00014 288.863036,161.699399 C288.960809,161.541729 289.054822,161.384059 289.148835,161.223469 C289.33686,160.89937 289.517364,160.569431 289.697869,160.230732 C289.769318,160.093501 289.844529,159.95919 289.915978,159.821958 C289.938541,159.778161 289.964865,159.734364 289.987428,159.690567 C290.205537,159.261354 290.416126,158.823382 290.615433,158.37665 C290.622954,158.359131 290.630475,158.344532 290.637996,158.327013 C290.867387,157.818966 291.085496,157.296319 291.296084,156.761993 C291.363774,156.592643 291.423942,156.417455 291.48787,156.242266 C291.627009,155.874369 291.766148,155.500633 291.897766,155.118137 C291.969215,154.90791 292.036904,154.694764 292.104593,154.481617 C292.172283,154.274311 292.243732,154.075763 292.307661,153.865537 C292.345266,153.737065 292.379111,153.602753 292.416716,153.471362 C292.518249,153.123904 292.616022,152.770606 292.713796,152.414389 C292.792766,152.116568 292.875497,151.815827 292.950708,151.509246 C293.04096,151.144269 293.123691,150.770533 293.210183,150.393877 C293.277872,150.084377 293.349321,149.774876 293.41325,149.459536 C293.48846,149.074121 293.56367,148.679946 293.631359,148.285771 C293.691528,147.964591 293.747935,147.646332 293.804343,147.322232 C293.868271,146.913458 293.92844,146.495925 293.984847,146.078391 C294.022452,145.827287 294.063818,145.582023 294.097662,145.327999 C294.105183,145.252084 294.112704,145.173249 294.120225,145.097333 C294.176633,144.662281 294.221759,144.218469 294.266885,143.774657 C294.30073,143.441798 294.342095,143.117699 294.372179,142.78192 Z"
            id="路径" fill="#474747" fill-rule="nonzero"
            transform="translate(269.1918, 135.259) rotate(-3) translate(-269.1918, -135.259)"></path>
        <polygon id="路径" fill="#31665A" fill-rule="nonzero"
            transform="translate(171.8865, 136.0735) rotate(-7) translate(-171.8865, -136.0735)"
            points="181.886474 148.673244 173.296645 148.673244 173.296645 87.0734549 161.886474 87.0734549 161.886474 148.673244 170.47362 148.673244 170.47362 164.763566 161.886474 164.763566 161.886474 185.073455 173.296645 185.073455 173.296645 164.763566 181.886474 164.763566">
        </polygon>
        <path
            d="M129.237516,114.972158 C129.148062,115.283291 129.052837,115.589562 128.960498,115.895834 C128.709451,116.72228 128.452633,117.539003 128.187157,118.355727 C128.097704,118.627968 128.011136,118.905071 127.921682,119.177312 C127.569639,120.232246 127.206053,121.28718 126.830926,122.332392 C126.793413,122.439344 126.753014,122.546296 126.712616,122.653247 C126.317289,123.747073 125.907534,124.831176 125.48335,125.905557 L111.421822,161.749018 L123.691393,161.749018 L137.752921,125.905557 C138.17999,124.831176 138.58686,123.742212 138.985072,122.653247 C139.022585,122.546296 139.062984,122.439344 139.103382,122.332392 C139.126467,122.264332 139.152437,122.196271 139.175522,122.128211 C139.527565,121.15106 139.86518,120.169047 140.194139,119.177312 C140.283592,118.905071 140.37016,118.632829 140.459614,118.355727 C140.725089,117.539003 140.981908,116.717419 141.232955,115.895834 C141.325294,115.589562 141.417633,115.283291 141.507087,114.97702 C141.824503,113.907501 142.133262,112.82826 142.421822,111.749018 L130.152251,111.749018 C129.860805,112.82826 129.554932,113.90264 129.237516,114.972158 Z"
            id="路径" fill="#31665A" fill-rule="nonzero"
            transform="translate(126.9218, 136.749) rotate(9) translate(-126.9218, -136.749)"></path>
        <path
            d="M355.782491,88.0165493 C355.615126,88.3027914 355.436963,88.584561 355.2642,88.8663306 C354.794499,89.6266611 354.314,90.3780466 353.817304,91.1294322 C353.649939,91.379894 353.487973,91.6348284 353.320609,91.8852902 C352.661947,92.8558298 351.98169,93.8263694 351.279838,94.787964 C351.209653,94.8863597 351.134069,94.9847554 351.058484,95.0831512 C350.31884,96.0894711 349.552201,97.0868459 348.758568,98.0752756 L322.449902,131.05126 L345.405873,131.05126 L371.71454,98.0752756 C372.513571,97.0868459 373.274811,96.0849985 374.019855,95.0831512 C374.09004,94.9847554 374.165624,94.8863597 374.241208,94.787964 C374.284399,94.7253485 374.332989,94.6627331 374.37618,94.6001176 C375.034841,93.7011385 375.666508,92.7976869 376.281979,91.8852902 C376.449344,91.6348284 376.61131,91.3843665 376.778674,91.1294322 C377.27537,90.3780466 377.755869,89.6221886 378.22557,88.8663306 C378.398334,88.584561 378.571097,88.3027914 378.738462,88.0210219 C379.332337,87.0370646 379.910016,86.0441624 380.449902,85.0512601 L357.493931,85.0512601 C356.948645,86.0441624 356.376366,87.0325921 355.782491,88.0165493 Z"
            id="路径" fill="#31665A" fill-rule="nonzero" filter="url(#filter-1)"
            transform="translate(351.4499, 108.0513) rotate(9) translate(-351.4499, -108.0513)"></path>
        <path
            d="M162.266094,153.474933 L176,153.474933 L176,169.565254 L162.266094,169.565254 L162.266094,189.875143 L138.699571,189.875143 L138.699571,169.565254 L90,169.565254 L90,155.150241 L140.025751,91.8751432 L162.266094,91.8751432 L162.266094,153.474933 Z M139.384059,125.088832 C139.637185,119.798534 139.839687,116.728536 140,115.875143 L139.384059,115.875143 C137.447642,119.617511 135.161067,123.2158 132.558083,126.636761 L112,153.875143 L139.000151,153.875143 L139.000151,137.19519 C139.000151,134.420739 139.126714,130.382824 139.384059,125.088832"
            id="形状" fill="#2E8F79" fill-rule="nonzero"
            transform="translate(133, 140.8751) rotate(-7) translate(-133, -140.8751)"></path>
        <path
            d="M391.266094,126.59979 L405,126.59979 L405,142.690111 L391.266094,142.690111 L391.266094,163 L367.699571,163 L367.699571,142.690111 L319,142.690111 L319,128.275098 L369.025751,65 L391.266094,65 L391.266094,126.59979 Z M368.384059,98.2136885 C368.637185,92.923391 368.839687,89.853393 369,89 L368.384059,89 C366.447642,92.7423683 364.161067,96.3406572 361.558083,99.7616177 L341,127 L368.000151,127 L368.000151,110.320047 C368.000151,107.545596 368.126714,103.50768 368.384059,98.2136885"
            id="形状" fill="#2E8F79" fill-rule="nonzero" transform="translate(362, 114) rotate(8) translate(-362, -114)">
        </path>
        <path
            d="M278.639003,106.204752 C284.215367,113.00792 287.003548,122.967408 287,136.077375 C287,149.651593 284.30061,159.695755 278.898286,166.218621 C273.495962,172.738567 265.17759,175.99708 253.939619,176 C243.046175,176 234.830806,172.630534 229.297064,165.894522 C223.763322,159.161429 220.996452,149.22238 221,136.077375 C221,122.365926 223.692286,112.257528 229.069747,105.755101 C234.454313,99.2526735 242.74427,96.0029198 253.939619,96 C264.82596,96 273.059087,99.401584 278.639003,106.204752 Z M263.906941,156.785302 C265.955042,152.643592 266.977336,145.897033 266.973832,136.551413 C266.973832,127.104494 265.94099,120.31452 263.878837,116.187282 C261.816684,112.060043 258.503889,109.996424 253.94748,109.999315 C249.299731,109.999315 245.979911,112.062937 243.980992,116.187282 C241.975048,120.31452 240.973832,127.104494 240.973832,136.551413 C240.973832,146.004121 241.964509,152.773835 243.945862,156.863448 C245.927215,160.955955 249.261088,162.999315 253.94748,162.999315 C258.542533,162.999315 261.865866,160.929907 263.906941,156.785302"
            id="形状" fill="#2C2C2C" fill-rule="nonzero" transform="translate(254, 136) rotate(-3) translate(-254, -136)">
        </path>
        <g id="预热中" transform="translate(175, 34.5) rotate(19) translate(-175, -34.5)translate(162, 18)" fill="#2E8F79"
            fill-rule="nonzero">
            <path
                d="M9.66121167,33 C9.66121167,33 -4.78780299,29.7806667 1.65457451,13.805 C1.65457451,13.805 3.14099187,15.576 2.91858528,16.4376667 C2.91858528,16.4376667 4.06768599,12.4043333 6.54010589,9.999 C8.6640888,7.92366667 10.8288463,2.101 8.8383073,0 C8.8383073,0 18.7057462,2.101 19.7955385,12.6206667 C19.7955385,12.6206667 21.0595493,9.26933333 23.6468793,8.94666667 C23.1490663,10.4410345 23.1490663,12.0539655 23.6468793,13.5483333 C23.6468793,13.5483333 31.8203214,27.742 17.7012098,32.5416667 C17.7012098,32.5416667 21.9232282,27.676 12.9676563,19.3123333 C12.9676563,19.3123333 10.8547937,23.782 9.5944897,25.3623333 C9.5944897,25.3623333 6.07305206,29.3773333 9.5944897,32.9853333 L9.66121167,33 Z"
                id="路径"></path>
        </g>
        <g id="cluster" transform="translate(472.3758, 65.3019)" fill="#1C293A" fill-rule="nonzero">
            <path
                d="M22.2179953,12.9838205 L22.2179953,16.1302119 C28.0624324,16.5512048 32.9192647,20.317993 34.6572002,25.4124133 L36.4367551,25.4124133 C37.6448601,25.4124133 38.6242355,26.3398206 38.6242355,27.4838205 L38.6242355,31.6266723 C38.6242355,32.7707096 37.6448601,33.6981169 36.4367551,33.6981169 L32.0617551,33.6981169 C30.8536108,33.6981169 29.8742355,32.7707096 29.8742355,31.6266723 L29.8742355,27.4838578 C29.8742355,26.3398206 30.8536108,25.4124133 32.0617551,25.4124133 L32.3353329,25.4124133 C30.7116638,21.4754158 26.842003,18.6034472 22.2179953,18.2088153 L22.2179953,25.4124133 L23.3117551,25.4124133 C24.5198601,25.4124133 25.4992355,26.3398206 25.4992355,27.4838205 L25.4992355,31.6266723 C25.4992355,32.7707096 24.5198601,33.6981169 23.3117551,33.6981169 L18.9367158,33.6981169 C17.7286108,33.6981169 16.7492355,32.7707096 16.7492355,31.6266723 L16.7492355,27.4838578 C16.7492355,26.3398206 17.7286108,25.4124133 18.9367158,25.4124133 L20.0304756,25.4124133 L20.0304756,18.2088153 C15.4064679,18.6034472 11.5368071,21.4754158 9.91313799,25.4124133 L10.1867158,25.4124133 C11.3948601,25.4124133 12.3742355,26.3398206 12.3742355,27.4838205 L12.3742355,31.6266723 C12.3742355,32.7707096 11.3948601,33.6981169 10.1867158,33.6981169 L5.81175514,33.6981169 C4.60361081,33.6981169 3.62423545,32.7707096 3.62423545,31.6266723 L3.62423545,27.4838578 C3.62423545,26.3398206 4.60361081,25.4124133 5.81171577,25.4124133 L7.59127067,25.4124133 C9.32920616,20.317993 14.1860385,16.5512048 20.0304756,16.1302119 L20.0304756,12.9838205 L18.9367158,12.9838205 C17.7286108,12.9838205 16.7492355,12.0564132 16.7492355,10.9124133 L16.7492355,6.76956144 C16.7492355,5.62552419 17.7286108,4.69811689 18.9367158,4.69811689 L23.3117551,4.69811689 C24.5198601,4.69811689 25.4992355,5.62552419 25.4992355,6.76956144 L25.4992355,10.912376 C25.4992355,12.0564132 24.5198601,12.9838205 23.3117551,12.9838205 L22.2179953,12.9838205 L22.2179953,12.9838205 Z"
                id="路径" transform="translate(21.1242, 19.1981) rotate(-18) translate(-21.1242, -19.1981)"></path>
        </g>
        <g id="提供服务-(1)" transform="translate(420, 27) rotate(11) translate(-420, -27)translate(405, 12)" fill="#2E8F79"
            fill-rule="nonzero">
            <path
                d="M6.96249999,0.00187470455 C3.11721743,0.00187470455 0,3.11876756 0,6.96364962 C0,10.8085317 3.11721743,13.9254244 6.96249999,13.9254244 L13.92875,13.9254244 L13.92875,6.96364962 C13.9284185,5.11694065 13.1944219,3.34599974 11.888231,2.0404137 C10.5820401,0.734827666 8.81065135,0.00154330496 6.96375001,0.00187470455 L6.96249999,0.00187470455 L6.96249999,0.00187470455 Z M30,6.96364962 C30,3.11773213 26.8819431,0 23.035625,0 C19.1893069,0 16.07125,3.11773213 16.07125,6.96364962 L16.07125,13.9254244 L23.0375,13.9254244 C26.8827826,13.9254244 30,10.8085317 30,6.96364962 Z M0,23.0357254 C0,26.8809526 3.11749725,29.9981252 6.963125,29.9981252 C10.8087528,29.9981252 13.92625,26.8809526 13.92625,23.0357254 L13.92625,16.0739506 L6.96249999,16.0739506 C3.11770554,16.0739506 0.000690279091,19.1900816 0,23.0344755 L0,23.0357254 Z M23.03375,16.0739506 L16.0687499,16.0739506 L16.0687499,23.0357254 C16.0680597,26.8812977 19.1852771,29.9993095 23.0312499,29.9999999 C26.8772228,30.00069 29.9955594,26.8837974 29.9962499,23.0382251 C29.9969402,19.1926528 26.8797228,16.074641 23.03375,16.0739506 L23.03375,16.0739506 Z"
                id="形状"></path>
        </g>
        <g id="版本" transform="translate(289, 50)" fill="#1C293A" fill-rule="nonzero">
            <path
                d="M30.1134744,17.6300744 L16.9609932,23.9451004 C15.7025289,24.5315354 15.2015045,24.5315354 14.0390068,23.9451004 L0.886555886,17.6300744 C0.189057248,17.2341663 0,15.7680789 0,14.9683509 C0.878987541,15.5036019 2.11202224,16.1013393 2.06706628,16.0708227 L15.5,22.6855247 L28.9329337,16.0708227 C28.9568497,16.0645256 30.1540104,15.4202868 31,14.9683509 C31,15.7871316 30.7614761,17.3061789 30.1134744,17.6300744 L30.1134744,17.6300744 Z M30.1134744,11.0136286 L16.9609932,17.3303984 C15.7025289,17.9152187 15.2015045,17.9152187 14.0390068,17.3303984 L0.886555886,11.0136286 C-0.145554403,10.4288083 -0.11397927,8.58441231 0.886555886,7.89535125 L14.0390068,0.477788812 C15.2015045,-0.142327391 15.9274601,-0.175976356 16.9609932,0.477788812 L30.1134441,7.89535125 C31.1140095,8.48188307 31.0810116,10.5329522 30.1134744,11.0136286 L30.1134744,11.0136286 Z M15.5,1.73736453 C15.6126485,1.78073815 15.6525349,1.95452454 15.5,1.73736453 L15.5,1.73736453 Z M15.5,29.3019705 L28.9329337,22.6854924 C28.9568497,22.6806485 30.1540104,22.0349565 31,21.5830206 C31,22.4019628 30.7614458,23.9226247 30.1134441,24.2445827 L16.9609932,30.5613848 C15.7025289,31.1462051 15.2015045,31.1462051 14.0390068,30.5613848 L0.886555886,24.244615 C0.189057248,23.8490297 0,22.3842341 0,21.5830206 C0.878987541,22.1199185 2.11202224,22.7160413 2.06706628,22.6855247 L15.5,29.3019705 L15.5,29.3019705 Z"
                id="形状"></path>
        </g>
        <g id="15安全" transform="translate(39, 57) rotate(-9) translate(-39, -57)translate(8, 28)" fill-rule="nonzero">
            <g id="bg" fill="#2E8F79">
                <path
                    d="M32.8053143,55.7584099 C45.6027678,58.4673821 61.7264902,45.0735044 62,28.9642687 C61.2293819,13.1641404 48.5871178,-0.112390628 31.430588,0.000717425236 C14.2740583,0.113825479 2.98351726,16.7369528 2.23590242,28.9642687 C1.36332701,42.8958097 15.3721279,54.3387555 32.8053143,55.7584099 Z"
                    id="1" opacity="0.200000003"></path>
                <path
                    d="M27.4654482,57.9776186 C42.2260461,58.6213044 55.2553298,45.2611206 54.9308964,33.3500578 C53.3941336,17.7573702 42.6341964,5.4950478 27.4654482,6.57439838 C12.2967,7.65374898 0,18.6798836 0,31.2019591 C0.404406342,41.1896852 12.8418015,56.2468992 27.4654482,57.9776186 Z"
                    id="2" opacity="0.300000012"></path>
                <path
                    d="M29.4187643,52.8312608 C46.5745539,55.7582322 58.4150068,42.9672866 58.3480567,28.9243337 C59.4147307,15.6705233 42.9546215,1.34068325 27.7750125,1.81952215 C11.8725943,1.81952215 2.02971657,13.786173 2.19939487,26.3136557 C3.06435426,33.0966257 6.84983704,50.3645724 29.4187643,52.8312608 Z"
                    id="3" opacity="0.400000006"></path>
                <path
                    d="M27.3330137,52.2793115 C42.6638375,55.3008656 54.6588028,51.4746036 54.4915449,28.9270945 C51.1110551,12.1572385 38.5561637,6.27883381 28.5640661,6.37614919 C10.3981525,7.08445923 3.35655869,16.7831616 2.63658513,28.9270945 C3.85514851,36.1076198 10.9032477,50.5639166 27.3330137,52.2793115 Z"
                    id="4" opacity="0.400000006"></path>
                <path
                    d="M27.6512699,46.8505602 C42.2624687,44.9186368 52.1105816,36.1303502 52.3494109,25.9807095 C54.1698754,11.3179076 43.2535869,3.26983689 28.7498879,4.0261536 C15.7141675,7.02246237 8.41814291,14.9706748 6.6151887,25.9807095 C6.59842333,35.4672271 5.16509208,50.6098628 27.6512699,46.8505602 Z"
                    id="5" opacity="0.600000024"></path>
            </g>
            <path
                d="M30.99998,27.6608975 L30.99998,45.4901961 C30.7933899,45.4386245 30.5895984,45.3780335 30.3892955,45.3086341 L30.2695383,45.2659392 C30.0378148,45.1804946 29.8163752,45.0730304 29.6088007,44.9452875 L29.6080817,44.9453916 C28.5688218,44.2169083 27.5460873,43.4686298 26.5405305,42.7010434 L26.1642532,42.4122944 C25.2669509,41.7221075 24.412728,40.9857522 23.6056604,40.2067644 L23.4334398,40.0391865 C22.7056961,39.3246144 22.0440781,38.5552949 21.4554524,37.7392937 L21.3459411,37.585747 C20.7755698,36.7670424 20.2867146,35.9025722 19.8852848,35.0029183 L19.8153519,34.8437902 C19.3666848,33.7995744 19.0175677,32.7212964 18.7719689,31.6212066 C18.5047689,30.4564098 18.3021898,29.1356363 18.1627812,27.6608975 L30.99998,27.6608975 Z M31,13.6470588 L31,25.5761847 L18.0241074,25.5761847 C17.977638,24.6992389 17.9427859,23.7854758 17.919551,22.8342273 C17.8956135,21.8136234 17.8839947,20.7926879 17.8846409,19.7717303 C17.8846409,19.5024866 18.1129702,19.3288495 18.5701791,19.2500972 L18.6151374,19.2427726 C19.1254996,19.1676505 19.6376298,19.1031997 20.151134,19.0494679 L20.4594001,19.0185154 C21.2779866,18.9316402 22.0907463,18.803139 22.8939557,18.633599 C23.7415232,18.458519 24.5461249,18.1311857 25.3077638,17.6498112 L25.398954,17.5913068 C25.8981043,17.285482 26.3744437,16.949232 26.8247953,16.5848289 L26.9470028,16.484724 L27.6332176,15.9150333 L27.6332176,15.9150333 L28.3207609,15.346702 C28.6882244,15.0424503 29.0674298,14.7505016 29.4576359,14.4714235 L29.6255385,14.3526082 C30.0448501,14.0581916 30.5076929,13.8206016 31,13.6470588 Z"
                id="形状结合" fill="url(#linearGradient-2)"></path>
            <path
                d="M32.1929949,26.1568627 L44.1153846,26.1568627 C44.0068946,27.7417197 43.8394127,29.1496006 43.6122626,30.3783461 C43.3844332,31.6078131 43.0921868,32.7336821 42.7348496,33.7559602 L42.7348494,33.7559606 C42.3897839,34.7522521 41.9432314,35.7055986 41.4031316,36.5990543 L41.4031318,36.5990542 C40.8398963,37.517198 40.2098662,38.3872135 39.5187945,39.2011491 L39.5187955,39.2011479 C38.7211323,40.1398116 37.8809226,41.0367712 37.0011448,41.8888499 L37.0011528,41.8888421 C35.9371919,42.926005 34.8653864,43.9540764 33.7858289,44.9729518 L33.7858289,44.9729518 C33.2917749,45.2545964 32.7503179,45.4303494 32.1923077,45.4901961 L32.1923077,26.1568627"
                id="路径" fill="#FFFFFF"></path>
            <path
                d="M37.2063551,17.2339831 L37.2063553,17.2339833 C37.8528349,17.6745038 38.596078,17.9703654 39.3802954,18.0993618 C40.1759417,18.2327108 40.9240125,18.3216102 41.6252351,18.3653653 C42.3264578,18.4098148 42.9171545,18.4487084 43.3965948,18.4820457 C43.8753009,18.5153829 44.1153846,18.6424812 44.1153846,18.864034 C44.1153846,21.1712485 44.0802502,23.2228796 44.0099814,25.0196078 L31,25.0196078 L31,12.5098039 C31.5841092,12.643153 32.1345491,12.8917922 32.6483893,13.258502 L32.6483904,13.2585027 C33.1752277,13.6347449 33.6732406,14.0460106 34.1386682,14.4892007 C34.618105,14.9441143 35.1033986,15.4156997 35.5938184,15.9032569 C36.0849691,16.3915076 36.6229643,16.8353099 37.2070735,17.23397"
                id="路径" fill="#FFFFFF"></path>
        </g>
        <g id="孵化器1" transform="translate(348, 205) rotate(6) translate(-348, -205)translate(333, 190)" fill="#2E8F79"
            fill-rule="nonzero">
            <path
                d="M15,0 C4.995,0 0,4.995 0,15 C0,25.005 4.995,30 15,30 C25.005,30 30,25.005 30,15 C30,4.995 25.005,0 15,0 Z M19.59,8.85 C19.785,8.655 20.1,8.655 20.295,8.85 L20.31,8.865 C20.49,9.06 20.49,9.345 20.295,9.525 L19.035,10.74 C18.825,10.485 18.6,10.26 18.345,10.035 L19.59,8.85 Z M14.49,7.605 C14.49,7.335 14.715,7.125 14.985,7.125 C15.255,7.125 15.48,7.335 15.48,7.605 L15.48,9.24 C15.315,9.225 15.165,9.21 15,9.21 L14.97,9.21 C14.805,9.21 14.64,9.21 14.49,9.24 L14.49,7.605 L14.49,7.605 Z M9.705,8.85 C9.9,8.655 10.215,8.655 10.41,8.85 L11.655,10.05 C11.4,10.26 11.175,10.5 10.965,10.755 L9.705,9.54 L9.69,9.525 C9.51,9.33 9.51,9.03 9.705,8.85 Z M7.5,13.95 C7.5,13.68 7.725,13.47 7.995,13.47 L9.78,13.47 C9.75,13.695 9.735,13.92 9.735,14.145 L9.735,14.415 L7.995,14.415 C7.725,14.43 7.5,14.22 7.5,13.95 L7.5,13.95 Z M10.41,19.05 C10.215,19.23 9.9,19.23 9.705,19.05 L9.69,19.035 C9.51,18.84 9.51,18.555 9.705,18.375 L10.695,17.43 C10.89,17.715 11.115,17.955 11.325,18.18 L10.41,19.05 Z M16.275,22.875 L13.725,22.875 C13.455,22.875 13.245,22.665 13.245,22.41 C13.245,22.155 13.455,21.96 13.725,21.96 L16.275,21.96 C16.53,21.96 16.755,22.155 16.755,22.41 C16.755,22.665 16.545,22.875 16.275,22.875 Z M16.275,21.72 L13.725,21.72 C13.455,21.72 13.245,21.525 13.245,21.27 C13.245,21.015 13.455,20.805 13.725,20.805 L16.275,20.805 C16.53,20.805 16.755,21 16.755,21.27 C16.755,21.51 16.545,21.72 16.275,21.72 Z M17.565,18.135 C17.505,18.21 17.49,18.285 17.475,18.33 C17.385,18.735 17.385,19.26 17.385,19.38 L17.385,19.41 C17.385,19.995 16.89,20.475 16.275,20.475 L15.345,20.475 L15.345,16.32 L16.575,15.12 L16.59,15.105 C16.725,14.955 16.725,14.73 16.575,14.595 C16.425,14.445 16.185,14.445 16.035,14.595 L14.955,15.645 L13.875,14.595 C13.725,14.445 13.485,14.445 13.335,14.595 L13.32,14.61 C13.185,14.76 13.185,14.985 13.335,15.12 L14.565,16.32 L14.565,20.475 L13.71,20.475 C13.095,20.475 12.6,19.995 12.6,19.41 L12.6,19.365 C12.6,19.245 12.6,18.72 12.51,18.315 C12.495,18.24 12.435,18.135 12.33,17.985 C12.225,17.85 12.06,17.685 11.88,17.505 C11.505,17.13 11.055,16.635 10.755,15.915 C10.56,15.435 10.425,14.85 10.425,14.13 C10.425,13.14 10.77,12.225 11.355,11.475 C11.88,10.815 12.57,10.305 13.365,10.02 L13.365,9.99 L13.695,9.9 C13.965,9.825 14.235,9.78 14.52,9.75 L14.565,9.75 C14.7,9.765 14.85,9.75 14.985,9.75 L15.015,9.75 C15.165,9.75 15.315,9.765 15.45,9.78 L15.495,9.78 C15.765,9.81 16.05,9.855 16.32,9.93 L16.665,10.035 L16.665,10.065 C17.46,10.35 18.15,10.86 18.66,11.52 C19.245,12.255 19.59,13.17 19.59,14.175 C19.59,15.105 19.365,15.825 19.05,16.38 C18.735,16.935 18.345,17.325 18.045,17.64 C17.82,17.82 17.655,18 17.565,18.135 L17.565,18.135 Z M20.295,19.05 C20.1,19.23 19.785,19.23 19.59,19.05 L18.675,18.18 C18.885,17.955 19.095,17.715 19.305,17.43 L20.295,18.375 L20.31,18.39 C20.49,18.57 20.49,18.87 20.295,19.05 Z M22.005,14.43 L20.265,14.43 L20.265,14.16 C20.265,13.935 20.25,13.71 20.22,13.485 L22.005,13.485 C22.275,13.485 22.5,13.695 22.5,13.965 C22.5,14.22 22.275,14.43 22.005,14.43 L22.005,14.43 Z"
                id="形状"></path>
        </g>
        <g id="沙箱环境" transform="translate(215, 228) rotate(-4) translate(-215, -228)translate(201, 213)" fill="#2E8F79"
            fill-rule="nonzero">
            <path
                d="M0,9.57479831 L12.4855308,16.355391 L12.4855308,30 L0.341488057,23.2679094 C0.133152954,23.1528846 0.00452838685,22.9399082 0.00404127878,22.7091653 L0.00404127878,9.57479831 L0,9.57479831 Z M27.9979794,10.2227863 L28,22.7091653 C28,22.9400352 27.8726997,23.1534445 27.6645739,23.2679094 L15.851916,29.813752 L15.851916,16.2021244 L27.9979794,10.2227863 Z M14.6738832,0.173152474 L27.0705059,7.04492911 L14.0212167,13.4782468 L1.54780977,6.70153428 L13.3281374,0.173152474 C13.7443891,-0.0577174915 14.2576315,-0.0577174915 14.6738832,0.173152474 Z"
                id="形状"></path>
        </g>
        <g id="token-(1)" transform="translate(49, 219) rotate(5) translate(-49, -219)translate(31, 196)" fill="#2C2C2C"
            fill-rule="nonzero">
            <path
                d="M13.773913,17.6438356 C13.773913,20.1643836 15.8086957,22.2123288 18.3130435,22.2123288 C20.8173913,22.2123288 22.8521739,20.1643836 22.8521739,17.6438356 C22.8521739,15.1232877 20.8173913,13.0753425 18.3130435,13.0753425 C15.8086957,13.0753425 13.773913,15.1232877 13.773913,17.6438356 L13.773913,17.6438356 Z"
                id="路径"></path>
            <path
                d="M18,0 C12.0521739,4.09589041 5.94782609,6.14383562 0,6.14383562 L0,20.6369863 C0,28.8287671 4.06956522,36.390411 10.6434783,40.9589041 L18,46 L25.3565217,40.9589041 C31.9304348,36.390411 36,28.6712329 36,20.6369863 L36,6.14383562 C29.8956522,6.14383562 23.9478261,4.09589041 18,0 Z M19.7217391,25.2054795 L19.7217391,28.1986301 L24.2608696,28.1986301 L24.2608696,31.3493151 L19.7217391,31.3493151 L19.7217391,36.2328767 L16.7478261,36.2328767 L16.7478261,25.3630137 C13.3043478,24.5753425 10.6434783,21.5821918 10.6434783,17.8013699 C10.6434783,13.5479452 14.0869565,10.0821918 18.3130435,10.0821918 C22.5391304,10.0821918 25.9826087,13.5479452 25.9826087,17.8013699 C25.9826087,21.4246575 23.3217391,24.4178082 19.7217391,25.2054795 Z"
                id="形状"></path>
        </g>
    </g>
</svg>