<svg width="141.176471px" height="141.176471px" viewBox="0 0 141.176471 141.176471" version="1.1"
    xmlns="http://www.w3.org/2000/svg" xmlns:xlink="http://www.w3.org/1999/xlink">
    <g id="页面-1" stroke="none" stroke-width="1" fill="none" fill-rule="evenodd">
        <path
            d="M105.882353,0 L105.882353,23.5411766 L141.176471,23.5411766 L141.176471,141.176471 L105.882353,141.176471 L105.882353,117.647059 L117.647059,117.647059 L117.647059,47.0705883 L23.5411766,47.0705883 L23.5411766,117.647059 L35.3058824,117.647059 L35.3058824,141.176471 L0,141.176471 L0,23.5411766 L35.3058824,23.5411766 L35.3058824,0 L105.882353,0 Z M87.2141691,60 C88.9265871,60 90.3276564,61.5 90.3276564,63.3333333 L90.3276564,91.4166667 C90.3276564,93.25 91.7287257,94.75 93.4411437,94.75 L102.236745,94.75 C105.038884,94.75 106.362116,98.3333333 104.416186,100.416667 L73.0478018,134 C71.8024069,135.333333 69.8564773,135.333333 68.6110824,134 L37.2426978,100.416667 C35.2967682,98.25 36.6978375,94.6666667 39.4999761,94.6666667 L48.2955777,94.6666667 C50.0079958,94.6666667 51.409065,93.1666667 51.409065,91.3333333 L51.409065,63.3333333 C51.409065,61.5 52.8101343,60 54.5225523,60 L87.2141691,60 Z"
            id="形状" fill="#919EAB" fill-rule="nonzero"></path>
    </g>
</svg>