<svg t="1732867295209" class="icon" viewBox="0 0 1024 1024" version="1.1" xmlns="http://www.w3.org/2000/svg" p-id="58870" width="200" height="200"><path d="M960 865.7c0 51.9-42.4 94.3-94.3 94.3H158.3c-51.9 0-94.3-42.4-94.3-94.3V323.4c0-51.9 42.4-94.3 94.3-94.3h113.2l63.7-134.4C342.3 75.8 361.1 64 380 64h264c21.2 0 37.7 11.8 44.8 30.7l63.7 134.4h113.2c51.9 0 94.3 42.4 94.3 94.3v542.3z m-104.2-80.6V427.5c0-25.9-21.2-47.2-47.2-47.2H215.3c-25.9 0-47.2 21.2-47.2 47.2v357.6c0 25.9 21.2 47.2 47.2 47.2h593.4c25.9 0 47.1-21.3 47.1-47.2z m-108-84.5c0 14.1-9.4 23.6-23.6 23.6h-35.4v-82.5c0-18.9-16.5-35.4-35.4-35.4S618 622.8 618 641.7v82.5h-70.7v-82.5c0-18.9-16.5-35.4-35.4-35.4s-35.4 16.5-35.4 35.4v82.5h-70.7v-82.5c0-18.9-16.5-35.4-35.4-35.4S335 622.8 335 641.7v82.5h-35.4c-14.1 0-23.6-9.4-23.6-23.6V512c0-14.1 9.4-23.6 23.6-23.6H724c14.1 0 23.6 9.4 23.6 23.6v188.6z" fill="#919EAB" p-id="58871"></path></svg>