
<svg width="168.842561px" height="157.5px" viewBox="0 0 168.842561 157.5" version="1.1" xmlns="http://www.w3.org/2000/svg" xmlns:xlink="http://www.w3.org/1999/xlink">
    <g id="页面-1" stroke="none" stroke-width="1" fill="none" fill-rule="evenodd">
        <polygon id="路径" fill="#515151" fill-rule="nonzero" points="91.5603161 53 91.5603161 109.599416 117.520383 85.7060223 127.75 95.1126608 84.4188852 135 84.2548253 134.840415 84.0811148 135 40.75 95.1126608 50.9892679 85.7148881 77.0844426 109.714672 77.0844426 53"></polygon>
        <g id="编组" fill="#515151" fill-rule="nonzero">
            <path d="M154.630057,157.5 L15.2095138,157.5 C7.12191517,157.5 0,150.565299 0,142.690299 L0,61.0018657 C0,53.1268657 7.12191517,46.1921642 15.2095138,46.1921642 L19.1929578,46.1921642 L19.1929578,37.3768657 C19.1929578,28.5615672 26.314873,21.6268657 35.368155,21.6268657 L48.5255915,21.6268657 L48.5255915,13.7518657 C48.5255915,5.87686567 54.5611128,0 62.6487114,0 L106.104465,0 C114.192064,0 120.227585,5.87686567 120.227585,13.7518657 L120.227585,21.6268657 L133.385021,21.6268657 C142.438303,21.6268657 149.560219,28.5615672 149.560219,37.3768657 L149.560219,46.1921642 L153.543663,46.1921642 C161.631261,46.1921642 168.753176,53.1268657 168.753176,61.0018657 L168.753176,142.690299 C169.71886,150.565299 162.717655,157.5 154.630057,157.5 Z M15.2095138,57.1231343 C13.1574365,57.1231343 11.2260697,59.1212687 11.2260697,61.0018657 L11.2260697,142.690299 C11.2260697,144.688433 13.2781469,146.56903 15.2095138,146.56903 L154.630057,146.56903 C156.682134,146.56903 158.613501,144.570896 158.613501,142.690299 L158.613501,61.0018657 C158.613501,59.0037313 156.561423,57.1231343 154.630057,57.1231343 L145.576775,57.1231343 C142.559014,57.1231343 140.506937,55.125 140.506937,52.1865672 L140.506937,37.3768657 C140.506937,34.4384328 138.454859,31.5 134.471415,31.5 L115.278457,31.5 C112.260697,31.5 110.20862,29.5018657 110.20862,26.5634328 L110.20862,13.7518657 C110.20862,11.7537313 108.156542,9.87313433 106.225175,9.87313433 L63.6143948,9.87313433 C61.5623176,10.8134328 59.6309508,11.8712687 59.6309508,13.7518657 L59.6309508,26.5634328 C59.6309508,29.5018657 57.5788735,31.5 54.5611128,31.5 L35.368155,31.5 C32.3503943,32.4402985 30.2983171,34.4384328 30.2983171,37.3768657 L30.2983171,51.1287313 C30.2983171,54.0671642 28.2462398,56.0652985 25.2284792,56.0652985 C24.2627958,57.1231343 15.2095138,57.1231343 15.2095138,57.1231343 Z" id="形状"></path>
        </g>
    </g>
</svg>