
<svg width="179.333333px" height="174.583333px" viewBox="0 0 179.333333 174.583333" version="1.1" xmlns="http://www.w3.org/2000/svg" xmlns:xlink="http://www.w3.org/1999/xlink">
    <g id="页面-1" stroke="none" stroke-width="1" fill="none" fill-rule="evenodd">
        <path d="M118.629433,29.1416666 L98.4166666,15.8083334 L118.629433,2.475 L120.650709,2.475 L120.650709,10.475 L131.969858,10.475 C155.416667,10.475 174.416667,23.0083334 174.416667,38.475 L159.863475,38.475 C159.863475,28.3416666 147.33156,20.075 131.969858,20.075 L120.650709,20.075 L120.650709,28.875 L118.629433,28.875 L118.629433,29.1416666 Z M60.3705672,145.058333 L80.5833332,158.391667 L60.3705672,171.725 L58.3492907,171.725 L58.3492907,163.725 L47.0301417,163.725 C23.5874167,163.725 4.5833332,151.188973 4.5833332,135.725 L19.1365247,135.725 C19.1365247,145.858333 31.6684395,154.125 47.0301417,154.125 L58.3492907,154.125 L58.3492907,145.058333 L60.3705672,145.058333 Z M43.25,0 C26.5833334,0 13.25,13.3333334 13.25,30 C13.25,46.6666666 26.5833334,60 43.25,60 C59.9166666,60 73.25,46.6666666 73.25,30 C73.25,13.3333334 59.5,0 43.25,0 Z M43.25,50 C32.1388888,50 23.25,41.1111112 23.25,30 C23.25,18.8888888 32.1388888,10 43.25,10 C54.3611112,10 63.25,18.8888888 63.25,30 C63.25,41.1111112 54.3611112,50 43.25,50 Z M136.166667,60 C119.5,60 106.166667,73.3333334 106.166667,90 C106.166667,106.666667 119.5,120 136.166667,120 C152.833333,120 166.166667,106.666667 166.166667,90 C166.166667,73.3333334 152.833333,60 136.166667,60 Z M136.166667,111 C125.055555,111 116.166667,102.111111 116.166667,91 C116.166667,79.8888888 125.055555,71 136.166667,71 C147.277778,71 156.166667,79.8888888 156.166667,91 C156.166667,102.111111 147.277778,111 136.166667,111 Z M59.8797497,66.25 L25.4971838,66.25 C11.589629,66.25 0,77.3706896 0,90.7155172 L0,109.25 L84.9906126,109.25 L84.9906126,90.7155172 C85.3769335,77 73.7873045,66.25 59.8797497,66.25 L59.8797497,66.25 Z M74,99.5833334 L12,99.5833334 L12,91.9469697 C12,82.6742424 17.8255034,75.5833334 24.4832215,75.5833334 L61.1006712,75.5833334 C68.1744968,75.5833334 73.5838927,82.6742424 73.5838927,91.9469697 L73.5838927,99.5833334 L74,99.5833334 Z M153.833333,131.583333 L119.833333,131.583333 C105.924242,131.583333 94.3333332,142.24449 94.3333332,155.037879 L94.3333332,174.583333 L179.333333,174.583333 L179.333333,155.037879 C179.333333,141.889119 167.742424,131.583333 153.833333,131.583333 L153.833333,131.583333 Z M167.333333,165.583333 L105.333333,165.583333 L105.333333,156.277211 C105.333333,147.95068 110.779279,141.583333 117.900901,141.583333 L154.765766,141.583333 C161.887387,141.583333 167.333333,147.95068 167.333333,156.277211 L167.333333,165.583333 Z" id="形状" fill="#707070" fill-rule="nonzero"></path>
    </g>
</svg>