<svg width="166.35px" height="165.325px" viewBox="0 0 166.35 165.325" version="1.1" xmlns="http://www.w3.org/2000/svg"
    xmlns:xlink="http://www.w3.org/1999/xlink">
    <g id="页面-1" stroke="none" stroke-width="1" fill="none" fill-rule="evenodd">
        <g id="编组" fill="#919EAB" fill-rule="nonzero">
            <path
                d="M89.1375,116.2 C67.9573798,116.2 50.7875,99.0301202 50.7875,77.85 C50.7875,56.6698798 67.9573798,39.5 89.1375,39.5 C110.31762,39.5 127.4875,56.6698798 127.4875,77.85 C127.374707,98.9832234 110.270723,116.087207 89.1375,116.2 L89.1375,116.2 Z"
                id="形状"></path>
            <path
                d="M145.925,45.8 C134.661258,45.7725492 125.535208,36.8754881 125.5,25.8875 C125.5,14.925 134.687406,5.9625 145.925,5.9625 C157.14978,5.9625 166.35,14.925 166.35,25.8875 C166.35,36.8375 157.14978,45.8 145.925,45.8 L145.925,45.8 Z"
                id="形状"></path>
            <polygon id="路径"
                points="112.325 56.0911521 131.352877 37.8625 134.325 40.6338479 115.297123 58.8625 112.325 56.0911521">
            </polygon>
            <path
                d="M1.6625,19.925 C1.6625,26.4375 5.1375,32.4625 10.775,35.7375 C18.4504476,40.1656028 28.1971496,38.4448229 33.8922752,31.656146 C39.5874008,24.8674691 39.5874008,14.9700309 33.8922752,8.18135398 C28.1971496,1.39267706 18.4504476,-0.328102778 10.775,4.1 C5.13458292,7.37432795 1.66305421,13.4030733 1.6625,19.925 L1.6625,19.925 Z"
                id="路径"></path>
            <path
                d="M19.9125,39.8375 C8.92937373,39.8031882 0.0343117981,30.9081263 0,19.925 C0,8.975 8.9625,0 19.9125,0 C30.8625,0 39.825,8.9625 39.825,19.925 C39.7975178,30.9109664 30.8984664,39.8100178 19.9125,39.8375 L19.9125,39.8375 Z M19.9125,3.325 C10.6125,3.325 3.3125,10.625 3.3125,19.925 C3.3125,29.225 10.6125,36.525 19.9125,36.525 C29.2125,36.525 36.5125,29.225 36.5125,19.925 C36.5125,10.625 29.2125,3.325 19.9125,3.325 Z"
                id="形状"></path>
            <path
                d="M31.8875,32.2125 L33.875,29.5625 L62.0125,50.7 L60.0125,53.3375 L31.8875,32.2125 L31.8875,32.2125 Z M49.05,120.05 L61,98.95 L63.8875,100.6 L51.9375,121.6625 L49.05,120.05 Z"
                id="形状"></path>
            <path
                d="M42.83751,152.062353 C37.6261727,152.114094 32.6129966,150.067762 28.9264553,146.383989 C25.2399139,142.700215 23.1898101,137.688571 23.2376252,132.477186 C23.2376252,121.481745 31.8716106,112.8625 42.83751,112.8625 C53.8181684,112.8625 62.4373949,121.481745 62.4373949,132.477186 C62.4811647,137.687355 60.4297619,142.696639 56.7441066,146.379527 C53.0584512,150.062415 48.0476334,152.110048 42.83751,152.062353 L42.83751,152.062353 Z M42.83751,116.1875 C34.2182836,116.1875 27.1487468,122.1625 27.1487468,129.475 C27.1487468,136.7625 34.2035246,142.75 42.83751,142.75 C51.4714954,142.75 58.5115143,136.7625 58.5115143,129.475 C58.5115143,122.15 51.4714954,116.1875 42.83751,116.1875 Z M42.83751,116.1875 C34.2182836,116.1875 27.1487468,122.1625 27.1487468,129.475 C27.1487468,136.7625 34.2035246,142.75 42.83751,142.75 C51.4714954,142.75 58.5115143,136.7625 58.5115143,129.475 C58.5115143,122.15 51.4714954,116.1875 42.83751,116.1875 Z"
                id="形状"></path>
            <path
                d="M107.875,147.5375 C107.875,157.361265 115.838735,165.325 125.6625,165.325 C135.486265,165.325 143.45,157.361265 143.45,147.5375 C143.45,137.713735 135.486265,129.75 125.6625,129.75 C115.838735,129.75 107.875,137.713735 107.875,147.5375 Z"
                id="路径"></path>
            <polygon id="路径"
                points="103.625 110.3125 106.262549 109.3125 120.625 133.3125 117.965287 134.3125 103.625 110.3125">
            </polygon>
        </g>
    </g>
</svg>