<svg t="1726035611257" class="icon" viewBox="0 0 1024 1024" version="1.1" xmlns="http://www.w3.org/2000/svg" p-id="177065" width="200" height="200"><path d="M512 528.384c55.979008-1.364992 102.4-20.48 139.264-57.344s55.979008-83.284992 57.344-139.264c-1.364992-55.979008-20.48-102.4-57.344-139.264s-83.284992-55.979008-139.264-57.344c-55.979008 1.364992-102.4 20.48-139.264 57.344s-55.979008 83.284992-57.344 139.264c1.364992 55.979008 20.48 102.4 57.344 139.264s83.284992 55.979008 139.264 57.344z m0 65.536c-74.411008-2.048-136.192-27.648-185.344-76.8s-74.752-110.932992-76.8-185.344c2.048-74.411008 27.648-136.192 76.8-185.344s110.932992-74.752 185.344-76.8c74.411008 2.048 136.192 27.648 185.344 76.8s74.752 110.932992 76.8 185.344c-2.048 74.411008-27.648 136.192-76.8 185.344s-110.932992 74.752-185.344 76.8z m327.68 327.68v-98.304c-0.683008-27.988992-10.24-51.2-28.672-69.632s-41.643008-27.988992-69.632-28.672H282.624c-27.988992 0.683008-51.2 10.24-69.632 28.672s-27.988992 41.643008-28.672 69.632v98.304c0 9.556992-3.072 17.408-9.216 23.552s-13.995008 9.216-23.552 9.216-17.408-3.072-23.552-9.216-9.216-13.995008-9.216-23.552v-98.304c1.364992-46.420992 17.408-84.992 48.128-115.712s69.291008-46.763008 115.712-48.128h458.752c46.420992 1.364992 84.992 17.408 115.712 48.128s46.763008 69.291008 48.128 115.712v98.304c0 9.556992-3.072 17.408-9.216 23.552s-13.995008 9.216-23.552 9.216-17.408-3.072-23.552-9.216-9.216-13.995008-9.216-23.552z" p-id="177066" fill="#1b283a"></path></svg>
