<?xml version="1.0" standalone="no"?><!DOCTYPE svg PUBLIC "-//W3C//DTD SVG 1.1//EN" "http://www.w3.org/Graphics/SVG/1.1/DTD/svg11.dtd"><svg t="1691045605726" class="icon" viewBox="0 0 1024 1024" version="1.1" xmlns="http://www.w3.org/2000/svg" p-id="1818" xmlns:xlink="http://www.w3.org/1999/xlink" width="64" height="64"><path d="M486.881882 602.834824v80.353882a240.941176 240.941176 0 0 0-240.941176 240.941176H165.647059a321.234824 321.234824 0 0 1 321.234823-321.295058z m0-40.116706c-133.12 0-240.941176-107.821176-240.941176-240.941177s107.821176-240.941176 240.941176-240.941176 240.941176 107.821176 240.941177 240.941176-107.821176 240.941176-240.941177 240.941177z m0-80.353883a160.587294 160.587294 0 1 0 0-321.234823 160.587294 160.587294 0 1 0 0 321.234823z m104.207059 313.705412a140.950588 140.950588 0 0 1 0-65.174588l-39.815529-23.009883 40.176941-69.511529 39.755294 23.009882c16.022588-15.179294 35.358118-26.322824 56.500706-32.647529v-45.959529h80.293647v45.959529c21.383529 6.384941 40.658824 17.709176 56.440471 32.647529l39.755294-23.009882 40.237176 69.511529-39.875765 23.009883c5.12 21.443765 5.12 43.730824 0 65.174588l39.875765 23.009882-40.176941 69.51153-39.815529-23.009883a140.348235 140.348235 0 0 1-56.440471 32.64753v45.959529h-80.293647v-45.959529a140.348235 140.348235 0 0 1-56.440471-32.64753l-39.815529 23.009883-40.176941-69.51153 39.815529-23.009882z m136.734118 27.648a60.235294 60.235294 0 1 0 0-120.470588 60.235294 60.235294 0 0 0 0 120.470588z" fill="#000000" p-id="1819"></path></svg>