<?xml version="1.0" standalone="no"?><!DOCTYPE svg PUBLIC "-//W3C//DTD SVG 1.1//EN" "http://www.w3.org/Graphics/SVG/1.1/DTD/svg11.dtd"><svg t="1688976366371" class="icon" viewBox="0 0 1024 1024" version="1.1" xmlns="http://www.w3.org/2000/svg" p-id="1612" xmlns:xlink="http://www.w3.org/1999/xlink" width="64" height="64"><path d="M917.333333 170.666667a64 64 0 0 1 64 64v554.666666a64 64 0 0 1-64 64H106.666667a64 64 0 0 1-64-64V234.666667a64 64 0 0 1 64-64h810.666666z m0 64H106.666667v554.666666h810.666666V234.666667z m-576 74.666666a117.333333 117.333333 0 0 1 52.650667 222.208A160.021333 160.021333 0 0 1 501.333333 682.666667a32 32 0 0 1-64 0 96 96 0 1 0-192 0 32 32 0 0 1-64 0 160.064 160.064 0 0 1 107.306667-151.125334A117.333333 117.333333 0 0 1 341.333333 309.333333z m362.666667 298.666667a32 32 0 0 1 3.072 63.850667L704 672h-96a32 32 0 0 1-3.072-63.850667l3.072-0.149333H704z m85.333333-128a32 32 0 0 1 3.072 63.850667L789.333333 544h-181.333333a32 32 0 0 1-3.072-63.850667l3.072-0.149333H789.333333z m-448-106.666667a53.333333 53.333333 0 1 0 0 106.666667 53.333333 53.333333 0 0 0 0-106.666667z m469.333334-21.333333a32 32 0 0 1 3.072 63.850667L810.666667 416h-202.666667a32 32 0 0 1-3.072-63.850667l3.072-0.149333H810.666667z" fill="#000000" p-id="1613"></path></svg>