<?xml version="1.0" standalone="no"?><!DOCTYPE svg PUBLIC "-//W3C//DTD SVG 1.1//EN" "http://www.w3.org/Graphics/SVG/1.1/DTD/svg11.dtd"><svg t="1690878972478" class="icon" viewBox="0 0 1024 1024" version="1.1" xmlns="http://www.w3.org/2000/svg" p-id="809" xmlns:xlink="http://www.w3.org/1999/xlink" width="64" height="64"><path d="M230.163692 805.966769l150.764308-61.952a87.197538 87.197538 0 0 0 28.829538-19.219692l307.712-308.814769-140.957538-140.957539-307.712 308.814769a87.827692 87.827692 0 0 0-19.219692 28.829539l-61.912616 150.764308a32.571077 32.571077 0 0 0 42.496 42.535384z" fill="#1C293A" p-id="810"></path><path d="M764.022154 370.609231l-140.996923-140.996923 73.728-73.728a32.295385 32.295385 0 0 1 45.686154 0l95.310769 95.310769a32.295385 32.295385 0 0 1 0 45.686154l-73.728 73.688615z" fill="#1C293A" p-id="811"></path><path d="M198.183385 834.953846h459.460923a21.346462 21.346462 0 0 1 21.346461 21.307077 21.346462 21.346462 0 0 1-21.346461 21.346462H198.183385a21.346462 21.346462 0 0 1-21.346462-21.346462 21.346462 21.346462 0 0 1 21.346462-21.307077z" fill="#1C293A" p-id="812"></path></svg>