<?xml version="1.0" standalone="no"?><!DOCTYPE svg PUBLIC "-//W3C//DTD SVG 1.1//EN" "http://www.w3.org/Graphics/SVG/1.1/DTD/svg11.dtd"><svg t="1688109865749" class="icon" viewBox="0 0 1024 1024" version="1.1" xmlns="http://www.w3.org/2000/svg" p-id="23067" xmlns:xlink="http://www.w3.org/1999/xlink" width="64" height="64"><path d="M833.163636 788.169697H206.351515c-15.515152 0-27.927273 12.412121-27.927273 27.927273v31.030303c0 3.10303 3.10303 6.206061 6.206061 6.20606h670.254545c3.10303 0 6.206061-3.10303 6.206061-6.20606v-31.030303c0-15.515152-12.412121-27.927273-27.927273-27.927273z m-530.618181-71.369697h6.20606l142.739394-24.824242c3.10303 0 3.10303 0 3.10303-3.103031l363.054546-363.054545c3.10303-3.10303 3.10303-9.309091 0-12.412121l-142.739394-139.636364c0-3.10303-3.10303-3.10303-6.206061-3.10303s-3.10303 0-6.20606 3.10303L302.545455 533.721212l-3.103031 3.10303-24.824242 142.739394c-3.10303 15.515152 9.309091 31.030303 24.824242 34.133334 0 3.10303 3.10303 3.10303 3.103031 3.10303z" p-id="23068" fill="#ffffff"></path></svg>