<?xml version="1.0" standalone="no"?><!DOCTYPE svg PUBLIC "-//W3C//DTD SVG 1.1//EN" "http://www.w3.org/Graphics/SVG/1.1/DTD/svg11.dtd"><svg t="1688976261268" class="icon" viewBox="0 0 1024 1024" version="1.1" xmlns="http://www.w3.org/2000/svg" p-id="3120" xmlns:xlink="http://www.w3.org/1999/xlink" width="64" height="64"><path d="M-392.9 64z" fill="#000000" p-id="3121"></path><path d="M512 64c-212.1 0-384 171.9-384 384 0 320 384 512 384 512s384-192 384-512c0-212.1-171.9-384-384-384z m269.2 565.8c-28.2 49.7-68 98.5-118.2 144.9-58.1 53.7-117.2 92-151 112-33.8-20-92.9-58.3-151-112-50.3-46.4-90-95.2-118.2-144.9-16.2-28.5-28.7-57.7-37.1-86.7-9.1-31.3-13.7-63.3-13.7-95.1 0-43.2 8.5-85.1 25.1-124.5 16.1-38.1 39.2-72.3 68.6-101.7 29.4-29.4 63.6-52.5 101.7-68.6C426.9 136.5 468.8 128 512 128s85.1 8.5 124.5 25.1c38.1 16.1 72.3 39.2 101.7 68.6 29.4 29.4 52.5 63.6 68.6 101.7C823.5 362.9 832 404.8 832 448c0 31.8-4.6 63.8-13.7 95.1-8.4 29-20.9 58.2-37.1 86.7z" p-id="3122" fill="#000000"></path><path d="M512 256c-106 0-192 86-192 192s86 192 192 192 192-86 192-192-86-192-192-192z m90.5 282.5C578.3 562.7 546.2 576 512 576s-66.3-13.3-90.5-37.5C397.3 514.3 384 482.2 384 448s13.3-66.3 37.5-90.5c24.2-24.2 56.3-37.5 90.5-37.5s66.3 13.3 90.5 37.5c24.2 24.2 37.5 56.3 37.5 90.5s-13.3 66.3-37.5 90.5z" p-id="3123" fill="#000000"></path></svg>