<?xml version="1.0" standalone="no"?><!DOCTYPE svg PUBLIC "-//W3C//DTD SVG 1.1//EN" "http://www.w3.org/Graphics/SVG/1.1/DTD/svg11.dtd"><svg t="1688990114669" class="icon" viewBox="0 0 1024 1024" version="1.1" xmlns="http://www.w3.org/2000/svg" p-id="5707" xmlns:xlink="http://www.w3.org/1999/xlink" width="64" height="64"><path d="M221.31 113.53c4.452 4.452 13.357 11.13 22.261 22.261 15.583 17.809 31.165 40.070 46.748 64.557 31.165 48.974 51.2 89.043 55.652 102.4-2.226 4.452-4.452 11.13-11.13 24.487-13.357 22.261-31.165 51.2-31.165 95.722 0 26.713 13.357 55.652 40.070 95.722 17.809 24.487 42.296 53.426 71.235 82.365 26.713 26.713 55.652 53.426 80.139 71.235 37.843 28.939 66.783 42.296 93.496 42.296 37.843 0 66.783-15.583 91.27-28.939 13.357-6.678 26.713-13.357 35.617-15.583 13.357 4.452 51.2 24.487 106.852 64.557 46.748 33.391 75.687 60.104 89.043 73.461-4.452 24.487-17.809 48.974-40.070 69.009-13.357 11.13-26.713 22.261-42.296 28.939-13.357 6.678-24.487 8.904-35.617 8.904-57.878 0-129.113-24.487-209.252-71.235-77.913-44.522-155.826-109.078-231.513-184.765-73.461-73.461-133.565-153.6-178.087-231.513-22.261-37.843-37.843-75.687-51.2-109.078-6.678-31.165-11.13-60.104-11.13-84.591 0-8.904 2.226-20.035 8.904-33.391 8.904-13.357 20.035-28.939 35.617-44.522 13.357-13.357 31.165-26.713 46.748-35.617 6.678-2.226 13.357-4.452 17.809-6.678M230.214 42.296c-53.426 0-184.765 97.948-184.765 189.217 0 264.904 456.348 747.965 752.417 747.965 82.365 0 184.765-86.817 184.765-189.217 0-35.617-211.478-189.217-260.452-189.217-51.2 0-86.817 44.522-131.339 44.522s-218.157-175.861-218.157-224.835c0-48.974 44.522-73.461 44.522-122.435-2.226-35.617-133.565-256-186.991-256v0 0zM230.214 42.296z" p-id="5708" fill="#2c2c2c"></path></svg>