<?xml version="1.0" standalone="no"?><!DOCTYPE svg PUBLIC "-//W3C//DTD SVG 1.1//EN" "http://www.w3.org/Graphics/SVG/1.1/DTD/svg11.dtd"><svg t="1688026913436" class="icon" viewBox="0 0 1024 1024" version="1.1" xmlns="http://www.w3.org/2000/svg" p-id="3006" xmlns:xlink="http://www.w3.org/1999/xlink" width="64" height="64"><path d="M794.391273 548.584727h-264.797091c-20.805818 0-37.794909-16.477091-37.794909-36.584727V182.877091c0-20.154182 16.989091-36.584727 37.794909-36.584727 20.805818 0 37.841455 16.430545 37.841454 36.584727v292.538182h226.955637c20.805818 0 37.841455 16.477091 37.841454 36.584727 0 20.107636-17.035636 36.584727-37.841454 36.584727z m191.069091-175.569454c-20.805818 0-37.841455-16.430545-37.841455-36.538182V138.984727c0-20.107636 17.035636-36.584727 37.841455-36.584727 20.805818 0 37.841455 16.477091 37.841454 36.584727v197.492364c0 20.107636-17.035636 36.538182-37.841454 36.538182zM529.594182 1024C238.312727 1024 0 793.6 0 512S238.312727 0 529.594182 0c217.553455 0 410.484364 126.138182 491.799273 321.815273a36.677818 36.677818 0 0 1-20.805819 47.569454c-18.897455 7.307636-41.611636-1.861818-49.198545-20.107636-69.957818-168.261818-234.542545-276.154182-421.794909-276.154182-249.669818 0-453.957818 197.492364-453.957818 438.877091s204.334545 438.877091 453.957818 438.877091c187.252364 0 351.837091-107.892364 421.794909-276.154182 7.586909-18.245818 30.254545-27.415273 49.198545-20.107636 18.897455 7.307636 28.392727 29.277091 20.805819 47.569454C940.078545 897.815273 747.147636 1024 529.594182 1024z" fill="#1C293A" p-id="3007"></path></svg>