<?xml version="1.0" standalone="no"?><!DOCTYPE svg PUBLIC "-//W3C//DTD SVG 1.1//EN" "http://www.w3.org/Graphics/SVG/1.1/DTD/svg11.dtd"><svg t="1688976550836" class="icon" viewBox="0 0 1024 1024" version="1.1" xmlns="http://www.w3.org/2000/svg" p-id="1485" xmlns:xlink="http://www.w3.org/1999/xlink" width="64" height="64"><path d="M925.4 636.5c-16-6.4-35.2 1.6-41.6 17.6-59.2 147.1-198.3 241.5-356.7 241.5-211.1 0-383.9-172.7-383.9-383.9 0-211.1 172.7-383.9 383.9-383.9 155.8 0 293 91.4 353.8 234.5 2 15.7 15.5 27.9 31.7 27.9 10.7 0 20.2-5.3 26-13.5 5.4-7.3 7.7-16.8 5.9-25.9V185.4c0-17.6-14.4-32-32-32s-32 14.4-32 32v51C797.2 128.9 668.3 63.9 527.2 63.9c-246.3 0-447.8 201.5-447.8 447.8s201.5 447.8 447.8 447.8c183.9 0 347.1-110.4 415.9-281.5 6.3-15.9-1.7-35.1-17.7-41.5z" p-id="1486" fill="#000000"></path><path d="M527.2 191.8c-17.6 0-32 14.4-32 32v287.9c0 17.6 14.4 32 32 32h223.9c17.6 0 32-14.4 32-32s-14.4-32-32-32H559.2V223.8c0-17.6-14.4-32-32-32z" p-id="1487" fill="#000000"></path></svg>