<svg t="1751289209561" class="icon" viewBox="0 0 1191 1024" version="1.1" xmlns="http://www.w3.org/2000/svg"
    p-id="48455" width="200" height="200">
    <path
        d="M1081.527579 542.078644A108.415332 108.415332 0 0 1 1189.942911 651.155045v264.42764a107.754263 107.754263 0 0 1-108.415332 108.415332H108.433866A107.754263 107.754263 0 0 1 0.018534 914.260546v-264.427639A108.415332 108.415332 0 0 1 108.433866 542.078644z m0 80.65043H108.433866a28.425971 28.425971 0 0 0-27.764902 27.103833v264.427639a27.103833 27.103833 0 0 0 27.103833 27.764903h973.754782a27.764902 27.764902 0 0 0 27.764902-27.103833v-264.42764a28.425971 28.425971 0 0 0-27.103833-28.425971zM207.594231 727.177992a33.714524 33.714524 0 0 1 34.375593 33.714524v37.680938a34.375593 34.375593 0 0 1-66.10691 0v-37.680938a33.714524 33.714524 0 0 1 31.731317-33.714524z m154.690169 0a33.714524 33.714524 0 0 1 34.375593 33.714524v37.680938a34.375593 34.375593 0 0 1-66.10691 0v-37.680938a33.714524 33.714524 0 0 1 31.731317-33.714524zM925.515272 727.177992a52.885528 52.885528 0 1 1 0 105.109986h-27.764902a52.885528 52.885528 0 1 1 0-105.109986z m156.012307-727.176009A107.754263 107.754263 0 0 1 1189.942911 108.417315v264.42764a108.415332 108.415332 0 0 1-108.415332 108.415332H108.433866A108.415332 108.415332 0 0 1 0.018534 372.183886v-264.42764A107.754263 107.754263 0 0 1 108.433866 0.001983z m0 80.65043H108.433866a27.764902 27.764902 0 0 0-27.764902 27.103833v264.42764a27.764902 27.764902 0 0 0 27.103833 27.764902h973.754782a27.764902 27.764902 0 0 0 27.764902-27.103833v-264.42764a27.764902 27.764902 0 0 0-27.103833-27.764902zM207.594231 185.7624a34.375593 34.375593 0 0 1 34.375593 34.375593v37.01987a34.375593 34.375593 0 1 1-66.10691 0v-37.01987a33.714524 33.714524 0 0 1 31.731317-34.375593z m154.690169 0a34.375593 34.375593 0 0 1 34.375593 34.375593v37.01987a34.375593 34.375593 0 1 1-66.10691 0v-37.01987a33.714524 33.714524 0 0 1 31.731317-34.375593z m561.247665 0a52.885528 52.885528 0 0 1 0 105.771056h-27.764903a52.885528 52.885528 0 1 1 0-105.771056z"
        fill="currentColor" p-id="48456"></path>
</svg>