<svg t="1750907001962" class="icon" viewBox="0 0 1024 1024" version="1.1" xmlns="http://www.w3.org/2000/svg"
    p-id="46524" width="200" height="200">
    <path
        d="M1006.912 410.912c-39.168-26.592-85.024-27.168-115.36-23.392-15.008-63.072-72.192-98.752-75.008-100.48l-21.6-13.216-15.424 20.096c-48.768 63.488-35.872 132.608-15.264 175.168a127.04 127.04 0 0 1-51.52 14.08h-17.312v-104.736h-118.08V174.176h-142.688v102.144H200.832v102.112H83.904v104.736H7.648l-3.616 23.936c-0.832 5.408-19.136 133.792 66.336 233.216 62.496 72.704 162.4 109.568 296.928 109.568 207.808 0 335.488-91.52 405.984-168.32 55.008-59.904 84.384-119.68 96.928-149.792 130.176-2.176 147.84-88.544 148.576-92.384l3.392-18.112-15.232-10.368z m-531.296-32.928V317.216h60.768v60.768h-60.768z m-233.824 102.144v-60.768h60.768v60.768H241.792z m116.928 0v-60.768h60.768v60.768H358.72z m116.896 0v-60.768h60.768v60.768h-60.768z m118.08-60.768h60.736v60.768h-60.736v-60.768z m-118.08-204.256h60.768v60.768h-60.768V215.104zM358.72 317.248h60.768v60.768H358.72V317.248z m-116.928 0h60.768v60.768H241.792V317.248z m-116.896 102.112h60.768v60.768H124.896v-60.768z m242.4 374.176c-63.872 0-118.304-8.96-162.944-26.752 33.12-6.944 70.848-19.936 104.8-43.808a28.16 28.16 0 0 0-32.416-46.048c-55.2 38.816-126.528 41.536-149.824 41.28a201.024 201.024 0 0 1-13.472-14.176C64.384 647.296 57.888 576 58.272 539.488h654.464c2.464 0 61.152-0.48 107.616-40.96l3.52-3.072c-5.376 15.744-107.04 298.112-456.576 298.112z m484.96-318.368l-17.408-0.832-10.464-13.984c-0.448-0.576-37.504-51.136-15.04-106.56 14.368 14.912 30.272 37.984 29.44 66.56l-1.152 39.904 37.984-12.288c0.48-0.16 40.352-12.32 77.088-1.12-13.024 14.144-41.216 31.136-100.448 28.32z"
        p-id="46525" fill="currentColor"></path>
    <path
        d="M379.264 589.568a46.016 46.016 0 0 0 0 91.936 45.984 45.984 0 0 0 0-91.936z m0 56.32c-5.696 0-10.368-4.64-10.368-10.336a10.4 10.4 0 0 1 20.736 0 10.368 10.368 0 0 1-10.368 10.336z"
        p-id="46526" fill="currentColor"></path>
</svg>