<svg t="1729164286006" class="icon" viewBox="0 0 1136 1024" version="1.1" xmlns="http://www.w3.org/2000/svg" p-id="27462" width="200" height="200"><path d="M458.52187 917.027652a458.52187 458.52187 0 1 1 458.521871-458.52187 459.05279 459.05279 0 0 1-458.521871 458.52187z m0-852.689794a394.167924 394.167924 0 1 0 394.167924 394.167924 394.618401 394.618401 0 0 0-394.167924-394.167924z" fill="#8a8a8a" p-id="27463"></path><path d="M777.395676 704.804424a54.379085 54.379085 0 0 1 76.725993-5.373554l263.722474 229.116139a54.379085 54.379085 0 0 1 5.373554 76.725993 54.379085 54.379085 0 0 1-76.725993 5.373554l-263.690296-229.116139a54.395173 54.395173 0 0 1-5.405732-76.725993z" fill="#8a8a8a" p-id="27464"></path><path d="M608.080442 633.83811a32.048265 32.048265 0 0 1-22.74912-9.427854L306.775264 345.854198a32.176973 32.176973 0 0 1 45.49824-45.514329L630.829563 578.912016a32.176973 32.176973 0 0 1-22.749121 54.926094z" fill="#8a8a8a" p-id="27465"></path><path d="M329.524384 633.822021a32.176973 32.176973 0 0 1-22.74912-54.926093l278.572147-278.572147a32.176973 32.176973 0 0 1 45.49824 45.49824L352.273504 624.394168a32.016088 32.016088 0 0 1-22.74912 9.427853z" fill="#8a8a8a" p-id="27466"></path></svg>