<svg t="1751448525528" class="icon" viewBox="0 0 1024 1024" version="1.1" xmlns="http://www.w3.org/2000/svg"
    p-id="61090" width="200" height="200">
    <path
        d="M539.450983 15.110813h-0.503689v467.927137h468.934515C1007.579596 224.544724 798.044947 15.110813 539.450983 15.110813z"
        fill="currentColor" p-id="61091"></path>
    <path
        d="M486.563632 82.101458h-15.110672c-62.961132 0-125.2171 12.592226-183.141342 37.172252C114.337417 193.013789 1.309592 363.663642 1.208854 552.647778c-0.201476 260.105031 210.542027 471.150747 470.747795 471.352222h0.705165c259.903555-0.201476 470.445582-211.045716 470.244106-470.949271v-15.614361H486.563632v-455.33491z m425.919469 485.556254c-1.712543 54.196943-13.498867 107.487245-34.553069 157.4532-94.794281 224.141632-353.388244 328.908956-577.429139 234.114675C142.644742 892.33568 37.877417 740.221584 31.631673 569.068041c-8.76419-243.281816 181.328062-447.678837 424.710615-456.443026v455.032697h456.140813z"
        fill="currentColor" p-id="61092"></path>
    <path
        d="M1022.992481 482.836474C1022.791005 215.98201 806.305447-0.201335 539.450983 0.000141H523.836623v498.14848h499.155858v-15.110671-0.201476zM554.057966 467.927278V30.42296c238.647877 7.454598 430.452671 198.856441 438.511696 437.504318H554.057966z"
        fill="currentColor" p-id="61093"></path>
</svg>