<svg t="1745486128171" class="icon" viewBox="0 0 1024 1024" version="1.1" xmlns="http://www.w3.org/2000/svg"
    p-id="21461" width="200" height="200">
    <path
        d="M957.189131 261.518615c0-7.999805-4.299895-15.499622-11.299724-19.399526L522.999731 2.924929c-6.799834-3.899905-15.199629-3.899905-21.999462 0L78.110593 242.019091c-6.999829 3.999902-11.299724 11.399722-11.299724 19.399527s4.399893 15.499622 11.399722 19.399526l422.989673 235.994239c3.399917 1.899954 7.099827 2.799932 10.799736 2.799931s7.499817-0.899978 10.799736-2.799931l422.989673-235.994239c6.999829-3.899905 11.399722-11.299724 11.399722-19.299529zM512 471.913479L134.509216 261.31862 512 47.823832l377.490784 213.394791L512 471.913479zM455.601377 581.410805L77.210615 381.015698c-6.899832-3.599912-15.199629-3.399917-21.899465 0.599985-6.699836 3.999902-10.799736 11.299724-10.799737 19.099534v378.390762c0 7.899807 4.199897 15.199629 10.999732 19.199531l378.390762 222.594566c3.499915 1.999951 7.399819 3.099924 11.299724 3.099924 3.799907 0 7.599814-0.999976 11.099729-2.899929 6.899832-3.999902 11.199727-11.299724 11.199726-19.299529V601.010327c0-8.1998-4.599888-15.799614-11.899709-19.599522zM423.002173 962.801494L89.010327 766.406289V437.714314l333.991846 176.695686v348.391494zM968.68885 381.615683c-6.699836-3.999902-14.999634-4.299895-21.899465-0.599985L568.398623 581.410805c-7.299822 3.899905-11.799712 11.399722-11.799712 19.699519v400.690218c0 7.999805 4.299895 15.399624 11.199727 19.299529 3.399917 1.999951 7.199824 2.899929 11.099729 2.899929 3.899905 0 7.79981-0.999976 11.299724-3.099924l378.390762-222.594566c6.799834-3.999902 10.999731-11.299724 10.999731-19.199531V400.715217c-0.099998-7.79981-4.199897-14.999634-10.899734-19.099534zM934.989673 766.406289L600.997827 962.801494V614.41l333.991846-176.695686v328.691975z"
        fill="currentColor" p-id="21462"></path>
</svg>