<svg width="162.6px" height="148.8px" viewBox="0 0 162.6 148.8" version="1.1" xmlns="http://www.w3.org/2000/svg"
    xmlns:xlink="http://www.w3.org/1999/xlink">
    <g id="页面-3" stroke="none" stroke-width="1" fill="none" fill-rule="evenodd">
        <g id="编组" fill="currentColor" fill-rule="nonzero">
            <path
                d="M25.6,49.2 C29.7333333,49.2 32.7666667,50.4666667 34.7,53 C36.6333333,55.5333333 37.6,58.3333333 37.6,61.4 L37.6,148.8 L0,148.8 L0,62.2 C0,58.0666667 1.3,54.8666667 3.9,52.6 C6.5,50.3333333 9.33333333,49.2 12.4,49.2 L25.6,49.2 Z M88,-3.55271368e-15 C91.6,-3.55271368e-15 94.4666667,1.1 96.6,3.3 C98.7333333,5.5 99.8,8.13333333 99.8,11.2 L99.8,148.8 L62.4,148.8 L62.4,11.6 C62.4,9.6 62.8,7.86666667 63.6,6.4 C64.4,4.93333333 65.4,3.73333333 66.6,2.8 C67.8,1.86666667 69.1333333,1.16666667 70.6,0.7 C72.0666667,0.233333333 73.4,-3.55271368e-15 74.6,-3.55271368e-15 L88,-3.55271368e-15 L88,-3.55271368e-15 Z M150.2,86.6 C151.4,86.6 152.7,86.9333333 154.1,87.6 C155.5,88.2666667 156.833333,89.2 158.1,90.4 C159.366667,91.6 160.433333,92.9666667 161.3,94.5 C162.166667,96.0333333 162.6,97.6666667 162.6,99.4 L162.6,148.8 L125.2,148.8 L125.2,99.8 C125.2,98.3333333 125.5,96.8 126.1,95.2 C126.7,93.6 127.533333,92.1666667 128.6,90.9 C129.666667,89.6333333 130.933333,88.6 132.4,87.8 C133.866667,87 135.466667,86.6 137.2,86.6 L150.2,86.6 Z"
                id="形状"></path>
        </g>
    </g>
</svg>