<svg t="1745576098987" class="icon" viewBox="0 0 1024 1024" version="1.1" xmlns="http://www.w3.org/2000/svg"
    p-id="25990" width="200" height="200">
    <path d="M368.9 647m-48 0a48 48 0 1 0 96 0 48 48 0 1 0-96 0Z" p-id="25991" fill="#bfbfbf"></path>
    <path
        d="M804.2 96H219.8C152.7 96 96 152.7 96 219.8v584.4C96 871.3 152.7 928 219.8 928h584.4c67.1 0 123.8-56.7 123.8-123.8V219.8C928 152.7 871.3 96 804.2 96zM368.9 767c-66.2 0-120-53.8-120-120s53.8-120 120-120 120 53.8 120 120-53.8 120-120 120zM499 318.3l-116 116c-6.8 6.8-15.8 10.5-25.4 10.5s-18.7-3.7-25.4-10.5l-75-75c-6.8-6.8-10.5-15.8-10.5-25.4s3.7-18.7 10.5-25.4c14-14 36.9-14 51 0l49.5 49.5 90.5-90.5c6.8-6.8 15.8-10.5 25.5-10.5 9.6 0 18.7 3.7 25.5 10.5 6.8 6.8 10.5 15.8 10.5 25.4s-3.9 18.7-10.7 25.4zM744.3 687H578.2c-18.1 0-32.9-17.9-32.9-40s14.8-40 32.9-40h166.1c18.1 0 32.9 17.9 32.9 40s-14.8 40-32.9 40z m0.2-296.1H578.4c-18.1 0-32.9-17.9-32.9-40s14.8-40 32.9-40h166.1c18.1 0 32.9 17.9 32.9 40s-14.8 40-32.9 40z"
        p-id="25992" fill="currentColor"></path>
</svg>