<svg t="1745823820737" class="icon" viewBox="0 0 1024 1024" version="1.1" xmlns="http://www.w3.org/2000/svg"
    p-id="39147" width="200" height="200">
    <path
        d="M512 96a416 416 0 1 0 0 832 416 416 0 0 0 0-832z m141.504 574.016l-14.72 14.72a20.8 20.8 0 0 1-29.44 0L474.56 549.76c-4.672-4.672-4.096-14.08-4.096-23.232V262.4c0-11.52 9.344-20.8 20.8-20.8H512c11.52 0 20.8 9.28 20.8 20.8v257.472l120.704 120.704a20.8 20.8 0 0 1 0 29.44z"
        fill="currentColor" p-id="39148"></path>
</svg>