<svg t="1745946944384" class="icon" viewBox="0 0 1024 1024" version="1.1" xmlns="http://www.w3.org/2000/svg"
    p-id="23393" width="200" height="200">
    <path
        d="M457.7 553.8l-73.4-73.4c-20.3-20.2-53.1-20.2-73.3 0-20.3 20.3-20.3 53.1 0 73.4l73.4 73.4 36.7 36.7c20.3 20.3 53.1 20.3 73.4 0l220.1-220.1c20.3-20.3 20.3-53.1 0-73.4-20.3-20.3-53.1-20.3-73.4 0L457.7 553.8zM512 928.3c-229.2 0-415.1-185.8-415.1-415.1s185.9-415 415.1-415 415.1 185.8 415.1 415S741.2 928.3 512 928.3z"
        p-id="23394" fill="currentColor"></path>
</svg>