<svg t="1745486502435" class="icon" viewBox="0 0 1024 1024" version="1.1" xmlns="http://www.w3.org/2000/svg"
    p-id="27990" width="200" height="200">
    <path
        d="M512 42.666667a170.666667 170.666667 0 0 1 170.666667 170.666666v42.794667a42.666667 42.666667 0 1 1-85.333334 0V213.333333a85.333333 85.333333 0 0 0-170.666666 0v297.322667a42.666667 42.666667 0 1 1-85.333334 0V213.333333a170.666667 170.666667 0 0 1 170.666667-170.666666zM640 469.397333a42.666667 42.666667 0 0 1 42.666667 42.666667V810.666667a170.666667 170.666667 0 0 1-341.333334 0v-43.306667a42.666667 42.666667 0 1 1 85.333334 0V810.666667a85.333333 85.333333 0 0 0 170.666666 0V512.064a42.666667 42.666667 0 0 1 42.666667-42.666667z"
        fill="currentColor" p-id="27991"></path>
    <path
        d="M255.765333 341.333333a42.666667 42.666667 0 1 1 0 85.333334H212.992C166.08 426.666667 128 464.853333 128 512s38.08 85.333333 84.992 85.333333H512a42.666667 42.666667 0 1 1 0 85.333334H212.992C118.912 682.666667 42.666667 606.229333 42.666667 512s76.224-170.666667 170.325333-170.666667h42.773333zM810.432 341.333333C904.789333 341.333333 981.333333 417.706667 981.333333 512s-76.544 170.666667-170.901333 170.666667h-41.024a42.666667 42.666667 0 1 1 0-85.333334h41.024A85.461333 85.461333 0 0 0 896 512c0-47.104-38.293333-85.333333-85.568-85.333333H512a42.666667 42.666667 0 1 1 0-85.333334h298.432z"
        fill="currentColor" p-id="27992"></path>
</svg>