<svg t="1745828609217" class="icon" viewBox="0 0 1024 1024" version="1.1" xmlns="http://www.w3.org/2000/svg" p-id="4423"
    width="200" height="200">
    <path
        d="M987.428571 627.428571q0 46.285714-25.428571 77.142857t-70.571429 30.857143q-23.428571 0-44.285714-10t-33.714286-21.714286-32.285714-21.714286-40.571429-10q-62.857143 0-62.857143 70.857143 0 22.285714 9.142857 65.714286t8.571429 65.714286l0 2.857143q-12.571429 0-18.857143 0.571429-19.428571 1.714286-55.714286 6.571429t-66 7.714286-56 2.857143q-34.857143 0-58.857143-15.142857t-24-47.714286q0-21.142857 10-40.571429t21.714286-32.285714 21.714286-33.714286 10-44.285714q0-45.142857-30.857143-70.571429t-77.142857-25.428571q-48 0-81.714286 26t-33.714286 72.857143q0 24.571429 8.571429 47.428571t19.142857 36.857143 19.142857 30.285714 8.571429 28.857143q0 25.714286-26.285714 50.857143-21.142857 20-66.857143 20-54.285714 0-140-13.714286-5.142857-1.142857-15.714286-2.285714t-15.714286-2.285714l-7.428571-1.142857q-0.571429 0-1.714286-0.571429-1.142857 0-1.142857-0.571429l0-585.142857q1.142857 0.571429 10 2t19.428571 2.857143 12.285714 2q85.714286 13.714286 140 13.714286 45.714286 0 66.857143-20 26.285714-25.142857 26.285714-50.857143 0-12.571429-8.571429-28.857143t-19.142857-30.285714-19.142857-36.857143-8.571429-47.428571q0-46.857143 33.714286-72.857143t82.285714-26q45.714286 0 76.571429 25.428571t30.857143 70.571429q0 23.428571-10 44.285714t-21.714286 33.714286-21.714286 32.285714-10 40.571429q0 32.571429 24 47.714286t58.857143 15.142857q36.571429 0 102.857143-8.571429t93.142857-9.714286l0 1.142857q-0.571429 1.142857-2 10t-2.857143 19.428571-2 12.285714q-13.714286 85.714286-13.714286 140 0 45.714286 20 66.857143 25.142857 26.285714 50.857143 26.285714 12.571429 0 28.857143-8.571429t30.285714-19.142857 36.857143-19.142857 47.428571-8.571429q46.857143 0 72.857143 33.714286t26 81.714286z"
        p-id="4424" fill="currentColor"></path>
</svg>