<svg width="200px" height="200px" viewBox="0 0 200 200" version="1.1" xmlns="http://www.w3.org/2000/svg"
    xmlns:xlink="http://www.w3.org/1999/xlink">
    <g stroke="none" stroke-width="1" fill="none" fill-rule="evenodd">
        <g fill-rule="nonzero">
            <polygon fill="#202425" opacity="0.01" points="0 0 200 0 200 200 0 200"></polygon>
            <path
                d="M13.3333334,60 C13.3333334,45.2724067 25.2724067,33.3333334 40,33.3333334 L160,33.3333334 C167.07244,33.3333334 173.855211,36.1428491 178.856181,41.1438192 C183.857151,46.1447893 186.666667,52.9275603 186.666667,60 L186.666667,160 C186.666667,174.727593 174.727593,186.666667 160,186.666667 L40,186.666667 C25.2724067,186.666667 13.3333334,174.727593 13.3333334,160 L13.3333334,60 Z"
                fill="#F79DA6"></path>
            <path
                d="M63.3333334,26.6666666 C63.3333334,21.1438191 58.8561809,16.6666666 53.3333334,16.6666666 C47.8104859,16.6666666 43.3333334,21.1438191 43.3333334,26.6666666 L43.3333334,46.6666666 C43.3333334,52.1895141 47.8104859,56.6666666 53.3333334,56.6666666 C58.8561809,56.6666666 63.3333334,52.1895141 63.3333334,46.6666666 L63.3333334,26.6666666 Z M156.666667,26.666667 C156.666667,21.1438193 152.189514,16.666667 146.666667,16.666667 C141.143819,16.666667 136.666667,21.1438193 136.666667,26.666667 L136.666667,46.666667 C136.666667,52.1895139 141.143819,56.666667 146.666667,56.666667 C152.189514,56.666667 156.666667,52.1895139 156.666667,46.666667 L156.666667,26.666667 Z M186.666667,66.6666666 L13.3333334,66.6666666 L13.3333334,160 C13.3333334,174.727593 25.2724067,186.666667 40,186.666667 L160,186.666667 C174.727593,186.666667 186.666667,174.727593 186.666667,160 L186.666667,66.6666666 Z"
                fill="#D42536"></path>
            <path
                d="M129.951616,139.656984 C131.572567,141.368282 132.760332,142.936973 133.514913,144.363055 C134.269493,145.789138 134.14373,147.414872 133.137622,149.240257 C132.914043,149.582517 132.606621,149.996081 132.215357,150.480949 C131.824094,150.965817 131.418856,151.436424 130.999645,151.89277 C130.580433,152.349117 130.161222,152.76268 129.742011,153.133462 C129.322799,153.504243 128.973457,153.775199 128.693982,153.946329 C127.296611,154.801978 125.647713,155.030151 123.747289,154.630848 C121.846864,154.231545 120.142071,153.261809 118.63291,151.72164 L115.111535,148.127913 L110.416368,143.336276 L104.882779,137.68899 L98.8461356,131.528314 L88.1143256,142.480627 C84.8165298,145.846181 82.1335773,148.612781 80.065468,150.780426 C77.941464,152.948071 75.8314336,154.288589 73.735377,154.801978 C71.6393203,155.315368 69.7808167,154.8305 68.1598663,153.347374 L67.5729704,152.74842 L66.6507055,151.807205 L65.7284406,150.865991 C65.3930715,150.523731 65.1974395,150.295558 65.1415447,150.181471 C64.5267014,149.382865 64.1633849,148.569998 64.0515952,147.742871 C63.9398056,146.915743 64.0096741,146.102876 64.2612009,145.30427 C64.5127277,144.505664 64.8900179,143.735579 65.3930715,142.994016 C65.8961251,142.252453 66.4550735,141.567934 67.0699168,140.940458 C67.5729704,140.484111 68.4672879,139.628462 69.7528693,138.373509 L74.2803517,133.581873 C76.1248815,131.756487 78.1790171,129.702929 80.4427582,127.421197 C82.7064994,125.139465 85.0680566,122.743647 87.5274297,120.233742 C84.8444772,117.495664 82.2872881,114.900194 79.8558624,112.447332 C77.4244367,109.99447 75.2445377,107.798303 73.3161656,105.858831 C71.3877935,103.919359 69.8087642,102.336408 68.5790776,101.109977 C67.349391,99.8835463 66.5948106,99.1277227 66.3153364,98.8425062 C64.8620705,97.3593805 64.1214638,95.8905157 64.0935164,94.4359117 C64.065569,92.9813076 64.5546488,91.5124428 65.560756,90.0293171 C66.0079148,89.4588842 66.6507055,88.7886255 67.4891281,88.018541 C68.3275508,87.2484565 68.9144467,86.7493277 69.2498157,86.5211545 C70.9266611,85.3802886 72.4358218,84.8811598 73.7772981,85.023768 C75.1187743,85.1663763 76.4602506,85.9507216 77.8017269,87.3768039 L80.4008371,90.0293171 C81.6864185,91.3413129 83.2794216,92.9385252 85.1798463,94.8209539 C87.080271,96.7033826 89.2182487,98.8282454 91.5937796,101.195542 C93.9693105,103.562839 96.4426573,106.029961 99.0138202,108.59691 C101.137824,106.429264 103.219907,104.318662 105.260069,102.265104 C107.300231,100.211545 109.200655,98.2863341 110.961343,96.4894703 C112.722031,94.6926065 114.315034,93.0811334 115.740352,91.655051 C117.165671,90.2289687 118.353436,89.0310595 119.303649,88.0613235 C120.645125,86.7493277 122.098391,85.8794175 123.663446,85.4515927 C125.228502,85.023768 126.737663,85.3802886 128.190929,86.5211545 C128.246824,86.5781978 128.428482,86.7208061 128.735903,86.9489792 C129.043325,87.1771524 129.350747,87.4338472 129.658168,87.7190637 C129.96559,88.0042802 130.259038,88.2752358 130.538512,88.5319307 C130.817986,88.7886255 131.013618,88.9454945 131.125408,89.0025378 C132.634569,90.4856635 133.375175,92.0971366 133.347228,93.8369571 C133.319281,95.5767776 132.578674,97.1882506 131.125408,98.6713763 C130.119301,99.6981556 128.875641,100.98163 127.394427,102.521799 C125.913214,104.061968 124.264316,105.744745 122.447733,107.57013 C120.631151,109.395516 118.716753,111.334988 116.704538,113.388546 L110.332526,119.891482 C112.400635,121.945041 114.426823,123.955817 116.41109,125.92381 C118.395357,127.891804 120.239887,129.73145 121.94468,131.442749 C123.649473,133.154048 125.186581,134.722739 126.556005,136.148821 C127.925428,137.574903 129.057299,138.744291 129.951616,139.656984 Z"
                fill="#FFFFFF"></path>
        </g>
    </g>
</svg>