<svg width="135px" height="135px" viewBox="0 0 135 135" version="1.1" xmlns="http://www.w3.org/2000/svg"
    xmlns:xlink="http://www.w3.org/1999/xlink">
    <g id="页面-3" stroke="none" stroke-width="1" fill="none" fill-rule="evenodd">
        <g id="编组" fill-rule="nonzero">
            <circle id="椭圆形-2" fill="#B2E4C1" cx="67.5" cy="67.5" r="67.5"></circle>
            <g transform="translate(35, 35)" fill="currentColor" id="形状">
                <path
                    d="M20.8641975,6.3659794 C22.0233196,6.3659794 23.0152606,6.76804125 23.8400206,7.57216495 C24.6647805,8.37628865 25.0771605,9.35910653 25.0771605,10.5206186 L25.0771605,27.2731959 C25.0771605,28.4347079 24.6647805,29.4286941 23.8400206,30.2551546 C23.0152606,31.0816151 22.0233196,31.4948453 20.8641975,31.4948453 L4.14609055,31.4948453 C2.98696848,31.4948453 2.00617286,31.0816151 1.20370369,30.2551546 C0.401234518,29.4286941 0,28.4347079 0,27.2731959 L0,10.5206186 C0,9.35910657 0.401234563,8.37628869 1.20370369,7.57216495 C2.00617281,6.7680412 2.98696844,6.3659794 4.14609055,6.3659794 L20.8641975,6.3659794 Z M20.8641975,39.871134 C22.0233196,39.871134 23.0152606,40.2731958 23.8400206,41.0773195 C24.6647805,41.8814432 25.0771605,42.8642611 25.0771605,44.0257732 L25.0771605,60.8453608 C25.0771605,62.0068728 24.6647805,62.9896907 23.8400206,63.7938144 C23.0152606,64.5979382 22.0233196,65 20.8641975,65 L4.14609055,65 C2.98696848,65 2.00617286,64.5979381 1.20370369,63.7938144 C0.401234518,62.9896907 0,62.0068729 0,60.8453608 L0,44.0257732 C0,42.8642612 0.401234563,41.8814433 1.20370369,41.0773195 C2.00617281,40.2731958 2.98696844,39.871134 4.14609055,39.871134 L20.8641975,39.871134 Z M54.367284,39.871134 C55.5264061,39.871134 56.5072017,40.2731958 57.3096708,41.0773195 C58.11214,41.8814432 58.5133745,42.8642611 58.5133745,44.0257732 L58.5133745,60.8453608 C58.5133745,62.0068728 58.11214,62.9896907 57.3096708,63.7938144 C56.5072017,64.5979382 55.5264061,65 54.367284,65 L37.649177,65 C36.4900549,65 35.4981139,64.5979381 34.673354,63.7938144 C33.848594,62.9896907 33.436214,62.0068729 33.436214,60.8453608 L33.436214,44.0257732 C33.436214,42.8642612 33.848594,41.8814433 34.673354,41.0773195 C35.4981139,40.2731958 36.4900549,39.871134 37.649177,39.871134 L54.367284,39.871134 Z M63.6625515,13.7371134 C64.5541838,14.6305842 65,15.6804123 65,16.8865979 C65,18.0927835 64.5541838,19.1202749 63.6625515,19.9690722 L51.2242799,32.4329897 C50.3326475,33.3264604 49.2961249,33.7731958 48.114712,33.7731958 C46.9332991,33.7731958 45.8967765,33.3264604 45.0051441,32.4329897 L32.5668725,19.9690722 C31.7198218,19.1202749 31.2962964,18.0927835 31.2962964,16.8865979 C31.2962964,15.6804123 31.7198218,14.6305842 32.5668725,13.7371134 L45.0051441,1.27319589 C45.8967765,0.424398631 46.9332991,0 48.114712,0 C49.2961249,0 50.3326475,0.424398631 51.2242799,1.27319589 L63.6625515,13.7371134 Z">
                </path>
            </g>
        </g>
    </g>
</svg>