<svg width="135px" height="135px" viewBox="0 0 135 135" version="1.1" xmlns="http://www.w3.org/2000/svg"
    xmlns:xlink="http://www.w3.org/1999/xlink">
    <g id="页面-3" stroke="none" stroke-width="1" fill="none" fill-rule="evenodd">
        <g id="编组" fill-rule="nonzero">
            <circle id="椭圆形-2" fill="#B2E4C1" cx="67.5" cy="67.5" r="67.5"></circle>
            <path
                d="M93.8940148,35 L75.5780905,35 C72.220408,35 67.5302151,36.9418902 65.1556653,39.31644 L36.7809124,67.6911929 C34.4063625,70.0657427 34.4063625,73.9515543 36.7809124,76.3261041 L58.6738959,98.2190876 C61.0484457,100.593637 64.9342573,100.593637 67.3088071,98.2190876 L95.6815288,69.846366 C98.0581098,67.4718162 100,62.7816233 100,59.4219095 L100,41.1059852 C100,37.7483027 97.2516973,35 93.8940148,35 Z M85.7811389,55.3126587 C82.4153314,55.3126587 79.6873413,52.5846687 79.6873413,49.2188611 C79.6873413,45.8530536 82.4153314,43.1250635 85.7811389,43.1250635 C89.1469465,43.1250635 91.8749365,45.8530536 91.8749365,49.2188611 C91.8749365,52.5846687 89.1469465,55.3126587 85.7811389,55.3126587 Z"
                id="形状" fill="currentColor"></path>
        </g>
    </g>
</svg>