<svg width="467px" height="213.5px" viewBox="0 0 467 213.5" version="1.1" xmlns="http://www.w3.org/2000/svg"
    xmlns:xlink="http://www.w3.org/1999/xlink">
    <g id="页面-3" stroke="none" stroke-width="1" fill="none" fill-rule="evenodd">
        <rect id="矩形" stroke="#D7D7D7" fill="#FFFFFF" x="90.5" y="11" width="59" height="59" rx="29.5"></rect>
        <rect id="矩形" stroke="#D7D7D7" fill="#FFFFFF" x="143.5" y="11" width="59" height="59" rx="29.5"></rect>
        <rect id="矩形" stroke="#D7D7D7" fill="#FFFFFF" fill-rule="nonzero" x="313" y="10.5" width="60" height="60"
            rx="30"></rect>
        <g id="形状" transform="translate(157.7, 26.0996)" fill="#1B283A" fill-rule="nonzero">
            <path
                d="M29.1421419,16.4927172 L16.4145042,22.4002432 C15.1959176,22.9475827 14.7106947,22.9475827 13.5859707,22.4002432 L0.857858137,16.4927172 C0.182196061,16.1221263 0,14.7508702 0,14.002648 C0.849615033,14.5036812 2.04438832,15.0623697 1.99998417,15.0340324 L15.000017,21.2223388 L28.0004907,15.0340324 C28.0224384,15.028358 29.1815255,14.4252197 30,14.002648 C30,14.7683489 29.7701772,16.1901847 29.1421419,16.4927172 Z M29.1421419,10.3038854 L16.4145042,16.2119018 C15.1959176,16.7592763 14.7106947,16.7592763 13.5859707,16.2119018 L0.857858137,10.3038854 C-0.141896492,9.75605543 -0.110789856,8.03077648 0.857858137,7.38651588 L13.5859707,0.447115053 C14.7106947,-0.1328701 15.4142747,-0.164990315 16.4145042,0.447115053 L29.1421419,7.38651588 C30.1107559,7.9343458 30.0787334,9.85248611 29.1421419,10.3038854 Z M14.999983,1.62501944 L1.99995026,8.84520063 L14.999983,14.5017547 L28.0004907,8.84520063 L14.999983,1.62501944 Z M14.999983,27.4115559 L28.0004568,21.2223038 C28.0224045,21.2166293 29.1814916,20.613491 29.9999661,20.1909194 C29.9999661,20.9566553 29.7701772,22.3784911 29.142108,22.6810235 L16.4145042,28.5894953 C15.1959176,29.1368349 14.7106947,29.1368349 13.5859707,28.5894953 L0.857858137,22.6809885 C0.182196061,22.3103977 0,20.939632 0,20.1909194 C0.849615033,20.6919526 2.04438832,21.250641 1.99998417,21.2222688 L14.999983,27.4115559 Z">
            </path>
        </g>
        <g id="形状" transform="translate(330, 26.5)" fill="#1B283A" fill-rule="nonzero">
            <path
                d="M23.7714285,0 C25.0022346,0 26,1.10612003 26,2.47058823 L26,25.5294118 C26,26.89388 25.0022346,28 23.7714285,28 L2.22857143,28 C0.997765418,28 0,26.89388 0,25.5294118 L0,2.47058823 C0,1.10612003 0.997765418,0 2.22857143,0 L23.7714285,0 Z M24.1428572,19.3529412 L1.85713838,19.3529412 L1.85713838,25.5294118 C1.85659446,25.7452892 2.00653169,25.9249865 2.20071428,25.9411814 L23.7714285,25.9411814 C23.9661588,25.9417844 24.1282531,25.7755645 24.1428572,25.5602941 L24.1428572,19.3529412 Z M15.9714285,21.6176471 L15.9714285,23.6764706 L4.45714285,23.6764706 L4.45714285,21.6176471 L15.9714285,21.6176471 Z M20.6142857,21.6176471 C21.1271215,21.6176471 21.5428572,22.0785304 21.5428572,22.6470588 C21.5428572,23.2155873 21.1271215,23.6764706 20.6142857,23.6764706 C20.1014499,23.6764706 19.6857143,23.2155873 19.6857143,22.6470588 C19.6857143,22.0785304 20.1014499,21.6176471 20.6142857,21.6176471 Z M24.1428572,10.7058823 L1.85714285,10.7058823 L1.85714285,17.2941177 L24.1428572,17.2941177 L24.1428572,10.7058823 Z M15.9714285,12.9705882 L15.9714285,15.0294118 L4.45714285,15.0294118 L4.45714285,12.9705882 L15.9714285,12.9705882 Z M20.6142857,12.9705882 C21.1271215,12.9705882 21.5428572,13.4314716 21.5428572,14 C21.5428572,14.5685284 21.1271215,15.0294118 20.6142857,15.0294118 C20.1014499,15.0294118 19.6857143,14.5685284 19.6857143,14 C19.6857143,13.4314716 20.1014499,12.9705882 20.6142857,12.9705882 Z M23.7714285,2.05881857 L2.22857143,2.05881857 C2.03384121,2.05821558 1.87174691,2.22443558 1.85714285,2.43970588 L1.85714285,8.64705882 L24.1428616,8.64705882 L24.1428616,2.47058823 C24.1434055,2.25471085 23.9934683,2.07501355 23.7992857,2.05881857 L23.7714285,2.05881857 Z M15.9714285,4.32352941 L15.9714285,6.38235294 L4.45714285,6.38235294 L4.45714285,4.32352941 L15.9714285,4.32352941 Z M20.6142857,4.32352941 C21.1271215,4.32352941 21.5428572,4.78441276 21.5428572,5.35294118 C21.5428572,5.9214696 21.1271215,6.38235294 20.6142857,6.38235294 C20.1014499,6.38235294 19.6857143,5.9214696 19.6857143,5.35294118 C19.6857143,4.78441276 20.1014499,4.32352941 20.6142857,4.32352941 Z">
            </path>
        </g>
        <rect id="矩形" stroke="#D7D7D7" fill="#FFFFFF" fill-rule="nonzero" x="261" y="10.5" width="60" height="59"
            rx="29.5"></rect>
        <rect id="矩形" stroke="#9C9C9C" fill="#D8D6D6" fill-rule="nonzero" x="194" y="0.5" width="80" height="80"
            rx="40"></rect>
        <g id="形状" transform="translate(277, 26.5)" fill="#1B283A" fill-rule="nonzero">
            <path
                d="M21.2930183,13.0839431 L14.9156321,13.0839431 L14.9156321,6.70676399 C14.9156321,5.32071393 15.3304489,3.99873919 16.1128675,2.88585229 C16.8413262,1.85053024 17.8530744,1.03778557 19.0368199,0.535300269 C20.1800953,0.0496768944 21.4110556,-0.10882518 22.5981735,0.0732835862 C23.8763487,0.26888189 25.0600941,0.865793954 26.0212549,1.79657209 L26.1123122,1.88762647 L26.2033696,1.97868085 C27.1341779,2.93981045 27.7311094,4.12351742 27.926714,5.40165116 C28.1088287,6.58535815 27.9503215,7.81965089 27.4646824,8.96288925 C26.9621808,10.1465962 26.1494097,11.1583115 25.114054,11.8867467 C24.001131,12.6725123 22.6791133,13.0839431 21.2930183,13.0839431 L21.2930183,13.0839431 Z M16.3995295,11.600094 L21.2930183,11.600094 C22.3722164,11.600094 23.3974546,11.2797174 24.2608131,10.6760606 C25.0702116,10.1061276 25.7076129,9.31361724 26.0988223,8.38621148 C26.4765417,7.49590197 26.6013239,6.54488953 26.4596791,5.63097332 C26.3079169,4.64286464 25.8627477,3.76267227 25.1376615,3.01400291 C25.114054,2.99039622 25.0904466,2.96341714 25.0634666,2.93981045 C25.0398591,2.91620376 25.0128792,2.89259706 24.9892717,2.86561799 C24.240578,2.14055531 23.3569847,1.69540055 22.3722164,1.54364325 C21.4582705,1.40200309 20.5072272,1.52678132 19.6168888,1.90448839 C18.689453,2.29905739 17.8969168,2.93306568 17.3269653,3.74243797 C16.7199165,4.60239603 16.402902,5.62760093 16.402902,6.71013637 L16.3995295,11.600094 L16.3995295,11.600094 Z M13.0843679,13.0839431 L6.70698169,13.0839431 C5.32088665,13.0839431 3.998869,12.6691398 2.88594597,11.8867467 C1.85059031,11.1583115 1.03781925,10.1465962 0.535317645,8.96288925 C0.0496785064,7.81965089 -0.108828712,6.58873053 0.0732859645,5.40502355 C0.268890617,4.12688981 0.865822058,2.94318283 1.79663041,1.98205324 L1.88768774,1.89099885 L1.97874509,1.79994448 C2.93990587,0.869166338 4.12365128,0.272254274 5.40182651,0.0766559707 C6.58557191,-0.105452794 7.81990472,0.053049279 8.96318019,0.538672653 C10.1469256,1.04115795 11.1586738,1.85390262 11.8871325,2.88922468 C12.6695511,4.00211158 13.0843679,5.32408632 13.0843679,6.71013637 L13.0843679,13.0839431 Z M6.3663598,1.48631271 C6.12016773,1.48631271 5.87397567,1.50654702 5.63115611,1.54364325 C4.64301536,1.69540055 3.76279442,2.14055531 3.01410075,2.86561799 C2.99049329,2.88922468 2.96351334,2.91283138 2.93990587,2.93981045 L2.86571101,3.01400291 C2.1406248,3.76267227 1.69545559,4.64623703 1.54369336,5.63097332 C1.40204861,6.54488953 1.52683088,7.49590197 1.90455022,8.38621148 C2.29913202,9.31361724 2.93316089,10.1061276 3.74255946,10.6760606 C4.60254543,11.2830898 5.62778361,11.600094 6.71035419,11.600094 L11.603843,11.600094 L11.603843,6.70676399 C11.603843,5.62760093 11.2834561,4.60239603 10.6797796,3.73906559 C10.1098281,2.92969329 9.31729206,2.29231261 8.38985621,1.90111601 C7.73221987,1.62795286 7.0442311,1.48631271 6.3663598,1.48631271 Z M6.3663598,28 C6.04260037,28 5.72221344,27.9763933 5.40519901,27.9258076 C4.12702377,27.7302093 2.94327837,27.1332971 1.98211757,26.202519 L1.89106024,26.1114647 L1.8000029,26.0204103 C0.869194552,25.0592807 0.272263112,23.8755737 0.0766584586,22.5974399 C-0.105456218,21.4137329 0.0530510005,20.1794402 0.538690139,19.0362019 C1.04119175,17.8524949 1.85396281,16.8407796 2.88931847,16.1123445 C4.00224149,15.3299513 5.32425915,14.915148 6.71035419,14.915148 L13.0877404,14.915148 L13.0877404,21.2923272 C13.0877404,22.6783772 12.6729236,24.0003519 11.890505,25.1132388 C11.1586738,26.1485609 10.1469256,26.964678 8.96318019,27.4637909 C8.12680168,27.8178913 7.24320824,28 6.3663598,28 Z M6.70698169,16.4023696 C5.62778361,16.4023696 4.60254543,16.722746 3.73918696,17.3264029 C2.9297884,17.8963359 2.29238703,18.6888463 1.90117772,19.616252 C1.52345839,20.5065615 1.39867611,21.4575739 1.54032086,22.3714902 C1.69208309,23.3595988 2.1372523,24.2397912 2.86233852,24.9884606 C2.88594597,25.0120673 2.90955344,25.0390464 2.93653339,25.0626531 L3.01072825,25.1368455 C3.75942192,25.8619082 4.64301536,26.307063 5.62778361,26.4588203 C6.54172949,26.6004604 7.4927728,26.4756821 8.38311122,26.0979751 C9.31054708,25.7034061 10.1030832,25.0693978 10.6730347,24.2600255 C11.2800836,23.4000675 11.5970981,22.3748625 11.5970981,21.2923272 L11.5970981,16.4023696 L6.70698169,16.4023696 Z M21.6336402,28 C20.7567917,28 19.8731983,27.8178913 19.0368199,27.4637909 C17.8530744,26.9613056 16.8413262,26.1485609 16.1128675,25.1132388 C15.3304489,24.0003519 14.9156321,22.6783772 14.9156321,21.2923272 L14.9156321,14.9185203 L21.2930183,14.9185203 C22.6791133,14.9185203 24.001131,15.3333237 25.114054,16.1157169 C26.1494097,16.8441519 26.9621808,17.8558673 27.4646824,19.0395743 C27.9503215,20.1828126 28.1088287,21.4137329 27.926714,22.6008124 C27.7311094,23.8789461 27.1341779,25.0626531 26.2033696,26.0237827 L26.1123122,26.114837 L26.0212549,26.2058914 C25.0600941,27.1366696 23.8763487,27.7335816 22.5981735,27.9291799 C22.2777865,27.9763933 21.9573996,28 21.6336402,28 L21.6336402,28 Z M16.3995295,16.4023696 L16.3995295,21.2923272 C16.3995295,22.3714902 16.7199165,23.3966951 17.3235928,24.2600255 C17.8935444,25.0693978 18.6860805,25.7034061 19.6135163,26.0979751 C20.5038548,26.4756821 21.454898,26.6004604 22.3688439,26.4588203 C23.3569847,26.307063 24.2372056,25.8619082 24.9858992,25.1368455 C25.0095067,25.1132388 25.0364866,25.0896321 25.0600941,25.0626531 C25.0837016,25.0390464 25.1073091,25.0120673 25.134289,24.9884606 C25.8593752,24.2397912 26.3045444,23.3562265 26.4563066,22.3714902 C26.5979514,21.4575739 26.4731692,20.5065615 26.0954498,19.616252 C25.700868,18.6888463 25.0668391,17.8963359 24.2574406,17.3264029 C23.3974546,16.7193737 22.3722164,16.4023696 21.2896458,16.4023696 L16.3995295,16.4023696 L16.3995295,16.4023696 Z">
            </path>
        </g>
        <g id="形状" transform="translate(214, 25.5)" fill="#000000" fill-rule="nonzero">
            <path
                d="M36.3636546,4.76036429 L20.8944556,4.76036429 C19.955568,4.76036429 19.1828157,4.09360561 19.0865164,3.23826946 C19.0843978,3.19773166 19.0814796,3.15745591 19.0778419,3.11732986 C19.0771223,3.09756627 19.0762828,3.07780272 19.0762828,3.05785197 L19.0762828,3.06361633 L19.072765,3.06361633 C18.8899204,1.34317455 17.3396187,0 15.4546081,0 L3.63638543,0 C1.62841246,0 0,1.52415353 0,3.40494979 L0,28.5950877 C0,30.4755471 1.62833253,32 3.63638543,32 L36.3636546,32 C38.3715876,32 40,30.475547 40,28.5950877 L40,8.1653515 C40,6.28455523 38.3716674,4.76036429 36.3636546,4.76036429 Z M38.1818672,28.5950877 C38.1818672,29.5353173 37.367621,30.2975251 36.3636944,30.2975251 L3.63638543,30.2975251 C2.6321391,30.2975251 1.8182127,29.5353174 1.8182127,28.5950877 L1.8182127,9.86778894 L38.1818672,9.86778894 L38.1818672,28.5950877 Z M1.8182127,8.1653515 L1.8182127,3.40498721 C1.8182127,2.46490726 2.6321391,1.70251232 3.63638543,1.70251232 L15.4546081,1.70251232 C16.3940953,1.70251232 17.1670876,2.36998218 17.2626672,3.22591723 C17.2647459,3.26578126 17.2675841,3.30545815 17.2711019,3.34494787 C17.2718614,3.36489859 17.2727409,3.38484933 17.2727409,3.40498721 L17.2768982,3.40498721 C17.462621,5.1226591 19.0115637,6.46283918 20.8944156,6.46283918 L36.3636944,6.46283918 C37.367581,6.46283918 38.1818272,7.22523413 38.1818272,8.1653515 L1.8182127,8.1653515 L1.8182127,8.1653515 Z">
            </path>
        </g>
        <text id="Persistent-Cache-Tas" font-family="KohinoorTelugu-Semibold, Kohinoor Telugu" font-size="30"
            font-weight="500" letter-spacing="0.598904639" fill="#000000">
            <tspan x="66" y="135.5">Persistent Cache Tasks</tspan>
        </text>
        <text id="In-the-search-box,-s" font-family="KohinoorTelugu-Regular, Kohinoor Telugu" font-size="21"
            font-weight="normal" letter-spacing="0.419233247" fill="#676767">
            <tspan x="0" y="174.5">In the search box, select Scheduler Cluster and </tspan>
        </text>
        <g id="编组" transform="translate(106, 24.5)" fill="#3E3A39" fill-rule="nonzero">
            <path
                d="M6.13262562,30 C4.64222038,30 3.17131508,29.785914 1.80382756,29.5545851 L1.79768327,29.5535266 C1.64844225,29.5267232 1.49383308,29.5047 1.33016922,29.4813793 C1.17452522,29.4592195 1.01364244,29.4363086 0.854570562,29.4084808 L0.540566165,29.3564787 L0.500563743,29.3365042 C0.132037066,29.2265931 0,28.9075811 0,28.6612286 L0,8.64821954 L0.934543077,9.38379436 C1.09316219,9.41455855 1.41143526,9.46154136 1.5969921,9.48892523 C1.81750663,9.52146494 1.94281733,9.54017613 2.01952368,9.55567772 C3.33113073,9.77737791 4.73671275,9.98203999 6.13262562,9.98204002 C6.89341529,9.98204002 7.39362332,9.83894046 7.70626954,9.53170829 C7.97681134,9.25708413 8.29767145,8.83990672 8.29767142,8.40640826 C8.29767142,8.075992 8.04604749,7.66888721 7.75471221,7.19752249 C7.25120565,6.3829032 6.62455507,5.36905078 6.62455507,3.8336412 C6.62455507,2.63605725 7.08007165,1.63268719 7.94191835,0.932008072 C8.68113839,0.330996702 9.68676093,0 10.7734878,0 C11.8159113,0 12.7726061,0.334684305 13.467361,0.942387995 C14.2497849,1.62674606 14.6633588,2.59532288 14.6633588,3.74336318 C14.6633588,5.11026965 14.0664594,5.94995102 13.5397987,6.69078405 C13.0978642,7.31245283 12.7488051,7.80348477 12.7488051,8.5524784 C12.7488051,9.70157716 13.9106537,9.87315322 14.603242,9.87315322 C15.6846978,9.87315322 16.7988474,9.72172239 17.8762286,9.57527667 C18.7279857,9.45949271 19.608718,9.3397821 20.4866044,9.29119448 L21.1672276,9.25349896 L21.1672276,10.2354604 L21.1126406,10.3127635 C21.0827277,10.4849542 21.0363547,10.8365059 21.0119393,11.0213984 C20.9818647,11.2492787 20.9646608,11.3782424 20.9505613,11.4571162 C20.7402657,12.8415047 20.5460421,14.3257317 20.5460421,15.8019688 C20.5460421,16.6148467 20.6779175,17.1276628 20.9735214,17.4638495 C21.2335856,17.7493999 21.628468,18.0879084 22.0389051,18.0879084 C22.3515189,18.0879084 22.7370556,17.8221618 23.1834204,17.5144175 C23.954914,16.9825829 24.915069,16.3206919 26.3685439,16.3206919 C27.5020966,16.3206919 28.4524207,16.800661 29.1168424,17.7086655 C29.686319,18.4870575 30,19.543215 30,20.6827533 C30,21.7910153 29.6832469,22.806609 29.1080787,23.5424228 C28.4606347,24.3706999 27.5432955,24.8085006 26.4553075,24.8085006 C25.1597078,24.8085006 24.3641222,24.1777835 23.6622205,23.6212966 C23.0737937,23.1547804 22.6090284,22.7863272 21.9005944,22.7863272 C21.2509513,22.7863272 20.6497832,22.9771949 20.6497832,24.361959 C20.6497832,24.9937003 20.7738328,25.6280026 20.905126,26.2995565 C21.0468646,27.0243416 21.1934215,27.7737449 21.1842051,28.5569172 L21.1842051,29.3255097 L20.5374402,29.3255097 C20.3578335,29.3255097 20.1881871,29.3255097 20.0280804,29.341182 C19.4524272,29.4001154 18.8565303,29.4812086 18.280295,29.5596043 C17.082745,29.722576 15.8444164,29.8911132 14.603242,29.8911132 C14.0409445,29.8911132 13.2279933,29.7961574 12.548405,29.343777 C11.8332769,28.8677345 11.4552751,28.1280282 11.4552751,27.2046928 C11.4552751,26.0001434 12.0131099,25.2154347 12.5052657,24.5230868 C12.9691903,23.8705173 13.3698288,23.3068941 13.3698289,22.3955435 C13.3698289,20.6406531 11.9617245,20.0179941 10.7558635,20.0179941 C9.44677879,20.0179941 7.91805272,20.6643152 7.91805272,22.4858215 C7.91805272,23.6149457 8.38569615,24.3715877 8.83794656,25.10327 C9.22532646,25.7299581 9.59116907,26.321887 9.59116907,27.0585885 C9.59116907,27.7840907 9.24793089,28.5151243 8.59857883,29.1726448 L8.59298431,29.1782445 C7.84807274,29.9148095 6.83206962,30 6.13262562,30 L6.13262562,30 Z M2.01150379,28.2065264 C3.32527752,28.4287388 4.73383465,28.6342203 6.13262562,28.6342203 C6.89341529,28.6342203 7.39362332,28.4911207 7.70626954,28.1838886 C7.97681134,27.9092644 8.29767145,27.4921212 8.29767142,27.0586227 C8.29767142,26.7282064 8.04604749,26.3211017 7.75471221,25.8497369 C7.25120565,25.0351176 6.62455507,24.021231 6.62455507,22.4858556 C6.62455507,21.2895009 7.07903682,20.2863699 7.93887855,19.5849054 C8.67612597,18.9834843 9.6765744,18.6522486 10.7558958,18.6522486 C11.8056601,18.6522486 12.7675289,18.9866598 13.4642565,19.5938171 C14.2487178,20.277424 14.6633588,21.246274 14.6633588,22.3955776 C14.6633588,23.76245 14.0664594,24.6021655 13.5397987,25.3429985 C13.0978642,25.9646673 12.7488051,26.4556992 12.7488051,27.2046928 C12.7488051,28.3537574 13.9106537,28.5253677 14.603242,28.5253677 C15.7613717,28.5253677 16.957887,28.3625326 18.1149495,28.2050582 C18.688339,28.127038 19.2808404,28.0464229 19.8667772,27.9855432 C19.8246081,27.5282119 19.7333496,27.0614908 19.6383721,26.5757171 C19.4996734,25.866536 19.3562533,25.1332147 19.3562533,24.361959 C19.3562533,23.4931865 19.5494096,22.7991655 19.9303542,22.299256 C20.3746171,21.7162046 21.0374865,21.4205816 21.9005944,21.4205816 C23.0405823,21.4205816 23.7834566,22.00954 24.4388559,22.5291509 C25.0572279,23.0193634 25.5912618,23.4427551 26.4552751,23.4427551 C28.1168791,23.4427551 28.7064377,21.9559673 28.7064377,20.6827874 C28.7064377,19.3006184 28.0941453,17.6865058 26.3685116,17.6865058 C25.2998942,17.6865058 24.5834402,18.1804058 23.8905609,18.6580532 C23.2970247,19.0672066 22.7364088,19.4537223 22.0388727,19.4537223 C21.3517173,19.4537223 20.6593553,19.0913126 20.03665,18.4056912 L20.0308615,18.3992379 C19.3331637,17.6107391 19.2524798,16.5393191 19.2524798,15.8020371 C19.2524798,14.2261663 19.4555317,12.6732748 19.674979,11.2299188 L19.679474,11.2037641 C19.687591,11.160025 19.7115212,10.9786836 19.7307625,10.8329891 C19.735969,10.7935863 19.7409814,10.7556518 19.7458645,10.719083 C19.1762586,10.7757287 18.6023193,10.8537489 18.04138,10.9299936 C16.9235438,11.0819366 15.7676131,11.2390354 14.603242,11.2390354 C14.0409445,11.2390354 13.2279933,11.1440795 12.548405,10.691665 C11.8332769,10.2155883 11.4552751,9.47591617 11.4552751,8.55258084 C11.4552751,7.34803143 12.0131099,6.5633227 12.5052657,5.87100895 C12.9691903,5.21843941 13.3698288,4.65481628 13.3698289,3.74346562 C13.3698289,1.98857529 11.9711996,1.36588214 10.7734878,1.36588214 C9.45628624,1.36588214 7.91808505,2.01220324 7.91808505,3.83374364 C7.91808505,4.96290201 8.38572848,5.71950982 8.83797889,6.45119217 C9.22535879,7.07791432 9.5912014,7.66984327 9.5912014,8.40651069 C9.5912014,9.13201287 9.24796322,9.86304647 8.59861119,10.5205669 L8.59301667,10.5261666 C7.84807274,11.2627316 6.83206962,11.347888 6.13262562,11.347888 C4.64228507,11.347888 3.17137977,11.133802 1.80382756,10.9024731 L1.77663108,10.897249 C1.73426798,10.8883714 1.55886531,10.8624558 1.41793523,10.8416617 L1.29352998,10.8232237 L1.29352998,28.0976055 C1.36182837,28.1078147 1.43158196,28.1177507 1.50314652,28.1279599 C1.66942979,28.1515879 1.84133993,28.1760353 2.01150379,28.2065264 L2.01150379,28.2065264 Z"
                id="形状"></path>
        </g>
        <text id="find-Persistent-Cach" font-family="KohinoorTelugu-Regular, Kohinoor Telugu" font-size="21"
            font-weight="normal" letter-spacing="0.419233247" fill="#676767">
            <tspan x="85" y="206.5"> find Persistent Cache Tasks.</tspan>
        </text>
    </g>
</svg>