<svg t="1747310123117" class="icon" viewBox="0 0 1024 1024" version="1.1" xmlns="http://www.w3.org/2000/svg"
    p-id="11661" width="200" height="200">
    <path
        d="M404.48 303.7184h219.648c26.3168 0 47.7184-21.4016 47.7184-47.7184V172.4416c0-12.8-4.9664-24.7808-14.0288-33.792a47.32416 47.32416 0 0 0-33.6896-13.9264h-6.7584-0.0512c-4.3008 0-8.3968-1.8432-11.264-5.0176l-18.3296-20.3264a61.61408 61.61408 0 0 0-45.7216-20.3776H491.52c-17.0496 0-33.4848 7.168-45.1072 19.6608l-19.6608 21.1968c-2.8672 3.072-6.912 4.864-11.1104 4.864h-0.0512l-10.9568-0.0512H404.48c-12.7488 0-24.6784 4.9664-33.6896 13.9264a47.36 47.36 0 0 0-14.0288 33.792v83.5584c0 26.368 21.4016 47.7696 47.7184 47.7696z"
        fill="currentColor" p-id="11662"></path>
    <path
        d="M768.3072 206.1312h-39.5776v60.2624c0 49.2032-39.8848 89.0368-89.0368 89.0368H389.0176c-49.2032 0-89.0368-39.8848-89.0368-89.0368V206.1312h-39.5776c-52.992 0-96.0512 43.1104-96.0512 96.0512v534.016c0 52.992 43.1104 96.0512 96.0512 96.0512h507.9552c52.992 0 96.0512-43.1104 96.0512-96.0512V302.2336c-0.0512-52.992-43.1104-96.1024-96.1024-96.1024z m-435.2 245.0432h198.144c19.0464 0 34.4576 15.4624 34.4576 34.4576s-15.4624 34.4576-34.4576 34.4576h-198.144c-19.0464 0-34.4576-15.4624-34.4576-34.4576s15.4112-34.4576 34.4576-34.4576z m351.8976 345.1904H333.1072c-19.0464 0-34.4576-15.4624-34.4576-34.4576s15.4624-34.4576 34.4576-34.4576h351.8976c19.0464 0 34.4576 15.4624 34.4576 34.4576s-15.4112 34.4576-34.4576 34.4576z m0-130.5088H333.1072c-19.0464 0-34.4576-15.4624-34.4576-34.4576s15.4624-34.4576 34.4576-34.4576h351.8976c19.0464 0 34.4576 15.4624 34.4576 34.4576s-15.4112 34.4576-34.4576 34.4576z"
        fill="currentColor" p-id="11663"></path>
    <path
        d="M864.3584 302.2336c0-52.992-43.1104-96.0512-96.0512-96.0512h-39.5776v60.2624c0 49.2032-39.8848 89.0368-89.0368 89.0368H389.0176c-49.2032 0-89.0368-39.8848-89.0368-89.0368V206.1312h-39.5776c-52.992 0-96.0512 43.1104-96.0512 96.0512v534.016c0 52.992 43.1104 96.0512 96.0512 96.0512h163.1744c199.1168-41.1136 363.008-178.5344 440.832-361.3696V302.2336zM333.1072 451.1744h198.144c19.0464 0 34.4576 15.4624 34.4576 34.4576s-15.4112 34.4576-34.4576 34.4576h-198.144c-19.0464 0-34.4576-15.4624-34.4576-34.4576s15.4112-34.4576 34.4576-34.4576z m351.8976 345.1904H333.1072c-19.0464 0-34.4576-15.4624-34.4576-34.4576 0-19.0464 15.4624-34.4576 34.4576-34.4576h351.8976c19.0464 0 34.4576 15.4624 34.4576 34.4576 0 18.9952-15.4112 34.4576-34.4576 34.4576z m0-130.5088H333.1072c-19.0464 0-34.4576-15.4112-34.4576-34.4576 0-19.0464 15.4624-34.4576 34.4576-34.4576h351.8976c19.0464 0 34.4576 15.4624 34.4576 34.4576 0 19.0464-15.4112 34.4576-34.4576 34.4576z"
        fill="currentColor" p-id="11664"></path>
    <path
        d="M728.7296 206.1312v47.4112c3.6864-15.5648 6.7584-31.3856 9.216-47.4112h-9.216zM397.5168 665.856H333.1072c-19.0464 0-34.4576-15.4112-34.4576-34.4576 0-19.0464 15.4624-34.4576 34.4576-34.4576h175.2576c89.6512-69.9904 159.4368-164.3008 199.3216-273.0496-16.3328 19.3024-40.704 31.5904-67.9936 31.5904H389.0176c-49.2032 0-89.0368-39.8848-89.0368-89.0368V206.1312h-39.5776c-52.992 0-96.0512 43.1104-96.0512 96.0512v423.5776c83.1488-4.4544 161.9968-25.4976 233.1648-59.904zM333.1072 451.1744h198.144c19.0464 0 34.4576 15.4624 34.4576 34.4576s-15.4112 34.4576-34.4576 34.4576h-198.144c-19.0464 0-34.4576-15.4624-34.4576-34.4576s15.4112-34.4576 34.4576-34.4576z"
        fill="currentColor" p-id="11665"></path>
    <path
        d="M382.8736 355.1232c-46.336-3.1744-82.944-41.6256-82.944-88.7296V206.1312h-39.5776c-52.992 0-96.0512 43.1104-96.0512 96.0512V479.744c81.6128-26.2144 155.8016-69.12 218.5728-124.6208zM561.3568 82.1248c-6.144-2.048-12.6976-3.1232-19.3024-3.1232H491.52c-17.0496 0-33.4848 7.168-45.1072 19.712l-19.6608 21.1968c-2.8672 3.072-6.912 4.864-11.1104 4.864h-0.0512l-10.9568-0.0512H404.48c-12.7488 0-24.6784 4.9664-33.6896 13.9264a47.36 47.36 0 0 0-14.0288 33.792V256c0 26.3168 21.4016 47.7184 47.7184 47.7184h30.0544c56.6272-63.4368 100.3008-138.7008 126.8224-221.5936z"
        fill="currentColor" p-id="11666"></path>
</svg>