<svg width="158.164062px" height="160.683594px" viewBox="0 0 158.164062 160.683594" version="1.1"
    xmlns="http://www.w3.org/2000/svg" xmlns:xlink="http://www.w3.org/1999/xlink">
    <g id="页面-3" stroke="none" stroke-width="1" fill="none" fill-rule="evenodd">
        <g id="编组" fill-rule="nonzero">
            <path
                d="M134.882812,155.234375 L134.882812,123.671875 C134.882812,121.015625 133.90625,118.417969 132.148438,116.40625 L100.761719,80.46875 C98.28125,77.6171875 98.3398438,73.359375 100.917969,70.5859375 L132.460938,36.796875 C134.375,34.765625 135.429688,32.0507812 135.429688,29.2578125 L135.429688,5.15625 L20.4882812,5.15625 L20.4882812,29.2578125 C20.4882812,32.0507813 21.5625,34.7460938 23.4570312,36.796875 L55,70.5859375 C57.578125,73.359375 57.6367188,77.6171875 55.15625,80.46875 L23.7695313,116.40625 C22.0117188,118.417969 21.0546875,120.996094 21.0546875,123.671875 L21.0546875,155.234375 L134.882812,155.234375 Z"
                id="路径" fill="currentColor"></path>
            <polygon id="路径" fill="#FFFFFF"
                points="35.5664063 124.726562 72.7539062 82.3242187 76.8554688 77.5 121.484375 123.984375 122.226562 154.863281 35.5664063 154.863281">
            </polygon>
            <path
                d="M125.175781,157.753906 L32.6757812,157.753906 L32.6757812,123.652344 L76.6992188,73.203125 L124.316406,122.8125 L125.175781,157.753906 L125.175781,157.753906 Z M38.4375,151.992188 L119.277344,151.992188 L118.632812,125.175781 L76.9921875,81.796875 L74.9609375,84.1992187 L38.4375,125.820312 L38.4375,151.992188 Z"
                id="形状" fill="#FFFFFF"></path>
            <path
                d="M153.847656,8.6328125 L4.31640625,8.6328125 C1.93359375,8.6328125 0,6.69921875 0,4.31640625 C0,1.93359375 1.93359375,0 4.31640625,0 L153.847656,0 C156.230469,0 158.164062,1.93359375 158.164062,4.31640625 C158.164062,6.69921875 156.25,8.6328125 153.847656,8.6328125 Z M153.847656,160.683594 L4.31640625,160.683594 C1.93359375,160.683594 0,158.75 0,156.367187 C0,153.984375 1.93359375,152.050781 4.31640625,152.050781 L153.847656,152.050781 C156.230469,152.050781 158.164062,153.984375 158.164062,156.367187 C158.164062,158.75 156.25,160.683594 153.847656,160.683594 Z"
                id="形状" fill="currentColor"></path>
        </g>
    </g>
</svg>