<?xml version="1.0" standalone="no"?>
<!DOCTYPE svg PUBLIC "-//W3C//DTD SVG 1.1//EN" "http://www.w3.org/Graphics/SVG/1.1/DTD/svg11.dtd"><svg t="1688108590072"
    class="icon" viewBox="0 0 1024 1024" version="1.1" xmlns="http://www.w3.org/2000/svg" p-id="20288"
    xmlns:xlink="http://www.w3.org/1999/xlink" width="64" height="64">
    <path
        d="M376.8 619.8h272.4c15 0 27.2 12.2 27.2 27.2s-12.2 27.2-27.2 27.2H376.8c-15 0-27.2-12.2-27.2-27.2s12.1-27.2 27.2-27.2z m0-272.5h109c15 0 27.2 12.2 27.2 27.2s-12.2 27.2-27.2 27.2h-109c-15 0-27.2-12.2-27.2-27.2-0.1-15 12.1-27.2 27.2-27.2z m0 136.2h272.4c15 0 27.2 12.2 27.2 27.2s-12.2 27.2-27.2 27.2H376.8c-15 0-27.2-12.2-27.2-27.2-0.1-15 12.1-27.2 27.2-27.2z m-109-326.9h365.1l179.8 163.5v490.4c0 30.1-24.4 54.5-54.5 54.5H267.8c-30.1 0-54.5-24.4-54.5-54.5V211.1c0-30.1 24.4-54.5 54.5-54.5z m490.8 218v-27.2l-109.4-97.1v124.3h109.4z m0 54.5h-137c-15 0-27.2-12.2-27.2-27.2 0-1.6 0.1-3.2 0.4-4.8v-186h-300c-15 0-27.2 12.2-27.2 27.2v544.9c0 15 12.2 27.2 27.2 27.2h436.6c15 0 27.2-12.2 27.2-27.2V429.1z"
        p-id="20289" fill="#1C293A"></path>
</svg>