<?xml version="1.0" standalone="no"?><!DOCTYPE svg PUBLIC "-//W3C//DTD SVG 1.1//EN" "http://www.w3.org/Graphics/SVG/1.1/DTD/svg11.dtd"><svg t="1689235541066" class="icon" viewBox="0 0 1024 1024" version="1.1" xmlns="http://www.w3.org/2000/svg" p-id="23508" xmlns:xlink="http://www.w3.org/1999/xlink" width="64" height="64"><path d="M288 416v-96a128 128 0 0 1 256 0v96h64v-96c0-106-86-192-192-192s-192 86-192 192v96zM512 704h-64v-64l384-384 64 64-384 384z" p-id="23509" fill="#ffffff"></path><path d="M544 736H416V608l160-160H192a64.19 64.19 0 0 0-64 64v320a64.19 64.19 0 0 0 64 64h448a64.19 64.19 0 0 0 64-64V576z" p-id="23510" fill="#ffffff"></path></svg>