<svg t="1734335138637" class="icon" viewBox="0 0 1024 1024" version="1.1" xmlns="http://www.w3.org/2000/svg"
    p-id="17714" width="200" height="200">
    <path
        d="M502.897778 75.093333C257.137778 75.093333 59.164444 273.066667 59.164444 518.826667s200.248889 443.733333 443.733334 443.733333c245.76 0 443.733333-197.973333 443.733333-443.733333S746.382222 75.093333 502.897778 75.093333z m288.995555 577.991111c-6.826667 13.653333-18.204444 20.48-31.857777 20.48-4.551111 0-9.102222 0-13.653334-2.275555l-261.688889-118.328889c-11.377778-4.551111-20.48-18.204444-20.48-31.857778V275.342222c0-18.204444 15.928889-34.133333 34.133334-34.133333s34.133333 15.928889 34.133333 34.133333V500.622222L773.688889 609.848889c18.204444 6.826667 25.031111 25.031111 18.204444 43.235555z"
        fill="currentColor" p-id="17715"></path>
</svg>