<svg width="152.11875px" height="167.16875px" viewBox="0 0 152.11875 167.16875" version="1.1"
    xmlns="http://www.w3.org/2000/svg" xmlns:xlink="http://www.w3.org/1999/xlink">
    <g id="页面-1" stroke="none" stroke-width="1" fill="none" fill-rule="evenodd">
        <g id="编组" fill="currentColor" fill-rule="nonzero">
            <path
                d="M75.58125,0 C98.7224265,0 117.48125,18.7597659 117.48125,41.8970099 C117.48125,65.0402341 98.7224265,83.8 75.58125,83.8 C52.4400735,83.8 33.68125,65.0402341 33.68125,41.8970099 C33.68125,18.7537858 52.4459559,0 75.58125,0 L75.58125,0 Z M57.50625,94.18125 L94.6125,94.18125 C126.375,94.18125 152.11875,119.5 152.11875,150.74375 L152.11875,154.3875 C152.11875,166.7 126.36875,167.16875 94.6125,167.16875 L57.50625,167.16875 C25.74375,167.16875 0,167.15 0,154.3875 L0,150.74375 C0,119.5 25.74375,94.18125 57.50625,94.18125 L57.50625,94.18125 Z"
                id="形状"></path>
        </g>
    </g>
</svg>