<svg t="1741597128844" class="icon" viewBox="0 0 1024 1024" version="1.1" xmlns="http://www.w3.org/2000/svg"
    p-id="105187" width="200" height="200">
    <path
        d="M597.2736 983.808a51.8656 51.8656 0 0 1-3.4816-68.5056l0.1536-0.2048-0.3584-0.1024a50.8416 50.8416 0 0 1-44.8512-50.8928v-58.7776c0-26.2144 19.3536-48.1792 44.9536-50.8928h0.1024a51.968 51.968 0 0 1 3.2768-68.3008l40.0384-41.3184a49.664 49.664 0 0 1 67.584-3.584h0.0512a50.176 50.176 0 0 1 46.08-45.0048 353.536 353.536 0 0 0-144.1792-30.8224H399.6928C207.2832 565.4016 50.816 717.8752 50.816 905.6256v20.2752C50.816 1024 204.7744 1024 399.6928 1024H636.6976l-39.424-40.192zM492.8256 539.392c152.3712 0 276.2752-120.9856 276.2752-269.7216S645.1968 0 492.8256 0 216.5504 120.9856 216.5504 269.7216s123.9552 269.6704 276.2752 269.6704z"
        fill="currentColor" p-id="105188"></path>
    <path
        d="M734.592 829.9008c0-15.4112 5.12-28.2112 15.5136-38.8096a51.2 51.2 0 0 1 38.0928-15.8208c15.1552 0 27.6992 5.2224 38.144 15.8208s15.5648 23.3984 15.5648 38.8096c0 15.5136-5.12 28.5184-15.5648 39.1168a51.5584 51.5584 0 0 1-38.144 15.8208 51.0976 51.0976 0 0 1-38.0928-15.8208 54.2208 54.2208 0 0 1-15.5136-39.1168m-75.776 35.584c3.1232 11.52 7.8336 22.6816 13.568 33.024l-35.3792 44.288 40.0896 40.8064 43.3664-35.9936c10.24 5.7856 21.4528 10.5984 32.6656 13.9776l5.8368 56.4224h57.8048l5.8368-56.4224c11.264-3.3792 21.8624-8.192 32.6656-13.9776l43.2128 35.9936 40.448-40.8064-35.5328-44.1856c5.4784-10.3936 10.3936-21.6064 13.7728-33.024L972.416 859.392v-58.88l-55.3472-5.9904a186.9312 186.9312 0 0 0-13.7728-32.9216l35.5328-44.288-40.448-41.216-43.2128 36.1984a209.664 209.664 0 0 0-32.6656-13.9776l-5.8368-56.4224H758.912l-5.8368 56.4224a164.352 164.352 0 0 0-32.6656 13.9776l-43.3664-36.1984-40.0896 41.216 35.3792 44.288c-5.4784 10.9056-10.24 21.504-13.568 32.9216l-55.6032 5.9904v58.88l55.6544 6.0928"
        fill="currentColor" p-id="105189" data-spm-anchor-id="a313x.search_index.0.i88.25483a81VWNBfr" class="selected">
    </path>
</svg>