<svg width="161.612913px" height="174.397px" viewBox="0 0 161.612913 174.397" version="1.1"
    xmlns="http://www.w3.org/2000/svg" xmlns:xlink="http://www.w3.org/1999/xlink">
    <g id="页面-1" stroke="none" stroke-width="1" fill="none" fill-rule="evenodd">
        <g id="编组" fill="currentColor" fill-rule="nonzero">
            <path
                d="M151.911913,137.399 C152.911913,144.199 158.713913,143.199 159.713913,146.199 C159.713913,148.097 158.713913,154.999 155.813913,155.899 C152.914913,155.899 149.013913,154.899 146.113913,155.899 C144.215913,156.899 142.215913,157.798 141.215913,159.798 C139.315913,164.697 143.113913,168.597 141.215913,170.497 C138.315913,172.397 132.414913,175.397 130.515913,173.397 C127.616913,170.497 127.616913,166.596 121.715913,166.596 C113.914913,166.596 113.914913,174.397 110.015913,174.397 C106.116913,174.397 99.3159132,171.497 99.3159132,168.596 C100.315913,164.697 102.215913,161.797 98.3159132,157.897 C93.4159132,153.997 87.6169132,157.897 85.6169132,155.997 C82.7179132,154.097 81.7179132,149.197 82.7179132,146.298 C83.7179132,143.399 90.5179132,143.399 90.5179132,135.597 C90.5179132,129.798 83.7179132,128.798 82.7179132,124.899 C81.7179132,121.999 83.7179132,117.097 86.6169132,116.097 C91.5159132,114.199 94.4159132,117.997 99.3159132,114.199 C102.215913,111.301 101.215913,104.499 101.215913,102.499 C102.215913,99.6 106.113913,98.6 109.015913,98.6 C114.815913,98.6 112.914913,105.401 120.715913,106.401 C128.515913,106.401 127.515913,103.501 131.414913,98.6 C136.313913,98.6 140.215913,100.499 141.113913,102.499 C143.013913,106.399 139.215913,112.199 145.013913,116.1 C149.911913,118.999 154.713913,115.1 157.713913,116.1 C159.612913,117.1 160.612913,119.999 161.612913,123.901 C159.713913,129.597 150.911913,128.597 151.911913,137.399 L151.911913,137.399 Z M116.813913,117.899 C93.4149132,123.699 102.213913,157.798 124.613913,153.999 C147.113913,149.097 144.113913,112.999 116.813913,117.899 Z M76.9139132,83.8 C53.5139132,83.8 35.0139132,65.3 35.0139132,41.9 C35.0139132,18.5 53.5139132,0 76.9139132,0 C100.312913,0 118.812913,18.5 118.812913,41.9 C118.813913,64.3 100.313913,83.8 76.9139132,83.8 L76.9139132,83.8 Z M111.013913,93.499 C111.013913,93.499 95.4119132,93.499 96.4119132,104.199 C97.4119132,115.899 81.8119132,107.097 78.9129132,116.899 C75.0129132,128.597 80.8119132,126.597 83.8119132,134.399 C85.7119132,139.298 76.0119132,142.199 77.0119132,150.999 C78.9119132,162.699 88.7119132,156.801 91.6129132,163.699 C93.5119132,169.499 86.7139132,173.399 71.1129132,173.399 C58.4139132,173.399 34.1129132,173.399 25.3129132,172.399 C25.3129132,172.399 0.0129132231,171.399 0.0129132231,154.899 C0.0129132231,154.899 -0.987086777,130.499 14.6129132,112.999 C14.6129132,112.999 31.2129132,91.6 59.4139132,91.6 L111.013913,93.499 L111.013913,93.499 Z"
                id="形状"></path>
        </g>
    </g>
</svg>