<svg t="1733478018718" class="icon" viewBox="0 0 1024 1024" version="1.1" xmlns="http://www.w3.org/2000/svg" p-id="8057"
    width="200" height="200">
    <path
        d="M522.6496 554.6496a31.9488 31.9488 0 0 1-32-32v-64a31.9488 31.9488 0 1 1 64 0v64c0 17.7152-14.2848 32-32 32z m-277.2992 42.7008a31.9488 31.9488 0 0 1-32-32v-42.7008a31.9488 31.9488 0 1 1 64 0v42.7008c0 17.664-14.336 32-32 32z m533.2992 0a31.9488 31.9488 0 0 1-32-32v-42.7008a31.9488 31.9488 0 1 1 64 0v42.7008c0 17.664-14.2848 32-32 32z m0-42.7008H245.3504a31.9488 31.9488 0 1 1 0-64h533.2992a31.9488 31.9488 0 1 1 0 64zM640 42.6496h-256c-46.9504 0-85.3504 38.4-85.3504 85.3504v149.3504c0 46.8992 38.4 85.2992 85.3504 85.2992h256c46.9504 0 85.3504-38.4 85.3504-85.2992V128c0-46.9504-38.4-85.3504-85.3504-85.3504z m-10.6496 128h-64a31.9488 31.9488 0 1 1 0-64h64a31.9488 31.9488 0 1 1 0 64zM384 661.3504h-256c-46.9504 0-85.3504 38.4-85.3504 85.2992V896c0 46.9504 38.4 85.3504 85.3504 85.3504h256c46.9504 0 85.3504-38.4 85.3504-85.3504v-149.3504c0-46.8992-38.4-85.2992-85.3504-85.2992z m-10.6496 128h-64a31.9488 31.9488 0 1 1 0-64h64a31.9488 31.9488 0 1 1 0 64z m522.6496-128h-256c-46.9504 0-85.3504 38.4-85.3504 85.2992V896c0 46.9504 38.4 85.3504 85.3504 85.3504h256c46.9504 0 85.3504-38.4 85.3504-85.3504v-149.3504c0-46.8992-38.4-85.2992-85.3504-85.2992z m-10.6496 128h-64a31.9488 31.9488 0 1 1 0-64h64a31.9488 31.9488 0 1 1 0 64z"
        fill="#1c293a" p-id="8058"></path>
</svg>