<svg t="1732255957198" class="icon" viewBox="0 0 1024 1024" version="1.1" xmlns="http://www.w3.org/2000/svg" p-id="25591" width="200" height="200"><path d="M705.518933 342.545067a99.396267 99.396267 0 1 1-94.634666 129.928533H247.176533a28.398933 28.398933 0 0 1-3.293866-56.593067l3.293866-0.2048h362.478934a99.464533 99.464533 0 0 1 95.880533-73.096533zM318.5152 598.562133a99.464533 99.464533 0 0 1 95.2832 70.997334H760.661333a28.398933 28.398933 0 0 1 3.328 56.593066l-3.328 0.2048H413.7984a99.413333 99.413333 0 1 1-95.2832-127.7952z m0 56.797867a42.666667 42.666667 0 1 0 42.666667 42.666667 42.581333 42.581333 0 0 0-42.666667-42.666667z" p-id="25592" fill="#707070"></path><path d="M850.773333 60.8256h-677.546666a113.595733 113.595733 0 0 0-113.595734 113.595733v677.546667a113.6128 113.6128 0 0 0 113.595734 113.595733h677.546666a113.6128 113.6128 0 0 0 113.595734-113.595733v-677.546667a113.595733 113.595733 0 0 0-113.595734-113.595733z m-677.546666 56.797867h677.546666a56.814933 56.814933 0 0 1 56.797867 56.797866v677.546667a56.814933 56.814933 0 0 1-56.797867 56.797867h-677.546666a56.814933 56.814933 0 0 1-56.797867-56.797867v-677.546667a56.797867 56.797867 0 0 1 56.797867-56.797866z" p-id="25593" fill="#707070"></path><path d="M354.133333 160.682667a42.666667 42.666667 0 0 1 4.113067 85.077333l-4.113067 0.170667h-148.48a42.666667 42.666667 0 0 1-4.113066-85.009067l4.113066-0.187733z m132.881067 0a42.666667 42.666667 0 0 1 4.113067 85.077333l-4.113067 0.170667h-10.973867a42.666667 42.666667 0 0 1-4.078933-85.009067l4.078933-0.187733z" p-id="25594" fill="#707070"></path></svg>