<svg xmlns="http://www.w3.org/2000/svg" xmlns:xlink="http://www.w3.org/1999/xlink" aria-hidden="true" role="img"
  class="iconify iconify--solar mnl__icon__root MuiBox-root css-cnvj7y" width="1em" height="1em" viewBox="0 0 24 24">
  <path fill="currentColor" fill-rule="evenodd"
    d="M3.25 7A.75.75 0 0 1 4 6.25h16a.75.75 0 0 1 0 1.5H4A.75.75 0 0 1 3.25 7m0 5a.75.75 0 0 1 .75-.75h11a.75.75 0 0 1 0 1.5H4a.75.75 0 0 1-.75-.75m0 5a.75.75 0 0 1 .75-.75h5a.75.75 0 0 1 0 1.5H4a.75.75 0 0 1-.75-.75"
    clip-rule="evenodd"></path>
</svg>