<svg width="672px" height="756px" viewBox="0 0 672 756" version="1.1" xmlns="http://www.w3.org/2000/svg"
    xmlns:xlink="http://www.w3.org/1999/xlink">
    <defs>
        <rect id="path-oxvshbn4z7-1" x="0" y="0" width="170" height="129" rx="4"></rect>
    </defs>
    <g id="页面-1" stroke="none" stroke-width="1" fill="none" fill-rule="evenodd">
        <g id="milestones">
            <rect id="矩形" fill="#1f2430" fill-rule="nonzero" x="0" y="0" width="672" height="756"></rect>
            <rect id="矩形" fill="#FFFFFF" fill-rule="nonzero" opacity="0.1" x="158" y="158" width="162" height="115"
                rx="4"></rect>
            <path
                d="M137,298 L319,298 C321.209139,298 323,299.790861 323,302 L323,464 C323,466.209139 321.209139,468 319,468 L137,468 C134.790861,468 133,466.209139 133,464 L133,302 C133,299.790861 134.790861,298 137,298 Z"
                id="矩形" fill="#FBFBFB" fill-rule="nonzero" opacity="0.1"></path>
            <path
                d="M146,308 L310,308 C311.656854,308 313,309.343146 313,311 L313,452 C313,453.656854 311.656854,455 310,455 L146,455 C144.343146,455 143,453.656854 143,452 L143,311 C143,309.343146 144.343146,308 146,308 Z"
                id="path-1" fill="#FBFBFB" fill-rule="nonzero" opacity="0.1"></path>
            <rect id="矩形" fill="#FFFFFF" fill-rule="nonzero" opacity="0.1" x="341" y="360" width="172" height="115"
                rx="4"></rect>
            <g id="优投投资孵化" transform="translate(208, 324)" fill="#00A76F" fill-rule="nonzero">
                <path
                    d="M18.9996858,21.8156926 C17.2615256,21.8156926 15.8469924,20.3784584 15.8469924,18.6119354 C15.8469924,16.8454124 17.2608971,15.4081782 18.9996858,15.4081782 C20.7384744,15.4081782 22.1530077,16.8454124 22.1530077,18.6119354 C22.1530077,20.3784585 20.7384745,21.8156926 18.9996858,21.8156926 M18.9996858,13.9591837 C16.4860773,13.9591837 14.44,16.04633 14.44,18.6119354 C14.44,21.1775409 16.4854489,23.2653061 18.9996858,23.2653061 C21.5139227,23.2653061 23.56,21.1775409 23.56,18.6119354 C23.56,16.04633 21.5139227,13.9591837 18.9996858,13.9591837"
                    id="形状"></path>
                <path
                    d="M11.9212441,17.9300292 C11.5325559,17.9300292 11.2158002,18.2361515 11.2158002,18.612828 C11.2158002,18.9895044 11.5325559,19.2956268 11.9212441,19.2956268 C12.3099323,19.2956268 12.626057,18.9895044 12.626057,18.6134111 C12.626057,18.2361516 12.3099323,17.9300292 11.9212441,17.9300292 M8.84013285,17.9300292 C8.45081363,17.9300292 8.13468899,18.2361515 8.13468899,18.612828 C8.13468899,18.9895044 8.45081367,19.2956268 8.84013285,19.2956268 C9.22882105,19.2956268 9.54494573,18.9895044 9.54494573,18.6134111 C9.54494573,18.2361516 9.22882105,17.9300292 8.84013285,17.9300292 M3.23696513,20.3498542 C2.23117127,20.3498542 1.41278069,19.5708455 1.41278069,18.612828 C1.41278069,17.6553936 2.23117127,16.8763848 3.23696513,16.8763848 C4.24275899,16.8763848 5.06114958,17.6553936 5.06114958,18.612828 C5.06114958,19.5708455 4.24275899,20.3504374 3.23759611,20.3504374 M3.22939326,15.5107872 C1.44874696,15.5102041 0,16.9026239 0,18.6122449 C0,20.323032 1.45190191,21.7142858 3.23696513,21.7142858 C5.01761145,21.7142858 6.4663584,20.323032 6.4663584,18.6122449 C6.4663584,16.9020408 5.01382551,15.5102041 3.22939326,15.5102041 M28.9351871,17.9300292 C28.5464989,17.9300292 28.2297432,18.2361515 28.2297432,18.612828 C28.2297432,18.9895044 28.5464989,19.2956268 28.9351871,19.2956268 C29.3238753,19.2956268 29.64,18.9895044 29.64,18.6134111 C29.64,18.2361516 29.3245063,17.9300292 28.9351871,17.9300292 M25.8540759,17.9300292 C25.4653876,17.9300292 25.148632,18.2361515 25.148632,18.612828 C25.148632,18.9895044 25.4653876,19.2956268 25.8540759,19.2956268 C26.2427641,19.2956268 26.5588887,18.9895044 26.5588887,18.6134111 C26.5588887,18.2361516 26.2427641,17.9300292 25.8540759,17.9300292"
                    id="形状"></path>
                <path
                    d="M34.7387704,20.8269585 C33.7248014,20.8269585 32.9009118,20.0076176 32.9009118,19 C32.9009118,17.9929957 33.7248014,17.1736548 34.7381347,17.1736548 C35.7521037,17.1736548 36.5766291,17.9929957 36.5766291,19 C36.5766291,20.0076176 35.7521037,20.8275717 34.7387704,20.8275717 M34.7387704,15.7373551 C32.9403262,15.7373551 31.4775407,17.2012524 31.4775407,19 C31.4775407,20.7993609 32.9403262,22.2626448 34.7387704,22.2626448 C36.5365789,22.2626448 38,20.7993609 38,19 C38,17.2012524 36.5365789,15.7373551 34.7387704,15.7373551 M18.9691677,25.288564 C18.5775659,25.288564 18.2590715,25.6105355 18.2590715,26.0061006 C18.2590715,26.4022788 18.5775659,26.7242504 18.9691677,26.7242504 C19.3607695,26.7242504 19.6798996,26.4022788 19.6798996,26.0067138 C19.6798996,25.6105355 19.3607695,25.288564 18.9691677,25.288564 M18.9691677,28.3850102 C18.5775659,28.3850102 18.2590715,28.7069817 18.2590715,29.1025467 C18.2590715,29.498725 18.5775659,29.8206966 18.9691677,29.8206966 C19.3607695,29.8206966 19.6798996,29.498725 19.6798996,29.10316 C19.6798996,28.7069817 19.3607695,28.3850102 18.9691677,28.3850102 M18.9691677,36.5637003 C17.9558344,36.5637003 17.1319448,35.7443594 17.1319448,34.7373552 C17.1319448,33.7297376 17.9558344,32.9103967 18.9691677,32.9103967 C19.982501,32.9103967 20.8070264,33.7297376 20.8070264,34.7373552 C20.8070264,35.7443594 19.982501,36.5637003 18.9698034,36.5637003 M18.9698034,31.4820697 C17.1707235,31.4820697 15.7085738,32.9453536 15.7085738,34.7447145 C15.7085738,36.5397825 17.1707235,38 18.9698034,38 C20.7676119,38 22.231033,36.5361028 22.231033,34.7373551 C22.231033,32.9422872 20.7676119,31.4820697 18.9698034,31.4820697 M18.9691677,11.2757496 C18.5775659,11.2757496 18.2590715,11.5977212 18.2590715,11.9938994 C18.2590715,12.3900777 18.5775659,12.7114361 18.9691677,12.7114361 C19.3607695,12.7114361 19.6798996,12.3900777 19.6798996,11.9938994 C19.6798996,11.5977212 19.3607695,11.2763629 18.9691677,11.2763629 M18.9691677,8.17930344 C18.5775659,8.17930344 18.2590715,8.50127498 18.2590715,8.89684 C18.2590715,9.29301829 18.5775659,9.6149898 18.9691677,9.6149898 C19.3607695,9.6149898 19.6798996,9.29301829 19.6798996,8.89745328 C19.6798996,8.50127498 19.3607695,8.17930344 18.9691677,8.17930344 M18.9691677,5.09021658 C17.9558344,5.09021658 17.1319448,4.27026241 17.1319448,3.26264483 C17.1319448,2.25564054 17.9558344,1.43629966 18.9691677,1.43629966 C19.982501,1.43629966 20.8070264,2.25564054 20.8070264,3.26325814 C20.8070264,4.27026244 19.982501,5.08960331 18.9698034,5.08960331 M18.9698034,0 C17.1707235,0 15.7085738,1.46389723 15.7085738,3.26264483 C15.7085738,4.1322746 16.0493182,4.95038892 16.6685069,5.56673445 C17.26874,6.17378674 18.1001767,6.5176664 18.9698034,6.51854361 C20.7676119,6.51854361 22.231033,5.05464638 22.231033,3.25589878 C22.231033,1.45960427 20.7676119,0 18.9698034,0 M14.5121539,23.445047 C14.378329,23.3128414 14.1951241,23.2379483 14.0035801,23.2371454 C13.8160435,23.2371454 13.6412212,23.3107388 13.5115349,23.4432071 C13.2268432,23.7295525 13.226003,24.1812807 13.5096278,24.4686098 C13.6392169,24.6019736 13.8201775,24.6777418 14.0096623,24.6779757 C14.1991471,24.6782063 14.3803068,24.6028821 14.5102467,24.4698364 C14.7943556,24.1834074 14.7949155,23.7321312 14.5115182,23.445047 M11.8167127,25.4216456 C11.4251108,25.4216456 11.1066164,25.7436171 11.1066164,26.1391821 C11.1066164,26.5353604 11.4251108,26.8573319 11.8167127,26.8573319 C12.2083144,26.8573319 12.5274446,26.5353604 12.5274446,26.1397954 C12.5274446,25.7436171 12.2083145,25.4216456 11.8167127,25.4216456 M9.11936428,31.4195152 C8.78053639,31.7623802 8.31099799,31.9565083 7.81995816,31.9567477 C7.32941229,31.9567962 6.8603521,31.7625807 6.52245922,31.4195152 C5.81299874,30.7093381 5.81299874,29.55576 6.52245922,28.8486491 C6.86139564,28.5060102 7.33092001,28.3121095 7.82186534,28.31203 C8.3132748,28.31203 8.77353409,28.5021465 9.11936428,28.8492625 C9.83391047,29.5526936 9.83454621,30.7068849 9.11936428,31.4195152 M7.81932244,26.8714334 C6.95105582,26.8706605 6.1202525,27.2125689 5.51993306,27.817727 C4.24277706,29.0902812 4.24277706,31.1600981 5.51993306,32.432039 C6.12025419,33.0398511 6.95224366,33.3842126 7.82250105,33.3850747 C8.69256816,33.3841884 9.52435116,33.0398172 10.1244333,32.432039 C11.4015893,31.1600981 11.4015893,29.0896678 10.1244333,27.817727 C9.52153745,27.2128626 8.68915327,26.8711538 7.81932244,26.8714334 M26.1241656,11.1432814 C25.7325637,11.1432814 25.4140694,11.4646396 25.4140694,11.8608179 C25.4140694,12.2569962 25.7325637,12.5783544 26.1241656,12.5783544 C26.5157674,12.5783544 26.8348976,12.2569962 26.8348976,11.8608179 C26.8348976,11.4646396 26.5157675,11.1432814 26.1241656,11.1432814 M23.9379339,13.3253284 C23.5463321,13.3253284 23.2278377,13.6479133 23.2278377,14.0434783 C23.2278377,14.4396566 23.5463321,14.7616281 23.9379339,14.7616281 C24.3301715,14.7616281 24.6486658,14.4396566 24.6486658,14.0434783 C24.6486658,13.6479133 24.3301715,13.3259417 23.9379339,13.3259417 M31.4184191,9.15196413 C31.0795259,9.49466327 30.6099736,9.68858326 30.119013,9.68858326 C29.6286726,9.68853586 29.1598468,9.4943223 28.8221498,9.15135082 C28.1063321,8.44914622 28.1056963,7.29495494 28.8221498,6.58048483 C29.1608904,6.23793976 29.6301803,6.04404097 30.1209201,6.04386561 C30.6116939,6.04386561 31.0725889,6.23398214 31.4190547,6.58048483 C32.1278796,7.29127534 32.1272438,8.44485331 31.4190547,9.15196413 M32.4209452,5.56734772 C31.8207112,4.9598555 30.9889703,4.61572339 30.119013,4.61492528 C29.2490403,4.61565171 28.4172713,4.95979541 27.8170807,5.56734772 C26.5399248,6.83990187 26.5399248,8.90971884 27.8170807,10.182273 C28.4177835,10.7889947 29.2496274,11.1322317 30.1193309,11.1322317 C30.9890343,11.1322317 31.8208782,10.7889947 32.4215809,10.182273 C33.698737,8.90971884 33.698737,6.83990187 32.4215809,5.56734772 M26.1241656,25.4216456 C25.7325637,25.4216456 25.4140694,25.7436171 25.4140694,26.1391821 C25.4140694,26.5353604 25.7325637,26.8573319 26.1241656,26.8573319 C26.5157674,26.8573319 26.8348976,26.5353604 26.8348976,26.1397954 C26.8348976,25.7436171 26.5157675,25.4216456 26.1241656,25.4216456 M24.4357006,23.4444337 C24.3060724,23.3110705 24.1249018,23.2355636 23.9353911,23.2359151 C23.7465601,23.2358042 23.566032,23.3107912 23.436353,23.4432071 C23.1541875,23.7309552 23.1539084,24.1811498 23.4357173,24.4692231 C23.5657766,24.6022159 23.746955,24.6775459 23.9364819,24.6774302 C24.1260088,24.6773137 24.3070878,24.6017619 24.436972,24.4686098 C24.7182164,24.1810303 24.7179375,23.731688 24.4363362,23.4444337 M31.4260477,31.4195152 C31.0873722,31.7622261 30.6180962,31.9563407 30.1272773,31.956748 C29.6365259,31.9568921 29.1672313,31.7626747 28.8291426,31.4195152 C28.1196821,30.7093381 28.1196821,29.5563733 28.8291426,28.8486491 C29.1679924,28.5058898 29.6375728,28.3119659 30.1285487,28.3120299 C30.6199582,28.3120299 31.0808532,28.5021465 31.4266834,28.8492625 C32.1405939,29.5526936 32.1412296,30.7068849 31.4266834,31.4195152 M32.4209452,27.817727 C31.8212764,27.2123957 30.9907737,26.8704219 30.1228272,26.8714306 C29.252491,26.8711226 28.4196243,27.2130625 27.816445,27.8183403 C26.5399248,29.0902812 26.5399248,31.1607114 27.816445,32.432039 C28.4166795,33.0399713 29.2487249,33.3843559 30.119013,33.3850747 C30.9889703,33.3842766 31.8207112,33.0401445 32.4209452,32.4326523 C33.6987369,31.1600981 33.6987369,29.0902812 32.4209452,27.817727 M14.0029443,13.3253284 C13.6113426,13.3253284 13.2922125,13.6479133 13.2922125,14.0434783 C13.2922125,14.4396566 13.6113426,14.7616281 14.0029443,14.7616281 C14.3945462,14.7616281 14.7130405,14.4396566 14.7130405,14.0434783 C14.7130405,13.6479133 14.3951819,13.3259417 14.0029443,13.3259417 M11.8167127,11.1432814 C11.4251108,11.1432814 11.1066164,11.4646396 11.1066164,11.8608179 C11.1066164,12.2569962 11.4251108,12.5783544 11.8167127,12.5783544 C12.2083144,12.5783544 12.5274446,12.2569962 12.5274446,11.8608179 C12.5274446,11.4646396 12.2083145,11.1432814 11.8167127,11.1432814 M9.11173566,9.15196413 C8.77284252,9.49466326 8.30329013,9.68858338 7.81232958,9.68858338 C7.32178369,9.68863181 6.85272347,9.49441631 6.5148306,9.15135082 C5.79901295,8.44914622 5.79837724,7.29495494 6.5148306,6.58048483 C6.85368042,6.23772546 7.32326088,6.04380156 7.81423671,6.04386556 C8.30501046,6.04386556 8.76590546,6.23398214 9.11173566,6.58048483 C9.82119614,7.29127534 9.82119614,8.44485331 9.11173566,9.15196413 M7.81932244,4.61492528 C6.94938045,4.61579503 6.11766741,4.95991557 5.51739021,5.56734772 C4.24086993,6.83990187 4.24086993,8.90971884 5.51739021,10.182273 C6.11710284,10.7879845 6.9478821,11.1301993 7.81614385,11.1291829 C8.68657409,11.1293303 9.51945467,10.7871634 10.1225261,10.1816597 C11.3990464,8.90971884 11.3990464,6.8392886 10.1225261,5.56734772 C9.52194405,4.9596076 8.68970617,4.61546001 7.81932244,4.61492528"
                    id="形状"></path>
            </g>
            <rect id="矩形" fill="#FBFBFB" fill-rule="nonzero" opacity="0.10265532" x="331" y="168" width="190"
                height="152" rx="4"></rect>
            <g id="path-3-Clipped" transform="translate(342, 180)">
                <mask id="mask-oxvshbn4z7-2" fill="white">
                    <use xlink:href="#path-oxvshbn4z7-1"></use>
                </mask>
                <g id="path-s5dhkvqxjm-3"></g>
                <path
                    d="M4,0 L166,0 C168.209139,0 170,1.790861 170,4 L170,125 C170,127.209139 168.209139,129 166,129 L4,129 C1.790861,129 0,127.209139 0,125 L0,4 C0,1.790861 1.790861,0 4,0 Z"
                    id="path-3" stroke="#A5A7A7" stroke-width="2" mask="url(#mask-oxvshbn4z7-2)"></path>
            </g>
            <text id="In-November-2017," fill="#FFF9F9" fill-rule="nonzero" opacity="0.8"
                font-family="MabryPro-Light, Mabry Pro" font-size="12" font-weight="300">
                <tspan x="175" y="228">In November 2017,</tspan>
            </text>
            <text id="Dragonfly-1.x-project-was" fill="#FFF9F9" fill-rule="nonzero" opacity="0.8"
                font-family="MabryPro-Light, Mabry Pro" font-size="12" font-weight="300">
                <tspan x="175" y="242">Dragonfly 1.x project was</tspan>
            </text>
            <text id="open-source." fill="#FFF9F9" fill-rule="nonzero" opacity="0.8"
                font-family="MabryPro-Light, Mabry Pro" font-size="12" font-weight="300">
                <tspan x="175" y="256">open source.</tspan>
            </text>
            <text id="In-October-2018,-became" fill="#FFF9F9" fill-rule="nonzero" opacity="0.8"
                font-family="MabryPro-Light, Mabry Pro" font-size="12" font-weight="300">
                <tspan x="356" y="257">In October 2018, became</tspan>
            </text>
            <text id="the-third-project-in-China-to" fill="#FFF9F9" fill-rule="nonzero" opacity="0.8"
                font-family="MabryPro-Light, Mabry Pro" font-size="12" font-weight="300">
                <tspan x="356" y="271">the third project in China to</tspan>
            </text>
            <text id="enter-the-CNCF-Sandbox." fill="#FFF9F9" fill-rule="nonzero" opacity="0.8"
                font-family="MabryPro-Light, Mabry Pro" font-size="12" font-weight="300">
                <tspan x="356" y="285">enter the CNCF Sandbox.</tspan>
            </text>
            <text id="Officially-settled-in" fill="#FFF9F9" fill-rule="nonzero" opacity="0.8"
                font-family="MabryPro-Light, Mabry Pro" font-size="12" font-weight="300">
                <tspan x="178.573242" y="413">Officially settled in</tspan>
            </text>
            <text id="CNCF-Incubating-in" fill="#FFF9F9" fill-rule="nonzero" opacity="0.8"
                font-family="MabryPro-Light, Mabry Pro" font-size="12" font-weight="300">
                <tspan x="173.789062" y="427">CNCF Incubating in</tspan>
            </text>
            <text id="April-2020." fill="#FFF9F9" fill-rule="nonzero" opacity="0.8"
                font-family="MabryPro-Light, Mabry Pro" font-size="12" font-weight="300">
                <tspan x="196.432617" y="441">April 2020.</tspan>
            </text>
            <text id="In-April-2021,-it-was" fill="#FFF9F9" fill-rule="nonzero" opacity="0.8"
                font-family="MabryPro-Light, Mabry Pro" font-size="12" font-weight="300">
                <tspan x="362" y="430">In April 2021, it was</tspan>
            </text>
            <text id="updated-to-Dragonfly-2." fill="#FFF9F9" fill-rule="nonzero" opacity="0.8"
                font-family="MabryPro-Light, Mabry Pro" font-size="12" font-weight="300">
                <tspan x="362" y="444">updated to Dragonfly 2.</tspan>
            </text>
            <text id="Milestones" fill="#FFF9F9" fill-rule="nonzero" opacity="0.8"
                font-family="MabryPro-Bold, Mabry Pro" font-size="24" font-weight="bold">
                <tspan x="41" y="63">Milestones</tspan>
            </text>
            <text id="More-Application-Scenarios" fill="#FFF9F9" fill-rule="nonzero" opacity="0.8"
                font-family="MabryPro-Light, Mabry Pro" font-size="19" font-weight="300">
                <tspan x="42" y="566">More Application Scenarios</tspan>
            </text>
            <text id=":" fill="#FFF9F9" fill-rule="nonzero" opacity="0.8" font-family="MabryPro-Bold, Mabry Pro"
                font-size="19" font-weight="bold">
                <tspan x="279.759766" y="566">:</tspan>
            </text>
            <text id="Dragonfly-1.x" fill="#FFF9F9" fill-rule="nonzero" opacity="0.8"
                font-family="MabryPro-Bold, Mabry Pro" font-size="14" font-weight="bold">
                <tspan x="206" y="185">Dragonfly 1.x</tspan>
            </text>
            <text id="CNCF-SandBox" fill="#FFF9F9" fill-rule="nonzero" opacity="0.8"
                font-family="MabryPro-Bold, Mabry Pro" font-size="14" font-weight="bold">
                <tspan x="397" y="210">CNCF SandBox</tspan>
            </text>
            <text id="Dragonfly-2" fill="#FFF9F9" fill-rule="nonzero" opacity="0.8"
                font-family="MabryPro-Bold, Mabry Pro" font-size="14" font-weight="bold">
                <tspan x="390" y="389">Dragonfly 2</tspan>
            </text>
            <text id="CNCF-Incubating" fill="#FFF9F9" fill-rule="nonzero" opacity="0.8"
                font-family="MabryPro-Bold, Mabry Pro" font-size="14" font-weight="bold">
                <tspan x="169" y="382">CNCF Incubating</tspan>
            </text>
            <g id="接入沙箱环境_icon-(1)" transform="translate(352, 190)" fill="#00A76F" fill-rule="nonzero">
                <path
                    d="M22.6460475,11.4071216 C23.0778656,11.4071216 23.5096838,11.7590122 23.5096838,12.2868482 L23.5096838,14.4861647 L27.2233202,14.4861647 C27.6551384,14.4861647 28.0005929,14.8380553 28.0869565,15.2779186 C28.0869565,15.717782 27.9142292,16.0696727 27.4824111,16.1576452 L23.5096838,16.1576452 L23.5096838,18.3569617 C23.5096838,18.796825 23.1642292,19.2366883 22.6460475,19.2366883 L15.8233202,19.2366883 C15.3915019,19.2366883 14.9596838,18.8847977 14.9596838,18.3569617 L14.9596838,16.1576452 L10.7278656,16.1576452 L10.7278656,23.5473487 L13.3187748,23.5473487 L13.3187748,21.3480322 C13.3187748,20.9081689 13.6642292,20.4683057 14.1824111,20.4683056 L24.3733202,20.4683056 C24.8051384,20.4683056 25.2369565,20.8201962 25.2369565,21.3480322 L25.2369565,27.4181458 C25.2369565,27.8580091 24.8915019,28.2978723 24.3733202,28.2978723 L14.1824111,28.2978723 C13.7505929,28.2978723 13.3187748,27.9459817 13.3187748,27.4181458 L13.3187748,25.2188293 L10.2096838,25.2188293 C9.6051384,25.1308565 9.17332017,24.6909933 9.08695652,24.0751846 L9.08695652,15.5418366 C9.17332017,14.926028 9.6051383,14.4861647 10.2096838,14.398192 L14.9596838,14.398192 L14.9596838,12.1988755 C14.9596838,11.7590122 15.3051384,11.3191489 15.8233202,11.3191489 L22.6460475,11.3191489 L22.6460475,11.4071216 Z M23.5096838,22.2277588 L15.0460475,22.2277588 L15.0460475,26.6263918 L23.5096838,26.6263918 L23.5096838,22.2277588 L23.5096838,22.2277588 Z M21.7824111,13.1665748 L16.6869565,13.1665748 L16.6869565,17.5652078 L21.7824111,17.5652078 L21.7824111,13.1665748 Z"
                    id="形状"></path>
                <path
                    d="M19,0 C29.5363636,0 38,8.46363636 38,19 C38,29.5363636 29.5363636,38 19,38 C8.46363636,38 0,29.5363636 0,19 C0,8.46363636 8.46363636,0 19,0 Z M19,1.72727275 C9.5,1.72727275 1.72727275,9.5 1.72727275,19 C1.72727275,28.5 9.5,36.2727273 19,36.2727273 C28.5,36.2727273 36.2727273,28.5 36.2727273,19 C36.2727273,9.5 28.5,1.72727275 19,1.72727275 Z"
                    id="形状"></path>
            </g>
            <text id="So-far,-dragonflies-have-experienced-the-following-stages-of-development." fill="#FFF9F9"
                fill-rule="nonzero" opacity="0.8" font-family="MabryPro-Light, Mabry Pro" font-size="14"
                font-weight="300">
                <tspan x="42" y="99">So far, dragonflies have experienced the following stages of development.</tspan>
            </text>
            <text id="Dragonfly-supports-different-types-of-storage-sources,-such-as-HDFS,-S3,-GCS,-Azure-Blob,"
                fill="#FFF9F9" fill-rule="nonzero" opacity="0.8" font-family="MabryPro-Light, Mabry Pro" font-size="14"
                font-weight="300">
                <tspan x="42" y="593">Dragonfly supports different types of storage sources, such as HDFS, S3, GCS,
                    Azure Blob,</tspan>
            </text>
            <text id="OSS,-etc." fill="#FFF9F9" fill-rule="nonzero" opacity="0.8"
                font-family="MabryPro-Light, Mabry Pro" font-size="14" font-weight="300">
                <tspan x="42" y="610">OSS, etc.</tspan>
            </text>
            <line x1="383.5" y1="404.5" x2="475.983981" y2="404.34588" id="路径-5" stroke="#797979"></line>
            <line x1="178.5" y1="395.329215" x2="276" y2="395.329215" id="路径-6" stroke="#797979"></line>
            <line x1="402.5" y1="228.5" x2="494" y2="228.329215" id="路径-6" stroke="#797979"></line>
            <line x1="205.5" y1="201.329215" x2="294.499995" y2="201.505958" id="路径-6" stroke="#797979"></line>
            <g id="版本更新-(1)" transform="translate(349, 373)" fill="#00A76F" fill-rule="nonzero">
                <path
                    d="M27.3596866,10.0994071 C26.1982543,13.0820448 24.4988802,15.706534 22.1180166,17.8742751 C21.9391698,18.0236254 21.8521353,18.2560874 21.8889201,18.4861726 C21.9715688,19.2894693 22.0382677,20.092766 22.1209165,20.8946126 C22.3152135,22.765105 21.6554735,24.2962987 20.1373467,25.3837942 C18.5090216,26.5481394 16.8154474,27.624035 15.134923,28.7158804 C14.0764391,29.4031776 12.774359,28.7796802 12.6554608,27.5312354 C12.5206128,26.0986413 12.4133145,24.6616972 12.313266,23.2262031 C12.2639668,22.5070061 12.2842665,22.5012061 11.5824771,22.4098564 C9.72360546,22.1662574 8.26782767,21.2890111 7.26879293,19.6983676 C6.75405079,18.8776709 6.50030463,17.9728747 6.41040602,17.0202287 C6.38285643,16.7360298 6.2668582,16.6620801 5.99571232,16.6475801 C4.49165678,16.5679165 2.98843752,16.4731789 1.48628107,16.3633813 C0.234950138,16.2691317 -0.398690197,14.9612371 0.271199612,13.8679416 C0.742442435,13.0994447 1.24268481,12.3497978 1.72842738,11.591451 C2.25186941,10.7736544 2.77241145,9.95440777 3.29585349,9.13806108 C4.25718883,7.64456723 5.64046773,6.83837056 7.41379071,6.82387063 C8.42732526,6.81517067 9.44375976,6.99351992 10.4587443,7.10226947 C10.6501413,7.12256938 10.7849893,7.0964695 10.9183873,6.94857012 C13.2731514,4.33423087 16.186157,2.56958814 19.4848567,1.38929301 C21.3495283,0.722295762 23.267849,0.287297543 25.236919,0.0842983823 C26.2287038,-0.0172012125 27.2277387,-0.0534510616 28.2180736,0.127798184 C28.7589153,0.229297779 28.7864649,0.249597686 28.8705636,0.774495524 C28.9532124,1.29649337 29.0184613,1.8242912 28.9952617,2.35788899 C28.9111629,5.03457798 28.3297218,7.60686737 27.3596866,10.0994071 Z M20.117047,5.64502546 C18.3002248,5.6160256 16.7284487,6.9268202 16.6849494,8.97421176 C16.6486999,10.6823048 18.2074261,12.2294484 19.9444997,12.2424983 C20.8273062,12.2541054 21.6784796,11.9141067 22.3103418,11.29747 C22.9422038,10.6808331 23.3028638,9.83819868 23.3127983,8.95536183 C23.335998,7.19216909 21.8642704,5.67402534 20.117047,5.64502546 Z M3.79029595,19.0270204 C4.23543915,19.0342704 4.4819354,19.2300195 4.64143299,19.6795177 C5.22839284,21.4063399 6.44949463,22.8456596 8.0575809,23.7061511 C8.42297534,23.9077003 8.80576949,24.0700996 9.20306343,24.204949 C9.91645256,24.447098 10.07885,25.1372952 9.55105814,25.669443 C8.76662009,26.4553398 7.97348219,27.2325366 7.19049413,28.0184333 C6.9309481,28.2794323 6.64675241,28.4012318 6.28135797,28.2663823 C5.91161361,28.1300829 5.73326634,27.857484 5.71441662,27.4761356 C5.7028168,27.2354365 5.70861671,26.9932876 5.7028168,26.7511386 C5.69266695,26.3059904 5.68831703,26.3016404 5.27652329,26.4379398 L2.63611354,27.3108362 C2.37511752,27.396386 2.1141215,27.4311858 1.86182534,27.2890863 C1.48918103,27.0788372 1.34853316,26.7047388 1.49933088,26.2436406 C1.79077644,25.3446444 2.09817176,24.451448 2.39686719,23.5539017 C2.52736521,23.1653033 2.51866534,23.1566033 2.09527181,23.1508034 C1.84007569,23.1464534 1.58487958,23.1508034 1.32968347,23.1392034 C0.982427248,23.1411188 0.672390149,22.9219924 0.558295223,22.5940057 C0.423447267,22.2532571 0.508995969,21.9560083 0.759842163,21.7066093 C1.57762971,20.8888126 2.39831718,20.075366 3.22045465,19.2619194 C3.36478232,19.1010152 3.57450703,19.0145629 3.79029595,19.0270204"
                    id="形状"></path>
            </g>
            <g id="版本" transform="translate(169, 171)" fill="#00A76F" fill-rule="nonzero">
                <path
                    d="M28.1706696,16.4926503 L15.8667356,22.4002552 C14.6894626,22.9488557 14.2207622,22.9488557 13.1332644,22.4002552 L0.829358729,16.4926503 C0.176860007,16.1222846 0,14.7507835 0,14.0026508 C0.822278667,14.5033695 1.97576274,15.0625432 1.93370716,15.0339954 L14.5,21.2219425 L27.0662928,15.0339954 C27.0886658,15.0281046 28.2085904,14.4254296 29,14.0026508 C29,14.768607 28.7768647,16.1896513 28.1706696,16.4926503 L28.1706696,16.4926503 Z M28.1706696,10.303072 L15.8667356,16.2123082 C14.6894626,16.7593982 14.2207622,16.7593982 13.1332644,16.2123082 L0.829358729,10.303072 C-0.136163797,9.75598199 -0.106625768,8.03057925 0.829358729,7.38597375 L13.1332644,0.446963727 C14.2207622,-0.133144978 14.899882,-0.164623043 15.8667356,0.446963727 L28.1706413,7.38597375 C29.1066541,7.93466481 29.075785,9.8534069 28.1706696,10.303072 L28.1706696,10.303072 Z M14.5,1.62527649 C14.5933373,1.66585182 14.6263861,1.82842618 14.5,1.62527649 L14.5,1.62527649 Z M14.5,27.4115208 L27.0662928,21.2219123 C27.0886658,21.2173809 28.2085904,20.6133464 29,20.1905676 C29,20.9566748 28.7768364,22.3792296 28.1706413,22.6804161 L15.8667356,28.5896825 C14.6894626,29.1367725 14.2207622,29.1367725 13.1332644,28.5896825 L0.829358729,22.6804463 C0.176860007,22.3103826 0,20.9400899 0,20.1905676 C0.822278667,20.692827 1.97576274,21.2504902 1.93370716,21.2219425 L14.5,27.4115208 L14.5,27.4115208 Z"
                    id="形状"></path>
            </g>
        </g>
    </g>
</svg>