<svg width="672px" height="756px" viewBox="0 0 672 756" version="1.1" xmlns="http://www.w3.org/2000/svg"
    xmlns:xlink="http://www.w3.org/1999/xlink">
    <defs>
        <rect id="path-npb9p13qta-1" x="0" y="0" width="131" height="127" rx="3"></rect>
    </defs>
    <g fill="none" fill-rule="evenodd">
        <path fill="#1C252E" fill-rule="nonzero" d="M0 0h672v756H0z" /><text fill="#FFF9F9" fill-rule="nonzero"
            font-family="MabryPro-Light, Mabry Pro" font-size="14" font-weight="300">
            <tspan x="40" y="535">Provides an efficient, stable, and secure file distribution and image</tspan>
        </text><text fill="#FFF9F9" fill-rule="nonzero" font-family="MabryPro-Light, Mabry Pro" font-size="14"
            font-weight="300">
            <tspan x="40" y="552">acceleration system based on P2P technology, and is a standard solution and</tspan>
        </text><text fill="#FFF9F9" fill-rule="nonzero" font-family="MabryPro-Light, Mabry Pro" font-size="14"
            font-weight="300">
            <tspan x="40" y="569">best practice in the field of image acceleration in the cloud native</tspan>
        </text><text fill="#FFF9F9" fill-rule="nonzero" font-family="MabryPro-Light, Mabry Pro" font-size="14"
            font-weight="300">
            <tspan x="40" y="586">architecture.</tspan>
        </text>
        <path fill="#FFF9F9" fill-rule="nonzero"
            d="M363.051 672.075c.1-.006 7.2-.576 7.672-.502.472.075 2.362.019 2.455.743.094.715 0 1.412 0 1.412s-4.195.724-4.289.818-.434.428-.415.928c.02.503.02 2.454.037 2.51.02.056.114.428.833.352.566-.058 1.13-.255 1.346-.335a.126.126 0 0 0 .083-.13l-.04-.504a.133.133 0 0 0-.157-.118l-1.081.213v-2.007l3.504-.623a.124.124 0 0 1 .147.116l.115 3.4s.2.844-1.273 1.142c-1.473.299-5.006 1.171-5.347 1.188-.34.02-.907.02-1.492-.13a12 12 0 0 1-1.184-.396.143.143 0 0 1-.064-.22l1.29-1.722a.36.36 0 0 0 .072-.217v-1.9a.38.38 0 0 0-.108-.262l-2.76-2.853a.34.34 0 0 1-.09-.288c.032-.226.178-.582.746-.615m-1.868 1.167a.3.3 0 0 0-.179-.09l-4.957-.716a.34.34 0 0 0-.206.024c-.216.099-.688.391-.841 1.115v5.728s.07 1.143 1.671 1.672c1.602.529 3.557 1.003 3.557 1.003s1.09.209 1.532-.668c.44-.879 2.537-3.386 2.537-3.386v-1.52zm-1.293 6.828c-.511-.013-2.59-.294-3.245-.878-.594-.529-.297-4.697-.297-4.697s.011-.484.297-.432l3.302.584s.41.237.41.572v4.501c0 .002.044.365-.467.35M374 666.747c0-2.224-1.746-4.029-3.9-4.029a3.85 3.85 0 0 0-3.04 1.504c-.572-2.426-2.619-4.222-5.057-4.222-2.88 0-5.216 2.505-5.216 5.595s2.336 5.595 5.216 5.595q.226 0 .45-.024l7.793-.395.103-.004.11-.007-.003-.002c1.986-.187 3.544-1.912 3.544-4.011m-11.001 1.991c-1.457 0-2.64-1.336-2.64-2.986s1.183-2.987 2.64-2.987 2.64 1.337 2.64 2.987-1.183 2.986-2.64 2.986m7.72-.137c-.962 0-1.742-.881-1.742-1.97 0-1.09.78-1.97 1.741-1.97s1.742.88 1.742 1.97-.78 1.97-1.742 1.97" />
        <rect width="164" height="141" x="202" y="98" fill="#FDFEFD" fill-rule="nonzero" opacity=".499" rx="4" />
        <rect width="180" height="106" x="170" y="322" fill="#FFFFFE" fill-rule="nonzero" opacity=".6" rx="4" /><text
            fill="#FFF9F9" fill-opacity=".8" fill-rule="nonzero" font-family="MabryPro-Bold, Mabry Pro" font-size="26"
            font-weight="bold">
            <tspan x="40" y="61">Dragonfly</tspan>
        </text><text fill="#FFF9F9" fill-rule="nonzero" font-family="MabryPro-Light, Mabry Pro" font-size="19"
            font-weight="300">
            <tspan x="40" y="510">Welcome To Dragonfly Console !</tspan>
        </text>
        <g fill-rule="nonzero" opacity=".5">
            <rect width="149" height="148" fill="#000" rx="4" transform="translate(336 212)" />
            <rect width="149" height="148" fill="#FBFBFB" rx="4" transform="translate(336 212)" />
        </g><text fill="#FFF9F9" fill-rule="nonzero" font-family="MabryPro-Bold, Mabry Pro" font-size="14"
            font-weight="bold">
            <tspan x="253" y="171">Partners</tspan>
        </text>
        <g fill-rule="nonzero">
            <path fill="#2E8F79"
                d="M363.99 273.977H358V288h13.977v-6.01h-7.987zM394.01 281.99h-7.987V288H400v-14.023l-5.99.07zM358 260.023h6.059l-.069-.07v-7.943h7.987V246H358zM386.023 246v6.01h7.987v8.013H400V246z" />
            <path fill="#44B775"
                d="m385.197 260.023-7.987-8.013h8.744V246h-13.977v6.01l7.987 8.013zM378.036 273.977h-5.233l6.61 6.632 1.308 1.381h-8.744V288h14.046v-6.079l-3.993-3.937zM394.01 260.023v8.704l-1.377-1.382-6.61-6.631v5.319l3.925 3.937 3.993 4.007H400v-13.954zM371.977 267.967l-7.918-7.944H358v13.954h5.99v-8.704l7.987 8.013z" />
        </g><text fill="#FFF9F9" fill-rule="nonzero" font-family="MabryPro-Bold, Mabry Pro" font-size="14"
            font-weight="bold">
            <tspan x="253" y="353">Provide</tspan>
        </text><text fill="#FFF9F9" fill-rule="nonzero" font-family="MabryPro-Bold, Mabry Pro" font-size="14"
            font-weight="bold">
            <tspan x="358" y="309.531">CNCF</tspan>
        </text><text fill="#FFF9F9" fill-rule="nonzero" font-family="MabryPro-Light, Mabry Pro" font-size="12"
            font-weight="300">
            <tspan x="358" y="329">Incubating</tspan>
        </text><text fill="#FFF9F9" fill-rule="nonzero" font-family="MabryPro-Light, Mabry Pro" font-size="12"
            font-weight="300">
            <tspan x="236" y="207">From 5 companies</tspan>
        </text><text fill="#FFF9F9" fill-rule="nonzero" font-family="MabryPro-Light, Mabry Pro" font-size="12"
            font-weight="300">
            <tspan x="253" y="373">Efficient,stable,</tspan>
        </text><text fill="#FFF9F9" fill-rule="nonzero" font-family="MabryPro-Light, Mabry Pro" font-size="12"
            font-weight="300">
            <tspan x="253" y="389">secure file</tspan>
        </text><text fill="#FFF9F9" fill-rule="nonzero" font-family="MabryPro-Light, Mabry Pro" font-size="12"
            font-weight="300">
            <tspan x="253" y="405">distribution</tspan>
        </text>
        <g transform="translate(345 223)">
            <mask id="b" fill="#fff">
                <use xlink:href="#a" />
            </mask>
            <path stroke="#797979" stroke-width="2"
                d="M3 0h125a3 3 0 0 1 3 3v121a3 3 0 0 1-3 3H3a3 3 0 0 1-3-3V3a3 3 0 0 1 3-3Z" mask="url(#b)" />
        </g>
        <path stroke="#797979" d="m239.5 187.329 86 .171" />
        <path fill="#FFF9F9" fill-rule="nonzero"
            d="M224.786 657c1.18 0 .895 1.571.08 2.09-.813.517-1.377 1.02-1.766 1.907a7 7 0 0 0-.492 1.618c4.232.888 7.392 4.394 7.392 8.584 0 4.86-4.253 8.801-9.5 8.801s-9.5-3.94-9.5-8.801c0-2.9 1.514-5.473 3.85-7.076a9 9 0 0 1-1.205-2.776c-.37-1.537-.095-2.85.725-3.07.819-.22 1.468.573 1.304 1.771-.165 1.199-.429 1.42-.248 2.354q.135.702.36 1.154.18-.095.363-.183c.269-.129.721-.352.982-.634.369-.399.618-.896 1.043-.993.455-.103.793.353 1.302.559.164.066.451.107.608.1q.766-.03 1.527.052.23-2.087.722-3.266c.519-1.244 1.272-2.191 2.453-2.191m3.98 10.92c-1.465-3.048-4.975-4.56-7.842-3.377s-4.003 4.61-2.538 7.659c1.464 3.047 4.975 4.559 7.842 3.376 2.866-1.182 4.003-4.61 2.538-7.658m-7.199-2.887c2.49-1.028 5.578.363 6.896 3.106 1.319 2.743.368 5.799-2.123 6.826s-5.578-.363-6.895-3.106c-1.319-2.743-.368-5.799 2.122-6.826M273.994 676.61c-1.429.091-1.29-.613-.442-1.635 1.937-2.376 5.52-5.605 5.682-7.964.223-3.063-3.123-4.011-6.569-4.011-2.397.057-4.878.668-6.569 1.224-5.823 1.892-9.473 4.863-11.789 8.205-2.397 3.303-1.652 6.479 3.526 6.571 3.911-.149 6.55-1.15 9.208-2.412.02 0-7.394 1.949-10.137.52-.304-.149-.603-.354-.684-.927 0-1.17 2.098-2.394 3.327-2.783v-2.005c2.477.799 5.4.576 7.902-1.132.08.205.16.463.142.743h.422c.1-.8-.484-1.578-1.452-1.634.28.205.484.37.584.52l-.038.035-.02.018c-3.223 2.08-6.35 1.114-6.649 1.057l1.794-1.616-.503-1.17c3.568-1.15 6.51-1.989 11.405-2.784l-1.095-.814.565-.314c2.9.742 4.855 1.297 4.755 2.709a2.7 2.7 0 0 1-.303.817c-.864 1.577-3.404 4.12-4.433 5.216-.665.725-1.33 1.394-1.794 2.062-.522.686-.788 1.32-.807 1.892.1 4.662 15.035-2.189 17.978-3.993-4.29 1.69-8.947 3.307-14.006 3.604m3.265-10.713c.108.183.158.41.158.675a1.54 1.54 0 0 0-.158-.675M399.505 671.607c2.743-.47 2.37-3.086 2.285-3.658-.135-.883-1.433-2.424-3.196-2.302-2.219.16-2.544 2.719-2.544 2.719-.298 1.183.72 3.711 3.455 3.241m2.91 4.55c-.08.184-.258.654-.105 1.063.305.918 1.305.96 1.305.96h1.436v-2.802h-1.537c-.69.165-1.024.596-1.098.778m2.178-8.935c1.517 0 2.738-1.392 2.738-3.112 0-1.718-1.221-3.11-2.738-3.11-1.512 0-2.739 1.392-2.739 3.11 0 1.72 1.227 3.112 2.739 3.112m6.523.204c2.024.21 3.327-1.515 3.583-2.823.264-1.303-1.041-2.82-2.475-3.08-1.435-.264-3.228 1.573-3.39 2.77-.195 1.464.26 2.925 2.282 3.133m4.96 7.683s-3.133-1.935-4.96-4.024c-2.477-3.083-5.999-1.829-7.176-.262-1.172 1.567-3 2.56-3.258 2.821-.263.26-3.782 1.775-3.002 4.545.78 2.768 3.527 2.717 3.527 2.717s2.022.159 4.368-.26c2.347-.417 4.367.104 4.367.104s5.481 1.465 6.981-1.356c1.497-2.823-.847-4.285-.847-4.285m-9.38 4.199h-3.564c-1.539-.246-2.152-1.084-2.23-1.227-.077-.146-.513-.82-.281-1.966.665-1.718 2.56-1.842 2.56-1.842h1.897v-1.862l1.615.02zm6.639-.02h-4.103c-1.59-.326-1.664-1.229-1.664-1.229v-3.62l1.664-.022v3.253c.101.346.643.41.643.41h1.69v-3.642h1.77zm5.804-9.668c0-.625-.65-2.508-3.063-2.508-2.418 0-2.741 1.777-2.741 3.033 0 1.199.128 2.874 3.13 2.819 3.004-.051 2.674-2.715 2.674-3.344M441 662.094c0-.625.394-1.094.919-1.094h16.012v4.375h-12.469c-.262 0-.524.156-.524.469v3.281c0 2.188.787 4.219 2.23 5.625 1.182 1.25 2.888 2.031 4.594 1.875 1.97-.156 3.807-1.25 4.988-3.125.788-1.25 1.313-2.969 1.181-4.531v-3.594H462v4.063c0 2.812-1.05 5.625-2.756 7.656-1.969 2.5-4.857 3.906-7.744 3.906-2.1 0-4.2-.781-5.906-2.187a11.9 11.9 0 0 1-3.675-5c-.656-1.407-.919-2.97-.919-4.532zM326.976 667.693a7.58 7.58 0 0 1-4.64-1.595v7.225c0 3.689-2.761 6.677-6.168 6.677S310 677.012 310 673.323c0-3.69 2.761-6.678 6.168-6.678q.51.001.994.088v3.827a2.6 2.6 0 0 0-.968-.188c-1.52 0-2.753 1.333-2.753 2.98 0 1.644 1.233 2.98 2.753 2.98 1.518 0 2.751-1.336 2.751-2.98V659h3.44c0 2.758 2.067 4.994 4.615 4.994v3.697z" />
        <path stroke="#797979" d="M240.5 399.5v-49" />
        <path fill="#2E8F79" fill-rule="nonzero"
            d="M192.283 352.002a9.283 9.283 0 1 0 0 18.565h9.289v-9.282a9.284 9.284 0 0 0-9.287-9.283zM223 361.285a9.285 9.285 0 0 0-9.286-9.285 9.285 9.285 0 0 0-9.286 9.285v9.282h9.289a9.283 9.283 0 0 0 9.283-9.282m-40 21.43a9.284 9.284 0 0 0 9.284 9.283 9.284 9.284 0 0 0 9.284-9.284v-9.282h-9.285a9.283 9.283 0 0 0-9.283 9.28zm30.712-9.283h-9.287v9.282a9.285 9.285 0 0 0 9.283 9.286 9.285 9.285 0 1 0 .004-18.568M299.983 126.914c-.14 2.521-1.06 4.56-1.84 5.547-.561.714-2.042 2.416-2.862 3.299l-9.044-9.897-4.601 4.476-.02.02c-2.001 2.018-4.642 2.144-4.662 2.144h-.04c-.1 0-.22.021-.32.021-2.161 0-4.282-1.702-5.243-2.563 2.021-2.207 9.464-10.254 12.325-12.86 1.06-.966 3.242-2.101 5.843-2.101 2.72 0 5.182 1.198 7.303 3.572 2.82 3.11 3.281 6.262 3.161 8.342m-30.632 3.089.48.525c.14.147 3.281 3.53 6.803 3.53.14 0 .28 0 .42-.021.28-.021 3.261-.21 5.602-2.563l3.521-3.446 5.002 5.484 4.602 5.106.02.02c.64.673.6 2.018-.1 2.816-.8.84-2 .946-2.66.252l-6.023-5.988-.58.651-.44.463 5.842 6.135c.66.694.56 1.954-.24 2.795-.4.42-.9.672-1.421.693a1.5 1.5 0 0 1-1.24-.462l-5.983-6.262-1.04 1.093 5.862 6.388c.3.336.46.777.44 1.302a2.43 2.43 0 0 1-.68 1.492c-.4.42-.9.673-1.42.694a1.5 1.5 0 0 1-1.241-.463l-.64-.672c.96-1.05 1.14-2.627.48-3.908s-2.041-1.954-3.402-1.681c.1-.946-.18-1.891-.78-2.606a3.09 3.09 0 0 0-2.38-1.113q-.3 0-.601.063a3.48 3.48 0 0 0-.92-2.732c-.78-.82-1.901-1.156-2.962-.882.14-1.03-.2-2.08-.92-2.816-.6-.63-1.4-.967-2.241-.967-.84 0-1.66.358-2.26.988l-2.842 3.005.22-.253c-.8-.735-3.021-2.878-3.701-4.097-.04-.063-.06-.126-.1-.189-2.842-4.938-2.361-9.687 1.38-13.72 2.681-2.9 5.742-3.32 7.843-3.174 2.781.19 5.022 1.43 6.103 2.438.36.336.96.945 1.82 1.828-3.961 4.076-8.863 9.413-9.143 9.728zm-.02 5c.32-.336.76-.525 1.22-.525s.88.19 1.2.526.5.798.5 1.26c0 .484-.18.925-.5 1.282l-4.481 4.749c-.32.336-.76.525-1.22.525-.461 0-.881-.19-1.201-.525-.32-.336-.5-.799-.5-1.261 0-.483.18-.925.5-1.282zm3.881 3.699c.32-.337.76-.526 1.22-.526s.881.19 1.201.526.5.798.5 1.26c0 .484-.18.925-.5 1.282l-4.482 4.749c-.32.336-.76.525-1.22.525s-.88-.189-1.2-.525-.5-.799-.5-1.26c0-.484.18-.925.5-1.283zm3.742 3.656c.32-.336.76-.526 1.22-.526.7 0 1.32.442 1.58 1.114s.12 1.45-.36 1.954l-4.481 4.749c-.32.336-.76.525-1.22.525s-.881-.189-1.201-.525-.5-.798-.5-1.26c0-.484.18-.925.5-1.282zm3.781 3.656c.32-.336.76-.525 1.22-.525s.881.189 1.201.525c.68.693.68 1.849 0 2.542l-4.482 4.75c-.32.335-.76.524-1.22.524s-.88-.189-1.2-.525-.5-.798-.5-1.26c0-.484.18-.925.5-1.282zm2.981 5.526c.66.693.58 1.933-.22 2.774-.78.82-1.96.924-2.64.21l-.641-.673 2.841-3.004z" />
    </g>
</svg>