<?xml version="1.0" encoding="UTF-8"?>
<svg width="672px" height="756px" viewBox="0 0 672 756" version="1.1" xmlns="http://www.w3.org/2000/svg"
    xmlns:xlink="http://www.w3.org/1999/xlink">
    <title>矩形</title>
    <defs>
        <linearGradient id="a" x1="12.252%" x2="100%" y1="50%" y2="50%">
            <stop offset="0%" stop-color="#EEE" stop-opacity=".19" />
            <stop offset="100%" stop-color="#FFF" />
        </linearGradient>
        <linearGradient id="b" x1="50%" x2="50%" y1="0%" y2="100%">
            <stop offset="0%" stop-color="#F4F2FB" />
            <stop offset="100%" stop-color="#E1EEF5" />
        </linearGradient>
        <linearGradient id="c" x1="50.001%" x2="50.001%" y1="100.003%" y2=".001%">
            <stop offset="0%" stop-color="#B0B9E1" />
            <stop offset="86.57%" stop-color="#EAF0F8" />
        </linearGradient>
        <linearGradient id="d" x1="49.992%" x2="49.992%" y1="100.007%" y2=".001%">
            <stop offset="22.67%" stop-color="#B7ACE0" />
            <stop offset="78.93%" stop-color="#E8E7FA" />
        </linearGradient>
        <linearGradient id="e" x1="49.865%" x2="49.865%" y1="0%" y2="100.003%">
            <stop offset="0%" stop-color="#ECF1FB" />
            <stop offset="81.8%" stop-color="#AFB0E7" />
        </linearGradient>
        <linearGradient id="f" x1="49.975%" x2="49.975%" y1="100%" y2=".003%">
            <stop offset="22.67%" stop-color="#CCD4F4" />
            <stop offset="78.93%" stop-color="#ECF1FB" />
        </linearGradient>
        <linearGradient id="g" x1="49.641%" x2="49.641%" y1="-.016%" y2="99.997%">
            <stop offset="0%" stop-color="#ECF1FB" />
            <stop offset="100%" stop-color="#A6A8E2" />
        </linearGradient>
        <linearGradient id="h" x1="74.996%" x2="24.99%" y1="11.8%" y2="88.207%">
            <stop offset="0%" stop-color="#FFDB80" />
            <stop offset="100%" stop-color="#FFBB24" />
        </linearGradient>
        <linearGradient id="i" x1="50.008%" x2="50.008%" y1=".002%" y2="99.992%">
            <stop offset="0%" stop-color="#F9FAFE" />
            <stop offset="100%" stop-color="#E5EDF7" />
        </linearGradient>
        <linearGradient id="j" x1="49.987%" x2="49.987%" y1="100.006%" y2="-.023%">
            <stop offset="22.67%" stop-color="#AFB0E7" />
            <stop offset="100%" stop-color="#ECF1FB" />
        </linearGradient>
        <linearGradient id="k" x1="49.56%" x2="49.56%" y1=".016%" y2="100.007%">
            <stop offset="0%" stop-color="#DDE1F6" />
            <stop offset="81.8%" stop-color="#A6A8E2" />
        </linearGradient>
        <linearGradient id="l" x1="-.001%" x2="100%" y1="50.001%" y2="50.001%">
            <stop offset="0%" stop-color="#C8CBF2" />
            <stop offset="100%" stop-color="#AFB0E7" />
        </linearGradient>
        <linearGradient id="m" x1="9.407%" x2="90.592%" y1="26.541%" y2="76.004%">
            <stop offset="11.57%" stop-color="#DEE4FF" />
            <stop offset="84.72%" stop-color="#BACBEE" />
        </linearGradient>
        <linearGradient id="n" x1="-.001%" x2="100%" y1="50%" y2="50%">
            <stop offset="0%" stop-color="#C8CBF2" />
            <stop offset="100%" stop-color="#AFB0E7" />
        </linearGradient>
        <linearGradient id="o" x1="33.06%" x2="63.602%" y1="45.858%" y2="55%">
            <stop offset="11.57%" stop-color="#DEE4FF" />
            <stop offset="84.72%" stop-color="#C6D5F4" />
        </linearGradient>
        <linearGradient id="p" x1="50.001%" x2="50.001%" y1=".018%" y2="100.011%">
            <stop offset="0%" stop-color="#C8CBF2" />
            <stop offset="100%" stop-color="#AFB0E7" />
        </linearGradient>
        <linearGradient id="q" x1="26.051%" x2="75.144%" y1="10.929%" y2="88.683%">
            <stop offset="11.57%" stop-color="#DEE4FF" />
            <stop offset="84.72%" stop-color="#BACBEE" />
        </linearGradient>
        <linearGradient id="r" x1="25.035%" x2="75.043%" y1="10.332%" y2="89.638%">
            <stop offset="11.57%" stop-color="#DEE4FF" />
            <stop offset="84.72%" stop-color="#BACBEE" />
        </linearGradient>
        <linearGradient id="s" x1="25.278%" x2="74.398%" y1="11.852%" y2="88.54%">
            <stop offset="11.57%" stop-color="#DEE4FF" />
            <stop offset="84.72%" stop-color="#BACBEE" />
        </linearGradient>
        <linearGradient id="t" x1="25.081%" x2="75.104%" y1="9.331%" y2="90.684%">
            <stop offset="11.57%" stop-color="#DEE4FF" />
            <stop offset="84.72%" stop-color="#BACBEE" />
        </linearGradient>
        <linearGradient id="u" x1="24.974%" x2="74.782%" y1="10.405%" y2="89.526%">
            <stop offset="11.57%" stop-color="#DEE4FF" />
            <stop offset="84.72%" stop-color="#BACBEE" />
        </linearGradient>
        <linearGradient id="v" x1="25.072%" x2="74.986%" y1="10.444%" y2="89.601%">
            <stop offset="11.57%" stop-color="#DEE4FF" />
            <stop offset="84.72%" stop-color="#BACBEE" />
        </linearGradient>
        <linearGradient id="w" x1="24.951%" x2="74.73%" y1="10.418%" y2="89.375%">
            <stop offset="11.57%" stop-color="#DEE4FF" />
            <stop offset="84.72%" stop-color="#BACBEE" />
        </linearGradient>
        <linearGradient id="x" x1="25.033%" x2="74.944%" y1="10.42%" y2="89.571%">
            <stop offset="11.57%" stop-color="#DEE4FF" />
            <stop offset="84.72%" stop-color="#BACBEE" />
        </linearGradient>
        <linearGradient id="y" x1="24.982%" x2="74.761%" y1="10.437%" y2="89.393%">
            <stop offset="11.57%" stop-color="#DEE4FF" />
            <stop offset="84.72%" stop-color="#BACBEE" />
        </linearGradient>
        <linearGradient id="z" x1="25.023%" x2="74.934%" y1="10.379%" y2="89.541%">
            <stop offset="11.57%" stop-color="#DEE4FF" />
            <stop offset="84.72%" stop-color="#BACBEE" />
        </linearGradient>
        <linearGradient id="A" x1="49.993%" x2="49.993%" y1="99.998%" y2="-.004%">
            <stop offset="0%" stop-color="#4F5C7C" />
            <stop offset="100%" stop-color="#274168" />
        </linearGradient>
        <linearGradient id="B" x1="50.001%" x2="50.001%" y1="100.011%" y2=".007%">
            <stop offset="0%" stop-color="#C3D5FD" />
            <stop offset="100%" stop-color="#1A90FC" />
        </linearGradient>
        <linearGradient id="C" x1="49.999%" x2="49.999%" y1=".017%" y2="100.03%">
            <stop offset="0%" stop-color="#F4AE98" />
            <stop offset="100%" stop-color="#FAD1BB" />
        </linearGradient>
        <linearGradient id="D" x1="49.987%" x2="49.988%" y1="100.016%" y2=".014%">
            <stop offset="0%" stop-color="#C3D5FD" />
            <stop offset="100%" stop-color="#1A90FC" />
        </linearGradient>
        <linearGradient id="E" x1="50.06%" x2="50.059%" y1="99.969%" y2="-.032%">
            <stop offset="0%" stop-color="#C3D5FD" />
            <stop offset="100%" stop-color="#1A90FC" />
        </linearGradient>
        <linearGradient id="F" x1="50.003%" x2="50.003%" y1="100.002%" y2="0%">
            <stop offset="0%" stop-color="#4F5C7C" />
            <stop offset="100%" stop-color="#274168" />
        </linearGradient>
        <linearGradient id="G" x1="51.57%" x2="48.559%" y1="10.462%" y2="89.198%">
            <stop offset="0%" stop-color="#F4B9A4" />
            <stop offset="65.2%" stop-color="#FAD1BB" />
        </linearGradient>
        <linearGradient id="H" x1="49.999%" x2="49.999%" y1="99.967%" y2="-.019%">
            <stop offset="0%" stop-color="#4F5C7C" />
            <stop offset="100%" stop-color="#274168" />
        </linearGradient>
        <linearGradient id="I" x1="50.001%" x2="50.001%" y1="-.005%" y2="99.996%">
            <stop offset="0%" stop-color="#2E8F79" />
            <stop offset="100%" stop-color="#013F7C" />
        </linearGradient>
        <linearGradient id="J" x1="99.989%" x2=".022%" y1="49.963%" y2="49.963%">
            <stop offset="0%" stop-color="#F4B9A4" />
            <stop offset="65.2%" stop-color="#FAD1BB" />
        </linearGradient>
        <linearGradient id="K" x1=".002%" x2="100.004%" y1="49.993%" y2="49.993%">
            <stop offset="0%" stop-color="#18264B" />
            <stop offset="65.2%" stop-color="#2D3C65" />
        </linearGradient>
        <linearGradient id="L" x1="50.017%" x2="50.017%" y1=".029%" y2="100.004%">
            <stop offset="0%" stop-color="#FFDB80" />
            <stop offset="100%" stop-color="#FFBB24" />
        </linearGradient>
        <linearGradient id="M" x1="-.002%" x2="99.966%" y1="49.963%" y2="49.963%">
            <stop offset="0%" stop-color="#F4B9A4" />
            <stop offset="65.2%" stop-color="#FAD1BB" />
        </linearGradient>
        <linearGradient id="N" x1="-.007%" x2="99.995%" y1="49.993%" y2="49.993%">
            <stop offset="0%" stop-color="#445677" />
            <stop offset="100%" stop-color="#293861" />
        </linearGradient>
        <linearGradient id="O" x1="49.977%" x2="49.977%" y1=".029%" y2="100.004%">
            <stop offset="0%" stop-color="#FFDB80" />
            <stop offset="100%" stop-color="#FFBB24" />
        </linearGradient>
        <linearGradient id="P" x1="50%" x2="50%" y1="0%" y2="100%">
            <stop offset="0%" stop-color="#BAD7F5" />
            <stop offset="100%" stop-color="#E2F0FF" />
        </linearGradient>
        <ellipse id="Q" cx="36" cy="33.5" rx="36" ry="33.5" />
    </defs>
    <g fill="none" fill-rule="evenodd">
        <path fill="#1C252E" fill-rule="nonzero" d="M0 0h672v756H0z" />
        <g fill-rule="nonzero">
            <g fill="#2E8F79">
                <path
                    d="M524.096 305.45c14.862 3.082 33.586-12.16 33.904-30.49-.895-17.98-15.576-33.088-35.5-32.96-19.924.13-33.035 19.045-33.903 32.96-1.014 15.852 15.255 28.874 35.5 30.49"
                    opacity=".2" />
                <path
                    d="M517.895 307.975c17.142.732 32.272-14.471 31.896-28.025-1.785-17.743-14.28-31.697-31.896-30.469C500.28 250.71 486 263.256 486 277.506c.47 11.365 14.913 28.5 31.895 30.469"
                    opacity=".3" />
                <path
                    d="M520.164 302.118c19.923 3.331 33.673-11.224 33.595-27.204 1.239-15.082-17.876-31.388-35.504-30.844-18.467 0-29.898 13.618-29.7 27.873 1.004 7.719 5.4 27.368 31.609 30.175"
                    opacity=".4" />
                <path
                    d="M517.742 301.49c17.803 3.439 31.733-.915 31.539-26.573-3.926-19.083-18.506-25.772-30.11-25.661-21.096.806-29.273 11.842-30.11 25.661 1.416 8.171 9.6 24.621 28.68 26.573"
                    opacity=".4" />
                <path
                    d="M518.111 295.313c16.968-2.199 28.405-12.2 28.682-23.749 2.114-16.685-10.563-25.843-27.406-24.983-15.138 3.41-23.611 12.455-25.705 24.983-.02 10.795-1.684 28.027 24.43 23.749"
                    opacity=".6" />
            </g>
            <path fill="url(#a)"
                d="M35.554 30.946v20.53a9 9 0 0 1-.722-.209l-.142-.049a4.4 4.4 0 0 1-.781-.37h-.001a111 111 0 0 1-3.627-2.583l-.445-.333a35 35 0 0 1-3.025-2.54l-.204-.193a21 21 0 0 1-2.339-2.648l-.13-.177a18 18 0 0 1-1.726-2.974l-.083-.183a20.6 20.6 0 0 1-1.234-3.71q-.473-2.014-.72-4.56zm0-16.136v13.736H20.21q-.082-1.514-.124-3.158-.043-1.762-.04-3.526 0-.465.81-.6l.053-.01q.905-.129 1.816-.222l.365-.035q1.452-.15 2.878-.444a8.7 8.7 0 0 0 2.854-1.132l.108-.068q.886-.53 1.686-1.159l.145-.115.81-.656.814-.654q.652-.526 1.344-1.008l.199-.137a6.8 6.8 0 0 1 1.625-.812"
                transform="translate(486 242)" />
            <path fill="#FFF"
                d="M522.662 271.476h14.4q-.197 2.707-.608 4.804a25 25 0 0 1-1.06 3.843 16.6 16.6 0 0 1-1.608 3.236 24 24 0 0 1-2.276 2.96 44 44 0 0 1-3.04 3.06q-1.928 1.77-3.884 3.509c-.597.32-1.25.52-1.924.588zM528.892 261.953c.765.48 1.643.801 2.57.942q1.412.218 2.655.29 1.245.072 2.095.126t.85.416q0 3.768-.125 6.702h-15.383v-13.62q1.036.218 1.949.816.936.615 1.762 1.34.85.743 1.72 1.539.871.797 1.908 1.449" />
        </g>
        <g fill-rule="nonzero">
            <path fill="#9FCCFF"
                d="M167.089 484.86c0-10.707-9.267-19.385-20.697-19.385-.178 0-.353.008-.53.012-3.609-5.68-10.225-9.487-17.795-9.487-11.43 0-20.697 8.68-20.697 19.385 0 .14.009.277.012.415-6.252 3.335-10.47 9.629-10.47 16.85 0 10.706 9.266 19.383 20.696 19.383q.975-.001 1.928-.086c3.796 4.307 9.82 7.053 16.249 7.053 10.565 0 18.994-7.416 20.253-16.99 6.57-3.249 11.05-9.708 11.05-17.15"
                opacity=".42" />
            <path fill="#FFF" d="m141.288 477.457-27.47 15.867-13.741-19.272 27.47-15.867z" />
            <path fill="#CCCCDE"
                d="M113.819 493.712a.434.434 0 0 1-.363-.178L99.714 474.26a.36.36 0 0 1-.058-.292.4.4 0 0 1 .188-.244l27.47-15.867a.46.46 0 0 1 .596.117l13.742 19.273a.36.36 0 0 1 .058.292.4.4 0 0 1-.188.244l-27.47 15.867a.47.47 0 0 1-.233.061m-13.146-19.543 13.275 18.619 26.745-15.448-13.276-18.619z" />
            <path fill="#81D0E8" d="m137.935 476.2-24.167 13.958-11.092-15.557 24.166-13.958z" opacity=".29" />
            <path fill="#FFE5B0" d="m122.753 477.775.223.312-12.619 7.288 3.94 5.526 24.167-13.96-4.163-5.836z"
                opacity=".29" />
            <path fill="#85B385"
                d="M131.08 472.446c.45.631-.138.897-1.18 1.499-1.043.602-1.568.978-2.017.347-.264-.369.341-1.327.903-1.651.62-.358 2.119-.44 2.293-.195"
                opacity=".29" />
            <path fill="#E6CE9E" d="m135.147 472.29-24.166 13.96-.862-1.21 24.167-13.958z" opacity=".29" />
            <path fill="#85B385"
                d="M124.722 475.197c.856 1.201.158 1.464-1.03 2.151-1.19.687-1.76 1.155-2.615-.045-.501-.702-.046-2.124.595-2.494.706-.408 2.717-.077 3.05.388"
                opacity=".29" />
            <path fill="#B3A889" d="m113.138 481.878.043-1.152 2.52-1.455 1.214.467z" opacity=".29" />
            <path fill="#B3A889" d="m114.049 481.358.142-1.965 2.058.722z" opacity=".29" />
            <path fill="#E4CBB4" d="m117.287 480.275 1.062-.07.506.71-.788.455z" opacity=".29" />
            <path fill="#E66C6C"
                d="m118.35 480.205.788-.456.16-.656-.771.466zM119.945 479.083l.43-.007 1.052-.607.306-.678-1.512.873z"
                opacity=".29" />
            <path fill="#E4CBB4"
                d="m121.733 477.791 1.433-.202.422.592-4.733 2.734-.506-.71.79-.456.158-.656 1.078-.017 1.052-.607z"
                opacity=".29" />
            <path fill="#C9B39F" d="m119.64 480.46-.789.456-.506-.71.789-.456z" opacity=".29" />
            <path fill="#B4CFB4"
                d="M108.753 481.671c-.26.15-.474.34-.641.555l2.386 3.346c.287-.047.567-.143.827-.293 2.738-1.582 1.397-1.947.687-2.943-.711-.997-2.17-1.294-3.259-.665"
                opacity=".29" />
            <path fill="#C9B39F" d="m121.912 479.152-1.051.608-.485-.68 1.051-.608z" opacity=".29" />
            <path fill="#8B7256" d="m124 477.462-.395.228-.443-.621.394-.228z" opacity=".29" />
            <path fill="#DDD" d="m115.404 482.908-1.175-1.648-1.091.618 1.182 1.657z" opacity=".29" />
            <path fill="#F7F7F7" d="m116.906 479.741 1.161 1.629-2.663 1.538-1.175-1.648z" opacity=".29" />
            <path fill="#968D73" d="m114.191 479.393-.261.164-.327 2.068.452-.26z" opacity=".29" />
            <path fill="#3F3F3F"
                d="m115.614 481.521-.44.255-.318-.446.44-.255zM116.354 481.094l-.44.254-.318-.445.44-.255zM117.099 480.666l-.441.255-.318-.445.44-.255zM120.362 479.698l-.61.353-.319-.446.61-.353zM122.78 478.297l-.611.353-.318-.446.61-.353z"
                opacity=".29" />
            <path fill="#E4CBB4" d="m122.528 478.625-.473-.662z" opacity=".29" />
            <path fill="#3F3F3F" d="m114.394 482.227-.44.254-.317-.445.44-.255z" opacity=".29" />
            <path fill="#85B385"
                d="M114.328 481.988c.856 1.201.158 1.465-1.03 2.151-1.19.687-1.758 1.156-2.615-.046-.5-.702-.046-2.123.595-2.493.707-.408 2.719-.077 3.05.388M126.985 474.643c.542.76.087.935-.692 1.385s-1.153.754-1.695-.006c-.317-.445-.007-1.358.413-1.6.462-.268 1.763-.074 1.974.22"
                opacity=".29" />
            <path fill="#85B385"
                d="M128.971 474.016c.257.36-.217.591-1.077 1.088-.86.496-1.301.793-1.558.434-.15-.21.427-.89.89-1.158.512-.295 1.647-.504 1.745-.364M134.195 470.89c.317.443-.54.886-2.113 1.795s-2.394 1.434-2.71.992c-.184-.26.976-1.356 1.825-1.846.935-.54 2.876-1.112 2.998-.94"
                opacity=".29" />
            <path fill="#85B385" d="m134.451 471.315-8.717 5.034-.288-.404 8.717-5.035z" opacity=".29" />
            <g fill="#FFF" opacity=".29">
                <path d="m130.765 466.145-7.74 4.472c-.52.3-1.117.303-1.328.007s.041-.783.56-1.083l7.74-4.471"
                    opacity=".73" />
                <path d="m104.62 477.33 6.985-4.035c.52-.3 1.108-.316 1.308-.036s-.062.755-.581 1.055l-6.985 4.035"
                    opacity=".28" />
                <path
                    d="M118.773 474.872c.21.296-.041.784-.56 1.084l-4.469 2.58c-.519.3-1.116.304-1.327.008s.041-.784.56-1.083l4.468-2.581c.52-.3 1.117-.304 1.328-.008"
                    opacity=".55" />
            </g>
            <path fill="#F2D9A6" d="M135.996 473.48 111.83 487.44l-.862-1.21 24.166-13.958z" opacity=".29" />
            <path fill="#CCCCDE"
                d="M114.356 491.254a.45.45 0 0 1-.363-.179l-11.608-16.28a.36.36 0 0 1-.058-.292.4.4 0 0 1 .188-.243l24.108-13.925a.47.47 0 0 1 .325-.053c.112.022.21.083.27.17l11.608 16.28c.129.18.07.42-.13.535l-24.107 13.925a.46.46 0 0 1-.233.062m-11.012-16.55 11.142 15.625 23.381-13.505-11.141-15.626z" />
            <path fill="#FFF"
                d="m136.353 471.995 8.676-14.607 15.995 7.695 4.722 14.01-3.254 5.478-3.587 6.04-6.049 10.183-26.138-12.576 6.048-10.183z" />
            <path fill="#CCCCDE"
                d="M152.856 501.182a.5.5 0 0 1-.203-.046l-26.138-12.575c-.21-.101-.29-.337-.177-.526l18.31-30.83c.113-.189.375-.26.584-.16l15.995 7.696c.101.048.177.13.21.23l4.722 14.009a.36.36 0 0 1-.033.296l-12.889 21.7a.44.44 0 0 1-.381.206m-25.554-13.123 25.377 12.21 12.602-21.218-4.618-13.701-15.457-7.437z" />
            <path fill="#FFF" d="m165.338 479.44-10.143-4.88 5.59-9.411" />
            <path fill="#CCCCDE"
                d="m165.135 479.781-10.143-4.88a.4.4 0 0 1-.21-.229.36.36 0 0 1 .033-.296l5.589-9.41.76.366-5.385 9.068 9.762 4.697zM147.593 462.023l7.612 3.662-.406.685-7.612-3.662zM146.06 464.607l7.61 3.662-.406.684-7.611-3.662zM144.546 467.153l7.612 3.662-.406.685-7.612-3.662zM142.856 470l18.343 8.825-.406.685-18.344-8.825zM141.168 472.84l10.981 5.284-.406.684-10.981-5.283zM154.519 479.264l3.37 1.622-.407.684-3.37-1.62zM139.404 475.812l15.223 7.324-.406.685-15.224-7.324zM137.53 478.968l6.738 3.242-.407.685-6.738-3.242zM147.39 483.713l2.495 1.2-.407.685-2.495-1.2zM152.252 486.053l2.246 1.081-.407.685-2.246-1.081zM135.899 481.715l12.728 6.123-.407.685-12.728-6.123zM151.248 489.102l2.247 1.08-.407.685-2.247-1.08zM134.474 484.112l8.735 4.203-.407.684-8.735-4.202zM145.79 489.557l2.829 1.361-.407.685-2.829-1.361zM133.139 486.359l4.242 2.042-.407.684-4.242-2.042z" />
            <path fill="#FFF" d="m147.135 501.613-32.02-11.178 9.667-22.43 32.019 11.177z" />
            <path fill="#CCCCDE"
                d="M147.135 502a.5.5 0 0 1-.156-.026l-32.021-11.178a.42.42 0 0 1-.239-.206.35.35 0 0 1-.007-.296l9.667-22.432c.085-.2.335-.3.558-.221l32.02 11.178c.222.077.332.302.246.502l-9.666 22.431a.4.4 0 0 1-.228.215.5.5 0 0 1-.174.033m-31.463-11.788 31.216 10.897 9.354-21.707-31.215-10.897z" />
            <path fill="#D6F1FF" d="m145.663 498.7-27.27-9.52 7.926-18.391 27.27 9.52z" />
            <g opacity=".47">
                <path fill="#000"
                    d="M123.076 478.306s1.643-.97 4.307-.04 1.555-1.334 4.751-.218c3.196 1.115 5.84.384 9.097 3.065s9.834 5.051 9.834 5.051l-1.991 4.848-27.94-8.2z"
                    opacity=".08" />
                <path fill="#FFE5B0"
                    d="m135.694 483.615-15.897 2.302-1.38 3.202 27.358 9.55zM121.602 481.727s4.898-.677 7.319.406c2.42 1.082-3.12 2.914-3.12 2.914l-6.004.87z" />
                <path fill="#F2D9A6"
                    d="M128.92 482.133s.72.649-1.427.647-3.985 2.64-.349 2.317c3.637-.324 8.55-1.481 8.55-1.481s-3.369.586-6.773-1.483" />
                <path fill="#FFE5B0" d="M139.541 485.035s4.27-.715 10.692 2.972l-.691 1.92z" />
                <path fill="#D6C093"
                    d="M127.144 485.097c1.527-.136 3.278-.42 4.799-.702-2.564-1.156-2.659-2.051-2.659-2.051v-.001q-.181-.101-.363-.21s.72.649-1.428.647-3.986 2.64-.35 2.317" />
                <path fill="#D6C093" d="M141.081 484.995s5.114 1.797 8.809 3.964l-.349.968z" opacity=".42" />
                <path fill="#D6C093"
                    d="M138.81 483.992s-4.54-1.983-3.351 1.518 10.316 13.16 10.316 13.16l3.767-8.742s-7.431-4.784-10.731-5.936" />
                <path fill="#D6C093" d="M119.536 486.522s7.84 1.174 13.058-1.85c0 0-3.413 2.79-13.677 3.287z"
                    opacity=".27" />
                <path fill="#D6C093" d="M135.754 486.203s4.542 7.034 4.502 10.539l5.519 1.927z" opacity=".25" />
                <path fill="#C7B289"
                    d="M136.638 486.765c-1.407-4.049 3.9-1.736 3.9-1.736.592.206 1.223.429 1.87.659-1.358-.733-2.649-1.364-3.599-1.695 0 0-4.54-1.984-3.35 1.518.525 1.551 2.612 4.311 4.771 6.905-1.588-1.992-3.05-4.092-3.592-5.651m12.73 3.052-3.737 8.674s-.218-.22-.587-.607c.458.496.73.785.73.785l3.768-8.74zM128.132 483.003c.812 0 1.213-.092 1.399-.207-.228-.285-.246-.453-.246-.453h-.001a10 10 0 0 1-.363-.21s.72.648-1.428.646c-1.865-.003-3.498 1.994-1.505 2.303-.886-.612.543-2.081 2.144-2.08" />
            </g>
            <path fill="#CCCCDE"
                d="M145.775 499.056a.5.5 0 0 1-.155-.027l-27.357-9.55c-.222-.077-.332-.302-.246-.501l7.9-18.332a.4.4 0 0 1 .227-.214.48.48 0 0 1 .33-.007l27.357 9.55a.42.42 0 0 1 .238.205.35.35 0 0 1 .008.297l-7.9 18.33a.43.43 0 0 1-.402.249m-26.798-10.16 26.552 9.27 7.588-17.608-26.552-9.27z" />
            <path fill="#FFD6D6" d="M134.562 501.163h5.348v19.443h-5.348z" />
            <path fill="#CCCCDE"
                d="M139.91 521h-5.348c-.237 0-.429-.176-.429-.393v-19.443c0-.218.192-.394.429-.394h5.348c.237 0 .429.176.429.394v19.443c0 .217-.192.393-.429.393m-4.92-.787h4.492v-18.656h-4.491z" />
            <path fill="#CCCCDE"
                d="M139.91 504.372h-5.348c-.237 0-.429-.176-.429-.393s.192-.394.429-.394h5.348c.237 0 .429.177.429.394s-.192.393-.429.393M139.91 518.11h-5.348c-.237 0-.429-.176-.429-.393s.192-.393.429-.393h5.348c.237 0 .429.176.429.393s-.192.394-.429.394" />
            <path fill="#FFF" d="M129.138 501.163h5.49v19.443h-5.49z" />
            <path fill="#CCCCDE"
                d="M134.628 521h-5.49c-.237 0-.43-.176-.43-.393v-19.443c0-.218.193-.394.43-.394h5.49c.236 0 .428.176.428.394v19.443c0 .217-.192.393-.428.393m-5.062-.787h4.633v-18.656h-4.633z" />
            <path fill="#CCCCDE"
                d="M134.628 504.372h-5.49c-.237 0-.43-.176-.43-.393s.193-.394.43-.394h5.49c.236 0 .428.177.428.394s-.192.393-.428.393M134.667 518.11h-5.53c-.236 0-.428-.176-.428-.393s.192-.393.428-.393h5.53c.237 0 .429.176.429.393s-.192.394-.429.394" />
            <path fill="#DBF8FF" d="M139.716 501.163h5.348v19.443h-5.348z" />
            <path fill="#CCCCDE"
                d="M145.064 521h-5.348c-.237 0-.429-.176-.429-.393v-19.443c0-.218.192-.394.429-.394h5.348c.237 0 .429.176.429.394v19.443c0 .217-.192.393-.429.393m-4.92-.787h4.491v-18.656h-4.49z" />
            <path fill="#CCCCDE"
                d="M145.064 504.372h-5.348c-.237 0-.429-.176-.429-.393s.192-.394.429-.394h5.348c.237 0 .429.177.429.394s-.192.393-.429.393M145.064 518.11h-5.348c-.237 0-.429-.176-.429-.393s.192-.393.429-.393h5.348c.237 0 .429.176.429.393s-.192.394-.429.394" />
            <path fill="#FFFDE6" d="M144.809 501.163h5.348v19.443h-5.348z" />
            <path fill="#CCCCDE"
                d="M150.157 521h-5.349c-.236 0-.428-.176-.428-.393v-19.443c0-.218.192-.394.428-.394h5.349c.236 0 .428.176.428.394v19.443c0 .217-.192.393-.428.393m-4.92-.787h4.49v-18.656h-4.49z" />
            <path fill="#CCCCDE"
                d="M150.156 504.372h-5.348c-.236 0-.428-.176-.428-.393s.192-.394.428-.394h5.348c.237 0 .429.177.429.394s-.192.393-.429.393M150.156 518.11h-5.348c-.236 0-.428-.176-.428-.393s.192-.393.428-.393h5.348c.237 0 .429.176.429.393s-.192.394-.429.394M108.597 520.225h52.589v1h-52.59zM165.103 520.225h1.986v1h-1.986zM99.646 520.225h3.916v1h-3.916z" />
            <path fill="#FFF2B5"
                d="M153.058 489.286h-12.847l-6.375-6.784c-1.092-1.163-3.363-2.114-5.045-2.114h-12.643c-1.683 0-3.06 1.25-3.06 2.78v32.81c0 2.55 2.295 4.635 5.099 4.635h34.871c2.804 0 5.099-2.085 5.099-4.635V493.92c0-2.548-2.295-4.633-5.099-4.633" />
            <path fill="#FF4D00"
                d="M156.285 493.086c-.45.662.112 21.221-.655 23.062-.646 1.17-.598 2.28-2.538 2.28h-35.227c-4.324 0-5.15-4.298-5.15-6.754v4.288c0 2.457 2.318 4.466 5.15 4.466h35.227c2.833 0 5.15-2.009 5.15-4.466l-.214-22.041c0 .82-1.293-1.499-1.743-.835M120.227 489.286v-1.759h16.12l1.652 1.759z"
                opacity=".15" />
            <path fill="#FFF0A6"
                d="M152.757 489.517h-12.665l-6.284-6.783c-1.078-1.163-3.316-2.114-4.974-2.114h-12.465c-1.659 0-3.015 1.251-3.015 2.78v2.413c0-1.53.517-4.307 2.176-4.307h12.464c1.658 0 3.896.952 4.974 2.115l7.123 8.31h12.665c2.764 0 5.026 2.084 5.026 4.633v-2.412c0-2.549-2.261-4.635-5.025-4.635" />
            <path fill="#FFF0A6" d="M140.211 491.783h-19.984v-2.127h17.986z" />
            <path fill="#6E6E96" d="M120.226 488.898h19.985v1h-19.985z" />
            <path fill="#6E6E96"
                d="M153.058 521h-34.871c-3.046 0-5.525-2.253-5.525-5.022v-32.81c0-1.747 1.564-3.168 3.486-3.168h12.643c1.795 0 4.204 1.01 5.37 2.25l6.246 6.648h12.651c3.047 0 5.525 2.252 5.525 5.021v22.06c0 2.768-2.478 5.021-5.525 5.021m-36.91-40.225c-1.452 0-2.633 1.074-2.633 2.393v32.81c0 2.342 2.096 4.247 4.672 4.247h34.871c2.576 0 4.672-1.905 4.672-4.247V493.92c0-2.341-2.096-4.246-4.672-4.246h-13.044l-6.502-6.92c-1.007-1.072-3.17-1.978-4.721-1.978z" />
        </g>
        <g fill-rule="nonzero">
            <path fill="#D6ECFD" stroke="#A8D1F8" stroke-linejoin="round" stroke-width="10"
                d="M494.848 469h59.81v37.607h-59.81z" />
            <path fill="#A8D1F8" d="M522.38 469h1.899v38.571h-1.899z" />
            <g transform="translate(545.165 483.464)">
                <ellipse cx="11.2" cy="37.337" fill="#CA6B41" rx="4.988" ry="1" />
                <path fill="#CA6B41" d="M20.894 26.506 16 37.336H6.4L1.32 26.507z" />
                <ellipse cx="11.106" cy="26.506" fill="#70371D" rx="9.976" ry="1" />
                <path fill="#41754E"
                    d="M10.918 26.912s-6.344-2.086-7.671-5.165C1.919 18.668 0 12.29 0 12.29c2.082 6.306 4.878 3.722 8.167 9.105 1.307 2.138 2.751 5.517 2.751 5.517M12.612 26.912s5.36-1.526 6.48-3.778c1.123-2.252 2.743-6.917 2.743-6.917-1.759 4.612-4.121 2.722-6.9 6.659-1.103 1.564-2.323 4.036-2.323 4.036" />
                <path fill="#4E855C"
                    d="M11.488 27.174S5.435 21.886 6.21 16.45C6.985 11.015 9.594 0 9.594 0c-2.356 10.945 3.019 7.536 2.834 17.323-.074 3.89-.94 9.85-.94 9.85" />
                <path fill="#599F5F"
                    d="M11.38 27.176s6.564-3.347 6.502-6.693c-.061-3.346-1.197-10.113-1.197-10.113.899 6.727-3.897 4.694-4.964 10.735-.424 2.4-.34 6.07-.34 6.07" />
            </g>
            <path fill="#EC8F51" d="M492 498.893h60.759v1.653H492z" />
            <path fill="#CB6724" d="M492 498.893h16.888v1.653H492z" />
            <path fill="#6A7888" d="M535.095 500.546h1.941v17.77h-1.941zM548.683 500.546h1.941v20.526h-1.941z" />
            <path fill="#8794A4" d="M494.329 500.546h1.941v17.77h-1.941zM507.918 500.546h1.941v20.526h-1.941z" />
            <path fill="#363636" d="M515.859 490.357h2.588v9.5h-2.588z" />
            <path fill="#363636"
                d="M505.953 483.464h20.27c.966.01 1.765.578 1.844 1.31l.839 9.17c.038.34-.114.677-.42.926-.306.25-.737.39-1.186.385h-20.269c-.967-.01-1.766-.578-1.845-1.31l-.838-9.17c-.039-.34.114-.677.42-.926.306-.25.736-.39 1.185-.385" />
            <path fill="#E7EFFF" stroke="#555" stroke-linejoin="round" stroke-width="4"
                d="M507.016 483.464h20.27c.966.01 1.765.578 1.844 1.31l.839 9.17c.038.34-.114.677-.42.926-.306.25-.737.39-1.185.385h-20.27c-.967-.01-1.765-.578-1.845-1.31l-.838-9.17c-.039-.34.114-.677.42-.926.306-.25.736-.39 1.185-.385Z" />
            <g fill="#2E8F79" transform="translate(510.996 486.245)">
                <path
                    d="M0 0h1.155v4.245H0zM1.733 1.464h1.155v2.781H1.733zM5.199 2.635h1.155v1.61H5.199zM3.466 1.464h1.155v2.781H3.466z" />
                <ellipse cx="13.383" cy="2.415" rx="2.407" ry="1.83" />
            </g>
            <path fill="#483020"
                d="M517.72 518.935s-3.307.07-3.854.976 6.517 1.715 8.229.664c.599-1.185-.334-2.65-.334-2.65z" />
            <path fill="#343434"
                d="M531.086 501.596s-11.793 2.005-12.795 4.425c-.467 1.13-1.357 12.448-1.357 12.448s1.374.415 2.714.415c1.373 0 2.715-.83 2.715-.83l.969-10.096s18.918-.245 18.998-5.533-11.244-.83-11.244-.83" />
            <path fill="#483020"
                d="M527.136 518.766s-3.3-.01-3.887.884c-.586.893 6.422 1.873 8.177.862.65-1.17-.214-2.659-.214-2.659z" />
            <path fill="#343434"
                d="M539.645 503.771s-11.763 2.008-12.762 4.431c-.466 1.131-1.16 10.523-1.16 10.523s.983.693 2.32.693c1.37 0 3.094-.693 3.094-.693l.773-8.584s18.87-.245 18.95-5.539c.081-5.294-11.215-.83-11.215-.83" />
            <path fill="#F5B08A" d="M536.071 476.148c-6.65 0-4.144 6.917 0 6.917s6.65-6.917 0-6.917" />
            <path fill="#E4875E"
                d="m538.396 481.82 1.354 2.349s-1.326 1.638-3.094 1.52c-.276-.019-.18-.861-.387-1.797-.165-.688-.64-1.318-1.354-1.796z" />
            <path fill="#2E8F79"
                d="M540.78 482.924c7.974 2.075 3.489 18.395 3.489 18.395s-.621 1.622-4.708 1.53c-7.25-.164-8.897-1.522-8.897-1.522s-.696-11.61 3.718-16.743c1.665-1.937 5.065-2.007 6.397-1.66" />
            <path fill="#393939"
                d="M530.872 476.7c-.144 1.786 1.204 2.142 2.404 3.49.246.276.735-1.084 1.106-.032.256 1.897 1.487 2.39 2.132 2.351 1.386-.085 2.617-.047 4.38.28-.49-1.757 2.69-2.987 1.048-6.504-5.511-3.313-6.63-.19-11.07.416" />
            <path fill="#F5B08A"
                d="M519.455 497.031s-1.955-.265-3.102.415-.663 1.303-.388 1.383 4.265-.138 4.265-.138z" />
            <path fill="#E2E2E2"
                d="M532.831 487.488c-1.012 1.234-.263 5.21-2.215 7.447-6.61 1.363-11.294 1.146-11.546 2.402-.402 1.997 2.92 1.62 2.92 1.62s12.946-.295 14.278-2.298c3.99-6.004.952-9.728.517-9.894-.889-.34-2.991-.45-3.954.723" />
            <g transform="translate(523.33 489.25)">
                <path fill="#3A2828"
                    d="M20.534.128s9.742-.469 11.495 1.875c.598.8.496 12.653-4.676 16.209-5.171 3.555-24.55 2.712-27.082 1.473s13.446.01 17.73-4.019C23.008 10.958 20.534.128 20.534.128" />
                <path fill="#493434"
                    d="M20.144 1.333s1.47 12.236-5.066 15.003c-2.617 1.108-8.024 1.908-11.64 2.153-2.629.178-3.673.327-2.973.928.764.655 6.271.22 13.055-1.34C23.86 15.7 22.287 1.234 21.313.263s-1.169 1.071-1.169 1.071" />
                <ellipse cx="19.755" cy="32.745" fill="#768394" rx="4.092" ry="1.005" />
                <path fill="#8794A4" d="M18.78 19.551h1.754v12.993H18.78z" />
            </g>
            <path fill="#598FF0"
                d="M499.982 476.714h8.72c.213 0 .387.124.387.276v3.857c0 .152-.174.275-.388.275h-8.719c-.214 0-.387-.123-.387-.275v-3.857c0-.152.173-.276.387-.276m5.813 3.995 1.55 1.791.194-1.929z" />
        </g>
        <g fill-rule="nonzero">
            <g transform="translate(284 444)">
                <path fill="url(#b)"
                    d="M59.827 15.302c-5.22 3.87-16.427 4.32-24.648-.284s-23.4-4.01-27.512 4.456c-4.111 8.466 5.06 16.782 1.739 22.87-3.321 6.09-14.389 14.702-6.799 25.097s17.224 7.746 23.023 6.702c11.451-2.06 25.82 14.781 41.987 2.061 9.316-7.328 23.189 5.379 28.594-10.396 4.46-13.016-11.656-17.826-6.799-26.583 5.165-9.312 4.173-20.348-1.423-25.692-5.212-4.978-19.149-4.914-28.162 1.769" />
                <path fill="url(#c)" d="m51.207 48.827 32.342-.511-4.546 17.159H49.144z" />
                <path fill="url(#d)"
                    d="M4.049.03s-.03-.072-.07.006C3.61.738.284 8.336.02 14.202c0 0-.555 3.37 4.096 3.325 3.883-.037 3.78-3.144 3.766-4.19C7.83 9.092 4.049.03 4.049.03"
                    transform="translate(5.795 41.096)" />
                <path fill="url(#e)"
                    d="M3.943 21.258c-.075 0-.136-.057-.136-.128V2.074c0-.07.061-.128.136-.128s.136.058.136.128V21.13c0 .072-.061.128-.136.128"
                    transform="translate(5.795 41.096)" />
                <path fill="url(#f)"
                    d="M2.606.02s-.019-.047-.044.004C2.325.474.183 5.369.013 9.144c0 0-.358 2.17 2.638 2.143 2.5-.023 2.434-2.025 2.425-2.698-.034-2.735-2.47-8.57-2.47-8.57"
                    transform="translate(75.378 35.643)" />
                <path fill="url(#g)"
                    d="M2.538 13.689c-.049 0-.087-.037-.087-.082V1.337c0-.046.04-.081.087-.081.048 0 .087.037.087.081v12.27c0 .045-.039.082-.087.082"
                    transform="translate(75.378 35.643)" />
                <ellipse cx="54.589" cy="4.44" fill="url(#h)" rx="4.728" ry="4.44" />
                <path fill="url(#i)"
                    d="M57.279 6.862h-4.703c-.304-1.356-1.585-2.374-3.12-2.374s-2.815 1.018-3.12 2.374h-1.23c-1.46 0-2.646 1.112-2.646 2.484s1.184 2.484 2.645 2.484h12.173c1.46 0 2.644-1.112 2.644-2.484.002-1.371-1.182-2.484-2.643-2.484" />
                <g transform="translate(85.629 54.778)">
                    <ellipse cx="1.892" cy="1.777" fill="url(#j)" rx="1.892" ry="1.777" />
                    <path fill="url(#k)"
                        d="M1.9 6.172c-.033 0-.06-.024-.06-.055V.502c0-.03.027-.055.06-.055.032 0 .058.025.058.055v5.615a.06.06 0 0 1-.059.055" />
                </g>
            </g>
            <g transform="translate(301.46 465)">
                <path fill="url(#l)"
                    d="M56.944 33.93H5.286V3.525C5.286 1.579 6.936 0 8.97 0h44.29c2.034 0 3.684 1.579 3.684 3.525z" />
                <path fill="url(#m)"
                    d="M56.944 33.93H5.286V4.562c0-1.946 1.65-3.524 3.684-3.524h44.29c2.034 0 3.684 1.578 3.684 3.524z" />
                <path fill="#FFF"
                    d="M49.58 31.584H12.65c-2.497 0-4.52-1.936-4.52-4.324V7.632c0-2.389 2.023-4.325 4.52-4.325h36.93c2.497 0 4.52 1.936 4.52 4.325V27.26c0 2.388-2.023 4.324-4.52 4.324" />
                <path fill="url(#n)"
                    d="m61.597 42.209-4.395-6.38H5.028L.583 42.112C-.87 44.415.65 47 2.343 47H59.81c1.69 0 3.025-2.497 1.788-4.791" />
                <path fill="url(#o)"
                    d="m61.403 41.708-4.46-7.778H5.284L.756 41.694c-.85 1.458.192 3.297 1.872 3.297h56.896c1.673 0 2.717-1.825 1.88-3.283" />
                <path fill="url(#p)"
                    d="M39.107 42.614H23.123a.672.672 0 0 1-.572-1.019l1.497-2.511a.67.67 0 0 1 .572-.326h12.989c.234 0 .451.124.572.326l1.497 2.511a.672.672 0 0 1-.571 1.019" />
                <circle cx="39.697" cy="25.467" r="1" fill="#FFF" />
                <path fill="url(#q)"
                    d="M11.166 6.39c.021-.118.043-.249.012-.36-.123-.463.108-.747.476-1.002.338-.234.641-.513.97-.783L11.22 1.832c-.53.168-1.059.325-1.577.506-.248.087-.46.109-.665-.08a.5.5 0 0 0-.214-.126c-.523-.12-.685-.472-.728-.943C8 .791 7.9.396 7.827 0H4.86c-.13.589-.25 1.179-.392 1.765-.045.186-1.147.665-1.342.604-.467-.147-.94-.282-1.4-.45-.222-.082-.328-.047-.441.154C.93 2.7.555 3.316.183 3.935c-.05.084-.122.155-.183.233v.12c.479.373.961.74 1.432 1.122.053.043.073.176.045.243-.152.366.226.804-.168 1.132L.334 7.6l-.178.145 1.42 2.477c.512-.168 1.018-.324 1.514-.502.201-.073.358-.064.52.068.088.072.185.156.29.179.508.114.633.476.7.904.063.398.168.788.257 1.193H7.81l.325-1.63c.014-.068.014-.17.058-.197.258-.152.557-.253.789-.434.297-.236.55-.083.819.002.416.134.829.273 1.262.417l1.545-2.473c-.422-.323-.833-.648-1.257-.956-.148-.107-.217-.221-.184-.402m-1.375.573a.46.46 0 0 0 .146.315c.344.277.71.532 1.09.812-.147.247-.284.479-.435.73-.428-.157-.849-.306-1.263-.47-.16-.064-.278-.074-.427.041a5.9 5.9 0 0 1-1.692.92c-.104.036-.21.184-.234.297-.086.412-.139.83-.205 1.255h-.906c-.06-.392-.133-.784-.175-1.18-.023-.216-.115-.317-.323-.417a21 21 0 0 1-1.585-.851c-.167-.099-.29-.144-.482-.063-.403.171-.819.314-1.26.48l-.44-.73c.353-.258.692-.523 1.052-.76.174-.115.2-.24.195-.428q-.026-.87 0-1.74c.006-.177-.015-.293-.178-.403-.36-.24-.701-.507-1.075-.78l.461-.73c.421.16.83.309 1.234.473.171.07.304.073.457-.048q.76-.6 1.692-.918c.09-.031.186-.156.205-.25.087-.423.147-.851.22-1.291h.905c.064.42.112.84.198 1.252a.46.46 0 0 0 .24.294c.607.219 1.166.51 1.66.91.136.11.255.133.424.062.414-.172.836-.324 1.285-.496l.461.735c-.375.277-.74.53-1.082.807a.5.5 0 0 0-.158.34 36 36 0 0 0-.005 1.832"
                    transform="translate(27.803 9.41)" />
                <path fill="url(#r)"
                    d="M6.32 3.785C5.016 3.78 3.952 4.798 3.954 6.044c.003 1.25 1.07 2.264 2.37 2.254 1.298-.01 2.335-1.001 2.347-2.245C8.686 4.81 7.627 3.79 6.32 3.785m-.017 3.387c-.645-.011-1.189-.546-1.17-1.15.02-.61.55-1.109 1.18-1.111.64-.003 1.19.524 1.185 1.136-.005.613-.56 1.136-1.195 1.125"
                    transform="translate(27.803 9.41)" />
                <path fill="url(#s)"
                    d="M9.844 3.816c.067.32.138.638.196.959.053.296-.048.449-.348.52-.266.063-.54.094-.804.167a.45.45 0 0 0-.235.203c-.07.125-.088.277-.151.406-.072.146-.037.246.075.357.164.163.315.338.46.515.187.23.18.425-.049.62a70 70 0 0 1-1.56 1.298c-.223.181-.42.168-.628-.03a6 6 0 0 1-.492-.524c-.104-.128-.21-.12-.364-.112-.451.022-.706.218-.757.652-.007.062-.04.12-.062.18-.176.455-.329.525-.816.368-.555-.178-1.111-.354-1.663-.54-.452-.153-.523-.305-.377-.743l.08-.232c.185-.533.188-.536-.23-.94-.052-.051-.164-.074-.24-.064-.3.044-.595.111-.892.16-.334.056-.502-.024-.572-.33a39 39 0 0 1-.403-1.97c-.053-.296.069-.434.38-.505.276-.062.558-.096.832-.167.087-.022.154-.121.227-.189.012-.01.008-.036.016-.051.215-.385.11-.694-.24-.948-.052-.037-.091-.091-.135-.14-.354-.388-.346-.558.056-.901q.655-.56 1.32-1.11c.34-.28.543-.26.842.063q.038.041.073.083c.475.529.475.533 1.18.336.071-.02.148-.102.176-.172.102-.243.176-.495.272-.741.094-.241.29-.346.541-.27Q6.577.339 7.59.687c.26.09.348.29.253.55-.081.221-.176.44-.229.669-.023.1.023.233.078.328.235.408.573.445 1.031.332.767-.192.841-.117.996.631l.125.612c.002.008 0 .008 0 .008m-6.52 1.258c.188.91 1.098 1.494 2.047 1.315.957-.18 1.589-1.075 1.393-1.978-.194-.895-1.117-1.492-2.06-1.329-.931.16-1.57 1.08-1.38 1.992"
                    transform="translate(18.14 6.597)" />
                <path fill="url(#t)"
                    d="M9.211 19.572h-.584c-.136-.001-.228-.066-.208-.2.057-.363-.073-.609-.45-.722-.06-.018-.107-.069-.163-.101-.12-.07-.239-.083-.365-.004a3 3 0 0 1-.266.146c-.112.054-.211.036-.279-.072l-.603-.992c-.07-.115-.039-.208.075-.278.086-.053.173-.106.263-.151.133-.066.177-.171.175-.306q-.004-.232 0-.464c.001-.136-.048-.24-.18-.304a3 3 0 0 1-.266-.149c-.107-.066-.14-.155-.072-.265l.602-.993c.074-.123.194-.156.3-.072.301.24.581.212.868-.017.049-.039.114-.06.172-.085a.29.29 0 0 0 .185-.285c0-.093.004-.186 0-.28-.008-.15.069-.226.22-.227q.59-.005 1.182 0c.142.001.223.076.22.215-.018.53-.003.494.443.709a1 1 0 0 1 .15.091c.13.092.261.088.392.008.518-.32.478-.145.686.19q.22.353.428.71c.095.161.07.239-.094.332-.046.026-.092.054-.142.075-.2.083-.284.218-.249.432.02.12.008.249-.004.372-.015.147.042.25.176.318l.028.016c.411.231.411.231.17.634-.15.245-.296.493-.446.738-.086.143-.171.166-.322.088-.412-.212-.366-.296-.835.012a.7.7 0 0 1-.158.078c-.16.055-.226.163-.222.322.016.543-.025.483-.518.484q-.154-.004-.309-.003m.015-1.946c.558 0 1.01-.432 1.01-.964.002-.528-.46-.968-1.012-.966-.556 0-1.006.436-1.005.969.001.538.443.961 1.007.961"
                    transform="translate(18.14 6.597)" />
                <path fill="url(#u)"
                    d="m4.847 7.131-1.566.118c-.058-.105-.13-.205-.171-.315-.03-.081-.02-.177-.027-.266-.027-.338-.027-.338-.361-.44-.011-.004-.023-.001-.046-.003q-.204.236-.418.473c-.146.16-.268.172-.434.038a69 69 0 0 1-.967-.79C.7 5.816.69 5.696.823 5.542c.142-.166.293-.323.437-.481-.167-.343-.167-.343-.529-.316q-.157.014-.316.023c-.214.01-.3-.058-.32-.26C.067 4.2.045 3.89.018 3.58c-.047-.574-.047-.574.56-.62.363-.027.363-.027.472-.354.003-.01-.001-.022-.003-.037-.16-.13-.323-.26-.48-.394-.175-.146-.189-.262-.044-.428q.403-.458.814-.911c.145-.16.266-.168.434-.035.172.137.338.28.502.415.054-.025.092-.049.132-.062.176-.05.245-.148.204-.33C2.58.677 2.58.526 2.57.377 2.56.214 2.64.114 2.814.1Q3.474.046 4.137 0c.188-.013.275.064.297.246q.016.16.027.321c.028.34.027.34.36.441.01.004.022.003.037.006q.21-.237.426-.473c.152-.164.272-.173.45-.03q.471.38.938.767c.18.15.189.262.028.44-.14.157-.288.309-.423.454.182.345.182.345.552.317.08-.007.162-.007.242-.02.147-.024.269.01.369.118q.06.75.123 1.498c-.108.056-.213.126-.329.165-.085.028-.185.018-.278.024-.353.026-.353.026-.46.346q-.004.013-.004.044c.162.13.33.262.493.4.173.146.182.26.031.43q-.397.452-.801.897c-.157.172-.276.18-.463.027-.164-.134-.322-.275-.473-.405-.361.176-.361.176-.332.528.007.083.033.17.017.249-.022.119-.076.229-.117.34m1.019-3.666c-.09-1.111-1.1-1.935-2.261-1.846-1.151.088-2.013 1.05-1.927 2.15C1.764 4.882 2.77 5.71 3.93 5.625c1.163-.084 2.025-1.047 1.935-2.16"
                    transform="translate(33.8 21.099)" />
                <path fill="url(#v)"
                    d="M4.933 3.539c.047.607-.44 1.148-1.075 1.193s-1.2-.42-1.247-1.029c-.048-.606.44-1.147 1.075-1.193.635-.045 1.2.42 1.247 1.029"
                    transform="translate(33.8 21.099)" />
                <path fill="url(#w)"
                    d="M2.544 3.738 1.72 3.8c-.03-.055-.069-.108-.089-.165-.016-.042-.01-.093-.013-.14-.015-.177-.015-.177-.19-.23l-.024-.001q-.106.124-.22.248c-.076.085-.14.091-.228.021Q.701 3.33.45 3.118c-.082-.069-.088-.13-.017-.212.074-.087.154-.17.228-.253-.086-.18-.086-.18-.277-.165q-.082.007-.166.011c-.113.005-.159-.03-.168-.136q-.021-.242-.04-.486c-.025-.302-.025-.302.293-.325.19-.014.19-.014.247-.186q.002-.008-.001-.02-.127-.101-.253-.205C.204 1.064.197 1.002.273.915Q.484.675.7.438C.776.355.841.35.93.42q.134.108.264.219c.028-.013.048-.026.069-.033.092-.027.128-.079.106-.173-.016-.076-.016-.155-.02-.234-.005-.086.037-.139.129-.147q.345-.028.695-.051c.098-.007.143.033.155.13q.009.083.015.167c.015.178.015.178.19.232l.02.002q.11-.124.223-.247c.08-.086.142-.09.235-.015q.248.2.492.402c.095.08.1.137.015.232-.074.083-.151.162-.222.238.096.181.096.181.29.167.042-.003.085-.003.127-.01a.2.2 0 0 1 .193.062l.065.786c-.057.03-.112.066-.171.086-.045.015-.098.009-.147.013-.185.014-.185.014-.24.18q-.002.007-.003.024l.26.21c.09.076.094.136.016.225q-.21.236-.42.47c-.083.091-.145.095-.243.015-.086-.07-.169-.145-.249-.212-.189.092-.189.092-.174.277.004.044.018.09.008.13-.015.056-.043.113-.063.173m.534-1.925C3.03 1.23 2.5.798 1.892.844 1.289.891.836 1.396.88 1.973c.046.583.574 1.018 1.182.974.61-.045 1.063-.55 1.016-1.134"
                    transform="translate(40.33 18.922)" />
                <path fill="url(#x)"
                    d="M2.588 1.852c.025.319-.23.602-.564.627-.332.023-.629-.22-.654-.54-.025-.318.23-.602.564-.626.332-.024.629.22.654.54"
                    transform="translate(40.33 18.922)" />
                <path fill="url(#y)"
                    d="M2.544 3.738 1.72 3.8c-.03-.055-.069-.108-.089-.165-.016-.042-.01-.093-.013-.14-.015-.177-.015-.177-.19-.23l-.024-.001q-.106.124-.22.248c-.076.085-.14.091-.228.021Q.701 3.33.45 3.118c-.082-.069-.088-.13-.017-.212.074-.087.154-.17.228-.253-.086-.18-.086-.18-.277-.165q-.082.007-.166.011c-.113.005-.159-.03-.168-.136q-.021-.242-.04-.486c-.025-.302-.025-.302.293-.325.19-.014.19-.014.247-.186q.002-.008-.001-.02-.127-.101-.253-.205C.204 1.064.197 1.002.273.915Q.484.675.7.438C.776.355.841.35.93.42q.134.108.264.219c.028-.013.048-.026.069-.033.092-.027.128-.079.106-.173-.016-.076-.016-.155-.02-.234-.005-.086.037-.139.129-.147q.345-.028.695-.051c.098-.007.143.033.155.13q.009.083.015.167c.015.178.015.178.19.232l.02.002q.11-.124.223-.247c.08-.086.142-.09.235-.015q.248.2.492.402c.095.08.1.137.015.232-.074.083-.151.162-.222.238.096.181.096.181.29.167.042-.003.085-.003.127-.01a.2.2 0 0 1 .193.062l.065.786c-.057.03-.112.066-.171.086-.045.015-.098.009-.147.013-.185.014-.185.014-.24.18q-.002.007-.003.024l.26.21c.09.076.094.136.016.225q-.21.236-.42.47c-.083.091-.145.095-.243.015-.086-.07-.169-.145-.249-.212-.189.092-.189.092-.174.277.004.044.018.09.008.13-.013.056-.042.114-.063.173m.535-1.923C3.032 1.23 2.502.799 1.893.845 1.29.893.837 1.398.882 1.975c.046.584.573 1.018 1.182.974.61-.045 1.062-.55 1.015-1.133"
                    transform="translate(37.602 6.928)" />
                <path fill="url(#z)"
                    d="M2.59 1.854c.024.318-.23.601-.564.626-.333.023-.63-.22-.655-.54-.024-.318.23-.601.564-.626a.607.607 0 0 1 .655.54"
                    transform="translate(37.602 6.928)" />
            </g>
            <path fill="url(#A)"
                d="M5.937 2.563s-1.52.346-1.814 1.585c-.613.14-2.679 1.188-1.12 3.5.788.908.908 1.061.908 1.061l4.505-1.252V2.104z"
                transform="translate(301.46 491)" />
            <path fill="url(#B)"
                d="M7.44 5.48s-2.524-.33-3.344.763-1.12 3.888-1.12 3.888l1.9-.094-.16 3.257 3.506 1.936 4.993-2.53-.76-2.951 1.596-.393s-.476-4.283-2.695-3.65c-1.14.115-1.5.095-1.5.095s-.299.9-1.33.824C7.497 6.548 7.44 5.48 7.44 5.48"
                transform="translate(301.46 491)" />
            <path fill="url(#C)"
                d="m7.692 4.133-.524 2.203a.214.214 0 0 0 .137.248c.27.104.813.281 1.372.281.578 0 1.124-.298 1.375-.458a.21.21 0 0 0 .09-.25L9.34 3.91a.23.23 0 0 0-.26-.145l-1.202.2a.23.23 0 0 0-.186.168"
                transform="translate(301.46 491)" />
            <path fill="url(#D)"
                d="M4.558 5.862c.735-.23 1.731-.076 1.772 1.476s-1.575 4.026-.996 4.886c.586.872 1.84 2.11 2.636 2.815-.186.83-.686 1.526-.686 1.526s-2.939-1.277-4.218-2.555c-1.28-1.279-.634-4.212-.041-6.298.447-1.573 1.533-1.85 1.533-1.85"
                transform="translate(301.46 491)" />
            <path fill="url(#E)"
                d="M12.259 5.862c-.735-.23-1.73-.076-1.772 1.476-.04 1.552 1.575 4.026.996 4.886-.586.872-1.84 2.11-2.636 2.815.186.83.686 1.526.686 1.526s2.939-1.277 4.219-2.555.633-4.212.04-6.298c-.448-1.573-1.533-1.85-1.533-1.85"
                transform="translate(301.46 491)" />
            <path fill="url(#F)"
                d="M9.043 3.765s.534 1.52.4 2.364c-.133.843.054 2.057 1.186 2.427 1.133.37 2.213-.255 2.6-1.316.386-1.06.013-1.826-.933-2.517.16-.651-.62-1.834-2.006-2.256-1.358-.18-1.247 1.298-1.247 1.298"
                transform="translate(301.46 491)" />
            <path fill="url(#G)"
                d="M6.99 1.81s-.867.575-.848 1.39c.018.816.713.664.713.664s.21 1.208 1.577 1.25 1.559-1.249 1.559-1.249.686.082.701-.66c.016-.743-.583-1.74-1.178-2.023-.596-.282-2.06.061-2.525.628"
                transform="translate(301.46 491)" />
            <path fill="url(#H)"
                d="M7.87 1.555s-.274.741-.96.869c-.688.127-.748.457-.748.767 0 .228.081.444.139.548-.37-.192-.877-.65-.555-1.912C6.058.608 7.016.015 8.306.034c1.08-.269 2.68 1.094 2.54 2.866-.23-.287-.443-.354-.603-.406s-.493-.364-.534-.677c-.28.057-1.26.185-1.84-.262"
                transform="translate(301.46 491)" />
            <path fill="url(#I)"
                d="M4.914 17.919h7.135c.323 0 .612-.23.724-.578l1.437-4.455c.187-.578-.186-1.193-.724-1.193H3.541c-.532 0-.905.604-.728 1.18l1.373 4.456c.11.354.401.59.728.59"
                transform="translate(301.46 491)" />
            <path fill="#FFF"
                d="M306.09 510.967s-.11-.229-.194-.254-1.305-.07-1.75-.179-1.728-.28-2.279.21c-.478.426-.637 1.424.092 1.998.274.224.543.29 1.556.245s2.482-.035 2.804-.477c-.01-.73-.228-1.543-.228-1.543" />
            <path fill="url(#J)"
                d="M5.762 4.81s-1.177.25-1.6.213c-.42-.037-.068 1.562-.068 1.562s1.125.073 2.12-.198c.336-1.225-.452-1.576-.452-1.576"
                transform="translate(301.46 505.904)" />
            <path fill="url(#K)" d="m5.34 4.752.613 1.794S19.11 4.913 17.23.892C15.658-2.47 5.34 4.752 5.34 4.752"
                transform="translate(301.46 505.904)" />
            <path fill="url(#L)"
                d="M4.477 4.891s.482.178.543.81c.061.634-.138 1.059-1.163 1.176-1.025.118-1.286.073-1.928.088-.643.015-1.576.073-1.714-1.078-.138-1.15 1.112-1.444 2.408-1.15.408.074 1.854.154 1.854.154"
                transform="translate(301.46 505.904)" />
            <path fill="#FFF"
                d="M314.3 510.967s.111-.229.195-.254c.086-.024 1.305-.07 1.75-.179s1.642-.29 2.246.196c.56.45.597 1.446-.04 1.996-.274.224-.561.305-1.575.26s-2.482-.034-2.804-.476c.01-.73.229-1.543.229-1.543" />
            <path fill="url(#M)"
                d="M11.652 4.81s1.177.25 1.599.213c.42-.037.068 1.562.068 1.562s-1.125.073-2.12-.198c-.336-1.225.453-1.576.453-1.576"
                transform="translate(301.518 505.904)" />
            <path fill="url(#N)" d="m12.074 4.752-.613 1.794S-1.696 4.913.184.892c1.572-3.362 11.89 3.86 11.89 3.86"
                transform="translate(301.518 505.904)" />
            <path fill="url(#O)"
                d="M12.937 4.891s-.482.178-.543.81c-.062.634.138 1.059 1.163 1.176 1.025.118 1.285.073 1.928.088.642.015 1.575.073 1.713-1.078.138-1.15-1.111-1.444-2.407-1.15-.409.074-1.854.154-1.854.154"
                transform="translate(301.518 505.904)" />
        </g><text fill="#FFF9F9" fill-rule="nonzero" font-family="MabryPro-Bold, Mabry Pro" font-size="15"
            font-weight="bold">
            <tspan x="53" y="337">P2P File Distribution</tspan>
        </text><text fill="#FFF9F9" fill-rule="nonzero" font-family="MabryPro-Bold, Mabry Pro" font-size="15"
            font-weight="bold">
            <tspan x="294" y="549">Ecosystem</tspan>
        </text><text fill="#FFF9F9" fill-rule="nonzero" font-family="MabryPro-Bold, Mabry Pro" font-size="15"
            font-weight="bold">
            <tspan x="462" y="549">Peer Level Control</tspan>
        </text><text fill="#FFF9F9" fill-rule="nonzero" font-family="MabryPro-Bold, Mabry Pro" font-size="15"
            font-weight="bold">
            <tspan x="85" y="549">Consistency</tspan>
        </text><text fill="#FFF9F9" fill-rule="nonzero" font-family="MabryPro-Bold, Mabry Pro" font-size="15"
            font-weight="bold">
            <tspan x="436" y="337">Isolate Abnormal Peers</tspan>
        </text><text fill="#FFF9F9" fill-rule="nonzero" font-family="MabryPro-Bold, Mabry Pro" font-size="15"
            font-weight="bold">
            <tspan x="287" y="337">Noninvasive</tspan>
        </text><text fill="#FFF9F9" fill-opacity=".85" fill-rule="nonzero" font-family="MabryPro-Light, Mabry Pro"
            font-size="12" font-weight="300">
            <tspan x="57.643" y="366">Use P2P technology for file</tspan>
        </text><text fill="#FFF9F9" fill-opacity=".85" fill-rule="nonzero" font-family="MabryPro-Light, Mabry Pro"
            font-size="12" font-weight="300">
            <tspan x="57.892" y="380">transfer, improve download</tspan>
        </text><text fill="#FFF9F9" fill-opacity=".85" fill-rule="nonzero" font-family="MabryPro-Light, Mabry Pro"
            font-size="12" font-weight="300">
            <tspan x="50.381" y="394">efficiency, and save bandwidth</tspan>
        </text><text fill="#FFF9F9" fill-opacity=".85" fill-rule="nonzero" font-family="MabryPro-Light, Mabry Pro"
            font-size="12" font-weight="300">
            <tspan x="101.421" y="408">across IDC.</tspan>
        </text><text fill="#FFF9F9" fill-opacity=".85" fill-rule="nonzero" font-family="MabryPro-Light, Mabry Pro"
            font-size="12" font-weight="300">
            <tspan x="516.146" y="596">speed.</tspan>
        </text><text fill="#FFF9F9" fill-opacity=".85" fill-rule="nonzero" font-family="MabryPro-Light, Mabry Pro"
            font-size="12" font-weight="300">
            <tspan x="444.351" y="367">Automatically isolate abnormal</tspan>
        </text><text fill="#FFF9F9" fill-opacity=".85" fill-rule="nonzero" font-family="MabryPro-Light, Mabry Pro"
            font-size="12" font-weight="300">
            <tspan x="454.084" y="381">peers to improve download</tspan>
        </text><text fill="#FFF9F9" fill-opacity=".85" fill-rule="nonzero" font-family="MabryPro-Light, Mabry Pro"
            font-size="12" font-weight="300">
            <tspan x="506.839" y="395">stability.</tspan>
        </text><text fill="#FFF9F9" fill-opacity=".85" fill-rule="nonzero" font-family="MabryPro-Light, Mabry Pro"
            font-size="12" font-weight="300">
            <tspan x="265.855" y="582">Harbor can distribute and</tspan>
        </text><text fill="#FFF9F9" fill-opacity=".85" fill-rule="nonzero" font-family="MabryPro-Light, Mabry Pro"
            font-size="12" font-weight="300">
            <tspan x="267.514" y="596">warm up images based on</tspan>
        </text><text fill="#FFF9F9" fill-opacity=".85" fill-rule="nonzero" font-family="MabryPro-Light, Mabry Pro"
            font-size="12" font-weight="300">
            <tspan x="311.292" y="610">Dragonfly.</tspan>
        </text><text fill="#FFF9F9" fill-opacity=".85" fill-rule="nonzero" font-family="MabryPro-Light, Mabry Pro"
            font-size="12" font-weight="300">
            <tspan x="61.752" y="581">It can ensure that the same</tspan>
        </text><text fill="#FFF9F9" fill-opacity=".85" fill-rule="nonzero" font-family="MabryPro-Light, Mabry Pro"
            font-size="12" font-weight="300">
            <tspan x="59.349" y="595">file is consistent in the peer-</tspan>
        </text><text fill="#FFF9F9" fill-opacity=".85" fill-rule="nonzero" font-family="MabryPro-Light, Mabry Pro"
            font-size="12" font-weight="300">
            <tspan x="454.988" y="582">Support for host-level limits</tspan>
        </text><text fill="#FFF9F9" fill-opacity=".85" fill-rule="nonzero" font-family="MabryPro-Light, Mabry Pro"
            font-size="12" font-weight="300">
            <tspan x="79.251" y="609">to-peer transmission.</tspan>
        </text><text fill="#FFF9F9" fill-opacity=".85" fill-rule="nonzero" font-family="MabryPro-Light, Mabry Pro"
            font-size="12" font-weight="300">
            <tspan x="250.352" y="366">Supports multiple containers</tspan>
        </text><text fill="#FFF9F9" fill-opacity=".85" fill-rule="nonzero" font-family="MabryPro-Light, Mabry Pro"
            font-size="12" font-weight="300">
            <tspan x="266.657" y="380">for distributing images.</tspan>
        </text><text fill="#FFF9F9" fill-rule="nonzero" font-family="MabryPro-Bold, Mabry Pro" font-size="24"
            font-weight="bold">
            <tspan x="40" y="62">Features</tspan>
        </text><text fill="#FFF9F9" fill-rule="nonzero" font-family="MabryPro-Light, Mabry Pro" font-size="14"
            font-weight="300">
            <tspan x="41" y="95">Dragonfly provides a one-stop solution for large-scale file distribution. The basic
                capabilities</tspan>
        </text><text fill="#FFF9F9" fill-rule="nonzero" font-family="MabryPro-Light, Mabry Pro" font-size="14"
            font-weight="300">
            <tspan x="41" y="112">provided by Dragonfly include:</tspan>
        </text>
        <g transform="translate(99 239)">
            <ellipse cx="36" cy="33.5" fill="url(#P)" fill-rule="nonzero" rx="36" ry="33.5" />
            <path
                d="M72 33.5C72 52.001 55.882 67 36 67S0 52.001 0 33.5C0 22.758 4.452 12.298 12.902 6.168 19.004 1.74 27.662 0 36 0c19.882 0 36 14.999 36 33.5" />
            <mask id="R" fill="#fff">
                <use xlink:href="#Q" />
            </mask>
            <g mask="url(#R)">
                <g fill-rule="nonzero" transform="translate(-44.559 17.118)">
                    <path fill="#EFAE47" d="M100.44 3.532 96.654 0H81.136v42.47h55.932V3.532z" />
                    <path fill="#FFF"
                        d="M132.448 40.62H85.906c-1.258 0-2.278-.95-2.278-2.12V8.759c0-1.17 1.02-2.12 2.278-2.12h46.542c1.258 0 2.278.95 2.278 2.12v29.74c0 1.171-1.02 2.12-2.278 2.12" />
                    <path fill="#FACD79" d="M129.722 10.582h-55.75l5.81 25.862h10.59z" />
                    <path fill="#EBC172" d="m135.715 36.444-5.81-25.862h-.183l-39.35 25.862z" />
                    <path fill="#F6C575" d="m81.204 42.47 9.168-6.026h-10.59l1.354 6.026z" />
                    <path fill="#E8BA6F" d="M81.204 42.47h55.864l-1.353-6.026H90.372z" />
                    <path fill="#EFAE47" d="M26.468 3.532 22.68 0H7.164v42.47h55.931V3.532z" />
                    <path fill="#FFF"
                        d="M58.476 40.62H11.933c-1.258 0-2.277-.95-2.277-2.12V8.759c0-1.17 1.02-2.12 2.277-2.12h46.543c1.258 0 2.277.95 2.277 2.12v29.74c0 1.171-1.02 2.12-2.277 2.12" />
                    <ellipse cx="60.204" cy="23.442" fill="#2E8F79" rx="2.294" ry="2.135" />
                    <path fill="#FACD79" d="M55.748 10.582H0l5.81 25.862h10.589z" />
                    <path fill="#EBC172" d="m61.741 36.444-5.81-25.862h-.183L16.4 36.444z" />
                    <path fill="#F6C575" d="m7.231 42.47 9.168-6.026H5.809l1.355 6.026z" />
                    <path fill="#E8BA6F" d="M7.231 42.47h55.864l-1.354-6.026H16.4z" />
                </g>
            </g>
            <g fill="#2E8F79" fill-rule="nonzero">
                <path
                    d="m49.657 42.152.672-.63q.04-.037.078-.077l.035-.038q.02-.02.038-.042.022-.024.042-.05a1 1 0 0 0 .069-.088l.021-.03.04-.059.02-.03.037-.058.02-.034.009-.015.021-.04.021-.04.025-.052.021-.046.006-.014.013-.032.037-.095.02-.06.011-.037.019-.065.002-.008.006-.026.016-.069q0-.003.002-.006l.005-.028.012-.068.006-.04.008-.064.001-.005.004-.05.004-.05v-.003a2 2 0 0 0 0-.206v-.003l-.004-.05-.004-.05v-.005l-.01-.063a1 1 0 0 0-.017-.109l-.005-.028-.002-.006-.016-.069-.006-.026-.002-.008-.019-.065-.01-.037-.021-.06a1 1 0 0 0-.037-.095l-.013-.032-.006-.014-.021-.046-.025-.052-.02-.04-.022-.04-.01-.015-.02-.034q-.017-.03-.036-.058l-.02-.03-.04-.059-.021-.03-.07-.088-.04-.05-.04-.042-.034-.038-.078-.077-7.296-6.848c-.895-.84-2.345-.84-3.24 0a2.06 2.06 0 0 0 0 3.042l3.383 3.176H28.292c-1.266 0-2.292.963-2.292 2.151 0 1.189 1.026 2.152 2.292 2.152h21.365000000000002zM39.793 45.328a2.06 2.06 0 0 0 0 3.042c.895.84 2.345.84 3.24 0l6.624-6.218h-6.481z" />
            </g>
            <ellipse cx="22.5" cy="40" fill="#2E8F79" fill-rule="nonzero" rx="2.5" ry="2" />
        </g>
        <g fill-rule="nonzero">
            <path fill="#BAB8D4"
                d="M368 270.15c0-11.556-8.847-20.923-19.76-20.923-.17 0-.337.009-.505.014-3.446-6.13-9.763-10.241-16.99-10.241-10.913 0-19.76 9.368-19.76 20.924 0 .15.008.298.011.447-5.969 3.6-9.996 10.394-9.996 18.187 0 11.556 8.847 20.922 19.76 20.922.62 0 1.234-.034 1.84-.092 3.625 4.649 9.376 7.612 15.514 7.612 10.087 0 18.134-8.004 19.336-18.34 6.273-3.505 10.55-10.477 10.55-18.51"
                opacity=".3" />
            <path fill="#E86D8F"
                d="M344.666 295.542v-11.05c0-5.88 4.259-10.692 9.463-10.692 5.206 0 9.464 4.811 9.464 10.692v11.05" />
            <path fill="#FFF"
                d="M365.438 297.536c0 1.234-1.07 2.243-2.38 2.243h-17.856c-1.31 0-2.381-1.01-2.381-2.243s1.07-2.243 2.38-2.243h17.857c1.309 0 2.38 1.01 2.38 2.243" />
            <path fill="#FFF"
                d="M344.666 295.542v-11.05c0-5.88 4.259-10.692 9.463-10.692 5.206 0 9.464 4.811 9.464 10.692v11.05"
                opacity=".65" />
            <path fill="#CCCCDE"
                d="M364.154 295.542h-1.123v-11.05c0-5.571-3.993-10.104-8.902-10.104s-8.902 4.533-8.902 10.104v11.05h-1.123v-11.05c0-6.22 4.498-11.28 10.025-11.28s10.025 5.06 10.025 11.28z" />
            <path fill="#F2F2FF"
                d="M365.438 297.536c0 1.234-1.07 2.243-2.38 2.243h-17.856c-1.31 0-2.381-1.01-2.381-2.243s1.07-2.243 2.38-2.243h17.857c1.309 0 2.38 1.01 2.38 2.243" />
            <path fill="#CCCCDE"
                d="M363.057 300.22h-17.856c-1.545 0-2.802-1.204-2.802-2.684s1.257-2.684 2.802-2.684h17.856c1.546 0 2.802 1.204 2.802 2.684s-1.256 2.684-2.802 2.684m-17.855-4.486c-1.081 0-1.96.808-1.96 1.802s.88 1.802 1.96 1.802h17.856c1.08 0 1.96-.808 1.96-1.802s-.88-1.802-1.96-1.802zM353.423 267h1v3.265h-1zM345.629 267.143l2.534 4.595-.73.441-2.534-4.595zM340.39 273.982l3.22 2.245-.467.734-3.22-2.245zM336.688 282.477h5.069v1h-5.07zM365.93 282.477H371v1h-5.07zM367.003 274.46l.421.763-2.9 1.753-.421-.764zM362.056 267.148l.73.44-2.535 4.596-.73-.441z" />
            <path fill="#FFF"
                d="M324.77 300.21c0 1.842-1.44 3.35-3.199 3.35H304.62c-1.76 0-3.199-1.508-3.199-3.35v-11.743c0-1.842 1.44-3.348 3.199-3.348h16.951c1.76 0 3.199 1.506 3.199 3.348z" />
            <path fill="#FFF"
                d="M306.557 285.119v-3.662c0-4.236 2.933-7.682 6.539-7.682s6.538 3.446 6.538 7.681v3.662h1.796v-3.662c0-5.272-3.738-9.561-8.334-9.561s-8.335 4.29-8.335 9.562v3.662z" />
            <path fill="#CCCCDE"
                d="M306.979 285.56h-2.639v-4.103c0-5.516 3.928-10.003 8.756-10.003 4.827 0 8.755 4.487 8.755 10.002v4.103h-2.638v-4.103c0-3.992-2.744-7.24-6.117-7.24s-6.117 3.248-6.117 7.24zm-1.797-.882h.954v-3.221c0-4.479 3.122-8.123 6.96-8.123s6.96 3.644 6.96 8.122v3.221h.953v-3.221c0-5.029-3.55-9.12-7.913-9.12s-7.914 4.092-7.914 9.12z" />
            <path fill="#CCCCDE"
                d="M321.571 304H304.62c-1.996 0-3.62-1.7-3.62-3.79v-11.743c0-2.09 1.624-3.79 3.62-3.79h16.951c1.996 0 3.62 1.7 3.62 3.79v11.743c0 2.09-1.624 3.79-3.62 3.79m-16.951-18.44c-1.532 0-2.778 1.304-2.778 2.907v11.743c0 1.604 1.246 2.909 2.778 2.909h16.951c1.532 0 2.778-1.305 2.778-2.909v-11.743c0-1.603-1.246-2.907-2.778-2.907zM315.342 277c-2.013 0-3.65-1.44-3.65-3.211v-2.16c0-.581.444-1.052.991-1.052.548 0 .991.47.991 1.052v2.16c0 .522.713 1.106 1.668 1.106.903 0 1.667-1.04 1.667-2.269V256.85c0-.581.443-1.053.99-1.053.548 0 .992.472.992 1.053v15.776c0 2.412-1.637 4.374-3.65 4.374" />
            <path fill="#D6EBDE" d="M334.575 257.054c0-9.722-7.42-17.603-16.575-17.603s-16.575 7.881-16.575 17.603z" />
            <path fill="#CCCCDE"
                d="M335 257.505h-34v-.451c0-9.955 7.626-18.054 17-18.054s17 8.099 17 18.054zm-33.145-.903h32.29c-.226-9.25-7.382-16.7-16.145-16.7s-15.92 7.45-16.145 16.7" />
            <path fill="#FFF" d="M324.946 257.054c0-9.722-3.3-17.603-7.371-17.603-4.07 0-7.37 7.881-7.37 17.603z" />
            <path fill="#CCCCDE"
                d="M325.37 257.505h-15.59v-.451c0-10.124 3.424-18.054 7.795-18.054s7.795 7.93 7.795 18.054zm-14.738-.903h13.886c-.1-9.098-3.239-16.7-6.943-16.7s-6.842 7.602-6.943 16.7" />
            <path fill="#6E6E96"
                d="M326.696 259.21h1v10.56h-1zM336.253 269.534h1v10.56h-1zM317.861 269.534h1v10.56h-1z" />
            <path fill="#FFF" d="M335.052 271.227h1.172v7.017h-1.172z" opacity=".15" />
            <path fill="#6E6E96" d="M352.722 271.227h1.352v7.017h-1.352z" opacity=".15" />
            <path fill="#2E8F79"
                d="M333.196 250.259s-7.806 13.778-23.42 13.778c0 0-1.007 31.002 23.42 45.576 0 0 25.961-13.249 25.961-46.9 0 0-17.443 2.384-25.961-12.454" />
            <path fill="#6E6E96"
                d="M333.196 309.761a.13.13 0 0 1-.07-.02c-12.658-7.552-18.37-19.578-20.934-28.338-2.776-9.486-2.558-17.293-2.556-17.37a.144.144 0 0 1 .141-.144c15.355 0 23.22-13.57 23.298-13.706a.14.14 0 0 1 .12-.072c.052-.014.096.027.121.071 6.49 11.303 18.334 12.524 23.125 12.524 1.646 0 2.656-.135 2.698-.14q.062-.007.112.035c.03.028.047.069.047.111 0 17.431-7.079 29.29-13.017 36.17-6.434 7.453-12.959 10.831-13.024 10.864a.14.14 0 0 1-.061.015m-23.281-45.576c-.016 1.1-.01 8.403 2.548 17.14 2.545 8.69 8.207 20.615 20.737 28.12.699-.373 6.828-3.757 12.88-10.772 5.883-6.818 12.892-18.554 12.936-35.795-.352.039-1.267.124-2.575.124-4.81 0-16.66-1.22-23.248-12.463-1.057 1.714-8.899 13.57-23.278 13.646" />
            <path fill="#B0EDC1"
                d="M333.687 254.395c8.057 13.295 24.236 9.762 25.962 9.571.1-1.43 0 0 0-1.512 0 0-17.444 2.384-25.962-12.454 0 0-7.806 13.779-23.42 13.779 0 0-.052-1.01.167 1.722 16.814 1.284 23.253-11.106 23.253-11.106" />
            <path fill="#F0F0FF"
                d="M333.374 250.55s-7.806 13.779-23.419 13.779c0 0-.762 31.002 23.665 45.575 0 0 26.795-13.248 25.716-46.9 0 0-17.443 2.384-25.962-12.454m.218 54.776c-20.233-12.071-19.398-38.267-19.398-38.267 12.528-.426 19.398-10.896 19.398-10.896 7.056 10.606 21.503 9.798 21.504 9.798 0 27.874-21.504 39.365-21.504 39.365" />
            <path fill="#6E6E96" d="M333.374 250.266v59.354s27.586-14.042 25.962-46.9c0 0-18.526 2.263-25.962-12.454"
                opacity=".15" />
            <path fill="#6E6E96"
                d="M341.453 312h-15.687a.433.433 0 0 1-.422-.444c0-.245.189-.444.422-.444h15.687c.233 0 .422.199.422.444a.434.434 0 0 1-.422.444"
                opacity=".38" />
            <path fill="#6E6E96"
                d="M352.542 312h-4.598a.434.434 0 0 1-.422-.444c0-.245.19-.444.422-.444h4.598c.233 0 .422.199.422.444a.434.434 0 0 1-.422.444M319.545 312H316.3a.433.433 0 0 1-.422-.444c0-.245.189-.444.422-.444h3.245c.234 0 .422.199.422.444a.433.433 0 0 1-.422.444"
                opacity=".14" />
            <path fill="#FFF"
                d="M325.664 279.36c-.576.685-.577 1.834-.003 2.552l5.821 7.278c.575.718 1.538.739 2.14.046l12.28-14.129c.603-.693.639-1.676.081-2.185s-1.586-.447-2.285.137l-9.9 8.264c-.698.584-1.87.622-2.601.085l-3.154-2.315c-.732-.537-1.802-.417-2.379.268" />
            <path fill="#6E6E96"
                d="M332.57 290.186c-.535 0-1.049-.259-1.41-.71l-5.821-7.278c-.706-.882-.702-2.287.01-3.132a2.15 2.15 0 0 1 1.652-.753c.47 0 .913.144 1.284.416l3.153 2.314c.264.194.617.3.995.3.422 0 .824-.134 1.104-.367l9.898-8.265a2.5 2.5 0 0 1 1.57-.577c.489 0 .934.16 1.255.453.32.292.512.714.538 1.186.032.575-.181 1.17-.584 1.634l-12.28 14.129c-.365.42-.85.65-1.364.65M327 279.201c-.405 0-.777.166-1.02.454-.437.52-.435 1.422.004 1.971l5.821 7.278c.204.254.475.395.765.395.275 0 .538-.13.741-.363l12.28-14.129c.25-.288.382-.646.364-.983a.82.82 0 0 0-.249-.567c-.167-.152-.416-.236-.701-.236-.371 0-.753.14-1.046.385l-9.898 8.265c-.433.361-1.01.56-1.628.56-.55 0-1.075-.163-1.478-.46l-3.153-2.314a1.36 1.36 0 0 0-.801-.256" />
            <path fill="#6E6E96"
                d="M314.266 269.534s13.463-.952 19.108-8.636c0 0 9.39 8.449 21.581 7.497l.141-2.718s-11.162 1.624-21.722-9.487c0 0-7.898 10.584-19.18 10.584z"
                opacity=".15" />
            <path fill="#FFF"
                d="M314.83 270.128s1.505 23.071 18.509 32.036c0 0 19.837-10.904 21.616-33.769 0 0-.855 23.463-21.31 36.229 0 0-16.632-8.048-18.814-34.496"
                opacity=".36" />
            <path fill="#6E6E96"
                d="m344.068 274.854-10.355 11.915c-.603.693-1.566.672-2.14-.046l-5.909-7.362c-.404.061-1.376.87-.89 1.992.361.832.403 1.832.978 2.55l5.82 7.278c.575.72 1.539.74 2.141.046l12.28-14.128c.602-.693.548-3.669-.01-4.177-.487-.444 0 0-1.915 1.932"
                opacity=".15" />
            <path fill="#6E6E96"
                d="M359.328 263.532c-.769 31.118-25.727 44.031-25.727 44.031-19.887-11.865-23.077-35.187-23.576-43.235l-.088.001s-.763 31.002 23.664 45.575c0 0 26.509-13.112 25.727-46.372"
                opacity=".15" />
            <path fill="#FFF"
                d="M333.51 250.835s-7.807 13.778-23.42 13.778c17.164 0 23.42-11.234 23.42-11.234 7.646 13.32 26.832 9.91 25.961 9.91 0 0-17.443 2.384-25.962-12.454m-23.42 13.778s-.003.124-.002.359c0-.234.002-.359.002-.359"
                opacity=".61" />
            <path fill="#6E6E96"
                d="M333.62 310.348a.4.4 0 0 1-.208-.057c-12.738-7.6-18.552-19.696-21.187-28.506-2.851-9.533-2.694-17.39-2.692-17.467a.433.433 0 0 1 .422-.433c15.198 0 22.98-13.426 23.057-13.562a.42.42 0 0 1 .36-.216h.002c.148 0 .285.08.361.214 6.415 11.174 18.142 12.38 22.885 12.38 1.632 0 2.652-.135 2.662-.137a.41.41 0 0 1 .327.102c.09.082.145.199.148.324.563 17.533-6.522 29.464-12.564 36.384-6.544 7.496-13.326 10.899-13.394 10.933a.4.4 0 0 1-.179.041m-23.244-45.578c.012 1.75.225 8.64 2.663 16.777 2.577 8.603 8.241 20.397 20.595 27.855 1.143-.609 7.143-3.982 12.961-10.655 5.87-6.734 12.744-18.295 12.333-35.253a26 26 0 0 1-2.307.095c-4.802 0-16.552-1.205-23.257-12.215-1.728 2.645-9.46 13.181-22.988 13.396m23.216 41a.4.4 0 0 1-.208-.058c-10.573-6.308-15.343-16.488-17.482-23.918-2.314-8.035-2.132-14.684-2.13-14.75a.433.433 0 0 1 .409-.429c12.159-.413 18.997-10.601 19.064-10.704a.42.42 0 0 1 .346-.192h.001c.138 0 .267.07.346.19 1.502 2.257 7.415 9.623 20.452 9.623.434 0 .677-.014.684-.014a.4.4 0 0 1 .312.121c.084.084.132.2.132.322 0 14.539-5.905 24.573-10.859 30.43-5.366 6.346-10.821 9.302-10.876 9.33a.4.4 0 0 1-.19.049m-18.98-38.285c.002 1.554.153 7.313 2.106 14.08 2.082 7.217 6.7 17.087 16.88 23.253 1.015-.585 5.764-3.49 10.454-9.044 4.794-5.678 10.498-15.36 10.62-29.357l-.282.002c-1.428 0-5.197-.143-9.344-1.474-4.954-1.589-8.806-4.29-11.461-8.035-1.56 2.078-8.2 10.02-18.973 10.575" />
        </g>
    </g>
</svg>