<svg width="672px" height="756px" viewBox="0 0 672 756" version="1.1" xmlns="http://www.w3.org/2000/svg"
    xmlns:xlink="http://www.w3.org/1999/xlink">
    <defs>
        <rect id="path-npb9p13qta-1" x="0" y="0" width="131" height="127" rx="3"></rect>
    </defs>
    <g stroke="none" stroke-width="1" fill="none" fill-rule="evenodd">
        <g>
            <rect fill="#F6F7F9" fill-rule="nonzero" x="0" y="0" width="672" height="756"></rect>
            <text id="Provides-an-efficient,-stable,-and-secure-file-distribution-and-image" fill="#5D5D5D"
                fill-rule="nonzero" font-family="MabryPro-Light, Mabry Pro" font-size="14" font-weight="300">
                <tspan x="40" y="535">Provides an efficient, stable, and secure file distribution and image</tspan>
            </text>
            <text id="acceleration-system-based-on-P2P-technology,-and-is-a-standard-solution-and" fill="#5D5D5D"
                fill-rule="nonzero" font-family="MabryPro-Light, Mabry Pro" font-size="14" font-weight="300">
                <tspan x="40" y="552">acceleration system based on P2P technology, and is a standard solution and
                </tspan>
            </text>
            <text id="best-practice-in-the-field-of-image-acceleration-in-the-cloud-native" fill="#5D5D5D"
                fill-rule="nonzero" font-family="MabryPro-Light, Mabry Pro" font-size="14" font-weight="300">
                <tspan x="40" y="569">best practice in the field of image acceleration in the cloud native</tspan>
            </text>
            <text id="architecture." fill="#5D5D5D" fill-rule="nonzero" font-family="MabryPro-Light, Mabry Pro"
                font-size="14" font-weight="300">
                <tspan x="40" y="586">architecture.</tspan>
            </text>
            <g id="kuaishou_1" transform="translate(355, 660)" fill="#1C293A" fill-rule="nonzero">
                <path
                    d="M8.05140294,12.0753113 C8.15190892,12.0688654 15.25069,11.4994779 15.7226311,11.5725314 C16.1945722,11.6477335 18.0845216,11.5918691 18.1784729,12.315958 C18.2724241,13.0314525 18.1784729,13.7276092 18.1784729,13.7276092 C18.1784729,13.7276092 13.9834407,14.4516981 13.8894894,14.5462379 C13.7955382,14.6386291 13.4546918,14.9738157 13.474356,15.4744469 C13.4940202,15.9772268 13.4940202,17.9281845 13.5114995,17.984049 C13.5311638,18.0399134 13.625115,18.4116267 14.3439512,18.3364246 C14.9098436,18.2784115 15.4735511,18.0807374 15.6898574,18.001238 C15.7444802,17.9797517 15.7794388,17.9281845 15.7728841,17.8701715 L15.7335557,17.3673916 C15.7270009,17.2900409 15.6527139,17.2341764 15.576242,17.2492169 L14.4947102,17.4619314 L14.4947102,15.4551092 L17.99931,14.832006 C18.0735971,14.8191142 18.1435143,14.87283 18.1456992,14.9480321 L18.2614995,18.3471678 C18.2614995,18.3471678 18.4603266,19.1915801 16.9876955,19.4902399 C15.5150644,19.7888998 11.9820607,20.6612443 11.6412144,20.6784334 C11.300368,20.6977711 10.7344756,20.6977711 10.148919,20.5473668 C9.73597056,20.4420839 9.22688592,20.2530043 8.96469641,20.1520186 C8.875115,20.1176404 8.84452622,20.0080602 8.90133395,19.9328581 L10.1904324,18.2096553 C10.2385005,18.147345 10.2625345,18.0699942 10.2625345,17.9926435 L10.2625345,16.0932529 C10.2625345,15.9944158 10.2232061,15.9020247 10.1554738,15.8311198 L7.39592916,12.9777367 C7.32164213,12.9003859 7.28886845,12.7951029 7.30416283,12.68982 C7.33693652,12.4642136 7.48332567,12.1075407 8.05140294,12.0753113 Z M6.18330267,13.2420184 C6.13523459,13.1925998 6.07187213,13.162519 6.00413983,13.1517758 L1.04657314,12.4362814 C0.976655934,12.4233896 0.904553818,12.4298355 0.841191352,12.4599164 C0.624885005,12.5587534 0.152943882,12.8509674 0,13.5750563 L0,19.303309 C0,19.303309 0.0699172033,20.4463811 1.67145814,20.9749446 C3.27299908,21.503508 5.22849586,21.9783557 5.22849586,21.9783557 C5.22849586,21.9783557 6.31876725,22.186773 6.7601196,21.3101311 C7.19928703,20.4313407 9.29680313,17.9238873 9.29680313,17.9238873 L9.29680313,16.4048045 L6.18330267,13.2420184 Z M4.88983441,20.0703705 C4.37856486,20.0574788 2.30071297,19.776008 1.64523919,19.1915801 C1.05094296,18.6630167 1.34809108,14.4946708 1.34809108,14.4946708 C1.34809108,14.4946708 1.35901564,14.0112286 1.64523919,14.0627958 L4.94664213,14.6472236 C4.94664213,14.6472236 5.3574057,14.8835731 5.3574057,15.2187597 L5.3574057,19.7201435 C5.3574057,19.7222922 5.40110396,20.085411 4.88983441,20.0703705 L4.88983441,20.0703705 Z M19,6.74670415 C19,4.52287014 17.2542548,2.71801935 15.099931,2.71801935 C13.8720101,2.71801935 12.775184,3.30459586 12.0607176,4.22206168 C11.4882705,1.79625627 9.44100736,0 7.00264489,0 C4.12293008,0 1.78725851,2.50530479 1.78725851,5.59503746 C1.78725851,8.68477012 4.12293008,11.1900749 7.00264489,11.1900749 C7.15340386,11.1900749 7.30416283,11.1814804 7.45273689,11.16644 L15.2463201,10.7710917 C15.2812787,10.7689431 15.3140524,10.7689431 15.349011,10.7667944 L15.4582567,10.7603485 L15.4560718,10.7581999 C17.4421573,10.5712689 19,8.84591752 19,6.74670415 Z M7.99896504,8.73848592 C6.54162833,8.73848592 5.35959062,7.40203688 5.35959062,5.75188759 C5.35959062,4.10173829 6.54162833,2.76528925 7.99896504,2.76528925 C9.45630175,2.76528925 10.6383395,4.10173829 10.6383395,5.75188759 C10.6383395,7.40203688 9.45630175,8.73848592 7.99896504,8.73848592 L7.99896504,8.73848592 Z M15.7182613,8.60097348 C14.7568997,8.60097348 13.9768859,7.7200344 13.9768859,6.63067803 C13.9768859,5.54132166 14.7568997,4.66038258 15.7182613,4.66038258 C16.6796228,4.66038258 17.4596366,5.54132166 17.4596366,6.63067803 C17.4596366,7.7200344 16.6796228,8.60097348 15.7182613,8.60097348 Z">
                </path>
            </g>
            <rect fill="#FDFEFD" fill-rule="nonzero" x="202" y="98" width="164" height="141" rx="4"></rect>
            <rect fill="#FFFFFE" fill-rule="nonzero" x="170" y="322" width="180" height="106" rx="4"></rect>
            <text id="Dragonfly" fill="#000000" fill-rule="nonzero" font-family="MabryPro-Bold, Mabry Pro"
                font-size="26" font-weight="bold">
                <tspan x="40" y="61">Dragonfly</tspan>
            </text>
            <text id="Welcome-To-Dragonfly-Console-!" fill="#000000" fill-rule="nonzero"
                font-family="MabryPro-Light, Mabry Pro" font-size="19" font-weight="300">
                <tspan x="40" y="510">Welcome To Dragonfly Console !</tspan>
            </text>
            <g opacity="0.555826096" transform="translate(336, 212)">
                <g id="path-1-link" fill="#000000" fill-rule="nonzero">
                    <rect id="path-1" x="0" y="0" width="149" height="148" rx="4"></rect>
                </g>
                <g id="path-1-link" fill="#FBFBFB">
                    <rect id="path-1" x="0" y="0" width="149" height="148" rx="4"></rect>
                </g>
            </g>
            <text id="Partners" fill="#353434" fill-rule="nonzero" font-family="MabryPro-Bold, Mabry Pro" font-size="14"
                font-weight="bold">
                <tspan x="253" y="171">Partners</tspan>
            </text>
            <g transform="translate(358, 246)" fill-rule="nonzero">
                <polygon fill="#2E8F79"
                    points="5.99016393 27.9769737 0 27.9769737 0 42 13.9770492 42 13.9770492 35.9901316 5.99016393 35.9901316">
                </polygon>
                <polygon fill="#2E8F79"
                    points="36.0098361 35.9901316 28.0229508 35.9901316 28.0229508 42 42 42 42 27.9769737 36.0098361 28.0460526">
                </polygon>
                <polygon fill="#2E8F79"
                    points="0 14.0230263 6.05901639 14.0230263 5.99016393 13.9539474 5.99016393 6.00986842 13.9770492 6.00986842 13.9770492 0 0 0">
                </polygon>
                <path
                    d="M28.0229508,0 L28.0229508,6.00986842 L36.0098361,6.00986842 L36.0098361,14.0230263 L42,14.0230263 L42,0 C41.9311475,0 28.0229508,0 28.0229508,0 Z"
                    fill="#2E8F79"></path>
                <polygon fill="#44B775"
                    points="27.1967213 14.0230263 19.2098361 6.00986842 27.9540984 6.00986842 27.9540984 0 13.9770492 0 13.9770492 6.00986842 21.9639344 14.0230263">
                </polygon>
                <polygon fill="#44B775"
                    points="20.0360656 27.9769737 14.8032787 27.9769737 21.4131148 34.6085526 22.7213115 35.9901316 13.9770492 35.9901316 13.9770492 42 28.0229508 42 28.0229508 35.9210526 24.0295082 31.9835526">
                </polygon>
                <polygon fill="#44B775"
                    points="36.0098361 14.0230263 36.0098361 22.7269737 34.6327869 21.3453947 28.0229508 14.7138158 28.0229508 20.0328947 31.947541 23.9703947 35.9409836 27.9769737 42 27.9769737 42 14.0230263">
                </polygon>
                <polygon fill="#44B775"
                    points="13.9770492 21.9671053 6.05901639 14.0230263 0 14.0230263 0 27.9769737 5.99016393 27.9769737 5.99016393 19.2730263 13.9770492 27.2861842">
                </polygon>
            </g>
            <text id="Provide" fill="#353434" fill-rule="nonzero" font-family="MabryPro-Bold, Mabry Pro" font-size="14"
                font-weight="bold">
                <tspan x="253" y="353">Provide</tspan>
            </text>
            <text id="CNCF" fill="#353434" fill-rule="nonzero" font-family="MabryPro-Bold, Mabry Pro" font-size="14"
                font-weight="bold">
                <tspan x="358" y="309.530762">CNCF</tspan>
            </text>
            <text id="Incubating" fill="#5A5A5A" fill-rule="nonzero" font-family="MabryPro-Light, Mabry Pro"
                font-size="12" font-weight="300">
                <tspan x="358" y="329">Incubating</tspan>
            </text>
            <text id="From-5-companies" fill="#5A5A5A" fill-rule="nonzero" font-family="MabryPro-Light, Mabry Pro"
                font-size="12" font-weight="300">
                <tspan x="240" y="206">From 5 companies</tspan>
            </text>
            <text id="Efficient,stable," fill="#5A5A5A" fill-rule="nonzero" font-family="MabryPro-Light, Mabry Pro"
                font-size="12" font-weight="300">
                <tspan x="253" y="373">Efficient,stable,</tspan>
            </text>
            <text id="secure-file" fill="#5A5A5A" fill-rule="nonzero" font-family="MabryPro-Light, Mabry Pro"
                font-size="12" font-weight="300">
                <tspan x="253" y="389">secure file</tspan>
            </text>
            <text id="distribution" fill="#5A5A5A" fill-rule="nonzero" font-family="MabryPro-Light, Mabry Pro"
                font-size="12" font-weight="300">
                <tspan x="253" y="405">distribution</tspan>
            </text>
            <g stroke-dasharray="9" transform="translate(345, 223)">
                <g id="path-3-Clipped">
                    <mask id="mask-npb9p13qta-2" fill="white">
                        <use xlink:href="#path-npb9p13qta-1"></use>
                    </mask>
                    <g id="path-3"></g>
                    <path
                        d="M3,0 L128,0 C129.656854,-3.04359188e-16 131,1.34314575 131,3 L131,124 C131,125.656854 129.656854,127 128,127 L3,127 C1.34314575,127 2.02906125e-16,125.656854 0,124 L0,3 C-2.02906125e-16,1.34314575 1.34314575,3.04359188e-16 3,0 Z"
                        id="path-3" stroke="#938B8B" stroke-width="2" mask="url(#mask-npb9p13qta-2)"></path>
                </g>
            </g>
            <line x1="243.5" y1="184.329215" x2="329.5" y2="184.5" id="路径-6" stroke="#979797"></line>
            <g id="ANT-black" transform="translate(211, 657)" fill="#1C293A" fill-rule="nonzero">
                <path
                    d="M13.7856176,0 C14.9664118,0 14.6810392,1.57146073 13.8668333,2.08935594 C13.0526275,2.60742372 12.4887745,3.11013238 12.1000196,3.99681865 C11.8711924,4.51747415 11.7061755,5.06028238 11.6080686,5.61504699 C15.8402255,6.50328642 19,10.009304 19,14.1987155 C19,19.0594406 14.7467941,23 9.5,23 C4.25320591,23 0,19.0594406 0,14.1987155 C0,11.2987785 1.51385294,8.72638736 3.84917647,7.12300039 C3.27917648,6.23942045 2.87794117,5.31425012 2.64509804,4.3469717 C2.27497058,2.80968067 2.55009803,1.49639096 3.36951963,1.27653142 C4.18875493,1.05667188 4.83848041,1.8499955 4.67381373,3.04835079 C4.50914705,4.24670609 4.2450098,4.46777365 4.4256961,5.40174527 C4.51622551,5.87011166 4.6361863,6.25495216 4.78539216,6.55609414 C4.90506142,6.49253139 5.02623149,6.43142521 5.14881374,6.37282032 C5.41798041,6.24407996 5.87006863,6.02145922 6.13122551,5.73912783 C6.50004904,5.34013625 6.74909806,4.84346769 7.1739902,4.746481 C7.62868627,4.64259133 7.96696078,5.09939525 8.47567649,5.30493112 C8.64034316,5.37137219 8.92739218,5.41192713 9.0842353,5.40571446 C9.59379982,5.38544592 10.1042967,5.40258431 10.6109412,5.45696901 C10.7640588,4.06567576 11.0047255,2.97707765 11.3327549,2.19082958 C11.8517157,0.947432406 12.6046373,0 13.7856176,0 Z M17.7659314,10.919633 C16.3014412,7.87214504 12.7905392,6.36022239 9.92396079,7.54270087 C7.05756862,8.72483418 5.92092157,12.1538837 7.38559806,15.2015442 C8.85008824,18.2488595 12.3609902,19.7609547 15.2275686,18.5784763 C18.0939608,17.3959978 19.2306079,13.9671209 17.7659314,10.919633 Z M10.567353,8.03281163 C13.0578431,7.00547737 16.1453432,8.39625291 17.4634216,11.1388022 C18.7815,13.8815241 17.8311274,16.9378133 15.340451,17.9651475 C12.8499608,18.9923092 9.76246078,17.6017062 8.44456864,14.8589844 C7.12611766,12.1164351 8.07686275,9.06014586 10.567353,8.03281163 Z">
                </path>
            </g>
            <g id="alibabaalibaba" transform="translate(253, 663)" fill="#1C293A" fill-rule="nonzero">
                <path
                    d="M20.9942579,13.6091954 C19.5652573,13.7011494 19.7035477,12.9973475 20.552497,11.9752431 C22.4885622,9.59858532 26.0725879,6.36958444 26.2339266,4.01061008 C26.4567278,0.947833775 23.1108689,0 19.6651337,0 C17.2681005,0.0565870911 14.7865565,0.668435013 13.0963408,1.22369584 C7.27277931,3.1158267 3.6234499,6.08664898 1.30708608,9.42882405 C-1.08994713,12.7320955 -0.344715649,15.908046 4.83349071,16 C8.74403527,15.8514589 11.3830766,14.8505747 14.041325,13.5879752 C14.060532,13.5879752 6.64663121,15.5366932 3.90387206,14.1078691 C3.60040151,13.959328 3.30077236,13.7541998 3.22010297,13.1812555 C3.22010297,12.0106101 5.31750703,10.7869142 6.54675483,10.397878 L6.54675483,8.39257294 C9.02445743,9.19186561 11.9477624,8.96905393 14.4485133,7.26083112 C14.5291827,7.46595933 14.6098521,7.72413793 14.5906451,8.00353669 L15.0131991,8.00353669 C15.1130754,7.20424403 14.5291827,6.42617153 13.5611501,6.36958444 C13.8415722,6.57471264 14.0451664,6.74093722 14.1450428,6.88947834 L14.1066288,6.92484527 L14.0874218,6.94252874 C10.8644877,9.02210433 7.73758864,8.05658709 7.43795948,8 L9.23189299,6.38373121 L8.72866967,5.21308576 C12.2973297,4.06366048 15.2398416,3.22546419 20.1337844,2.42970822 L19.0389856,1.61626879 L19.6036713,1.30150309 C22.5039278,2.04420866 24.4592001,2.5994695 24.3593237,4.01061008 C24.3209097,4.25110522 24.217192,4.53050398 24.0558532,4.82758621 C23.1915383,6.40495137 20.6523733,8.94783378 19.6228783,10.0442087 C18.9583162,10.7692308 18.2937541,11.4376658 17.8289448,12.1061008 C17.3065145,12.7922193 17.0414579,13.4252874 17.0222509,13.9982317 C17.1221273,18.6595933 32.0574881,11.8090186 35,10.005305 C30.7091569,11.6958444 26.0533809,13.3121132 20.9942579,13.6091954 Z M24.2594473,2.89655172 C24.3670065,3.08045977 24.4169447,3.30680813 24.4169447,3.57206012 C24.4131033,3.33156499 24.3631651,3.10167993 24.2594473,2.89655172 Z">
                </path>
            </g>
            <g id="baidu" transform="translate(396, 661)" fill="#1C293A" fill-rule="nonzero">
                <path
                    d="M3.50507787,10.607464 C6.24840145,10.1376375 5.874088,7.52115593 5.79035998,6.94910773 C5.65491762,6.06646294 4.35713347,4.52527468 2.59392011,4.64715436 C0.375127868,4.80638427 0.0500661968,7.36585761 0.0500661968,7.36585761 C-0.247907016,8.54927001 0.76914203,11.0772905 3.50507787,10.607464 Z M6.41585746,15.1563283 C6.33459203,15.3411136 6.15728566,15.8109402 6.30996614,16.2198268 C6.61532711,17.1378561 7.61513804,17.1791379 7.61513804,17.1791379 L9.05082714,17.1791379 L9.05082714,14.377871 L7.51417193,14.377871 C6.82464714,14.5429983 6.48973511,14.9735088 6.41585746,15.1563283 L6.41585746,15.1563283 Z M8.59278567,6.22176124 C10.1097402,6.22176124 11.3311841,4.82997389 11.3311841,3.10989772 C11.3311841,1.39178735 10.1097402,0 8.59278567,0 C7.08075632,0 5.85438726,1.39178735 5.85438726,3.10989772 C5.85438726,4.82997389 7.08075632,6.22176124 8.59278567,6.22176124 L8.59278567,6.22176124 Z M15.1161826,6.42620458 C17.1404303,6.63654534 18.4431396,4.91057175 18.6992488,3.60331385 C18.9627458,2.29998757 17.6575739,0.782388935 16.2243474,0.522903165 C14.7886583,0.259485789 12.9958939,2.09554423 12.8333631,3.29271724 C12.6388186,4.75723923 13.0943975,6.21782964 15.1161826,6.42620458 L15.1161826,6.42620458 Z M20.0758358,14.1085562 C20.0758358,14.1085562 16.9434233,12.1742077 15.1161826,10.0845609 C12.6388186,7.00218435 9.11731703,8.25636561 7.94019973,9.82310929 C6.76800761,11.389853 4.94076694,12.3825826 4.68219514,12.6440342 C4.41869816,12.90352 0.899659212,14.4191528 1.68029979,17.1889669 C2.46094034,19.9568152 5.20672651,19.9057043 5.20672651,19.9057043 C5.20672651,19.9057043 7.22851167,20.0649343 9.57535848,19.6462186 C11.9222053,19.2294687 13.9415279,19.750406 13.9415279,19.750406 C13.9415279,19.750406 19.4232499,21.214928 20.9229662,18.3940031 C22.42022,15.5711124 20.0758358,14.1085562 20.0758358,14.1085562 Z M10.6958362,18.3075079 L7.1324707,18.3075079 C5.5933529,18.0617827 4.98016836,17.2243513 4.90136552,17.0808478 C4.82502528,16.9353785 4.38914711,16.2611087 4.62063043,15.1150465 C5.28552932,13.3969361 7.18172246,13.2730906 7.18172248,13.2730906 L9.07791562,13.2730906 L9.07791562,11.4114768 L10.6933737,11.4311348 L10.6958362,18.3075079 L10.6958362,18.3075079 Z M17.3349748,18.2878499 L13.2323024,18.2878499 C11.6414702,17.9615268 11.5675926,17.059224 11.5675926,17.059224 L11.5675926,13.4382179 L13.2323024,13.4165941 L13.2323024,16.6699954 C13.3332685,17.0159764 13.875038,17.0808478 13.875038,17.0808478 L15.5643737,17.0808478 L15.5643737,13.4382179 L17.3349748,13.4382179 L17.3349748,18.2878499 L17.3349748,18.2878499 Z M23.1392959,8.62003887 C23.1392959,7.99491404 22.4891725,6.11167637 20.0758358,6.11167637 C17.6575739,6.11167637 17.3349748,7.88876077 17.3349748,9.14490782 C17.3349748,10.3440466 17.4630294,12.0189094 20.4649248,11.9638669 C23.4692828,11.9127561 23.1392959,9.2490953 23.1392959,8.62003887 Z">
                </path>
            </g>
            <g id="didi" transform="translate(441, 661)" fill="#1C293A" fill-rule="nonzero">
                <path
                    d="M0,1.09375 C0,0.46875 0.39375,0 0.91875,0 L16.93125,0 L16.93125,4.375 L4.4625,4.375 C4.2,4.375 3.9375,4.53125 3.9375,4.84375 L3.9375,8.125 C3.9375,10.3125 4.725,12.34375 6.16875,13.75 C7.35,15 9.05625,15.78125 10.7625,15.625 C12.73125,15.46875 14.56875,14.375 15.75,12.5 C16.5375,11.25 17.0625,9.53125 16.93125,7.96875 L16.93125,4.375 L21,4.375 L21,8.4375 C21,11.25 19.95,14.0625 18.24375,16.09375 C16.275,18.59375 13.3875,20 10.5,20 C8.4,20 6.3,19.21875 4.59375,17.8125 C3.01875,16.5625 1.70625,14.84375 0.91875,12.8125 C0.2625,11.40625 0,9.84375 0,8.28125 L0,1.09375 Z">
                </path>
            </g>
            <g id="douyin_1" transform="translate(310, 659)" fill="#1C293A" fill-rule="nonzero">
                <path
                    d="M16.9760928,8.69326172 C15.3025899,8.69326172 13.6749092,8.13339844 12.3361069,7.09775391 L12.3361069,14.3226562 C12.3361069,18.0120117 9.57482714,21 6.16805344,21 C2.76127974,21 0,18.0120117 0,14.3226562 C0,10.6333008 2.76127974,7.6453125 6.16805344,7.6453125 C6.50873081,7.6453125 6.83944685,7.67607422 7.16219384,7.73349609 L7.16219384,11.5602539 C6.85339271,11.4351562 6.52466893,11.371582 6.19395289,11.371582 C4.67385445,11.371582 3.44064221,12.7045898 3.44064221,14.3513672 C3.44064221,15.9960938 4.67385445,17.3311523 6.19395289,17.3311523 C7.71205906,17.3311523 8.9452713,15.9960937 8.9452713,14.3513672 L8.9452713,0 L12.3859135,0 C12.3859135,2.75830078 14.4518927,4.99365234 17,4.99365234 L17,8.69121094 L16.9760928,8.69326172">
                </path>
            </g>
            <line x1="240.5" y1="399.5" x2="240.5" y2="350.5" id="路径-7" stroke="#979797"></line>
            <g id="提供服务-(1)" transform="translate(183, 352)" fill="#2E8F79" fill-rule="nonzero">
                <path
                    d="M9.28333332,0.00249945636 C4.1562899,0.00249945636 0,4.15835675 0,9.28486616 C0,14.4113756 4.1562899,18.5672326 9.28333332,18.5672326 L18.5716667,18.5672326 L18.5716667,9.28486616 C18.5712247,6.82258753 17.5925625,4.46133299 15.8509747,2.72055161 C14.1093868,0.979770221 11.7475351,0.00205773995 9.28500002,0.00249945636 L9.28333332,0.00249945636 L9.28333332,0.00249945636 Z M40,9.28486616 C40,4.15697617 35.8425908,0 30.7141667,0 C25.5857425,0 21.4283333,4.15697617 21.4283333,9.28486616 L21.4283333,18.5672326 L30.7166667,18.5672326 C35.8437101,18.5672326 40,14.4113756 40,9.28486616 Z M0,30.7143006 C0,35.8412702 4.156663,39.9975002 9.28416667,39.9975002 C14.4116703,39.9975002 18.5683333,35.8412702 18.5683333,30.7143006 L18.5683333,21.4319342 L9.28333332,21.4319342 C4.15694071,21.4319342 0.000920372121,25.5867755 0,30.712634 L0,30.7143006 Z M30.7116666,21.4319342 L21.4249996,21.4319342 L21.4249996,30.7143006 C21.4240796,35.8417302 25.5803694,39.9990793 30.7083332,40 C35.836297,40.0009201 39.9940792,35.8450631 39.9950001,30.7176335 C39.9959202,25.5902038 35.8396304,21.4328546 30.7116666,21.4319342 L30.7116666,21.4319342 Z">
                </path>
            </g>
            <g transform="translate(260, 115)" fill="#2E8F79" fill-rule="nonzero">
                <path
                    d="M39.9829833,11.9138717 C39.8429265,14.435326 38.9225533,16.4735015 38.1422369,17.4610712 C37.5820097,18.1754832 36.1014093,19.8774649 35.2810767,20.7599739 L26.2374095,10.8632657 L21.6355434,15.3388471 L21.6155353,15.3598592 C19.614724,17.3770227 16.9736531,17.5030954 16.9536449,17.5030954 L16.9136287,17.5030954 C16.8135881,17.5030954 16.6935395,17.5241075 16.5934989,17.5241075 C14.4326227,17.5241075 12.3117627,15.8221258 11.3513732,14.960629 C13.3721927,12.7543564 20.8152108,4.70671473 23.676371,2.10121193 C24.736801,1.13465444 26.9176853,0 29.5187401,0 C32.2398435,0 34.7008414,1.1976908 36.8217014,3.57206028 C39.6428454,6.68185394 40.103032,9.83367184 39.9829833,11.9138717 Z M9.3505619,15.0026532 L9.83075662,15.5279562 C9.97081341,15.675041 13.1120872,19.0579922 16.6335151,19.0579922 C16.7735719,19.0579922 16.9136287,19.0579922 17.0536855,19.0369801 C17.3337991,19.015968 20.315008,18.8268589 22.6559572,16.4735015 L26.1773852,13.027514 L31.1794135,18.5116771 L35.7812795,23.6176221 L35.8012876,23.6386342 C36.4415473,24.311022 36.401531,25.6557977 35.7012471,26.4542582 C34.9009225,27.294743 33.7004357,27.3998036 33.040168,26.7064036 L27.0177259,20.7179496 L26.4374906,21.3693253 L25.9973121,21.831592 L31.8396812,27.9671308 C32.4999489,28.6605307 32.3999084,29.9212579 31.5995838,30.7617427 C31.1994216,31.1819851 30.6992188,31.4341305 30.1790078,31.4551426 C29.6988131,31.4971669 29.2586346,31.3290699 28.9385048,30.992876 L22.9560789,24.7312644 L21.915657,25.8238946 L27.7780342,32.2115789 C28.0781559,32.5477728 28.2382208,32.9890273 28.2182127,33.5143303 C28.1781965,34.0606454 27.9380991,34.5859484 27.5379369,35.0061908 C27.1377746,35.4264332 26.6375718,35.6785786 26.1173608,35.6995907 C25.6371661,35.741615 25.1969876,35.573518 24.8768578,35.2373241 L24.2365982,34.5649363 C25.1969876,33.5143303 25.3770606,31.9384214 24.7167929,30.6566821 C24.0565251,29.3749428 22.6759653,28.702555 21.3154136,28.9757125 C21.4154542,28.0301672 21.1353406,27.0846218 20.5350972,26.3702097 C19.9348538,25.6557977 19.0745049,25.2565674 18.1541317,25.2565674 C17.9540506,25.2565674 17.7539695,25.2775795 17.5538883,25.3196038 C17.6539289,24.311022 17.313791,23.3024403 16.6335151,22.5880283 C15.8531987,21.7685556 14.7327444,21.4323617 13.6723144,21.7055193 C13.8123712,20.6759254 13.4722332,19.6253194 12.7519412,18.8898953 C12.1516978,18.2595317 11.3513732,17.9233378 10.5110325,17.9233378 C9.67069171,17.9233378 8.85035907,18.2805438 8.25011567,18.9109074 L5.40896359,21.9156404 L5.62905283,21.663495 C4.8287283,20.9280708 2.60782773,18.7848347 1.92755188,17.5661317 C1.88753565,17.5030954 1.86752754,17.440059 1.82751131,17.3770227 C-1.01364077,12.4391746 -0.533446053,7.69043567 3.20807113,3.65610876 C5.8891583,0.756436295 8.95039963,0.336193909 11.0512515,0.483278744 C13.8323793,0.672387818 16.073288,1.91210286 17.1537261,2.92068458 C17.5138721,3.25687849 18.1141155,3.86622995 18.9744644,4.74873897 C15.012858,8.82509011 10.1108702,14.1621684 9.83075662,14.4773502 L9.3505619,15.0026532 Z M9.33055379,20.0035376 C9.6506836,19.6673437 10.0908621,19.4782346 10.5510487,19.4782346 C11.0112353,19.4782346 11.4314057,19.6673437 11.7515355,20.0035376 C12.0716653,20.3397315 12.2517383,20.8019981 12.2517383,21.2642647 C12.2517383,21.7475435 12.0716653,22.188798 11.7515355,22.546004 L7.26971812,27.294743 C6.94958831,27.6309369 6.50940982,27.820046 6.04922321,27.820046 C5.58903661,27.820046 5.16886623,27.6309369 4.84873641,27.294743 C4.5286066,26.9585491 4.34853358,26.4962825 4.34853358,26.0340158 C4.34853358,25.5507371 4.5286066,25.1094826 4.84873641,24.7522766 L9.33055379,20.0035376 Z M13.2121278,23.7016706 C13.5322576,23.3654767 13.9724361,23.1763676 14.4326227,23.1763676 C14.8928093,23.1763676 15.3129797,23.3654767 15.6331095,23.7016706 C15.9532393,24.0378645 16.1333123,24.5001311 16.1333123,24.9623977 C16.1333123,25.4456765 15.9532393,25.886931 15.6331095,26.244137 L11.1512921,30.992876 C10.8311623,31.3290699 10.3909838,31.518179 9.93079718,31.518179 C9.47061058,31.518179 9.0504402,31.3290699 8.73031039,30.992876 C8.41018058,30.6566821 8.23010756,30.1944155 8.23010756,29.7321488 C8.23010756,29.2488701 8.41018058,28.8076156 8.73031039,28.4504096 L13.2121278,23.7016706 Z M16.9536449,27.3577793 C17.2737748,27.0215854 17.7139532,26.8324764 18.1741398,26.8324764 C18.8744238,26.8324764 19.4946753,27.2737309 19.7547808,27.9461187 C20.0148863,28.6185065 19.8748295,29.3959549 19.3946348,29.9002458 L14.9128174,34.6489847 C14.5926876,34.9851787 14.1525091,35.1742877 13.6923225,35.1742877 C13.2321359,35.1742877 12.8119655,34.9851787 12.4918357,34.6489847 C12.1717059,34.3127908 11.9916328,33.8505242 11.9916328,33.3882576 C11.9916328,32.9049788 12.1717059,32.4637243 12.4918357,32.1065183 L16.9536449,27.3577793 L16.9536449,27.3577793 Z M20.7351783,31.0138881 C21.0553082,30.6776942 21.4954866,30.4885851 21.9556733,30.4885851 C22.4158599,30.4885851 22.8360302,30.6776942 23.1561601,31.0138881 C23.8364359,31.707288 23.8364359,32.8629546 23.1561601,33.5563545 L18.6743427,38.3050935 C18.3542129,38.6412874 17.9140344,38.8303965 17.4538478,38.8303965 C16.9936612,38.8303965 16.5734908,38.6412874 16.253361,38.3050935 C15.9332312,37.9688996 15.7531581,37.506633 15.7531581,37.0443664 C15.7531581,36.5610876 15.9332312,36.1198331 16.253361,35.7626271 L20.7351783,31.0138881 Z M23.7163872,36.5400755 C24.376655,37.2334754 24.2966225,38.4731905 23.496298,39.3136752 C22.7159816,40.1331479 21.5355029,40.2382085 20.855227,39.5237964 L20.2149674,38.8514086 L23.0561195,35.8466756 L23.7163872,36.5400755 L23.7163872,36.5400755 Z">
                </path>
            </g>
        </g>
    </g>
</svg>