<svg xmlns="http://www.w3.org/2000/svg" width="67.5" height="64" class="icon" viewBox="0 0 1080 1024">
    <animateTransform attributeName="transform" attributeType="XML" dur="0.8s" from="0 0 0" repeatCount="indefinite"
        to="360 0 0" type="rotate" />
    <path fill="#2E8F79"
        d="M227.783 165.32c5.973-4.097 11.549-8.08 17.01-11.492 5.347-3.528 10.524-6.543 15.246-9.444l6.94-3.982 6.258-3.47 2.845-1.48 2.617-1.308 4.721-2.446 2.105-1.081 2.39-1.138 4.21-2.105 7.736-3.754a64.74 64.74 0 1 0-66.446-110.65l-6.94 5.064-3.812 2.73-2.275 1.593-2.788 2.105-6.258 4.665-3.413 2.617a35856.668 35856.668 0 0 1-10.809 8.533c-2.503 2.105-5.177 4.153-7.85 6.543-5.348 4.608-11.208 9.557-17.124 15.189-6.087 5.404-12.231 11.605-18.774 17.977-6.257 6.599-12.913 13.426-19.512 20.992A541.64 541.64 0 0 0 57.8 212.082c-11.379 22.243-21.22 45.283-29.356 68.95-1.137 3.014-2.048 6.03-3.015 9.101l-2.844 9.103c-1.877 6.087-3.584 12.288-5.29 18.432l-2.276 9.33c-.74 3.128-1.593 6.2-2.219 9.33l-1.991 9.386-.967 4.665-.854 4.721a514.33 514.33 0 0 0-8.135 75.264C.512 436.565.57 442.71.57 448.854v4.55l.057 4.608.284 9.103.114 4.55.284 4.495.57 8.932.34 4.778.399 4.267.853 8.363.455 4.21.57 4.437 1.137 8.704.569 4.323.683 4.21 1.422 8.306a507.676 507.676 0 0 0 24.291 88.746l2.447 6.429 1.137 3.072 1.309 3.072 4.95 11.776c3.526 7.566 6.655 14.791 10.068 21.333a487.822 487.822 0 0 0 31.403 54.045l4.836 7.11-3.584-7.85a471.893 471.893 0 0 1-21.618-57.685c-2.162-6.827-3.982-14.336-6.144-22.073l-2.845-12.06-.682-3.073-.57-3.185-1.308-6.372a472.747 472.747 0 0 1-8.59-86.585v-11.719l.228-3.982.284-7.794.17-3.925.285-4.153.854-12.63v-.284.114l.113-.569.057-.967.228-2.048.853-8.135.455-4.096.57-4.096 1.137-8.192.569-4.096.74-4.096c1.023-5.462 1.877-10.923 3.071-16.384a461.634 461.634 0 0 1 18.376-64.57l1.422-3.981 1.536-3.869 3.072-7.737c.967-2.617 2.162-5.12 3.242-7.68l3.3-7.623c2.39-5.006 4.722-10.012 7.168-14.905l3.755-7.281c1.251-2.447 2.446-4.836 3.811-7.225a445.724 445.724 0 0 1 72.42-97.565c12.117-12.345 24.974-23.893 38.457-34.702 6.2-5.12 12.401-9.557 18.204-13.88z"
        opacity=".2" />
    <path fill="#2E8F79"
        d="m1060.181 487.595-.967-8.534-1.138-10.24-.682-6.599-1.252-8.76-3.015-20.367-4.551-22.471c-.796-3.982-1.934-8.078-3.015-12.288l-3.3-12.914c-.569-2.218-1.137-4.437-1.82-6.656l-2.105-6.826-4.38-13.995-1.138-3.584-1.252-3.584-2.674-7.225c-1.82-4.836-3.584-9.785-5.518-14.791l-6.371-15.076-3.3-7.623-3.584-7.68-7.566-15.417a65.536 65.536 0 0 0-1.991-3.868l-2.105-3.869-4.267-7.736-4.266-7.851c-1.48-2.617-3.13-5.12-4.665-7.68l-9.558-15.53a577.422 577.422 0 0 0-45.17-59.848 573.554 573.554 0 0 0-54.385-53.817 567.353 567.353 0 0 0-60.985-44.714c-21.106-13.085-42.667-24.349-64-34.02l-16.043-6.656c-2.617-1.08-5.234-2.276-7.907-3.186l-7.965-2.844-7.85-2.845-3.869-1.365a57.458 57.458 0 0 0-3.868-1.308l-15.474-4.665c-2.56-.74-5.006-1.593-7.566-2.276l-7.567-1.82-14.677-3.641-14.336-2.845-6.94-1.365-3.414-.683-3.413-.512-13.369-1.934-6.371-.91c-2.105-.285-4.267-.398-6.315-.626l-12.06-1.138c-3.983-.398-7.737-.796-11.378-.91l-20.708-.91-17.465.114h-7.395l-6.6.398-10.353.626-8.534.512 8.534.967 10.24 1.138 6.485.682 7.282 1.195 17.01 2.787 19.74 4.21c3.527.683 7.111 1.707 10.809 2.73l11.378 3.073c1.934.569 3.925.967 5.86 1.593l5.973 1.934 12.288 3.982 3.185 1.024 3.13 1.195 6.314 2.39c4.267 1.649 8.647 3.242 13.028 5.005l13.14 5.746 6.714 2.958c2.275.968 4.437 2.162 6.656 3.243l13.54 6.77c1.137.569 2.275 1.138 3.413 1.82l3.356 1.878 6.827 3.811 6.826 3.812c2.276 1.308 4.438 2.844 6.713 4.21l13.54 8.533c17.806 12.06 35.442 25.43 52.11 40.22 16.612 15.019 32.2 31.175 46.706 48.242 14.051 17.067 26.908 35.1 38.57 53.874 11.265 18.603 20.879 37.603 29.128 56.32l5.632 14.051c.91 2.276 1.877 4.552 2.73 6.94l2.39 6.941 2.332 6.884 1.195 3.413 1.138 3.414 3.868 13.482c.569 2.276 1.308 4.438 1.877 6.656l1.536 6.6 3.072 12.8 2.276 12.515 1.138 6.087.569 2.958.398 3.015 1.479 11.606.796 5.575c.228 1.82.285 3.64.455 5.461l.854 10.525c.284 3.413.626 6.712.626 9.898l.568 17.977-.34 14.109-.115 6.03-.398 6.428-.569 10.354-.569 8.533a64.74 64.74 0 1 0 128.967-3.242h.057z" />
    <path fill="#2E8F79"
        d="m910.962 758.556-5.234 6.315c-1.877 2.276-3.698 4.551-5.803 6.884-4.153 4.721-8.533 9.841-13.596 15.018-4.836 5.348-10.354 10.695-16.043 16.327-5.86 5.519-11.946 11.378-18.66 17.067a477.013 477.013 0 0 1-98.53 65.991 463.644 463.644 0 0 1-60.872 25.145c-2.617.967-5.29 1.707-7.964 2.56l-8.022 2.446c-5.404 1.536-10.809 2.959-16.213 4.38l-8.192 1.935c-2.73.569-5.405 1.308-8.192 1.82l-8.249 1.65-4.096.797-4.153.682a449.281 449.281 0 0 1-65.934 6.429c-5.405.227-10.809.057-16.157.057h-4.039c-1.308 0-2.56-.114-3.868-.171l-7.566-.341-3.812-.171-4.267-.284-8.533-.57-2.162-.17h-1.08l-.57-.114h.57-.285l-3.868-.455-7.68-.853a437.248 437.248 0 0 1-106.78-26.624l-5.462-2.219-2.73-1.024-2.618-1.138-10.24-4.494c-6.485-3.129-12.743-5.916-18.375-8.931a424.107 424.107 0 0 1-28.843-16.27l-1.479-.854a1167.588 1167.588 0 0 0-3.697-2.446l-4.438-2.902-1.99-1.308-2.163-1.422-3.868-2.617-7.168-4.836a64.74 64.74 0 1 0-62.805 112.697l7.85 3.584 4.267 1.934 2.56 1.138 3.186 1.366 7.168 3.128 3.982 1.707 2.048.853 2.048.797c10.98 4.323 24.348 9.443 39.993 14.222 7.737 2.56 16.156 4.779 24.974 7.282l13.653 3.3 3.47.853 3.585.74 7.281 1.535a537.43 537.43 0 0 0 134.258 10.127l9.216-.57 4.608-.284h1.309l.512-.057 1.024-.113 2.161-.228 8.534-.853 4.266-.455 4.836-.57 9.671-1.25 4.892-.627 4.665-.796c6.258-1.024 12.516-1.934 18.717-3.3a521.671 521.671 0 0 0 73.842-20.081l4.55-1.593 4.438-1.707 8.932-3.413c2.958-1.081 5.86-2.39 8.817-3.584l8.704-3.698c5.746-2.674 11.492-5.234 17.18-7.965l8.363-4.21c2.845-1.422 5.576-2.787 8.306-4.266a510.066 510.066 0 0 0 112.64-81.636 501.76 501.76 0 0 0 40.391-43.633c5.86-7.055 11.094-14.052 16.1-20.708 4.835-6.827 9.443-13.084 13.426-19.342 4.21-6.087 7.737-12.004 11.093-17.408 1.707-2.674 3.186-5.405 4.665-7.908l4.153-7.225a482.987 482.987 0 0 0 11.264-21.617l3.811-7.737-5.063 6.997c-3.186 4.551-8.192 11.093-14.62 19.285z"
        opacity=".6" />
</svg>