<svg t="1694499620887" class="icon" viewBox="0 0 1024 1024" version="1.1" xmlns="http://www.w3.org/2000/svg"
    p-id="52110" width="64" height="64">
    <path
        d="M320 345.6h356.8c16 0 30.4-12.8 30.4-30.4s-12.8-30.4-30.4-30.4H320c-16 0-30.4 12.8-30.4 30.4s12.8 30.4 30.4 30.4z m0 128h302.4c16 0 30.4-12.8 30.4-30.4s-12.8-30.4-30.4-30.4H320c-16 0-30.4 12.8-30.4 30.4s12.8 30.4 30.4 30.4z m356.8 121.6c16 0 30.4-12.8 30.4-30.4s-12.8-30.4-30.4-30.4H320c-16 0-30.4 12.8-30.4 30.4 0 16 12.8 30.4 30.4 30.4h356.8z"
        p-id="52111" fill="#515151"></path>
    <path
        d="M843.2 96H180.8c-16 0-30.4 12.8-30.4 30.4v772.8c0 16 12.8 30.4 30.4 30.4H640c8 0 14.4-3.2 19.2-8l201.6-174.4c6.4-6.4 11.2-14.4 11.2-22.4V126.4c0-17.6-12.8-30.4-28.8-30.4zM212.8 158.4h598.4v520H625.6c-16 0-30.4 12.8-30.4 30.4v158.4h-384l1.6-708.8zM656 844.8v-105.6h121.6L656 844.8z"
        p-id="52112" fill="#515151"></path>
</svg>