<svg t="1713358915325" class="icon" viewBox="0 0 1024 1024" version="1.1" xmlns="http://www.w3.org/2000/svg" p-id="7190"
    width="200" height="200">
    <path
        d="M832 896H256c-35.2 0-64-28.8-64-64v-128.8c-8.8 0.8-18 1.2-26.8 0.4-79.2-6-138.8-75.2-133.2-154.4 2.8-38.4 20.4-73.2 49.6-98.4s66.4-37.6 104.8-34.8c2 0 3.6 0.4 5.6 0.4V288c0-35.2 28.8-64 64-64h144.8c-0.8-8.8-1.2-18-0.4-26.8 2.8-38 20.4-73.2 49.6-98.4 29.2-25.2 66.4-37.6 104.8-34.8 38.4 2.8 73.2 20.4 98.4 49.6s37.6 66.4 34.8 104.8c0 2-0.4 3.6-0.4 5.6H832c35.2 0 64 28.8 64 64v170.8c0 10.8-5.6 21.2-14.8 27.2-9.2 6-20.8 6.4-30.8 2-12.4-6-26.4-8.4-40-7.2-21.6 1.6-40.8 11.2-54.8 27.6-14 16-20.8 36.8-19.2 58 1.6 21.2 11.2 40.8 27.6 54.8 16 14 36.8 20.8 58 19.2 10-0.8 19.6-3.2 28.4-7.6 10-4.8 21.6-4 30.8 2s14.8 16 14.8 27.2V832c0 35.2-28.8 64-64 64zM224 629.2c6 0 12 1.6 17.2 4.8 9.2 6 14.8 16 14.8 27.2V832h576v-128.8c-2 0.4-3.6 0.4-5.6 0.4-38.4 2.8-75.6-9.6-104.8-34.8s-46.8-60-49.6-98.4c-2.8-38.4 9.6-75.6 34.8-104.8 25.2-29.2 60-46.8 98.4-49.6 8.8-0.8 18-0.4 26.8 0.4V288h-186.8c-10.8 0-21.2-5.6-27.2-14.8-6-9.2-6.4-20.8-2-30.8 4.4-9.2 6.8-18.8 7.6-28.4 1.6-21.2-5.2-42-19.2-58s-33.2-26-54.8-27.6c-21.2-1.6-42 5.2-58 19.2s-26 33.2-27.6 54.8c-1.2 14 1.6 28 7.2 40.4 4.8 10 4 21.6-2 30.8s-16 14.8-27.2 14.8H256v170.8c0 10.8-5.6 21.2-14.8 27.2-9.2 6-20.8 6.4-30.8 2-8.8-4.4-18.8-6.8-28.4-7.6-21.2-1.6-42 5.2-58 19.2s-26 33.2-27.6 54.8c-3.2 44 30 82.4 74 85.6 14 1.2 28-1.6 40.4-7.2 3.6-2.8 8.4-4 13.2-4z"
        p-id="7191" fill="#515151"></path>
</svg>