<svg xmlns="http://www.w3.org/2000/svg" width="200" height="200" class="icon" viewBox="0 0 1024 1024"><path fill="#2E8F79" d="M213.333 426.667h597.334V256H213.333v170.667zM128 192a21.333 21.333 0 0 1 21.333-21.333h725.334A21.333 21.333 0 0 1 896 192v298.667A21.333 21.333 0 0 1 874.667 512H149.333A21.333 21.333 0 0 1 128 490.667V192zm85.333 618.667h597.334V640H213.333v170.667zM128 576a21.333 21.333 0 0 1 21.333-21.333h725.334A21.333 21.333 0 0 1 896 576v298.667A21.333 21.333 0 0 1 874.667 896H149.333A21.333 21.333 0 0 1 128 874.667V576zm170.667-256a21.333 21.333 0 0 1 42.666 0v42.667a21.333 21.333 0 0 1-42.666 0V320zM320 682.667A21.333 21.333 0 0 0 298.667 704v42.667a21.333 21.333 0 0 0 42.666 0V704A21.333 21.333 0 0 0 320 682.667zM384 320a21.333 21.333 0 0 1 42.667 0v42.667a21.333 21.333 0 0 1-42.667 0V320zm21.333 362.667A21.333 21.333 0 0 0 384 704v42.667a21.333 21.333 0 0 0 42.667 0V704a21.333 21.333 0 0 0-21.334-21.333zm298.667-384A21.333 21.333 0 0 1 725.333 320v42.667A21.333 21.333 0 0 1 704 384h-85.333a21.333 21.333 0 0 1-21.334-21.333V320a21.333 21.333 0 0 1 21.334-21.333H704zM725.333 704A21.333 21.333 0 0 0 704 682.667h-85.333A21.333 21.333 0 0 0 597.333 704v42.667A21.333 21.333 0 0 0 618.667 768H704a21.333 21.333 0 0 0 21.333-21.333V704z"/></svg>