<svg xmlns="http://www.w3.org/2000/svg" width="70.063" height="64" class="icon" viewBox="0 0 1121 1024"><path fill="#2E8F79" d="M1089.894 766.788H31.548A31.07 31.07 0 0 0 .393 797.79V984.31a31.087 31.087 0 0 0 31.01 31.156h1058.491a31.087 31.087 0 0 0 31.113-31.062V797.841a31.095 31.095 0 0 0-31.113-31.053zM187.17 953.25H62.652V828.91h124.57v124.34h-.052zm186.744 0H249.48V828.91h124.475v124.34h-.042zm186.777 0H436.215V828.91h124.476v124.34zm529.203-932.463H31.548A31.087 31.087 0 0 0 .393 51.797v186.556a31.078 31.078 0 0 0 31.052 31.113h1058.45a31.087 31.087 0 0 0 31.112-31.062V51.9a31.095 31.095 0 0 0-31.061-31.113h-.052zM187.17 207.25H62.652V82.961h124.57v124.34l-.052-.052zm186.744 0H249.48V82.961h124.475v124.34l-.042-.052zm186.777 0H436.215V82.961h124.476v124.34-.052zm529.203 186.513H31.548a31.087 31.087 0 0 0-31.155 31.01v186.565a31.078 31.078 0 0 0 31.052 31.112h1058.45a31.087 31.087 0 0 0 31.112-31.061V424.875a31.087 31.087 0 0 0-31.061-31.113h-.052zM187.17 580.275H62.652V455.936h124.57v124.34h-.052zm186.744 0H249.48V455.936h124.475v124.34h-.042zm186.777 0H436.215V455.936h124.476v124.34z"/></svg>