<svg xmlns="http://www.w3.org/2000/svg" width="64" height="64" class="icon" viewBox="0 0 1024 1024"><path fill="#2E8F79" d="M526.741 709.829h413.66c9.922 0 17.968-8.045 17.968-17.969V116.325c0-9.782-8.044-17.967-17.969-17.967H77.114c-9.923 0-17.967 8.044-17.967 17.967V691.86c0 9.784 8.043 17.969 17.967 17.969h413.66V871.689H284.058c-15.139 0-27.082 12.082-27.082 26.975 0 14.998 12.12 26.976 27.082 26.976h449.4c15.14 0 27.082-12.082 27.082-26.976 0-14.997-12.118-26.975-27.082-26.975H526.741V709.83zM113.101 592.93c0-14.894 12.118-26.977 27.01-26.977h737.293c14.91 0 27.01 11.978 27.01 26.977 0 14.894-12.12 26.976-27.01 26.976H140.112c-14.911 0-27.012-11.978-27.012-26.976z"/></svg>