<svg xmlns="http://www.w3.org/2000/svg" width="72" height="64" class="icon" viewBox="0 0 1152 1024"><path fill="#2E8F79" d="M1056 64H96c-53 0-96 43-96 96v32h1152v-32c0-53-43-96-96-96zM0 864c0 53 43 96 96 96h960c53 0 96-43 96-96V256H0v608zm704-464c0-8.8 7.2-16 16-16h288c8.8 0 16 7.2 16 16v32c0 8.8-7.2 16-16 16H720c-8.8 0-16-7.2-16-16v-32zm0 128c0-8.8 7.2-16 16-16h288c8.8 0 16 7.2 16 16v32c0 8.8-7.2 16-16 16H720c-8.8 0-16-7.2-16-16v-32zm0 128c0-8.8 7.2-16 16-16h288c8.8 0 16 7.2 16 16v32c0 8.8-7.2 16-16 16H720c-8.8 0-16-7.2-16-16v-32zM352 384c70.6 0 128 57.4 128 128s-57.4 128-128 128-128-57.4-128-128 57.4-128 128-128zM134.2 792.4C151 741 199.2 704 256 704h16.4c24.6 10.2 51.4 16 79.6 16s55.2-5.8 79.6-16H448c56.8 0 105 37 121.8 88.4 6.4 19.8-10.4 39.6-31.2 39.6H165.4c-20.8 0-37.6-20-31.2-39.6z"/></svg>