<svg xmlns="http://www.w3.org/2000/svg" width="64" height="64" class="icon" viewBox="0 0 1024 1024"><path fill="#2e8f79" d="M288 96a192 192 0 1 0 0 384h160a32 32 0 0 0 32-32V288A192 192 0 0 0 288 96zm160 448H288a192 192 0 1 0 192 192V576a32 32 0 0 0-32-32zM736 96a192 192 0 0 0-192 192v160a32 32 0 0 0 32 32h160a192 192 0 0 0 0-384z" class="selected" data-spm-anchor-id="a313x.search_index.0.i37.bb293a814rmzNg"/><path fill="#2e8f79" d="M736 544H576a32 32 0 0 0-32 32v160a192 192 0 1 0 192-192z" class="selected" data-spm-anchor-id="a313x.search_index.0.i38.bb293a814rmzNg"/></svg>