<svg width="195.893943px" height="200px" viewBox="0 0 195.893943 200" version="1.1" xmlns="http://www.w3.org/2000/svg"
    xmlns:xlink="http://www.w3.org/1999/xlink">
    <g id="页面-1" stroke="none" stroke-width="1" fill="none" fill-rule="evenodd">
        <g id="编组" fill="currentColor" fill-rule="nonzero">
            <path
                d="M166.698916,36.5504242 L173.364867,20.6892512 L179.802304,36.5504242 L195.893943,36.5504242 L182.790556,47.3550062 L189.227993,66.2063848 L174.745712,54.02291 L158.65212,66.2063848 L163.94113,47.3550062 L150.607276,36.5504242 L166.698916,36.5504242 L166.698916,36.5504242 Z M166.698916,143.447818 L159.572033,137.930294 L150.607276,143.447818 L154.054508,134.481109 L148.308471,129.883497 L156.353314,129.883497 L159.572033,121.838654 L161.870838,129.883497 L169.917634,129.883497 L163.021217,134.481109 L166.698916,143.447818 L166.698916,143.447818 Z M118.19353,78.620326 L121.412249,67.5852775 L125.320414,78.620326 L135.664063,78.620326 L126.240327,85.516743 L129.918025,96.7803049 L120.492336,89.8838879 L111.52758,96.7803049 L114.974812,85.516743 L106.929968,78.620326 L118.19353,78.620326 L118.19353,78.620326 Z M99.8030849,200 C72.5234034,199.384772 49.5346956,190.26572 30.8369616,172.640892 C12.1405296,155.017366 1.8724007,132.565763 0.032574917,105.286081 C-0.580700343,78.0063997 7.46544503,54.6732943 24.171011,35.2867648 C40.875275,15.9002354 62.7910765,4.59761139 89.9184157,1.37889277 L106.929968,0 L96.1253864,13.1033877 C87.542137,23.3715166 81.7947972,34.7125517 78.8833673,47.126493 C75.9719374,59.5404342 76.0487596,72.1835399 79.1138339,85.05581 C84.1710762,104.980095 94.3623829,120.957152 109.687754,132.986983 C125.013125,145.016813 142.94394,151.185373 163.480197,151.492661 L190.145953,151.492661 L179.802304,163.217156 C169.534175,175.017822 157.503693,184.098463 143.710859,190.459078 C129.918025,196.819693 115.2821,200 99.8030849,200 L99.8030849,200 Z M74.9752025,18.8494254 C56.1251262,24.519943 41.1448037,35.0947094 30.0342351,50.5737248 C18.9223644,66.0527403 13.5962445,83.9835548 14.0558755,104.366168 C15.8957013,127.815158 24.7849374,147.125516 40.7235837,162.297243 C56.6622302,177.46897 76.3553972,185.361471 99.8030849,185.974746 C110.530845,185.822404 120.760562,184.060051 130.492238,180.687689 C140.223914,177.316628 149.15091,172.259386 157.273227,165.515962 C134.744801,164.137069 115.166216,156.512794 98.5374724,142.643138 C81.9100306,128.773482 70.7610509,110.727434 65.0905333,88.5049951 C62.1791034,76.3983425 61.6048902,64.367861 63.3678939,52.4135506 C65.1295954,40.4592403 68.9986983,29.2711986 74.9752025,18.8494254 Z"
                id="形状"></path>
        </g>
    </g>
</svg>