<svg t="1739523288989" class="icon" viewBox="0 0 1024 1024" version="1.1" xmlns="http://www.w3.org/2000/svg"
    p-id="13207" width="200" height="200">
    <path
        d="M904.5248 554.7264l-39.8592 9.1904q-37.376 8.6016-75.776 8.6016-64.3584 0-124.1856-23.68-64.9728-25.728-114.4064-75.136-49.408-49.408-75.136-114.4064-23.68-59.8528-23.68-124.2112 0-38.3488 8.6016-75.7504l9.1904-39.8592-39.8848 9.1904q-62.336 14.336-116.7872 47.9488-57.7792 35.6352-100.0704 88.7552-42.24 53.12-64 117.4016Q128 443.392 128 507.392q0 74.1376 27.2896 143.0528 29.6192 74.8288 86.528 131.7632 56.9344 56.9088 131.7632 86.528Q442.496 896 516.608 896q64 0 124.5696-20.5056 64.3072-21.76 117.4272-64.0512 53.12-42.24 88.7552-100.0448 33.6128-54.4512 47.9488-116.7872l9.216-39.8848z m-69.9904 66.304q-22.656 2.688-45.6192 2.688-74.1376 0-143.0528-27.2896-74.8544-29.6192-131.7632-86.528-56.9088-56.9088-86.528-131.7632-27.2896-68.9152-27.2896-143.0528 0-22.9632 2.6624-45.6192-89.4464 31.232-150.3488 107.776Q179.2 389.4784 179.2 507.392q0 64.3584 23.68 124.2112 25.728 64.9728 75.1616 114.3808 49.408 49.408 114.3808 75.1616 59.8528 23.68 124.2112 23.68 117.888 0 210.1248-73.3952 76.544-60.928 107.776-150.3488z"
        fill="currentColor" p-id="13208"></path>
</svg>