<svg width="171.457144px" height="167.243184px" viewBox="0 0 171.457144 167.243184" version="1.1"
    xmlns="http://www.w3.org/2000/svg" xmlns:xlink="http://www.w3.org/1999/xlink">
    <g id="页面-1" stroke="none" stroke-width="1" fill="none" fill-rule="evenodd">
        <g id="编组" fill="currentColor" fill-rule="nonzero">
            <path
                d="M171.457144,85.7142861 C171.457144,104.390477 166.004763,121.185715 155.100001,136.1 C144.195239,151.014286 130.114287,161.338096 112.857144,167.071429 C110.84762,167.442857 109.376191,167.180953 108.442858,166.285715 C107.509524,165.390477 107.042858,164.276191 107.042858,162.942857 L107.042858,139.4 C107.042858,132.180953 105.109524,126.9 101.242858,123.557143 C105.480953,123.109524 109.295239,122.438095 112.685715,121.542857 C116.076191,120.647619 119.571429,119.195238 123.171429,117.185714 C126.771429,115.176191 129.785715,112.7 132.214287,109.757143 C134.642858,106.814286 136.614287,102.909524 138.128572,98.0428572 C139.642858,93.1761907 140.404763,87.5761907 140.414287,81.2428572 C140.414287,72.2428572 137.476191,64.5809525 131.600001,58.257143 C134.352382,51.4857145 134.057144,43.8952383 130.714287,35.4857145 C128.628572,34.8190478 125.614286,35.2285716 121.671429,36.7142859 C117.728572,38.2000003 114.304763,39.8380955 111.400001,41.6285717 L107.157144,44.3000002 C100.233334,42.3666669 93.0904769,41.4000002 85.7285721,41.4000002 C78.3666673,41.4000002 71.2238101,42.3666669 64.3000006,44.3000002 C63.1095244,43.4809525 61.528572,42.4761906 59.5571434,41.2857145 C57.5857147,40.0952383 54.4809528,38.6619049 50.2428576,36.9857145 C46.0047624,35.309524 42.8047624,34.809524 40.6428576,35.4857145 C37.3666671,43.8952383 37.1047624,51.4857145 39.8571434,58.257143 C33.9809529,64.5809525 31.0428576,72.2428572 31.0428576,81.2428572 C31.0428576,87.5666667 31.8047624,93.1476191 33.3285719,97.9857145 C34.8523814,102.82381 36.8047623,106.728572 39.1857146,109.7 C41.566667,112.671429 44.5619051,115.161905 48.1714289,117.171429 C51.7809527,119.180953 55.2761908,120.633333 58.6571432,121.528571 C62.0380955,122.42381 65.8523813,123.095238 70.1000004,123.542857 C67.1285719,126.219048 65.3047624,130.052381 64.6285719,135.042857 C63.0666671,135.785714 61.3904766,136.342857 59.6000004,136.714286 C57.8095242,137.085714 55.6904766,137.271429 53.2428576,137.271429 C50.7952386,137.271429 48.3571434,136.471429 45.9285719,134.871429 C43.5,133.271429 41.4333337,130.947619 39.7285719,127.9 C38.319048,125.519048 36.5142861,123.585714 34.3142861,122.1 C32.1142861,120.614286 30.271429,119.72381 28.7857146,119.428571 L26.5571432,119.1 C24.9952383,119.1 23.9142859,119.266667 23.3142859,119.6 C22.7142859,119.933333 22.5285717,120.361905 22.7571432,120.885714 C22.9857146,121.409524 23.319048,121.928571 23.7571432,122.442857 C24.1952383,122.957143 24.6809526,123.404762 25.2142859,123.785714 L26,124.342857 C27.6380954,125.085714 29.257143,126.5 30.857143,128.585714 C32.457143,130.671429 33.6285715,132.566667 34.3714287,134.271429 L35.4857145,136.842857 C36.457143,139.671429 38.0952382,141.957143 40.4000002,143.7 C42.7047622,145.442857 45.1952383,146.557143 47.8714287,147.042857 C50.5476191,147.528571 53.1333333,147.790476 55.6285715,147.828571 C58.1238096,147.866666 60.1904763,147.738095 61.8285715,147.442857 L64.4,147 C64.4,149.828571 64.4190476,153.138095 64.4571428,156.928571 C64.495238,160.719047 64.5142855,162.728571 64.5142855,162.957143 C64.5142855,164.3 64.0285713,165.414286 63.0571428,166.3 C62.0857143,167.185714 60.6,167.447619 58.6,167.085714 C41.3428572,161.352381 27.2619048,151.028571 16.3571428,136.114286 C5.45238079,121.2 5.32907052e-15,104.404762 5.32907052e-15,85.7285715 C5.32907052e-15,70.1761905 3.83333333,55.8333333 11.5,42.7 C19.1666667,29.5666667 29.5666667,19.1666667 42.7,11.5 C55.8333333,3.83333333 70.1761905,-5.32907052e-15 85.7285715,-5.32907052e-15 C101.280952,-5.32907052e-15 115.62381,3.83333333 128.757143,11.5 C141.890476,19.1666667 152.290476,29.5666667 159.957143,42.7 C167.62381,55.8333333 171.457144,70.1761905 171.457144,85.7285715 L171.457144,85.7142861 Z"
                id="路径"></path>
        </g>
    </g>
</svg>