<svg t="1739523643027" class="icon" viewBox="0 0 1024 1024" version="1.1" xmlns="http://www.w3.org/2000/svg" p-id="3108"
    width="200" height="200">
    <path
        d="M725.333333 512a213.333333 213.333333 0 1 1-213.333333-213.333333 213.333333 213.333333 0 0 1 213.333333 213.333333z m-234.666666-298.666667h42.666666a21.333333 21.333333 0 0 0 21.333334-21.333333v-85.333333a21.333333 21.333333 0 0 0-21.333334-21.333334h-42.666666a21.333333 21.333333 0 0 0-21.333334 21.333334v85.333333a21.333333 21.333333 0 0 0 21.333334 21.333333z m42.666666 597.333334h-42.666666a21.333333 21.333333 0 0 0-21.333334 21.333333v85.333333a21.333333 21.333333 0 0 0 21.333334 21.333334h42.666666a21.333333 21.333333 0 0 0 21.333334-21.333334v-85.333333a21.333333 21.333333 0 0 0-21.333334-21.333333z m384-341.333334h-85.333333a21.333333 21.333333 0 0 0-21.333333 21.333334v42.666666a21.333333 21.333333 0 0 0 21.333333 21.333334h85.333333a21.333333 21.333333 0 0 0 21.333334-21.333334v-42.666666a21.333333 21.333333 0 0 0-21.333334-21.333334zM213.333333 533.333333v-42.666666a21.333333 21.333333 0 0 0-21.333333-21.333334h-85.333333a21.333333 21.333333 0 0 0-21.333334 21.333334v42.666666a21.333333 21.333333 0 0 0 21.333334 21.333334h85.333333a21.333333 21.333333 0 0 0 21.333333-21.333334z m524.8-217.6a21.333333 21.333333 0 0 0 30.293334 0L828.586667 256a21.333333 21.333333 0 0 0 0-30.293333l-29.866667-29.866667a21.333333 21.333333 0 0 0-30.293333 0L708.266667 256a21.333333 21.333333 0 0 0 0 30.293333zM285.866667 708.266667a21.333333 21.333333 0 0 0-30.293334 0L195.413333 768a21.333333 21.333333 0 0 0 0 30.293333l29.866667 29.866667a21.333333 21.333333 0 0 0 30.293333 0L315.733333 768a21.333333 21.333333 0 0 0 0-30.293333z m482.133333 0a21.333333 21.333333 0 0 0-30.293333 0l-29.866667 29.866666a21.333333 21.333333 0 0 0 0 30.293334L768 828.586667a21.333333 21.333333 0 0 0 30.293333 0l29.866667-29.866667a21.333333 21.333333 0 0 0 0-30.293333zM256 315.733333a21.333333 21.333333 0 0 0 30.293333 0l29.866667-29.866666A21.333333 21.333333 0 0 0 315.733333 256L256 195.413333a21.333333 21.333333 0 0 0-30.293333 0l-29.866667 29.866667a21.333333 21.333333 0 0 0 0 30.293333z"
        p-id="3109" fill="currentColor"></path>
</svg>