<svg t="1732711185686" class="icon" viewBox="0 0 1024 1024" version="1.1" xmlns="http://www.w3.org/2000/svg"
    p-id="13324" width="200" height="200">
    <path
        d="M659.748571 468.626286c7.826286-7.972571 15.725714-16.237714 23.917715-24.429715l76.068571-76.214857c8.557714-8.484571 16.749714-17.334857 25.673143-25.307428a66.998857 66.998857 0 0 1 17.554286-10.971429c11.556571-5.046857 22.235429-2.633143 31.305143 6.290286 7.533714 7.314286 14.848 14.628571 22.235428 22.089143l114.395429 114.468571c25.307429 25.453714 25.307429 59.611429-0.146286 85.065143l-416.182857 416.621714c-22.820571 22.893714-55.661714 23.698286-77.165714 7.021715a89.380571 89.380571 0 0 1-8.045715-7.314286L53.174857 559.542857c-20.918857-20.992-24.941714-49.005714-10.24-72.557714a67.364571 67.364571 0 0 1 9.508572-11.702857L470.381714 57.270857c24.502857-24.502857 59.099429-24.429714 83.675429 0.146286 43.52 43.593143 87.04 87.259429 130.56 131.072 4.388571 4.534857 8.265143 9.508571 11.337143 15.067428a26.404571 26.404571 0 0 1-1.243429 29.184c-4.388571 6.582857-9.362286 12.8-14.848 18.505143-26.331429 26.624-52.882286 53.101714-79.433143 79.506286-13.165714 13.019429-26.477714 25.819429-39.789714 38.765714L659.748571 468.626286zM553.325714 726.674286a35.547429 35.547429 0 0 1-23.771428-9.362286L317.805714 505.636571c-11.117714-11.117714-14.848-24.137143-9.289143-39.058285a34.889143 34.889143 0 0 1 59.099429-10.532572l208.896 209.042286c16.091429 16.091429 15.725714 39.058286-0.731429 53.174857a35.84 35.84 0 0 1-22.454857 8.338286z"
        fill="#919EAB" p-id="13325"></path>
</svg>