<?xml version="1.0" standalone="no"?><!DOCTYPE svg PUBLIC "-//W3C//DTD SVG 1.1//EN" "http://www.w3.org/Graphics/SVG/1.1/DTD/svg11.dtd"><svg t="1688523740999" class="icon" viewBox="0 0 1024 1024" version="1.1" xmlns="http://www.w3.org/2000/svg" p-id="1757" xmlns:xlink="http://www.w3.org/1999/xlink" width="64" height="64"><path d="M511.351467 34.133333C774.9632 34.133333 989.866667 247.773867 989.866667 511.351467 989.866667 774.9632 774.9632 989.866667 511.351467 989.866667 247.808 989.866667 34.133333 774.9632 34.133333 511.351467 34.133333 247.808 247.773867 34.133333 511.351467 34.133333z m250.504533 290.133334l-297.949867 339.968L308.224 481.28a6.826667 6.826667 0 0 0-10.6496 0.3072l-42.871467 56.797867a6.826667 6.826667 0 0 0 0.6144 8.9088l165.410134 166.263466-0.1024 0.136534 31.402666 31.368533 3.003734 2.4576a23.893333 23.893333 0 0 0 30.8224-2.491733l25.2928-25.326934-0.648534-0.750933 317.713067-328.2944L761.856 324.266667z" fill="#2E8F79" p-id="1758"></path></svg>