<svg width="177.004108px" height="179.491452px" viewBox="0 0 177.004108 179.491452" version="1.1"
    xmlns="http://www.w3.org/2000/svg" xmlns:xlink="http://www.w3.org/1999/xlink">
    <g id="页面-1" stroke="none" stroke-width="1" fill="none" fill-rule="evenodd">
        <g id="编组" fill-rule="nonzero">
            <path
                d="M85.0904256,45.9568412 C85.0904256,62.3756395 93.8497494,77.547235 108.068846,85.7566343 C122.287942,93.9660336 139.806591,93.9660336 154.025688,85.7566343 C168.244784,77.547235 177.004108,62.3756395 177.004108,45.9568412 C177.004108,20.5755787 156.428529,0 131.047267,0 C105.666004,0 85.0904256,20.5755787 85.0904256,45.9568412 L85.0904256,45.9568412 Z"
                id="路径" fill="#D81E06"></path>
            <path
                d="M129.782501,104.383214 C98.0559771,104.383214 72.3370891,78.664326 72.3370891,46.9378016 C72.3370891,37.378765 75.770024,28.4043842 75.770024,28.4043842 C77.4447305,24.026284 77.2674588,18.8964836 75.3762764,17.0053012 C73.4850939,15.1141187 68.1013178,13.565548 63.4138443,13.565548 L8.52267891,13.565548 C3.83520547,13.565548 0,17.4007535 0,22.0882268 L0,76.9802445 C0,81.667718 2.71191641,88.2148398 6.02638633,91.5293096 L91.5020369,177.00496 C94.817359,180.320282 100.240339,180.320282 103.556514,177.00496 L163.443674,117.120357 C166.761553,113.803331 166.761553,108.382907 163.443674,105.065028 L162.306748,103.928955 C158.988869,100.611929 152.700837,99.2730156 148.32018,100.947722 C148.315919,100.951131 139.343242,104.383214 129.782501,104.383214 Z M34.0088977,60.343123 C25.5970137,60.343123 18.7780184,53.5249799 18.7780184,45.1122437 C18.7780184,36.7003598 25.5970137,29.8822166 34.0088977,29.8822166 C42.4207816,29.8822166 49.2397771,36.7003598 49.2397771,45.1122437 C49.2389248,53.5241277 42.4199295,60.343123 34.0088977,60.343123 L34.0088977,60.343123 Z"
                id="形状" fill="#1C293A"></path>
        </g>
        <path
            d="M152.026855,70.5270833 C149.731007,71.4270833 147.122658,70.8958333 145.36223,69.16875 L131.018388,54.8416667 L116.680797,69.16875 C114.237032,71.6104167 110.27659,71.6104167 107.832824,69.16875 C105.389059,66.7291667 105.389059,62.76875 107.832824,60.3291667 L122.174582,46 L107.832824,31.6729167 C105.389059,29.23125 105.389059,25.2729167 107.832824,22.83125 C110.27659,20.3895833 114.237032,20.3895833 116.680797,22.83125 L131.018388,37.1645833 L145.36223,22.83125 C147.816412,20.4645833 151.71852,20.4979167 154.131036,22.9104167 C156.543551,25.3229167 156.576884,29.2208333 154.203953,31.6729167 L139.866361,46 L154.203953,60.3291667 C155.433127,61.5645833 156.083131,63.2625 155.991464,65.0041667 C155.874797,67.4645833 154.322703,69.6270833 152.026855,70.5270833"
            id="路径" fill="#FFFFFF" fill-rule="nonzero"></path>
    </g>
</svg>