<?xml version="1.0" standalone="no"?><!DOCTYPE svg PUBLIC "-//W3C//DTD SVG 1.1//EN" "http://www.w3.org/Graphics/SVG/1.1/DTD/svg11.dtd"><svg t="1689146621617" class="icon" viewBox="0 0 1024 1024" version="1.1" xmlns="http://www.w3.org/2000/svg" p-id="943" xmlns:xlink="http://www.w3.org/1999/xlink" width="64" height="64"><path d="M755.5 959.5h-485c-9.9 0-18.1-7.7-18.6-17.6L214.6 289c-0.6-10.3 7.3-19.1 17.6-19.7 10.5-0.4 19.1 7.3 19.7 17.6l36.3 635.3h449.7l36.3-635.3c0.6-10.3 9.6-17.9 19.7-17.6 10.3 0.6 18.1 9.4 17.6 19.7l-37.3 652.8c-0.7 9.9-8.8 17.7-18.7 17.7z" fill="#231815" p-id="944"></path><path d="M867.4 288H158.6c-10.3 0-18.7-8.3-18.7-18.7v-74.6c0-9.1 6.6-16.9 15.6-18.4L367.2 141l15.3-62.7c2-8.4 9.5-14.2 18.1-14.2h224.2c8.6 0 16 5.8 18.1 14.1l15.7 62.7 211.8 35.3c9 1.5 15.6 9.3 15.6 18.4v74.6c0.1 10.4-8.3 18.8-18.6 18.8z m-690.2-37.3h671.5v-40.2l-208.3-34.7c-7.3-1.2-13.2-6.7-15-13.9l-15.1-60.5h-195l-14.8 60.4c-1.8 7.2-7.7 12.8-15 14l-208.3 34.7v40.2z" fill="#231815" p-id="945"></path><path d="M548.8 700.7c-110.6 0-213-34.6-297.3-93.5l19.1 333.6h485l16.6-290.4c-67.8 32.2-143.5 50.3-223.4 50.3z" fill="#2E8F79" p-id="946" data-spm-anchor-id="a313x.7781069.0.i3" class="selected"></path><path d="M755.5 959.5h-485c-9.9 0-18.1-7.7-18.6-17.6l-19.1-333.6c-0.4-7.1 3.3-13.9 9.5-17.3 6.2-3.5 13.9-3.1 19.8 1 84.4 59 183.5 90.1 286.6 90.1 75.3 0 147.7-16.3 215.3-48.5 5.9-2.9 13-2.3 18.4 1.3 5.5 3.7 8.6 10 8.2 16.5L774 941.8c-0.5 9.9-8.6 17.7-18.5 17.7z m-467.4-37.3h449.7l13.8-242.4c-64.4 26.3-132.5 39.6-203 39.6-98.2 0-193.1-26.3-276.6-76.5l16.1 279.3z" fill="#231815" p-id="947"></path><path d="M625.7 847.5h-0.8c-10.3-0.4-18.3-9.1-17.9-19.4l18.7-447.7c0.4-10.3 8.6-18.6 19.4-17.9 10.3 0.4 18.3 9.1 17.9 19.4l-18.7 447.7c-0.4 10.1-8.6 17.9-18.6 17.9zM401.9 847.5c-9.9 0-18.2-7.9-18.6-17.9L364.6 382c-0.4-10.3 7.6-19 17.9-19.4 10.4-0.8 19 7.6 19.4 17.9l18.7 447.7c0.4 10.3-7.6 19-17.9 19.4-0.3-0.1-0.6-0.1-0.8-0.1zM513.8 847.5c-10.3 0-18.7-8.3-18.7-18.7V381.2c0-10.3 8.4-18.7 18.7-18.7 10.3 0 18.7 8.3 18.7 18.7v447.7c0 10.3-8.4 18.6-18.7 18.6z" fill="#231815" p-id="948"></path></svg>