<svg t="1716377679958" class="icon" viewBox="0 0 1024 1024" version="1.1" xmlns="http://www.w3.org/2000/svg" p-id="7536"
    width="200" height="200">
    <path
        d="M262.739489 73.229077h234.57446c20.117878 0 36.614538-16.49666 36.614538-36.614539s-16.49666-36.614538-36.614538-36.614538H262.739489c-20.117878 0-36.614538 16.49666-36.614538 36.614538 0 20.520236 16.49666 36.614538 36.614538 36.614539z m460.699411 90.932809H36.614538c-20.117878 0-36.614538 16.49666-36.614538 36.614538s16.49666 36.614538 36.614538 36.614539h26.5556l49.892337 494.899803c4.023576 41.442829 39.028684 72.826719 80.471513 72.826719h375.801965c41.442829 0 76.04558-31.38389 80.471513-72.826719l49.892338-494.899803h23.739096c20.117878 0 36.614538-16.49666 36.614538-36.614539-0.402358-20.520236-16.49666-36.614538-36.614538-36.614538z m-306.998821 423.682515c0 20.117878-16.49666 36.614538-36.614539 36.614538s-36.614538-16.49666-36.614538-36.614538V399.943418c0-20.117878 16.49666-36.614538 36.614538-36.614538s36.614538 16.49666 36.614539 36.614538v187.900983z"
        fill="#1c293a" p-id="7537" data-spm-anchor-id="a313x.search_index.0.i6.44de3a81lGptBA" class=""></path>
    <path
        d="M747.580354 402.357564c-151.688802 0-274.407859 123.121415-274.407859 274.407858 0 151.688802 123.121415 274.407859 274.407859 274.407859s274.407859-123.121415 274.407858-274.407859-123.121415-274.407859-274.407858-274.407858z m17.301375 440.98389c-10.461297 6.437721-23.739096 6.437721-34.602751 0-10.863654-6.437721-17.301375-17.703733-17.301375-30.176817 0-12.473084 6.437721-24.141454 17.301375-30.176818 10.461297-6.437721 23.739096-6.437721 34.602751 0 10.863654 6.437721 17.703733 17.703733 17.301375 30.176818 0 12.473084-6.437721 23.739096-17.301375 30.176817z m17.301375-153.70059c0 18.910806-15.691945 34.60275-34.60275 34.602751-18.910806 0-34.60275-15.691945-34.602751-34.602751v-149.274656c0-18.910806 15.691945-34.60275 34.602751-34.60275 18.910806 0 34.60275 15.691945 34.60275 34.60275v149.274656z"
        fill="#D81E06" p-id="7538" data-spm-anchor-id="a313x.search_index.0.i7.44de3a81lGptBA" class="selected"></path>
</svg>