<svg width="177.004108px" height="179.491452px" viewBox="0 0 177.004108 179.491452" version="1.1"
    xmlns="http://www.w3.org/2000/svg" xmlns:xlink="http://www.w3.org/1999/xlink">
    <g id="页面-1" stroke="none" stroke-width="1" fill="none" fill-rule="evenodd">
        <g id="编组" fill-rule="nonzero">
            <path
                d="M85.0904256,45.9568412 C85.0904256,62.3756395 93.8497494,77.547235 108.068846,85.7566343 C122.287942,93.9660336 139.806591,93.9660336 154.025688,85.7566343 C168.244784,77.547235 177.004108,62.3756395 177.004108,45.9568412 C177.004108,20.5755787 156.428529,0 131.047267,0 C105.666004,0 85.0904256,20.5755787 85.0904256,45.9568412 L85.0904256,45.9568412 Z"
                id="路径" fill="#11AA66"></path>
            <path
                d="M129.782501,104.383214 C98.0559771,104.383214 72.3370891,78.664326 72.3370891,46.9378016 C72.3370891,37.378765 75.770024,28.4043842 75.770024,28.4043842 C77.4447305,24.026284 77.2674588,18.8964836 75.3762764,17.0053012 C73.4850939,15.1141187 68.1013178,13.565548 63.4138443,13.565548 L8.52267891,13.565548 C3.83520547,13.565548 0,17.4007535 0,22.0882268 L0,76.9802445 C0,81.667718 2.71191641,88.2148398 6.02638633,91.5293096 L91.5020369,177.00496 C94.817359,180.320282 100.240339,180.320282 103.556514,177.00496 L163.443674,117.120357 C166.761553,113.803331 166.761553,108.382907 163.443674,105.065028 L162.306748,103.928955 C158.988869,100.611929 152.700837,99.2730156 148.32018,100.947722 C148.315919,100.951131 139.343242,104.383214 129.782501,104.383214 Z M34.0088977,60.343123 C25.5970137,60.343123 18.7780184,53.5249799 18.7780184,45.1122437 C18.7780184,36.7003598 25.5970137,29.8822166 34.0088977,29.8822166 C42.4207816,29.8822166 49.2397771,36.7003598 49.2397771,45.1122437 C49.2389248,53.5241277 42.4199295,60.343123 34.0088977,60.343123 L34.0088977,60.343123 Z"
                id="形状" fill="#1C293A"></path>
        </g>
        <path
            d="M130.713544,70.9977273 C129.604498,72.275 128.04046,73 126.399236,73 C124.760043,73 123.196005,72.275 122.08696,70.9977273 L101.744309,48.2522727 C99.4185638,45.5045455 99.4185638,41.3477273 101.744309,38.6 C102.810698,37.4136364 104.273175,36.7136364 105.820964,36.6545455 C107.537343,36.5659091 109.200911,37.2772727 110.376986,38.6 L126.399236,56.5227273 L154.629107,24.9568182 C155.752371,23.7068182 157.312347,23 158.943415,23 C160.572452,23 162.132428,23.7068182 163.255691,24.9568182 C165.581436,27.7022727 165.581436,31.8568182 163.255691,34.6022727 L130.713544,70.9977273 Z"
            id="路径" fill="#FFFFFF" fill-rule="nonzero"></path>
    </g>
</svg>