<svg width="199.726752px" height="185.594787px" viewBox="0 0 199.726752 185.594787" version="1.1"
    xmlns="http://www.w3.org/2000/svg" xmlns:xlink="http://www.w3.org/1999/xlink">
    <g id="页面-1" stroke="none" stroke-width="1" fill="none" fill-rule="evenodd">
        <g id="编组" fill-rule="nonzero">
            <path
                d="M51.2662418,14.2886004 L97.0368681,14.2886004 C100.962308,14.2886004 104.181168,11.0697399 104.181168,7.1443001 C104.181168,3.21886029 100.962308,0 97.0368681,0 L51.2662418,0 C47.3408021,0 44.1219417,3.21886049 44.1219417,7.1443001 C44.1219417,11.1482486 47.3408021,14.2886004 51.2662418,14.2886004 Z M141.15881,32.0315875 L7.1443001,32.0315875 C3.21886049,32.0315875 0,35.250448 0,39.1758876 C0,43.1013272 3.21886049,46.3201877 7.1443001,46.3201879 L12.3258806,46.3201879 L22.0609707,142.886003 C22.8460587,150.972409 29.6763237,157.096095 37.7627294,157.096095 L111.089942,157.096095 C119.176348,157.096095 125.928104,150.972409 126.791701,142.886003 L136.526791,46.3201879 L141.15881,46.3201879 C145.084249,46.3201879 148.30311,43.1013274 148.30311,39.1758876 C148.224601,35.1719391 145.084249,32.0315875 141.15881,32.0315875 Z M81.2566008,114.701347 C81.2566008,118.626786 78.0377403,121.845647 74.1123005,121.845647 C70.1868607,121.845647 66.9680004,118.626786 66.9680004,114.701347 L66.9680004,78.0377401 C66.9680004,74.1123005 70.1868609,70.89344 74.1123005,70.89344 C78.0377401,70.89344 81.2566008,74.1123005 81.2566008,78.0377401 L81.2566008,114.701347 Z"
                id="形状" fill="#1C293A"></path>
            <path
                d="M173.818468,103.474589 C153.955743,113.916259 141.394336,145.241267 141.394336,145.241267 L133.621966,129.853544 L117.684681,139.82416 C124.436437,142.336442 134.171527,150.26583 142.41495,160.707499 C148.224601,149.794777 166.124606,127.419771 174.839082,125.378542 C171.384695,117.449154 173.347415,110.932924 173.818468,103.474589 L173.818468,103.474589 Z"
                id="路径" fill="#FFFFFF"></path>
            <path
                d="M146.183372,78.508793 C116.585557,78.508793 92.6403756,102.532484 92.6403756,132.05179 C92.6403756,161.649605 116.664066,185.594787 146.183372,185.594787 C175.781188,185.594787 199.726561,161.571096 199.726561,132.05179 C199.804878,102.532484 175.781187,78.508793 146.183372,78.508793 L146.183372,78.508793 Z M142.336442,160.707499 C134.093018,150.26583 124.436437,142.336442 117.606172,139.82416 L133.543457,129.853544 L141.315827,145.241267 C141.315827,145.241267 153.877234,113.916259 173.739959,103.474589 C173.268906,110.932924 171.306186,117.370645 174.682064,125.378542 C166.046097,127.419771 148.146092,149.716268 142.336442,160.707499 Z"
                id="形状" fill="#4caf50"></path>
        </g>
    </g>
</svg>