<svg t="1731419317383" class="icon" viewBox="0 0 1024 1024" version="1.1" xmlns="http://www.w3.org/2000/svg"
    p-id="18685" width="200" height="200">
    <path
        d="M515.26784 610.21696c-94.2976 0-188.5952 0.02944-282.8928-0.01536-36.80768-0.01792-47.26016-10.54976-47.3024-47.46752-0.04096-33.5424-0.11008-67.0848 0.02432-100.62336 0.10624-26.87872 12.0384-39.27424 38.8032-40.67328 3.78624-0.19712 7.59424-0.05248 11.38944-0.05248 187.32928 0 374.65856-0.01408 561.98784 0.06272 6.90944 0 13.9712 0.16 20.70016 1.5296 18.50496 3.76832 28.56064 15.01312 28.544 34.4448-0.032 36.70528 0.15104 73.4144-0.0256 110.11968-0.14464 30.41664-12.16128 42.56384-42.64064 42.61632-96.19584 0.15744-192.39168 0.05504-288.58752 0.05888z m247.17568-140.4352h-101.43104v92.4032h101.43104v-92.4032zM515.55584 846.5408c-95.57376 0-191.1488 0.03968-286.72384-0.02304-32.77568-0.02304-43.58784-10.60352-43.73376-42.87616-0.15744-35.44192-0.19712-70.89024 0.02048-106.33216 0.1536-25.11872 11.45088-36.91776 36.54528-38.77376 5.04064-0.3712 10.12224-0.19328 15.18464-0.19328 186.08512-0.00768 372.17024-0.00768 558.25664 0.00768 5.69216 0.00384 11.42528-0.18176 17.07136 0.38272 22.88256 2.2912 34.04416 14.05568 34.26176 37.10976 0.34048 36.07552 0.2368 72.15616 0.0576 108.23168-0.15232 31.296-11.21408 42.40384-42.31808 42.43328-96.20608 0.08832-192.41472 0.03328-288.62208 0.03328z m145.36192-141.7472v93.05344h101.27744V704.7936h-101.27744zM513.89056 373.26336c-93.74848 0-187.49568 0.04864-281.24416-0.02176-37.632-0.02944-47.54432-9.8944-47.57504-46.86336-0.02944-33.57312-0.24064-67.14496 0.0704-100.71296 0.26368-28.26368 12.40064-40.50432 40.83968-40.52224 193.1968-0.14848 386.39488-0.14848 579.59168 0 28.39936 0.02304 40.59648 12.28544 40.8832 40.52992 0.34048 33.568 0.10752 67.14368 0.07936 100.7168-0.032 36.92032-9.98912 46.8224-47.60064 46.85184-95.0144 0.0704-190.03136 0.02176-285.04448 0.02176z m248.01664-47.71712v-91.30112h-100.43648v91.30112h100.43648z"
        p-id="18686" fill="#1c293a"></path>
</svg>