<svg t="1708518105042" class="icon" viewBox="0 0 1024 1024" version="1.1" xmlns="http://www.w3.org/2000/svg" p-id="6503"
    width="200" height="200">
    <path
        d="M213.333333 426.666667h597.333334V256H213.333333v170.666667zM128 192a21.333333 21.333333 0 0 1 21.333333-21.333333h725.333334a21.333333 21.333333 0 0 1 21.333333 21.333333v298.666667a21.333333 21.333333 0 0 1-21.333333 21.333333h-725.333334a21.333333 21.333333 0 0 1-21.333333-21.333333v-298.666667zM213.333333 810.666667h597.333334v-170.666667H213.333333v170.666667z m-85.333333-234.666667a21.333333 21.333333 0 0 1 21.333333-21.333333h725.333334a21.333333 21.333333 0 0 1 21.333333 21.333333v298.666667a21.333333 21.333333 0 0 1-21.333333 21.333333h-725.333334a21.333333 21.333333 0 0 1-21.333333-21.333333v-298.666667z m170.666667-256a21.333333 21.333333 0 0 1 42.666666 0v42.666667a21.333333 21.333333 0 0 1-42.666666 0v-42.666667z m21.333333 362.666667a21.333333 21.333333 0 0 0-21.333333 21.333333v42.666667a21.333333 21.333333 0 0 0 42.666666 0v-42.666667a21.333333 21.333333 0 0 0-21.333333-21.333333zM384 320a21.333333 21.333333 0 0 1 42.666667 0v42.666667a21.333333 21.333333 0 0 1-42.666667 0v-42.666667z m21.333333 362.666667a21.333333 21.333333 0 0 0-21.333333 21.333333v42.666667a21.333333 21.333333 0 0 0 42.666667 0v-42.666667a21.333333 21.333333 0 0 0-21.333334-21.333333z m298.666667-384a21.333333 21.333333 0 0 1 21.333333 21.333333v42.666667a21.333333 21.333333 0 0 1-21.333333 21.333333h-85.333333a21.333333 21.333333 0 0 1-21.333334-21.333333v-42.666667a21.333333 21.333333 0 0 1 21.333334-21.333333h85.333333z m21.333333 405.333333a21.333333 21.333333 0 0 0-21.333333-21.333333h-85.333333a21.333333 21.333333 0 0 0-21.333334 21.333333v42.666667a21.333333 21.333333 0 0 0 21.333334 21.333333h85.333333a21.333333 21.333333 0 0 0 21.333333-21.333333v-42.666667z"
        p-id="6504" fill="#2E8F79"></path>
</svg>