<svg t="1734951146568" class="icon" viewBox="0 0 1024 1024" version="1.1" xmlns="http://www.w3.org/2000/svg"
    p-id="10977" width="200" height="200">
    <path d="M0 0h1024v1024H0z" fill="#1c293a" fill-opacity="0" p-id="10978"></path>
    <path
        d="M811.572 648.996l103.703 47.154c10.055 4.573 14.5 16.43 9.928 26.485a20 20 0 0 1-9.928 9.928l-386.718 175.84a40 40 0 0 1-33.114 0l-386.718-175.84c-10.055-4.572-14.5-16.43-9.928-26.485a20 20 0 0 1 9.928-9.928l103.703-47.154 256.212 116.5a104.751 104.751 0 0 0 86.72 0l256.212-116.5z m0.163-201.998l103.441 47.015c10.137 4.607 14.62 16.56 10.012 26.695a20.16 20.16 0 0 1-10.012 10.011l-386.49 175.663a40.326 40.326 0 0 1-33.372 0l-386.49-175.663c-10.137-4.607-14.62-16.56-10.012-26.695a20.16 20.16 0 0 1 10.012-10.01l103.441-47.016 256.352 116.514a104.848 104.848 0 0 0 86.766 0l256.352-116.514zM528.685 115.62l386.491 175.99c10.137 4.616 14.62 16.59 10.012 26.745a20.18 20.18 0 0 1-10.012 10.03l-386.49 175.99a40.258 40.258 0 0 1-33.372 0l-386.49-175.99c-10.137-4.616-14.62-16.59-10.012-26.745a20.18 20.18 0 0 1 10.012-10.03l386.49-175.99a40.258 40.258 0 0 1 33.372 0z"
        fill="#1c293a" p-id="10979"></path>
</svg>