<svg t="1732707281831" class="icon" viewBox="0 0 1024 1024" version="1.1" xmlns="http://www.w3.org/2000/svg" p-id="1877"
    width="200" height="200">
    <path
        d="M888.0128 679.9872h-54.016v-139.9808h-288V448h238.0288c8.7552 0 15.9744-7.168 15.9744-16.0256V168.0384a16.0256 16.0256 0 0 0-16.0256-15.9744H240.0256a16.0256 16.0256 0 0 0-16.0256 15.9744v263.9872c0 8.8064 7.168 16.0256 16.0256 16.0256h237.9776v92.0064H189.952v139.9808H135.9872a8.0384 8.0384 0 0 0-7.9872 7.9872v176.0256c0 4.4032 3.584 7.9872 7.9872 7.9872h176.0256c4.4032 0 7.9872-3.584 7.9872-7.9872v-176.0256a8.0384 8.0384 0 0 0-7.9872-7.9872H257.9968v-71.9872h220.0064v71.9872H423.936a8.0384 8.0384 0 0 0-7.9872 7.9872v176.0256c0 4.4032 3.584 7.9872 7.9872 7.9872h176.0256c4.4032 0 7.9872-3.584 7.9872-7.9872v-176.0256a8.0384 8.0384 0 0 0-7.9872-7.9872h-54.016v-71.9872h220.0064v71.9872h-54.016a8.0384 8.0384 0 0 0-7.9872 7.9872v176.0256c0 4.4032 3.584 7.9872 7.9872 7.9872h176.0256c4.4032 0 7.9872-3.584 7.9872-7.9872v-176.0256a8.0384 8.0384 0 0 0-7.9872-7.9872zM288 216.064V384h448V216.0128h-448zM400.0256 339.968a40.0384 40.0384 0 0 1 0-80.0256 40.0384 40.0384 0 0 1 0 80.0256z m-146.8416 467.968A2.7136 2.7136 0 0 0 256 805.2736v-58.6752a2.7136 2.7136 0 0 0-2.816-2.7136H194.4064c-1.2288 0-2.4064 1.2288-2.4064 2.7136v58.6752c0 1.536 1.1776 2.7136 2.4064 2.7136h58.7776z m290.816-2.7136c0 1.536-1.1776 2.7136-2.816 2.7136H482.4064c-1.2288 0-2.4064-1.1776-2.4064-2.7136v-58.6752c0-1.536 1.1776-2.7136 2.4064-2.7136h58.7776c1.6384 0 2.816 1.2288 2.816 2.7136v58.6752z m288 0c0 1.536-1.1776 2.7136-2.816 2.7136h-58.7776c-1.2288 0-2.4064-1.1776-2.4064-2.7136v-58.6752c0-1.536 1.1776-2.7136 2.4064-2.7136h58.7776c1.6384 0 2.816 1.2288 2.816 2.7136v58.6752z"
        p-id="1878" fill="#ffffff"></path>
</svg>