<?xml version="1.0" standalone="no"?><!DOCTYPE svg PUBLIC "-//W3C//DTD SVG 1.1//EN" "http://www.w3.org/Graphics/SVG/1.1/DTD/svg11.dtd"><svg t="1692240417311" class="icon" viewBox="0 0 1024 1024" version="1.1" xmlns="http://www.w3.org/2000/svg" p-id="17235" data-spm-anchor-id="a313x.search_index.0.i11.bb293a814rmzNg" xmlns:xlink="http://www.w3.org/1999/xlink" width="64" height="64"><path d="M670.499819 274.653554a322.489048 322.489048 0 0 0-158.841305-42.571301v-160.214573a482.016987 482.016987 0 0 1 238.490836 63.856951z" fill="#e6e6e6" p-id="17236" data-spm-anchor-id="a313x.search_index.0.i16.bb293a814rmzNg" class=""></path><path d="M237.462716 937.026375a472.632991 472.632991 0 0 1-201.641484-389.092535 484.076889 484.076889 0 0 1 67.290121-244.899419l137.326777 81.709432a320.429146 320.429146 0 0 0-45.775593 162.732231 311.731784 311.731784 0 0 0 134.580242 259.089853z" fill="#dbdbdb" p-id="17237" data-spm-anchor-id="a313x.search_index.0.i14.bb293a814rmzNg" class="selected"></path><path d="M511.887392 1024a476.752794 476.752794 0 0 1-274.653554-87.202503l91.551185-131.147072a315.851587 315.851587 0 0 0 455.924899-99.561914 316.309343 316.309343 0 0 0-114.438981-431.663835l80.336165-138.700045A476.295038 476.295038 0 0 1 511.887392 1024z" fill="#1c293a" p-id="17238" data-spm-anchor-id="a313x.search_index.0.i13.bb293a814rmzNg" class=""></path><path d="M240.895886 306.467591l-137.326777-81.938311A473.319624 473.319624 0 0 1 428.804692 0l27.694233 157.696916a313.791685 313.791685 0 0 0-215.603039 148.770675z" fill="#2e8f79" p-id="17239" data-spm-anchor-id="a313x.search_index.0.i10.bb293a814rmzNg" class=""></path></svg>