<?xml version="1.0" standalone="no"?><!DOCTYPE svg PUBLIC "-//W3C//DTD SVG 1.1//EN" "http://www.w3.org/Graphics/SVG/1.1/DTD/svg11.dtd"><svg t="1689138504085" class="icon" viewBox="0 0 1024 1024" version="1.1" xmlns="http://www.w3.org/2000/svg" p-id="1877" xmlns:xlink="http://www.w3.org/1999/xlink" width="64" height="64"><path d="M526.741237 709.828624l413.659251 0c9.923 0 17.968234-8.04421 17.968234-17.968234l0-575.535035c0-9.782807-8.04421-17.96721-17.968234-17.96721l-863.286692 0c-9.923 0-17.96721 8.04421-17.96721 17.96721l0 575.535035c0 9.783831 8.043187 17.968234 17.96721 17.968234L490.774071 709.828624c0 0.01842 0 0.033769 0 0.052189l0 161.808246-206.716039 0c-15.138792 0-27.081799 12.082176-27.081799 26.975375 0 14.997576 12.119015 26.975375 27.081799 26.975375l449.400267 0c15.139815 0 27.081799-12.082176 27.081799-26.975375 0-14.997576-12.117992-26.975375-27.081799-26.975375L526.741237 871.689059 526.741237 709.880813C526.741237 709.863417 526.741237 709.847044 526.741237 709.828624zM113.100406 592.930217c0-14.894222 12.119015-26.977421 27.01119-26.977421l737.292116 0c14.909571 0 27.01119 11.977799 27.01119 26.977421 0 14.894222-12.120039 26.975375-27.01119 26.975375l-737.292116 0C125.201002 619.905592 113.100406 607.927793 113.100406 592.930217z" fill="#2E8F79" p-id="1878"></path></svg>