<svg t="1732256013842" class="icon" viewBox="0 0 1024 1024" version="1.1" xmlns="http://www.w3.org/2000/svg" p-id="27588" width="200" height="200"><path d="M853.312 96a32 32 0 0 1 32 32v256a32 32 0 0 1-32 32H544v106.624h309.376a32 32 0 0 1 31.488 26.24l0.512 5.76v138.688h53.376a32 32 0 0 1 31.488 26.24l0.512 5.76V896a32 32 0 0 1-32 32H768a32 32 0 0 1-32-32v-170.688a32 32 0 0 1 32-32h53.248V586.624L544 586.56v106.752h53.376a32 32 0 0 1 31.488 26.24l0.512 5.76V896a32 32 0 0 1-32 32H426.688a32 32 0 0 1-32-32v-170.688a32 32 0 0 1 32-32h53.248V586.56l-277.312 0.064v106.688H256a32 32 0 0 1 31.488 26.24l0.512 5.76V896a32 32 0 0 1-32 32H85.312a32 32 0 0 1-32-32v-170.688a32 32 0 0 1 32-32h53.312V554.688a32 32 0 0 1 26.24-31.488l5.76-0.512L480 522.624V416H170.688a32 32 0 0 1-31.488-26.24L138.688 384V128a32 32 0 0 1 32-32zM224 757.312H117.312V864H224v-106.688z m682.688 0H800V864h106.688v-106.688z m-341.376 0H458.624V864h106.624v-106.688z m256-597.312H202.624v192h618.624v-192z m-479.936 64a32 32 0 0 1 5.76 63.488l-5.76 0.512h-42.624a32 32 0 0 1-5.76-63.488l5.76-0.512h42.624z" fill="#707070" p-id="27589"></path></svg>