<?xml version="1.0" standalone="no"?><!DOCTYPE svg PUBLIC "-//W3C//DTD SVG 1.1//EN" "http://www.w3.org/Graphics/SVG/1.1/DTD/svg11.dtd"><svg t="1691737738822" class="icon" viewBox="0 0 1024 1024" version="1.1" xmlns="http://www.w3.org/2000/svg" p-id="1665" xmlns:xlink="http://www.w3.org/1999/xlink" width="64" height="64"><path d="M521.0624 948.736L820.736 649.088a12.8 12.8 0 0 0 0-18.1248l-54.3232-54.272a12.8 12.8 0 0 0-18.0992 0L512 812.928l-236.3392-236.288a12.8 12.8 0 0 0-18.0992 0l-54.3232 54.272a12.8 12.8 0 0 0 0 18.1248L502.9376 948.736a12.8 12.8 0 0 0 18.1248 0z m-245.4016-501.376L512 211.0208l236.3392 236.3392a12.8 12.8 0 0 0 18.0992 0l54.3232-54.2976a12.8 12.8 0 0 0 0-18.1248L521.0624 75.264a12.8 12.8 0 0 0-18.1248 0L203.264 374.9376a12.8 12.8 0 0 0 0 18.1248l54.3232 54.272a12.8 12.8 0 0 0 18.0992 0z" fill="#707070" p-id="1666"></path></svg>