<?xml version="1.0" standalone="no"?><!DOCTYPE svg PUBLIC "-//W3C//DTD SVG 1.1//EN" "http://www.w3.org/Graphics/SVG/1.1/DTD/svg11.dtd"><svg t="1691992651440" class="icon" viewBox="0 0 1024 1024" version="1.1" xmlns="http://www.w3.org/2000/svg" p-id="7161" xmlns:xlink="http://www.w3.org/1999/xlink" width="64" height="64"><path d="M0 0h1024v1024H0z" fill="#9A6700" opacity=".01" p-id="7162"></path><path d="M482.5088 186.538667a34.133333 34.133333 0 0 1 58.9824 0l359.0144 615.458133A34.133333 34.133333 0 0 1 871.0144 853.333333H152.9856a34.133333 34.133333 0 0 1-29.4912-51.336533l359.0144-615.424z m117.930667-34.372267c-39.492267-67.754667-137.386667-67.754667-176.878934 0L64.512 767.5904C24.712533 835.857067 73.966933 921.6 152.9856 921.6h718.0288c79.018667 0 128.273067-85.742933 88.439467-154.0096L600.439467 152.1664zM477.866667 375.466667a34.133333 34.133333 0 1 1 68.266666 0v204.8a34.133333 34.133333 0 1 1-68.266666 0v-204.8z m0 341.333333a34.133333 34.133333 0 1 1 68.266666 0 34.133333 34.133333 0 0 1-68.266666 0z" fill="#9A6700" p-id="7163"></path></svg>